<svg width="721" height="899" viewBox="0 0 721 899" fill="none" xmlns="http://www.w3.org/2000/svg">
<g opacity="0.2">
<path d="M50.9456 199.873L55.723 193.023C55.8741 192.781 55.9624 192.505 55.9797 192.22C55.9969 191.935 55.9427 191.651 55.8219 191.392C55.7011 191.133 55.5175 190.909 55.2879 190.739C55.0583 190.57 54.79 190.46 54.5072 190.421L46.1853 189.702C45.8935 189.679 45.6008 189.732 45.3352 189.855C45.0697 189.978 44.84 190.167 44.6683 190.404C44.4965 190.641 44.3884 190.918 44.3542 191.209C44.32 191.5 44.3609 191.794 44.473 192.065L48.0004 199.633C48.13 199.902 48.3278 200.133 48.574 200.302C48.8203 200.471 49.1065 200.573 49.4043 200.597C49.702 200.621 50.001 200.567 50.2713 200.44C50.5417 200.313 50.7742 200.117 50.9456 199.873Z" fill="#FFA6A9"/>
<path d="M45.4311 669.049L50.2085 662.2C50.3597 661.957 50.4479 661.681 50.4652 661.396C50.4825 661.111 50.4283 660.827 50.3074 660.568C50.1866 660.309 50.0031 660.085 49.7735 659.915C49.5439 659.746 49.2755 659.636 48.9928 659.597L40.6709 658.878C40.379 658.855 40.0864 658.908 39.8208 659.031C39.5552 659.154 39.3255 659.343 39.1538 659.58C38.9821 659.817 38.8739 660.094 38.8398 660.385C38.8056 660.676 38.8465 660.97 38.9586 661.241L42.4859 668.809C42.6155 669.078 42.8133 669.309 43.0596 669.478C43.3059 669.647 43.5921 669.749 43.8898 669.773C44.1876 669.797 44.4865 669.743 44.7569 669.616C45.0273 669.489 45.2597 669.294 45.4311 669.049Z" fill="#FFA6A9"/>
<path d="M530.018 199.388L534.796 192.538C534.947 192.296 535.035 192.02 535.052 191.735C535.07 191.45 535.015 191.166 534.895 190.907C534.774 190.648 534.59 190.424 534.361 190.254C534.131 190.085 533.863 189.975 533.58 189.936L525.258 189.217C524.966 189.194 524.673 189.247 524.408 189.37C524.142 189.493 523.913 189.682 523.741 189.919C523.569 190.156 523.461 190.433 523.427 190.724C523.393 191.015 523.434 191.309 523.546 191.58L527.073 199.148C527.203 199.417 527.4 199.648 527.647 199.817C527.893 199.986 528.179 200.088 528.477 200.112C528.775 200.136 529.074 200.082 529.344 199.955C529.614 199.828 529.847 199.632 530.018 199.388Z" fill="#FFA6A9"/>
<path d="M524.503 668.564L529.281 661.715C529.432 661.472 529.52 661.196 529.537 660.911C529.555 660.626 529.5 660.342 529.38 660.083C529.259 659.824 529.075 659.6 528.846 659.43C528.616 659.261 528.348 659.151 528.065 659.112L519.743 658.393C519.451 658.37 519.159 658.423 518.893 658.546C518.627 658.669 518.398 658.858 518.226 659.095C518.054 659.332 517.946 659.609 517.912 659.9C517.878 660.191 517.919 660.485 518.031 660.756L521.558 668.324C521.688 668.593 521.886 668.824 522.132 668.993C522.378 669.162 522.664 669.264 522.962 669.288C523.26 669.312 523.559 669.258 523.829 669.131C524.099 669.004 524.332 668.809 524.503 668.564Z" fill="#FFA6A9"/>
<path d="M126.596 215.061L119.609 210.472C119.363 210.327 119.085 210.247 118.8 210.237C118.515 210.227 118.232 210.289 117.977 210.417C117.721 210.544 117.502 210.734 117.339 210.968C117.175 211.201 117.073 211.472 117.041 211.756L116.561 220.112C116.56 220.397 116.63 220.677 116.765 220.928C116.9 221.179 117.095 221.393 117.333 221.549C117.571 221.705 117.845 221.8 118.128 221.824C118.412 221.848 118.698 221.801 118.959 221.687L126.424 217.92C126.671 217.779 126.879 217.579 127.028 217.337C127.178 217.096 127.266 216.82 127.283 216.537C127.3 216.253 127.246 215.97 127.126 215.712C127.006 215.454 126.824 215.23 126.596 215.061Z" fill="#FFA6A9"/>
<path d="M121.081 684.237L114.095 679.648C113.849 679.503 113.571 679.423 113.285 679.413C113 679.403 112.717 679.465 112.462 679.593C112.207 679.72 111.988 679.91 111.824 680.144C111.661 680.378 111.558 680.649 111.526 680.932L111.047 689.288C111.046 689.573 111.116 689.854 111.251 690.105C111.386 690.355 111.581 690.569 111.819 690.725C112.057 690.882 112.33 690.976 112.614 691C112.898 691.024 113.183 690.977 113.444 690.864L120.91 687.096C121.157 686.955 121.364 686.755 121.514 686.513C121.664 686.272 121.751 685.997 121.768 685.713C121.785 685.429 121.731 685.146 121.611 684.888C121.491 684.63 121.309 684.407 121.081 684.237Z" fill="#FFA6A9"/>
<path d="M605.668 214.576L598.682 209.987C598.436 209.842 598.158 209.762 597.873 209.752C597.588 209.742 597.305 209.804 597.049 209.932C596.794 210.059 596.575 210.249 596.411 210.483C596.248 210.716 596.146 210.987 596.114 211.271L595.634 219.627C595.633 219.912 595.703 220.192 595.838 220.443C595.973 220.694 596.168 220.908 596.406 221.064C596.644 221.22 596.917 221.315 597.201 221.339C597.485 221.363 597.77 221.316 598.031 221.202L605.497 217.435C605.744 217.294 605.951 217.094 606.101 216.852C606.251 216.611 606.338 216.336 606.355 216.052C606.372 215.768 606.318 215.485 606.199 215.227C606.079 214.969 605.896 214.745 605.668 214.576Z" fill="#FFA6A9"/>
<path d="M600.154 683.752L593.168 679.163C592.922 679.019 592.643 678.938 592.358 678.928C592.073 678.919 591.79 678.98 591.535 679.108C591.28 679.236 591.06 679.425 590.897 679.659C590.734 679.893 590.631 680.164 590.599 680.447L590.12 688.803C590.119 689.088 590.189 689.369 590.324 689.62C590.458 689.871 590.654 690.084 590.892 690.24C591.13 690.397 591.403 690.491 591.687 690.515C591.971 690.54 592.256 690.493 592.517 690.379L599.983 686.612C600.229 686.47 600.437 686.27 600.587 686.028C600.737 685.787 600.824 685.512 600.841 685.228C600.858 684.944 600.804 684.661 600.684 684.403C600.564 684.145 600.382 683.922 600.154 683.752Z" fill="#FFA6A9"/>
<path d="M-3.02669 130.558L3.82259 135.284C4.06669 135.431 4.34384 135.516 4.62888 135.529C4.91391 135.543 5.1978 135.485 5.4547 135.361C5.7116 135.236 5.93338 135.05 6.09991 134.818C6.26643 134.586 6.37239 134.317 6.40819 134.034L7.04177 125.695C7.06095 125.404 7.00578 125.114 6.88147 124.851C6.75716 124.587 6.5678 124.36 6.3313 124.191C6.09479 124.021 5.81892 123.914 5.52977 123.881C5.24062 123.847 4.94773 123.888 4.67875 123.999L-2.85545 127.63C-3.11667 127.767 -3.33796 127.969 -3.49786 128.217C-3.65776 128.466 -3.75085 128.751 -3.76808 129.045C-3.7853 129.34 -3.7261 129.634 -3.59621 129.899C-3.46631 130.164 -3.27012 130.391 -3.02669 130.558Z" fill="#FFA6A9"/>
<path d="M-8.54159 599.734L-1.6923 604.46C-1.4482 604.608 -1.17105 604.692 -0.886017 604.705C-0.600984 604.719 -0.317093 604.661 -0.0601912 604.537C0.196712 604.412 0.41849 604.226 0.585013 603.994C0.751536 603.763 0.857502 603.493 0.893297 603.21L1.52687 594.871C1.54606 594.58 1.49089 594.29 1.36658 594.027C1.24227 593.763 1.05291 593.536 0.816402 593.367C0.579894 593.197 0.304023 593.09 0.0148754 593.057C-0.274273 593.024 -0.567162 593.064 -0.836139 593.176L-8.37034 596.806C-8.63156 596.943 -8.85286 597.146 -9.01275 597.394C-9.17265 597.642 -9.26574 597.927 -9.28297 598.221C-9.3002 598.516 -9.24099 598.81 -9.1111 599.075C-8.9812 599.34 -8.78501 599.567 -8.54159 599.734Z" fill="#FFA6A9"/>
<path d="M476.046 130.073L482.895 134.799C483.139 134.946 483.416 135.031 483.701 135.044C483.986 135.058 484.27 135 484.527 134.876C484.784 134.751 485.006 134.565 485.172 134.333C485.339 134.101 485.445 133.832 485.48 133.549L486.114 125.21C486.133 124.919 486.078 124.629 485.954 124.366C485.829 124.102 485.64 123.875 485.403 123.706C485.167 123.536 484.891 123.429 484.602 123.396C484.313 123.362 484.02 123.403 483.751 123.515L476.217 127.145C475.956 127.282 475.734 127.484 475.574 127.733C475.414 127.981 475.321 128.266 475.304 128.56C475.287 128.855 475.346 129.149 475.476 129.414C475.606 129.679 475.802 129.906 476.046 130.073Z" fill="#FFA6A9"/>
<path d="M470.531 599.249L477.38 603.975C477.624 604.123 477.901 604.207 478.186 604.221C478.471 604.234 478.755 604.176 479.012 604.052C479.269 603.928 479.491 603.741 479.657 603.509C479.824 603.278 479.93 603.008 479.966 602.725L480.599 594.386C480.618 594.096 480.563 593.805 480.439 593.542C480.314 593.279 480.125 593.051 479.889 592.882C479.652 592.712 479.376 592.606 479.087 592.572C478.798 592.539 478.505 592.58 478.236 592.691L470.702 596.321C470.441 596.458 470.219 596.661 470.059 596.909C469.9 597.157 469.806 597.442 469.789 597.737C469.772 598.031 469.831 598.325 469.961 598.59C470.091 598.855 470.287 599.082 470.531 599.249Z" fill="#FFA6A9"/>
<path d="M241.51 446.224L237.708 438.776C237.567 438.527 237.364 438.317 237.12 438.166C236.876 438.016 236.599 437.929 236.312 437.913C236.026 437.898 235.74 437.955 235.482 438.079C235.223 438.202 235 438.389 234.832 438.622L230.277 445.642C230.132 445.891 230.052 446.172 230.044 446.459C230.036 446.747 230.101 447.032 230.232 447.288C230.364 447.544 230.557 447.762 230.796 447.924C231.034 448.085 231.309 448.184 231.595 448.211L239.952 448.639C240.237 448.638 240.518 448.566 240.769 448.429C241.019 448.292 241.232 448.095 241.387 447.855C241.542 447.615 241.634 447.34 241.656 447.055C241.677 446.77 241.627 446.485 241.51 446.224Z" fill="#FFA6A9"/>
<path d="M720.583 445.739L716.781 438.291C716.639 438.042 716.437 437.832 716.193 437.681C715.949 437.531 715.671 437.444 715.385 437.428C715.099 437.413 714.813 437.47 714.554 437.594C714.296 437.717 714.072 437.904 713.904 438.137L709.35 445.157C709.205 445.406 709.124 445.687 709.117 445.974C709.109 446.262 709.174 446.547 709.305 446.803C709.436 447.059 709.63 447.277 709.868 447.439C710.107 447.6 710.382 447.699 710.668 447.726L719.024 448.154C719.31 448.153 719.591 448.081 719.842 447.944C720.092 447.807 720.305 447.61 720.459 447.37C720.614 447.13 720.707 446.855 720.728 446.57C720.75 446.285 720.7 446 720.583 445.739Z" fill="#FFA6A9"/>
<path d="M234.335 116.037L235.38 107.732C235.397 107.449 235.343 107.166 235.223 106.908C235.104 106.65 234.922 106.427 234.694 106.257C234.467 106.087 234.201 105.976 233.92 105.935C233.639 105.894 233.352 105.923 233.085 106.02L225.38 109.256C225.121 109.38 224.897 109.567 224.729 109.799C224.561 110.032 224.454 110.303 224.418 110.588C224.383 110.873 224.419 111.162 224.524 111.429C224.629 111.696 224.8 111.932 225.02 112.116L231.681 117.253C231.924 117.416 232.205 117.514 232.497 117.538C232.789 117.561 233.082 117.51 233.348 117.388C233.614 117.266 233.845 117.078 234.018 116.841C234.191 116.605 234.3 116.328 234.335 116.037Z" fill="#FFA6A9"/>
<path d="M228.821 585.213L229.865 576.908C229.882 576.625 229.828 576.342 229.709 576.084C229.589 575.827 229.408 575.603 229.18 575.433C228.952 575.263 228.686 575.153 228.405 575.111C228.124 575.07 227.837 575.099 227.571 575.196L219.865 578.432C219.606 578.556 219.382 578.743 219.215 578.975C219.047 579.208 218.94 579.479 218.904 579.764C218.868 580.049 218.905 580.338 219.01 580.605C219.115 580.872 219.285 581.108 219.505 581.292L226.166 586.429C226.41 586.592 226.691 586.69 226.982 586.714C227.274 586.738 227.567 586.686 227.834 586.564C228.1 586.442 228.331 586.254 228.503 586.017C228.676 585.781 228.785 585.504 228.821 585.213Z" fill="#FFA6A9"/>
<path d="M713.408 115.552L714.452 107.247C714.469 106.964 714.416 106.681 714.296 106.423C714.176 106.166 713.995 105.942 713.767 105.772C713.539 105.602 713.273 105.491 712.992 105.45C712.711 105.409 712.425 105.438 712.158 105.535L704.452 108.771C704.193 108.895 703.97 109.082 703.802 109.314C703.634 109.547 703.527 109.818 703.491 110.103C703.455 110.388 703.492 110.677 703.597 110.944C703.702 111.211 703.872 111.447 704.093 111.631L710.754 116.768C710.997 116.931 711.278 117.029 711.57 117.053C711.862 117.076 712.155 117.025 712.421 116.903C712.687 116.781 712.918 116.593 713.09 116.356C713.263 116.12 713.372 115.843 713.408 115.552Z" fill="#FFA6A9"/>
<path d="M707.893 584.728L708.938 576.424C708.955 576.14 708.901 575.857 708.782 575.599C708.662 575.342 708.48 575.118 708.253 574.948C708.025 574.778 707.759 574.668 707.478 574.626C707.197 574.585 706.91 574.614 706.643 574.711L698.938 577.948C698.679 578.071 698.455 578.258 698.287 578.491C698.119 578.723 698.013 578.994 697.977 579.279C697.941 579.564 697.977 579.853 698.082 580.12C698.187 580.387 698.358 580.623 698.578 580.807L705.239 585.944C705.482 586.107 705.763 586.205 706.055 586.229C706.347 586.253 706.64 586.201 706.907 586.079C707.173 585.957 707.403 585.769 707.576 585.532C707.749 585.296 707.858 585.019 707.893 584.728Z" fill="#FFA6A9"/>
<path d="M120.568 152.989L120.414 144.547C120.392 144.265 120.301 143.992 120.148 143.754C119.995 143.515 119.785 143.318 119.538 143.181C119.29 143.043 119.012 142.97 118.728 142.966C118.445 142.962 118.165 143.029 117.914 143.16L110.74 147.475C110.499 147.631 110.302 147.844 110.165 148.095C110.028 148.346 109.956 148.628 109.956 148.914C109.956 149.2 110.028 149.481 110.165 149.733C110.302 149.984 110.499 150.197 110.74 150.352L118.068 154.393C118.321 154.525 118.602 154.591 118.886 154.587C119.171 154.582 119.45 154.507 119.698 154.368C119.946 154.228 120.156 154.029 120.308 153.789C120.46 153.548 120.549 153.273 120.568 152.989Z" fill="#FFA6A9"/>
<path d="M115.054 622.165L114.9 613.724C114.878 613.441 114.787 613.168 114.634 612.93C114.481 612.691 114.271 612.495 114.023 612.357C113.775 612.22 113.497 612.146 113.214 612.142C112.931 612.139 112.651 612.205 112.4 612.337L105.225 616.652C104.985 616.807 104.787 617.02 104.65 617.271C104.514 617.522 104.442 617.804 104.442 618.09C104.442 618.376 104.514 618.658 104.65 618.909C104.787 619.16 104.985 619.373 105.225 619.528L112.554 623.569C112.806 623.701 113.087 623.768 113.372 623.763C113.657 623.759 113.936 623.683 114.184 623.544C114.432 623.405 114.641 623.206 114.793 622.965C114.945 622.724 115.035 622.449 115.054 622.165Z" fill="#FFA6A9"/>
<path d="M599.641 152.504L599.487 144.062C599.465 143.78 599.374 143.507 599.221 143.269C599.068 143.03 598.858 142.833 598.61 142.696C598.362 142.558 598.084 142.485 597.801 142.481C597.518 142.478 597.238 142.544 596.987 142.675L589.812 146.991C589.572 147.146 589.374 147.359 589.237 147.61C589.101 147.861 589.029 148.143 589.029 148.429C589.029 148.715 589.101 148.997 589.237 149.248C589.374 149.499 589.572 149.712 589.812 149.867L597.141 153.908C597.393 154.04 597.675 154.106 597.959 154.102C598.244 154.098 598.523 154.022 598.771 153.883C599.019 153.743 599.229 153.544 599.38 153.304C599.532 153.063 599.622 152.788 599.641 152.504Z" fill="#FFA6A9"/>
<path d="M594.126 621.68L593.972 613.239C593.951 612.956 593.859 612.683 593.706 612.445C593.553 612.206 593.344 612.01 593.096 611.872C592.848 611.735 592.57 611.661 592.287 611.657C592.003 611.654 591.724 611.721 591.472 611.852L584.298 616.167C584.057 616.322 583.86 616.535 583.723 616.786C583.586 617.038 583.515 617.319 583.515 617.605C583.515 617.891 583.586 618.173 583.723 618.424C583.86 618.675 584.057 618.888 584.298 619.044L591.627 623.085C591.879 623.216 592.16 623.283 592.445 623.278C592.729 623.274 593.008 623.199 593.256 623.059C593.505 622.92 593.714 622.721 593.866 622.48C594.018 622.239 594.107 621.964 594.126 621.68Z" fill="#FFA6A9"/>
<path d="M171.527 428.45L166.236 434.94C166.067 435.171 165.958 435.44 165.92 435.724C165.881 436.008 165.915 436.297 166.017 436.564C166.119 436.832 166.287 437.069 166.505 437.255C166.722 437.441 166.983 437.569 167.263 437.628L175.517 438.964C175.801 438.995 176.087 438.954 176.352 438.846C176.616 438.737 176.848 438.565 177.029 438.344C177.209 438.123 177.331 437.86 177.384 437.579C177.437 437.299 177.419 437.01 177.332 436.738L174.352 428.913C174.237 428.653 174.059 428.427 173.834 428.253C173.609 428.08 173.345 427.965 173.065 427.919C172.784 427.873 172.497 427.898 172.229 427.99C171.96 428.083 171.719 428.241 171.527 428.45Z" fill="#FFA6A9"/>
<path d="M650.599 427.965L645.308 434.455C645.139 434.686 645.03 434.956 644.992 435.239C644.954 435.523 644.987 435.812 645.09 436.079C645.192 436.347 645.359 436.584 645.577 436.77C645.795 436.956 646.056 437.084 646.336 437.143L654.589 438.479C654.873 438.51 655.16 438.469 655.424 438.361C655.688 438.253 655.921 438.08 656.101 437.859C656.281 437.638 656.404 437.375 656.457 437.094C656.509 436.814 656.492 436.525 656.404 436.253L653.425 428.428C653.309 428.168 653.131 427.942 652.906 427.768C652.682 427.595 652.417 427.48 652.137 427.434C651.857 427.388 651.569 427.413 651.301 427.506C651.033 427.598 650.792 427.756 650.599 427.965Z" fill="#FFA6A9"/>
<path d="M68.6681 25.4552L74.7982 19.7531C74.9986 19.5476 75.1441 19.2951 75.2214 19.0187C75.2986 18.7422 75.3052 18.4508 75.2404 18.1712C75.1756 17.8916 75.0416 17.6328 74.8506 17.4185C74.6597 17.2042 74.4179 17.0414 74.1476 16.9449L66.151 14.4963C65.8727 14.4255 65.5812 14.4259 65.3031 14.4973C65.025 14.5687 64.7692 14.7089 64.5595 14.905C64.3498 15.1011 64.1927 15.3468 64.1028 15.6195C64.0129 15.8922 63.9929 16.1831 64.0449 16.4655L65.9284 24.6161C66.0077 24.8892 66.1537 25.1382 66.3532 25.3408C66.5528 25.5433 66.7996 25.6929 67.0715 25.7762C67.3434 25.8594 67.6317 25.8737 67.9104 25.8177C68.1892 25.7616 68.4496 25.637 68.6681 25.4552Z" fill="#FFA6A9"/>
<path d="M63.1537 494.631L69.2838 488.929C69.4842 488.724 69.6297 488.471 69.7069 488.195C69.7842 487.918 69.7907 487.627 69.7259 487.347C69.6612 487.068 69.5271 486.809 69.3362 486.595C69.1452 486.38 68.9035 486.218 68.6331 486.121L60.6366 483.672C60.3583 483.602 60.0667 483.602 59.7886 483.673C59.5105 483.745 59.2548 483.885 59.045 484.081C58.8353 484.277 58.6783 484.523 58.5883 484.796C58.4984 485.068 58.4785 485.359 58.5304 485.642L60.414 493.792C60.4932 494.065 60.6392 494.314 60.8388 494.517C61.0383 494.719 61.2852 494.869 61.557 494.952C61.8289 495.036 62.1172 495.05 62.396 494.994C62.6747 494.938 62.9351 494.813 63.1537 494.631Z" fill="#FFA6A9"/>
<path d="M547.741 24.9703L553.871 19.2683C554.071 19.0628 554.217 18.8102 554.294 18.5338C554.371 18.2574 554.378 17.966 554.313 17.6863C554.248 17.4067 554.114 17.1479 553.923 16.9336C553.732 16.7193 553.491 16.5565 553.22 16.4601L545.224 14.0115C544.945 13.9407 544.654 13.941 544.376 14.0124C544.098 14.0839 543.842 14.2241 543.632 14.4202C543.422 14.6163 543.265 14.8619 543.175 15.1346C543.086 15.4073 543.066 15.6982 543.118 15.9806L545.001 24.1313C545.08 24.4043 545.226 24.6534 545.426 24.8559C545.625 25.0584 545.872 25.2081 546.144 25.2913C546.416 25.3746 546.704 25.3888 546.983 25.3328C547.262 25.2767 547.522 25.1522 547.741 24.9703Z" fill="#FFA6A9"/>
<path d="M542.226 494.146L548.356 488.444C548.556 488.239 548.702 487.986 548.779 487.71C548.856 487.434 548.863 487.142 548.798 486.862C548.733 486.583 548.599 486.324 548.408 486.11C548.217 485.895 547.976 485.733 547.705 485.636L539.709 483.188C539.431 483.117 539.139 483.117 538.861 483.189C538.583 483.26 538.327 483.4 538.117 483.596C537.908 483.792 537.75 484.038 537.661 484.311C537.571 484.583 537.551 484.874 537.603 485.157L539.486 493.307C539.565 493.58 539.711 493.83 539.911 494.032C540.111 494.235 540.357 494.384 540.629 494.467C540.901 494.551 541.189 494.565 541.468 494.509C541.747 494.453 542.007 494.328 542.226 494.146Z" fill="#FFA6A9"/>
<path d="M164.404 304.495L156.664 301.293C156.398 301.2 156.113 301.173 155.835 301.217C155.556 301.26 155.292 301.371 155.067 301.54C154.842 301.71 154.662 301.932 154.543 302.188C154.424 302.443 154.371 302.724 154.387 303.006L155.483 311.293C155.535 311.574 155.657 311.837 155.836 312.058C156.016 312.28 156.248 312.453 156.512 312.561C156.776 312.67 157.063 312.712 157.346 312.681C157.63 312.651 157.902 312.551 158.137 312.389L164.78 307.252C164.978 307.065 165.128 306.834 165.218 306.577C165.308 306.321 165.336 306.047 165.3 305.777C165.263 305.508 165.162 305.251 165.006 305.028C164.851 304.805 164.644 304.623 164.404 304.495Z" fill="#FFA6A9"/>
<path d="M158.889 773.672L151.15 770.469C150.884 770.376 150.599 770.35 150.32 770.393C150.042 770.436 149.778 770.547 149.553 770.716C149.327 770.886 149.147 771.108 149.029 771.364C148.91 771.619 148.856 771.9 148.872 772.182L149.968 780.469C150.02 780.75 150.142 781.013 150.322 781.234C150.502 781.456 150.734 781.629 150.998 781.738C151.261 781.846 151.548 781.888 151.832 781.858C152.115 781.828 152.387 781.727 152.622 781.565L159.266 776.428C159.463 776.241 159.613 776.01 159.704 775.754C159.794 775.497 159.822 775.223 159.785 774.953C159.748 774.684 159.648 774.427 159.492 774.204C159.336 773.981 159.13 773.799 158.889 773.672Z" fill="#FFA6A9"/>
<path d="M643.476 304.01L635.737 300.808C635.471 300.715 635.186 300.688 634.907 300.732C634.629 300.775 634.365 300.886 634.14 301.055C633.915 301.225 633.735 301.447 633.616 301.703C633.497 301.958 633.443 302.239 633.459 302.521L634.555 310.808C634.608 311.089 634.729 311.352 634.909 311.573C635.089 311.795 635.321 311.968 635.585 312.076C635.849 312.185 636.135 312.227 636.419 312.196C636.703 312.166 636.974 312.066 637.209 311.904L643.853 306.767C644.051 306.58 644.201 306.349 644.291 306.092C644.381 305.836 644.409 305.562 644.372 305.292C644.335 305.023 644.235 304.766 644.079 304.543C643.923 304.32 643.717 304.138 643.476 304.01Z" fill="#FFA6A9"/>
<path d="M637.962 773.187L630.222 769.985C629.956 769.891 629.671 769.865 629.393 769.908C629.114 769.951 628.851 770.062 628.625 770.231C628.4 770.401 628.22 770.623 628.101 770.879C627.983 771.134 627.929 771.415 627.945 771.697L629.041 779.985C629.093 780.265 629.215 780.528 629.395 780.749C629.574 780.971 629.807 781.144 630.07 781.253C630.334 781.362 630.621 781.403 630.904 781.373C631.188 781.343 631.46 781.242 631.695 781.08L638.339 775.943C638.536 775.756 638.686 775.525 638.776 775.269C638.867 775.012 638.895 774.738 638.858 774.468C638.821 774.199 638.72 773.942 638.565 773.719C638.409 773.496 638.202 773.314 637.962 773.187Z" fill="#FFA6A9"/>
<path d="M373.443 320.877L374.351 329.198C374.396 329.479 374.511 329.745 374.685 329.97C374.859 330.195 375.086 330.374 375.346 330.49C375.606 330.605 375.891 330.654 376.174 330.632C376.458 330.61 376.732 330.517 376.971 330.363L383.717 325.431C383.94 325.253 384.115 325.021 384.225 324.757C384.335 324.494 384.378 324.207 384.349 323.922C384.32 323.638 384.221 323.366 384.059 323.13C383.898 322.894 383.681 322.702 383.426 322.572L375.772 319.147C375.502 319.042 375.21 319.007 374.922 319.046C374.635 319.084 374.362 319.195 374.13 319.368C373.897 319.541 373.712 319.77 373.592 320.034C373.472 320.298 373.421 320.588 373.443 320.877Z" fill="#FFA6A9"/>
<path d="M367.929 790.053L368.836 798.375C368.882 798.656 368.996 798.921 369.17 799.146C369.344 799.372 369.571 799.55 369.831 799.666C370.091 799.781 370.376 799.83 370.659 799.808C370.943 799.786 371.217 799.694 371.456 799.539L378.202 794.608C378.425 794.429 378.6 794.197 378.71 793.933C378.821 793.67 378.863 793.383 378.834 793.099C378.805 792.814 378.706 792.542 378.545 792.306C378.383 792.07 378.166 791.878 377.911 791.748L370.257 788.323C369.987 788.218 369.695 788.183 369.407 788.222C369.12 788.26 368.847 788.371 368.615 788.544C368.382 788.717 368.197 788.946 368.077 789.21C367.957 789.474 367.906 789.764 367.929 790.053Z" fill="#FFA6A9"/>
<path d="M469.693 265.312L465.326 258.172C465.164 257.936 464.945 257.744 464.69 257.615C464.435 257.485 464.151 257.422 463.865 257.43C463.579 257.439 463.299 257.519 463.052 257.664C462.805 257.808 462.598 258.012 462.45 258.257L458.46 265.637C458.337 265.895 458.281 266.18 458.296 266.465C458.311 266.751 458.398 267.028 458.547 267.271C458.697 267.515 458.906 267.717 459.154 267.859C459.401 268.001 459.681 268.079 459.967 268.086L468.323 267.863C468.611 267.843 468.89 267.75 469.133 267.593C469.375 267.436 469.574 267.22 469.711 266.965C469.848 266.71 469.918 266.425 469.915 266.136C469.912 265.847 469.835 265.564 469.693 265.312Z" fill="#FFA6A9"/>
<path d="M464.178 734.488L459.812 727.348C459.649 727.112 459.43 726.92 459.175 726.791C458.92 726.662 458.636 726.598 458.35 726.607C458.064 726.615 457.784 726.695 457.537 726.84C457.29 726.984 457.083 727.188 456.935 727.433L452.945 734.814C452.822 735.072 452.766 735.356 452.781 735.642C452.796 735.927 452.883 736.204 453.033 736.448C453.182 736.691 453.391 736.893 453.639 737.035C453.887 737.178 454.166 737.256 454.452 737.262L462.808 737.04C463.096 737.019 463.375 736.926 463.618 736.769C463.86 736.612 464.06 736.396 464.196 736.141C464.333 735.887 464.403 735.602 464.4 735.312C464.397 735.023 464.32 734.74 464.178 734.488Z" fill="#FFA6A9"/>
<path d="M164.147 15.0957L168.068 7.71555C168.188 7.45694 168.241 7.17252 168.224 6.8881C168.206 6.60367 168.117 6.32824 167.965 6.08675C167.814 5.84527 167.605 5.64539 167.357 5.50522C167.109 5.36505 166.829 5.28903 166.544 5.28406L158.171 5.57515C157.888 5.60209 157.616 5.69904 157.38 5.85726C157.144 6.01547 156.951 6.22997 156.819 6.48141C156.686 6.73285 156.618 7.01333 156.621 7.29754C156.624 7.58175 156.698 7.86075 156.836 8.10939L161.356 15.1984C161.522 15.4155 161.738 15.5895 161.986 15.706C162.233 15.8225 162.505 15.878 162.778 15.868C163.052 15.8579 163.318 15.7825 163.557 15.6482C163.795 15.5138 163.997 15.3244 164.147 15.0957Z" fill="#FFA6A9"/>
<path d="M158.632 484.272L162.554 476.892C162.673 476.633 162.727 476.349 162.709 476.064C162.691 475.78 162.602 475.505 162.451 475.263C162.299 475.022 162.09 474.822 161.842 474.681C161.594 474.541 161.315 474.465 161.03 474.46L152.656 474.751C152.373 474.778 152.102 474.875 151.865 475.034C151.629 475.192 151.436 475.406 151.304 475.658C151.171 475.909 151.103 476.19 151.106 476.474C151.109 476.758 151.183 477.037 151.321 477.286L155.841 484.375C156.008 484.592 156.224 484.766 156.471 484.882C156.718 484.999 156.99 485.054 157.263 485.044C157.537 485.034 157.804 484.959 158.042 484.824C158.28 484.69 158.482 484.501 158.632 484.272Z" fill="#FFA6A9"/>
<path d="M643.219 14.6108L647.141 7.23069C647.26 6.97207 647.314 6.68766 647.296 6.40324C647.278 6.11881 647.189 5.84337 647.038 5.60189C646.886 5.36041 646.677 5.16052 646.429 5.02035C646.181 4.88019 645.902 4.80417 645.617 4.79919L637.243 5.09029C636.961 5.11723 636.689 5.21418 636.453 5.37239C636.217 5.53061 636.023 5.74511 635.891 5.99655C635.758 6.24799 635.691 6.52846 635.694 6.81267C635.697 7.09688 635.77 7.37589 635.908 7.62452L640.428 14.7135C640.595 14.9306 640.811 15.1046 641.058 15.2211C641.306 15.3376 641.577 15.3932 641.85 15.3831C642.124 15.373 642.391 15.2977 642.629 15.1633C642.867 15.0289 643.07 14.8395 643.219 14.6108Z" fill="#FFA6A9"/>
<path d="M637.705 483.787L641.626 476.407C641.746 476.148 641.799 475.864 641.781 475.579C641.763 475.295 641.674 475.02 641.523 474.778C641.372 474.537 641.162 474.337 640.914 474.197C640.666 474.056 640.387 473.98 640.102 473.975L631.729 474.266C631.446 474.293 631.174 474.39 630.938 474.549C630.702 474.707 630.509 474.921 630.376 475.173C630.244 475.424 630.176 475.705 630.179 475.989C630.182 476.273 630.255 476.552 630.393 476.801L634.914 483.89C635.08 484.107 635.296 484.281 635.543 484.397C635.791 484.514 636.062 484.569 636.336 484.559C636.609 484.549 636.876 484.474 637.114 484.339C637.352 484.205 637.555 484.016 637.705 483.787Z" fill="#FFA6A9"/>
<path d="M293.581 50.2784L288.255 43.8401C288.063 43.631 287.822 43.4729 287.554 43.3802C287.285 43.2874 286.998 43.2629 286.718 43.3087C286.438 43.3546 286.173 43.4694 285.949 43.6429C285.724 43.8163 285.546 44.043 285.43 44.3024L282.553 52.1448C282.474 52.4067 282.458 52.6839 282.508 52.9531C282.557 53.2223 282.671 53.4757 282.838 53.6921C283.006 53.9084 283.223 54.0814 283.472 54.1966C283.72 54.3117 283.992 54.3656 284.266 54.3537L292.502 52.9839C292.789 52.9332 293.059 52.81 293.285 52.6258C293.512 52.4417 293.687 52.2028 293.795 51.9318C293.903 51.6607 293.94 51.3666 293.903 51.0772C293.865 50.7878 293.754 50.5129 293.581 50.2784Z" fill="#FFA6A9"/>
<path d="M288.066 519.455L282.741 513.016C282.549 512.807 282.307 512.649 282.039 512.556C281.771 512.464 281.483 512.439 281.203 512.485C280.923 512.531 280.659 512.646 280.434 512.819C280.209 512.992 280.031 513.219 279.915 513.479L277.039 521.321C276.959 521.583 276.943 521.86 276.993 522.129C277.042 522.398 277.156 522.652 277.324 522.868C277.491 523.085 277.708 523.258 277.957 523.373C278.205 523.488 278.477 523.542 278.751 523.53L286.987 522.16C287.275 522.109 287.544 521.986 287.771 521.802C287.997 521.618 288.172 521.379 288.28 521.108C288.389 520.837 288.426 520.543 288.388 520.253C288.35 519.964 288.24 519.689 288.066 519.455Z" fill="#FFA6A9"/>
<path d="M61.2196 102.459L66.3565 109.068C66.5434 109.283 66.781 109.449 67.0478 109.549C67.3146 109.649 67.6022 109.681 67.8845 109.642C68.1668 109.603 68.4348 109.494 68.6644 109.325C68.8939 109.156 69.0777 108.932 69.199 108.674L72.3154 100.935C72.4089 100.669 72.4352 100.384 72.3922 100.105C72.3491 99.8267 72.238 99.5631 72.0686 99.3378C71.8992 99.1125 71.6768 98.9325 71.4211 98.8138C71.1655 98.6951 70.8845 98.6413 70.6031 98.6573L62.3154 99.8045C62.035 99.857 61.7721 99.9786 61.5506 100.158C61.3292 100.338 61.1562 100.571 61.0473 100.834C60.9384 101.098 60.8971 101.385 60.9272 101.668C60.9573 101.952 61.0578 102.224 61.2196 102.459Z" fill="#FFA6A9"/>
<path d="M55.7047 571.635L60.8416 578.244C61.0285 578.46 61.2661 578.625 61.5329 578.725C61.7997 578.825 62.0873 578.857 62.3696 578.818C62.6519 578.779 62.9199 578.67 63.1495 578.501C63.379 578.332 63.5628 578.109 63.6841 577.851L66.8005 570.111C66.894 569.845 66.9203 569.56 66.8773 569.282C66.8342 569.003 66.7231 568.739 66.5537 568.514C66.3843 568.289 66.1619 568.109 65.9062 567.99C65.6506 567.871 65.3696 567.818 65.0882 567.834L56.8005 568.981C56.5201 569.033 56.2572 569.155 56.0358 569.335C55.8143 569.515 55.6413 569.747 55.5324 570.01C55.4235 570.274 55.3822 570.561 55.4123 570.845C55.4424 571.128 55.5429 571.4 55.7047 571.635Z" fill="#FFA6A9"/>
<path d="M540.292 101.974L545.429 108.583C545.616 108.798 545.853 108.964 546.12 109.064C546.387 109.164 546.674 109.196 546.957 109.157C547.239 109.118 547.507 109.009 547.737 108.84C547.966 108.671 548.15 108.447 548.271 108.189L551.388 100.45C551.481 100.184 551.507 99.8989 551.464 99.6203C551.421 99.3418 551.31 99.0781 551.141 98.8528C550.971 98.6275 550.749 98.4476 550.493 98.3288C550.238 98.2101 549.957 98.1564 549.675 98.1723L541.388 99.3196C541.107 99.372 540.844 99.4936 540.623 99.6734C540.401 99.8532 540.228 100.086 540.119 100.349C540.011 100.613 539.969 100.9 539.999 101.183C540.029 101.467 540.13 101.739 540.292 101.974Z" fill="#FFA6A9"/>
<path d="M534.777 571.15L539.914 577.759C540.101 577.975 540.339 578.14 540.606 578.24C540.872 578.34 541.16 578.372 541.442 578.333C541.725 578.294 541.993 578.185 542.222 578.016C542.452 577.847 542.635 577.624 542.757 577.366L545.873 569.626C545.967 569.36 545.993 569.075 545.95 568.797C545.907 568.518 545.796 568.254 545.626 568.029C545.457 567.804 545.235 567.624 544.979 567.505C544.723 567.386 544.442 567.333 544.161 567.349L535.873 568.496C535.593 568.548 535.33 568.67 535.108 568.85C534.887 569.03 534.714 569.262 534.605 569.525C534.496 569.789 534.455 570.076 534.485 570.36C534.515 570.643 534.616 570.915 534.777 571.15Z" fill="#FFA6A9"/>
<path d="M391.406 27.2479L393.632 35.313C393.723 35.5824 393.879 35.8249 394.088 36.0186C394.296 36.2123 394.549 36.3512 394.824 36.4225C395.099 36.4939 395.388 36.4956 395.664 36.4274C395.94 36.3593 396.195 36.2234 396.406 36.0321L402.279 30.0733C402.469 29.8593 402.603 29.6011 402.668 29.322C402.733 29.043 402.727 28.7522 402.65 28.4762C402.573 28.2002 402.429 27.9478 402.229 27.7422C402.03 27.5366 401.782 27.3843 401.508 27.2993L393.409 25.1932C393.129 25.1378 392.84 25.1531 392.568 25.2376C392.296 25.3222 392.049 25.4734 391.85 25.6775C391.651 25.8815 391.506 26.1321 391.429 26.4063C391.351 26.6805 391.343 26.9698 391.406 27.2479Z" fill="#FFA6A9"/>
<path d="M385.891 496.424L388.117 504.489C388.208 504.759 388.364 505.001 388.573 505.195C388.781 505.389 389.034 505.527 389.309 505.599C389.585 505.67 389.873 505.672 390.149 505.604C390.425 505.536 390.68 505.4 390.891 505.208L396.764 499.25C396.954 499.036 397.088 498.777 397.153 498.498C397.218 498.219 397.212 497.928 397.135 497.652C397.058 497.376 396.914 497.124 396.714 496.918C396.515 496.713 396.267 496.561 395.993 496.476L387.894 494.369C387.615 494.314 387.326 494.329 387.053 494.414C386.781 494.498 386.534 494.65 386.335 494.854C386.136 495.058 385.992 495.308 385.914 495.583C385.836 495.857 385.828 496.146 385.891 496.424Z" fill="#FFA6A9"/>
<path d="M455.258 189.285H446.902C446.616 189.297 446.337 189.381 446.092 189.528C445.847 189.676 445.642 189.882 445.498 190.129C445.353 190.376 445.272 190.656 445.263 190.942C445.254 191.228 445.317 191.512 445.446 191.768L449.59 199.028C449.745 199.268 449.958 199.466 450.21 199.603C450.461 199.739 450.742 199.811 451.029 199.811C451.315 199.811 451.596 199.739 451.847 199.603C452.099 199.466 452.312 199.268 452.467 199.028L456.679 191.819C456.819 191.564 456.892 191.278 456.89 190.987C456.889 190.697 456.814 190.411 456.672 190.158C456.529 189.904 456.325 189.691 456.078 189.538C455.83 189.385 455.548 189.298 455.258 189.285Z" fill="#FFD584"/>
<path d="M449.744 658.461H441.387C441.101 658.473 440.823 658.557 440.578 658.704C440.332 658.852 440.128 659.059 439.983 659.306C439.838 659.553 439.758 659.832 439.749 660.118C439.74 660.404 439.803 660.688 439.932 660.944L444.076 668.204C444.231 668.444 444.444 668.642 444.695 668.779C444.946 668.916 445.228 668.987 445.514 668.987C445.8 668.987 446.082 668.916 446.333 668.779C446.584 668.642 446.797 668.444 446.952 668.204L451.165 660.995C451.305 660.74 451.377 660.454 451.376 660.164C451.375 659.873 451.299 659.587 451.157 659.334C451.015 659.08 450.811 658.867 450.563 658.714C450.316 658.562 450.034 658.475 449.744 658.461Z" fill="#FFD584"/>
<path d="M58.6168 261.499L52.9319 267.629C52.75 267.848 52.6254 268.108 52.5694 268.387C52.5133 268.666 52.5276 268.954 52.6109 269.226C52.6941 269.498 52.8438 269.744 53.0463 269.944C53.2488 270.144 53.4978 270.29 53.7709 270.369L61.9216 272.235C62.2027 272.284 62.4915 272.261 62.7618 272.17C63.0321 272.079 63.2752 271.921 63.4692 271.712C63.6631 271.503 63.8017 271.248 63.8723 270.972C63.943 270.695 63.9434 270.406 63.8736 270.129L61.4079 262.133C61.3084 261.867 61.1444 261.63 60.9306 261.443C60.7168 261.256 60.46 261.126 60.1832 261.063C59.9064 261 59.6184 261.007 59.3449 261.083C59.0715 261.159 58.8213 261.302 58.6168 261.499Z" fill="#FFD584"/>
<path d="M53.1019 730.675L47.417 736.805C47.2351 737.024 47.1106 737.284 47.0545 737.563C46.9985 737.842 47.0127 738.13 47.096 738.402C47.1793 738.674 47.3289 738.921 47.5314 739.12C47.734 739.32 47.983 739.466 48.256 739.545L56.4067 741.411C56.6878 741.46 56.9767 741.438 57.2469 741.346C57.5172 741.255 57.7604 741.097 57.9543 740.888C58.1483 740.679 58.2869 740.424 58.3575 740.148C58.4281 739.872 58.4286 739.582 58.3588 739.305L55.893 731.309C55.7935 731.043 55.6295 730.806 55.4157 730.619C55.202 730.432 54.9452 730.302 54.6684 730.239C54.3916 730.176 54.1035 730.183 53.8301 730.259C53.5567 730.335 53.3064 730.478 53.1019 730.675Z" fill="#FFD584"/>
<path d="M537.689 261.014L532.004 267.144C531.822 267.363 531.698 267.623 531.642 267.902C531.586 268.181 531.6 268.469 531.683 268.741C531.766 269.013 531.916 269.259 532.119 269.459C532.321 269.659 532.57 269.805 532.843 269.884L540.994 271.75C541.275 271.799 541.564 271.776 541.834 271.685C542.104 271.594 542.347 271.436 542.541 271.227C542.735 271.018 542.874 270.763 542.945 270.487C543.015 270.21 543.016 269.921 542.946 269.644L540.48 261.648C540.381 261.382 540.217 261.145 540.003 260.958C539.789 260.771 539.532 260.641 539.255 260.578C538.979 260.515 538.691 260.522 538.417 260.598C538.144 260.674 537.894 260.817 537.689 261.014Z" fill="#FFD584"/>
<path d="M532.175 730.19L526.49 736.32C526.308 736.539 526.183 736.799 526.127 737.078C526.071 737.357 526.085 737.645 526.169 737.917C526.252 738.189 526.402 738.436 526.604 738.635C526.807 738.835 527.056 738.981 527.329 739.06L535.479 740.927C535.76 740.975 536.049 740.953 536.32 740.861C536.59 740.77 536.833 740.612 537.027 740.403C537.221 740.194 537.359 739.94 537.43 739.663C537.501 739.387 537.501 739.097 537.431 738.82L534.966 730.824C534.866 730.558 534.702 730.321 534.488 730.134C534.275 729.948 534.018 729.817 533.741 729.754C533.464 729.691 533.176 729.698 532.903 729.774C532.629 729.851 532.379 729.993 532.175 730.19Z" fill="#FFD584"/>
<path d="M281.046 419.164L272.707 418.531C272.42 418.522 272.136 418.586 271.88 418.716C271.624 418.846 271.405 419.039 271.243 419.276C271.081 419.513 270.981 419.787 270.953 420.073C270.925 420.358 270.968 420.646 271.081 420.911L274.694 428.445C274.831 428.697 275.029 428.911 275.271 429.066C275.512 429.222 275.789 429.314 276.076 429.335C276.362 429.355 276.649 429.303 276.91 429.183C277.172 429.064 277.399 428.881 277.57 428.65L282.279 421.801C282.439 421.557 282.533 421.276 282.554 420.986C282.574 420.695 282.52 420.403 282.397 420.139C282.273 419.875 282.084 419.647 281.848 419.476C281.612 419.306 281.336 419.198 281.046 419.164Z" fill="#FFD584"/>
<path d="M275.531 888.34L267.192 887.707C266.905 887.698 266.621 887.762 266.365 887.892C266.109 888.023 265.89 888.215 265.728 888.452C265.566 888.689 265.467 888.963 265.438 889.249C265.41 889.534 265.454 889.823 265.566 890.087L269.179 897.621C269.316 897.873 269.514 898.087 269.756 898.243C269.998 898.398 270.274 898.49 270.561 898.511C270.847 898.531 271.134 898.479 271.396 898.36C271.657 898.24 271.884 898.057 272.055 897.827L276.764 890.977C276.924 890.733 277.018 890.452 277.039 890.162C277.059 889.871 277.005 889.58 276.882 889.316C276.758 889.051 276.57 888.823 276.333 888.653C276.097 888.482 275.821 888.374 275.531 888.34Z" fill="#FFD584"/>
<path d="M445.343 429.883L451.371 435.705C451.586 435.892 451.844 436.021 452.122 436.083C452.4 436.144 452.689 436.136 452.962 436.057C453.236 435.979 453.486 435.834 453.689 435.635C453.893 435.436 454.043 435.189 454.128 434.917L456.148 426.801C456.203 426.522 456.188 426.233 456.104 425.96C456.019 425.688 455.868 425.441 455.664 425.242C455.46 425.043 455.209 424.899 454.935 424.821C454.661 424.743 454.371 424.735 454.093 424.798L446.045 427.109C445.777 427.202 445.537 427.36 445.345 427.569C445.153 427.779 445.016 428.032 444.946 428.307C444.877 428.582 444.877 428.87 444.946 429.145C445.015 429.42 445.152 429.674 445.343 429.883Z" fill="#FFD584"/>
<path d="M438.717 335.842L438.374 344.198C438.376 344.485 438.45 344.766 438.589 345.017C438.728 345.267 438.928 345.479 439.17 345.632C439.412 345.785 439.688 345.875 439.974 345.894C440.26 345.913 440.546 345.86 440.806 345.74L448.22 341.87C448.467 341.725 448.674 341.52 448.822 341.275C448.969 341.029 449.053 340.75 449.065 340.464C449.076 340.178 449.016 339.893 448.89 339.636C448.763 339.379 448.574 339.158 448.34 338.993L441.268 334.507C441.019 334.365 440.738 334.288 440.452 334.283C440.165 334.279 439.882 334.346 439.628 334.479C439.374 334.611 439.158 334.806 438.998 335.044C438.839 335.282 438.742 335.557 438.717 335.842Z" fill="#FFD584"/>
<path d="M433.202 805.019L432.86 813.375C432.862 813.661 432.936 813.942 433.075 814.193C433.214 814.443 433.413 814.655 433.655 814.808C433.897 814.961 434.174 815.052 434.46 815.07C434.745 815.089 435.031 815.036 435.291 814.916L442.706 811.046C442.953 810.901 443.16 810.696 443.307 810.451C443.455 810.205 443.538 809.926 443.55 809.64C443.562 809.354 443.502 809.069 443.375 808.812C443.249 808.555 443.06 808.334 442.826 808.169L435.754 803.683C435.504 803.541 435.224 803.465 434.937 803.46C434.651 803.455 434.367 803.522 434.114 803.655C433.86 803.788 433.643 803.982 433.484 804.22C433.325 804.459 433.228 804.733 433.202 805.019Z" fill="#FFD584"/>
<path d="M366.68 160.706L359.83 156.015C359.586 155.867 359.309 155.782 359.024 155.769C358.739 155.755 358.455 155.813 358.198 155.938C357.941 156.062 357.72 156.248 357.553 156.48C357.387 156.712 357.281 156.981 357.245 157.264L356.645 165.604C356.64 165.889 356.706 166.171 356.837 166.425C356.969 166.678 357.162 166.895 357.398 167.055C357.635 167.215 357.908 167.313 358.192 167.341C358.476 167.368 358.763 167.325 359.026 167.213L366.56 163.566C366.803 163.42 367.007 163.216 367.152 162.972C367.297 162.728 367.379 162.452 367.391 162.168C367.403 161.885 367.344 161.603 367.22 161.347C367.096 161.092 366.91 160.872 366.68 160.706Z" fill="#FFD584"/>
<path d="M361.165 629.882L354.316 625.191C354.071 625.043 353.794 624.958 353.509 624.945C353.224 624.932 352.94 624.99 352.683 625.114C352.427 625.238 352.205 625.424 352.038 625.656C351.872 625.888 351.766 626.158 351.73 626.441L351.131 634.78C351.125 635.065 351.191 635.348 351.323 635.601C351.454 635.855 351.647 636.071 351.883 636.231C352.12 636.391 352.393 636.489 352.677 636.517C352.961 636.545 353.248 636.501 353.511 636.389L361.045 632.742C361.288 632.596 361.492 632.392 361.637 632.148C361.782 631.904 361.864 631.628 361.876 631.345C361.888 631.061 361.829 630.779 361.705 630.524C361.581 630.268 361.395 630.048 361.165 629.882Z" fill="#FFD584"/>
<path d="M109.644 333.725L101.374 332.492C101.087 332.462 100.798 332.505 100.533 332.616C100.267 332.727 100.034 332.904 99.8548 333.129C99.6756 333.354 99.5561 333.621 99.5073 333.905C99.4585 334.189 99.4821 334.48 99.5758 334.752L102.641 342.526C102.759 342.787 102.94 343.013 103.168 343.186C103.396 343.358 103.663 343.471 103.946 343.513C104.228 343.556 104.517 343.527 104.786 343.429C105.054 343.332 105.294 343.168 105.483 342.954L110.62 336.413C110.79 336.186 110.9 335.92 110.941 335.64C110.982 335.359 110.953 335.073 110.856 334.806C110.76 334.54 110.598 334.301 110.387 334.113C110.175 333.924 109.92 333.791 109.644 333.725Z" fill="#FFD584"/>
<path d="M104.129 802.901L95.8588 801.668C95.5725 801.638 95.2832 801.681 95.0177 801.792C94.7523 801.903 94.5191 802.08 94.3399 802.305C94.1607 802.53 94.0412 802.797 93.9924 803.081C93.9436 803.365 93.9672 803.656 94.0609 803.928L97.126 811.702C97.2438 811.963 97.425 812.189 97.6529 812.362C97.8808 812.534 98.1482 812.647 98.4308 812.689C98.7134 812.732 99.0021 812.703 99.2706 812.605C99.5392 812.508 99.7791 812.345 99.9684 812.13L105.105 805.589C105.275 805.362 105.385 805.096 105.426 804.816C105.467 804.535 105.438 804.249 105.342 803.982C105.245 803.716 105.083 803.478 104.872 803.289C104.66 803.1 104.405 802.967 104.129 802.901Z" fill="#FFD584"/>
<path d="M588.716 333.24L580.446 332.007C580.16 331.977 579.87 332.02 579.605 332.131C579.339 332.242 579.106 332.419 578.927 332.644C578.748 332.869 578.628 333.136 578.579 333.42C578.531 333.704 578.554 333.995 578.648 334.267L581.713 342.041C581.831 342.302 582.012 342.528 582.24 342.701C582.468 342.873 582.735 342.986 583.018 343.028C583.3 343.071 583.589 343.042 583.858 342.944C584.126 342.847 584.366 342.683 584.555 342.469L589.692 335.928C589.862 335.701 589.972 335.435 590.013 335.155C590.054 334.874 590.025 334.588 589.929 334.321C589.832 334.055 589.67 333.816 589.459 333.628C589.247 333.439 588.992 333.306 588.716 333.24Z" fill="#FFD584"/>
<path d="M583.202 802.416L574.931 801.183C574.645 801.153 574.355 801.196 574.09 801.307C573.824 801.418 573.591 801.595 573.412 801.82C573.233 802.045 573.113 802.312 573.065 802.596C573.016 802.88 573.039 803.171 573.133 803.443L576.198 811.217C576.316 811.478 576.497 811.704 576.725 811.877C576.953 812.049 577.22 812.162 577.503 812.204C577.786 812.247 578.074 812.218 578.343 812.12C578.611 812.023 578.851 811.86 579.041 811.645L584.178 805.104C584.347 804.877 584.457 804.611 584.498 804.331C584.54 804.05 584.511 803.764 584.414 803.497C584.317 803.231 584.156 802.993 583.944 802.804C583.732 802.615 583.477 802.482 583.202 802.416Z" fill="#FFD584"/>
<path d="M316.971 439.986L316.44 448.325C316.436 448.611 316.504 448.894 316.638 449.147C316.771 449.4 316.966 449.616 317.205 449.775C317.443 449.933 317.718 450.029 318.003 450.054C318.288 450.079 318.575 450.032 318.837 449.918L326.337 446.202C326.584 446.061 326.792 445.86 326.941 445.619C327.091 445.377 327.179 445.102 327.196 444.818C327.212 444.535 327.159 444.251 327.039 443.993C326.919 443.736 326.737 443.512 326.508 443.342L319.539 438.702C319.293 438.557 319.015 438.477 318.73 438.467C318.445 438.457 318.162 438.519 317.907 438.647C317.651 438.774 317.432 438.964 317.269 439.198C317.105 439.432 317.003 439.703 316.971 439.986Z" fill="#FFD584"/>
<path d="M297.964 203.839L306.286 204.576C306.576 204.597 306.866 204.543 307.13 204.421C307.393 204.299 307.621 204.112 307.792 203.877C307.964 203.643 308.072 203.368 308.108 203.08C308.144 202.792 308.107 202.499 307.998 202.23L304.471 194.644C304.338 194.392 304.143 194.177 303.906 194.02C303.668 193.862 303.395 193.766 303.111 193.74C302.827 193.715 302.541 193.76 302.279 193.873C302.017 193.986 301.788 194.163 301.611 194.387L296.8 201.237C296.649 201.475 296.56 201.747 296.54 202.029C296.52 202.31 296.569 202.592 296.685 202.85C296.8 203.108 296.977 203.333 297.2 203.505C297.423 203.678 297.686 203.793 297.964 203.839Z" fill="#FFD584"/>
<path d="M292.45 673.016L300.772 673.752C301.061 673.773 301.352 673.72 301.615 673.598C301.879 673.475 302.107 673.288 302.278 673.054C302.449 672.819 302.558 672.545 302.594 672.256C302.63 671.968 302.592 671.676 302.484 671.406L298.957 663.821C298.823 663.568 298.629 663.354 298.391 663.196C298.154 663.038 297.88 662.942 297.596 662.916C297.312 662.891 297.026 662.937 296.765 663.05C296.503 663.163 296.273 663.339 296.097 663.564L291.285 670.413C291.135 670.652 291.045 670.924 291.025 671.205C291.005 671.487 291.055 671.769 291.17 672.026C291.285 672.284 291.463 672.509 291.686 672.682C291.909 672.854 292.171 672.969 292.45 673.016Z" fill="#FFD584"/>
<path d="M6.87039 56.1572L11.1341 48.9825C11.2695 48.7295 11.3391 48.4465 11.3366 48.1596C11.3342 47.8726 11.2596 47.5909 11.1198 47.3403C10.98 47.0897 10.7795 46.8782 10.5366 46.7254C10.2938 46.5725 10.0164 46.4831 9.72996 46.4654L1.37385 46.3627C1.08869 46.3734 0.810725 46.4553 0.56524 46.6008C0.319756 46.7463 0.114508 46.9508 -0.0318097 47.1958C-0.178128 47.4408 -0.260884 47.7185 -0.272579 48.0036C-0.284274 48.2887 -0.224512 48.5723 -0.0987495 48.8284L3.9937 56.1229C4.14605 56.3651 4.35666 56.5653 4.6063 56.7051C4.85593 56.8449 5.13661 56.92 5.42272 56.9234C5.70882 56.9268 5.99121 56.8584 6.2441 56.7246C6.49699 56.5907 6.71231 56.3957 6.87039 56.1572Z" fill="#FFD584"/>
<path d="M1.35592 525.333L5.61961 518.159C5.75503 517.906 5.82468 517.623 5.82218 517.336C5.81969 517.049 5.74512 516.767 5.60532 516.516C5.46552 516.266 5.265 516.054 5.02214 515.902C4.77929 515.749 4.50191 515.659 4.2155 515.642L-4.14062 515.539C-4.42578 515.55 -4.70374 515.631 -4.94923 515.777C-5.19471 515.922 -5.39996 516.127 -5.54628 516.372C-5.69259 516.617 -5.77535 516.895 -5.78704 517.18C-5.79874 517.465 -5.73898 517.748 -5.61321 518.005L-1.52077 525.299C-1.36842 525.541 -1.1578 525.741 -0.90817 525.881C-0.658538 526.021 -0.377857 526.096 -0.0917501 526.1C0.194357 526.103 0.476745 526.035 0.729635 525.901C0.982524 525.767 1.19785 525.572 1.35592 525.333Z" fill="#FFD584"/>
<path d="M485.943 55.6722L490.207 48.4975C490.342 48.2445 490.412 47.9616 490.409 47.6746C490.407 47.3877 490.332 47.1059 490.192 46.8553C490.053 46.6047 489.852 46.3933 489.609 46.2404C489.366 46.0875 489.089 45.9981 488.803 45.9804L480.446 45.8777C480.161 45.8884 479.883 45.9703 479.638 46.1158C479.392 46.2613 479.187 46.4658 479.041 46.7108C478.894 46.9558 478.812 47.2335 478.8 47.5186C478.788 47.8037 478.848 48.0873 478.974 48.3434L483.066 55.6379C483.219 55.8801 483.429 56.0803 483.679 56.2201C483.929 56.3599 484.209 56.435 484.495 56.4384C484.781 56.4418 485.064 56.3735 485.317 56.2396C485.57 56.1058 485.785 55.9107 485.943 55.6722Z" fill="#FFD584"/>
<path d="M480.428 524.848L484.692 517.674C484.827 517.421 484.897 517.138 484.894 516.851C484.892 516.564 484.817 516.282 484.678 516.032C484.538 515.781 484.337 515.57 484.094 515.417C483.852 515.264 483.574 515.174 483.288 515.157L474.932 515.054C474.646 515.065 474.368 515.147 474.123 515.292C473.878 515.438 473.672 515.642 473.526 515.887C473.38 516.132 473.297 516.41 473.285 516.695C473.273 516.98 473.333 517.264 473.459 517.52L477.551 524.814C477.704 525.056 477.914 525.257 478.164 525.396C478.414 525.536 478.694 525.611 478.98 525.615C479.267 525.618 479.549 525.55 479.802 525.416C480.055 525.282 480.27 525.087 480.428 524.848Z" fill="#FFD584"/>
<path d="M99.8326 440.385L108.069 438.861C108.346 438.794 108.602 438.659 108.814 438.469C109.026 438.278 109.187 438.037 109.282 437.768C109.377 437.5 109.404 437.211 109.359 436.93C109.315 436.648 109.201 436.382 109.028 436.156L103.583 429.786C103.386 429.579 103.14 429.424 102.868 429.336C102.596 429.248 102.306 429.23 102.026 429.283C101.745 429.336 101.481 429.458 101.26 429.638C101.038 429.819 100.866 430.052 100.757 430.317L97.9661 438.193C97.8834 438.467 97.8708 438.758 97.9294 439.038C97.988 439.319 98.1161 439.58 98.3018 439.798C98.4875 440.016 98.7249 440.184 98.9923 440.287C99.2598 440.389 99.5487 440.423 99.8326 440.385Z" fill="#FFD584"/>
<path d="M578.905 439.9L587.141 438.376C587.418 438.309 587.674 438.175 587.886 437.984C588.098 437.793 588.259 437.552 588.354 437.283C588.449 437.015 588.476 436.727 588.432 436.445C588.387 436.163 588.273 435.897 588.1 435.671L582.655 429.301C582.458 429.094 582.212 428.939 581.94 428.851C581.668 428.764 581.379 428.745 581.098 428.798C580.817 428.851 580.554 428.973 580.332 429.154C580.111 429.334 579.938 429.567 579.829 429.832L577.038 437.708C576.956 437.983 576.943 438.273 577.002 438.554C577.06 438.834 577.188 439.095 577.374 439.313C577.56 439.531 577.797 439.699 578.065 439.802C578.332 439.904 578.621 439.938 578.905 439.9Z" fill="#FFD584"/>
<path d="M281.046 281.236L287.262 275.654C287.468 275.454 287.62 275.205 287.704 274.93C287.788 274.655 287.802 274.364 287.744 274.082C287.686 273.801 287.558 273.539 287.372 273.32C287.186 273.101 286.948 272.932 286.68 272.829L278.718 270.243C278.44 270.168 278.148 270.163 277.869 270.229C277.589 270.296 277.331 270.432 277.118 270.625C276.904 270.818 276.743 271.061 276.649 271.332C276.554 271.604 276.53 271.895 276.577 272.178L278.29 280.346C278.361 280.626 278.503 280.884 278.701 281.095C278.899 281.306 279.147 281.463 279.422 281.552C279.698 281.641 279.991 281.658 280.275 281.603C280.559 281.548 280.824 281.422 281.046 281.236Z" fill="#FFD584"/>
<path d="M275.532 750.413L281.748 744.83C281.953 744.63 282.105 744.381 282.19 744.106C282.274 743.831 282.288 743.54 282.23 743.258C282.172 742.977 282.044 742.715 281.858 742.496C281.672 742.277 281.434 742.108 281.165 742.005L273.203 739.42C272.926 739.344 272.634 739.339 272.354 739.406C272.075 739.472 271.816 739.608 271.603 739.801C271.39 739.994 271.229 740.237 271.134 740.509C271.04 740.78 271.015 741.071 271.063 741.354L272.775 749.522C272.847 749.803 272.988 750.06 273.186 750.271C273.384 750.482 273.633 750.639 273.908 750.728C274.183 750.817 274.476 750.835 274.76 750.779C275.044 750.724 275.31 750.598 275.532 750.413Z" fill="#FFD584"/>
<path d="M395.224 255.055L399.796 248.052C399.94 247.804 400.021 247.525 400.029 247.238C400.038 246.952 399.975 246.668 399.845 246.413C399.716 246.157 399.524 245.938 399.288 245.776C399.052 245.613 398.779 245.513 398.494 245.483L390.138 245.089C389.852 245.09 389.572 245.162 389.321 245.299C389.07 245.436 388.858 245.633 388.703 245.873C388.548 246.113 388.456 246.388 388.434 246.673C388.413 246.958 388.463 247.243 388.58 247.504L392.364 254.952C392.511 255.195 392.717 255.397 392.961 255.54C393.206 255.684 393.483 255.765 393.766 255.775C394.05 255.785 394.331 255.724 394.586 255.599C394.84 255.473 395.059 255.286 395.224 255.055Z" fill="#FFD584"/>
<path d="M389.709 724.231L394.281 717.228C394.426 716.981 394.506 716.701 394.515 716.415C394.524 716.128 394.46 715.844 394.331 715.589C394.201 715.333 394.01 715.114 393.774 714.952C393.538 714.789 393.265 714.689 392.98 714.659L384.624 714.266C384.338 714.266 384.057 714.338 383.806 714.475C383.556 714.612 383.343 714.809 383.188 715.049C383.034 715.289 382.941 715.564 382.92 715.849C382.898 716.134 382.948 716.42 383.065 716.68L386.85 724.129C386.997 724.371 387.202 724.573 387.447 724.717C387.692 724.86 387.968 724.941 388.252 724.951C388.535 724.961 388.817 724.901 389.071 724.775C389.326 724.65 389.545 724.463 389.709 724.231Z" fill="#FFD584"/>
<path d="M231.561 322.92L239.386 319.975C239.649 319.86 239.879 319.682 240.055 319.455C240.231 319.229 240.347 318.962 240.393 318.68C240.439 318.397 240.413 318.107 240.318 317.836C240.223 317.566 240.062 317.324 239.849 317.132L233.376 311.824C233.146 311.655 232.878 311.545 232.595 311.506C232.313 311.467 232.025 311.499 231.758 311.599C231.491 311.7 231.253 311.865 231.066 312.081C230.879 312.297 230.749 312.556 230.688 312.834L229.335 321.088C229.301 321.373 229.339 321.662 229.446 321.928C229.553 322.195 229.725 322.43 229.947 322.612C230.169 322.795 230.433 322.919 230.715 322.972C230.997 323.026 231.288 323.008 231.561 322.92Z" fill="#FFD584"/>
<path d="M226.047 792.096L233.872 789.151C234.135 789.036 234.364 788.858 234.54 788.632C234.716 788.405 234.832 788.139 234.878 787.856C234.924 787.573 234.899 787.283 234.804 787.013C234.709 786.742 234.547 786.5 234.334 786.308L227.862 781C227.632 780.831 227.364 780.722 227.081 780.682C226.798 780.643 226.51 780.675 226.243 780.776C225.976 780.876 225.738 781.041 225.551 781.257C225.365 781.473 225.235 781.732 225.173 782.01L223.821 790.264C223.787 790.549 223.825 790.838 223.932 791.104C224.039 791.371 224.211 791.606 224.433 791.788C224.654 791.971 224.918 792.095 225.2 792.148C225.482 792.202 225.773 792.184 226.047 792.096Z" fill="#FFD584"/>
<path d="M710.634 322.435L718.459 319.49C718.722 319.375 718.952 319.197 719.128 318.971C719.303 318.744 719.42 318.477 719.466 318.195C719.512 317.912 719.486 317.622 719.391 317.351C719.296 317.081 719.134 316.839 718.921 316.647L712.449 311.339C712.219 311.17 711.951 311.06 711.668 311.021C711.385 310.982 711.098 311.014 710.83 311.114C710.563 311.215 710.326 311.38 710.139 311.596C709.952 311.812 709.822 312.071 709.76 312.349L708.408 320.603C708.374 320.888 708.412 321.177 708.519 321.443C708.626 321.71 708.798 321.945 709.02 322.127C709.242 322.31 709.506 322.434 709.788 322.487C710.07 322.541 710.361 322.523 710.634 322.435Z" fill="#FFD584"/>
<path d="M705.119 791.611L712.945 788.666C713.207 788.551 713.437 788.373 713.613 788.147C713.789 787.92 713.905 787.654 713.951 787.371C713.997 787.088 713.971 786.798 713.876 786.528C713.781 786.257 713.62 786.015 713.407 785.823L706.934 780.515C706.705 780.346 706.436 780.237 706.154 780.197C705.871 780.158 705.583 780.19 705.316 780.291C705.049 780.391 704.811 780.557 704.624 780.772C704.437 780.988 704.307 781.247 704.246 781.525L702.893 789.779C702.859 790.064 702.898 790.353 703.005 790.619C703.111 790.886 703.284 791.121 703.505 791.303C703.727 791.486 703.991 791.61 704.273 791.663C704.555 791.717 704.846 791.699 705.119 791.611Z" fill="#FFD584"/>
<path d="M117.743 60.1127L125.62 62.9038C125.894 62.9865 126.185 62.9991 126.465 62.9405C126.745 62.8818 127.007 62.7538 127.225 62.5681C127.443 62.3824 127.611 62.145 127.713 61.8775C127.816 61.6101 127.85 61.3212 127.812 61.0373L126.288 52.8182C126.221 52.541 126.086 52.2849 125.895 52.073C125.704 51.8612 125.464 51.7003 125.195 51.6051C124.926 51.5098 124.638 51.4832 124.356 51.5276C124.075 51.572 123.809 51.686 123.582 51.8593L117.212 57.2189C116.989 57.4141 116.82 57.6641 116.723 57.9441C116.625 58.2242 116.602 58.5248 116.656 58.8166C116.709 59.1083 116.838 59.3811 117.028 59.6084C117.219 59.8356 117.465 60.0093 117.743 60.1127Z" fill="#FFD584"/>
<path d="M112.228 529.289L120.105 532.08C120.379 532.163 120.67 532.175 120.95 532.117C121.231 532.058 121.492 531.93 121.71 531.744C121.928 531.559 122.096 531.321 122.198 531.054C122.301 530.786 122.335 530.497 122.297 530.213L120.773 521.994C120.706 521.717 120.571 521.461 120.38 521.249C120.19 521.037 119.949 520.876 119.68 520.781C119.411 520.686 119.123 520.659 118.841 520.704C118.56 520.748 118.294 520.862 118.067 521.035L111.698 526.395C111.474 526.59 111.306 526.84 111.208 527.12C111.11 527.4 111.087 527.701 111.141 527.993C111.194 528.284 111.323 528.557 111.513 528.784C111.704 529.012 111.95 529.185 112.228 529.289Z" fill="#FFD584"/>
<path d="M596.815 59.6278L604.692 62.4189C604.966 62.5016 605.257 62.5142 605.537 62.4556C605.818 62.397 606.079 62.2689 606.297 62.0832C606.515 61.8975 606.683 61.6601 606.785 61.3927C606.888 61.1252 606.922 60.8364 606.884 60.5525L605.36 52.3333C605.293 52.0561 605.158 51.8 604.967 51.5882C604.777 51.3763 604.536 51.2155 604.267 51.1202C603.998 51.025 603.71 50.9983 603.429 51.0427C603.147 51.0871 602.881 51.2011 602.654 51.3744L596.285 56.734C596.061 56.9293 595.893 57.1792 595.795 57.4593C595.697 57.7394 595.674 58.04 595.728 58.3317C595.781 58.6235 595.91 58.8963 596.1 59.1235C596.291 59.3507 596.537 59.5245 596.815 59.6278Z" fill="#FFD584"/>
<path d="M591.301 528.804L599.178 531.595C599.452 531.678 599.743 531.69 600.023 531.632C600.303 531.573 600.564 531.445 600.782 531.259C601.001 531.074 601.169 530.836 601.271 530.569C601.374 530.301 601.407 530.013 601.369 529.729L599.846 521.509C599.779 521.232 599.644 520.976 599.453 520.764C599.262 520.552 599.022 520.392 598.753 520.296C598.484 520.201 598.196 520.174 597.914 520.219C597.633 520.263 597.366 520.377 597.14 520.551L590.77 525.91C590.547 526.105 590.378 526.355 590.281 526.635C590.183 526.916 590.16 527.216 590.213 527.508C590.267 527.8 590.395 528.072 590.586 528.3C590.777 528.527 591.023 528.701 591.301 528.804Z" fill="#FFD584"/>
<path d="M325.55 14.4055L325.053 22.7616C325.052 23.0464 325.122 23.327 325.257 23.5779C325.392 23.8288 325.587 24.0421 325.825 24.1986C326.063 24.355 326.336 24.4495 326.62 24.4737C326.904 24.4979 327.189 24.4509 327.45 24.3369L334.916 20.5869C335.163 20.4457 335.37 20.2452 335.52 20.0037C335.67 19.7622 335.757 19.4871 335.774 19.2034C335.791 18.9197 335.737 18.6362 335.617 18.3785C335.497 18.1208 335.315 17.897 335.087 17.7274L328.118 13.1212C327.872 12.9768 327.594 12.8961 327.309 12.8865C327.023 12.8769 326.74 12.9387 326.485 13.0663C326.23 13.1939 326.011 13.3832 325.847 13.6171C325.684 13.851 325.582 14.122 325.55 14.4055Z" fill="#E8EFFF"/>
<path d="M320.035 483.582L319.538 491.938C319.537 492.223 319.608 492.503 319.742 492.754C319.877 493.005 320.072 493.218 320.31 493.375C320.548 493.531 320.822 493.626 321.106 493.65C321.389 493.674 321.675 493.627 321.936 493.513L329.401 489.763C329.648 489.622 329.856 489.421 330.006 489.18C330.155 488.938 330.243 488.663 330.26 488.38C330.277 488.096 330.223 487.812 330.103 487.555C329.983 487.297 329.801 487.073 329.573 486.904L322.604 482.297C322.357 482.153 322.079 482.072 321.794 482.063C321.509 482.053 321.226 482.115 320.971 482.242C320.716 482.37 320.496 482.559 320.333 482.793C320.169 483.027 320.067 483.298 320.035 483.582Z" fill="#E8EFFF"/>
<path d="M290.875 128.463L291.44 120.09C291.443 119.806 291.375 119.525 291.242 119.274C291.109 119.023 290.916 118.809 290.68 118.651C290.444 118.493 290.172 118.396 289.89 118.369C289.607 118.343 289.322 118.387 289.06 118.497L281.543 122.162C281.292 122.301 281.079 122.5 280.926 122.743C280.772 122.985 280.681 123.262 280.662 123.549C280.644 123.835 280.697 124.122 280.818 124.382C280.939 124.642 281.124 124.868 281.355 125.038L288.29 129.696C288.532 129.843 288.808 129.928 289.092 129.943C289.376 129.957 289.659 129.9 289.915 129.778C290.172 129.656 290.394 129.471 290.562 129.242C290.729 129.012 290.837 128.745 290.875 128.463Z" fill="#E8EFFF"/>
<path d="M285.361 597.639L285.926 589.266C285.928 588.982 285.86 588.702 285.728 588.45C285.595 588.199 285.402 587.985 285.166 587.827C284.93 587.669 284.658 587.572 284.375 587.545C284.092 587.519 283.807 587.563 283.546 587.673L276.029 591.338C275.777 591.477 275.565 591.676 275.411 591.919C275.257 592.161 275.167 592.438 275.148 592.725C275.129 593.011 275.183 593.298 275.304 593.558C275.425 593.818 275.609 594.044 275.84 594.215L282.775 598.872C283.018 599.02 283.294 599.104 283.578 599.119C283.861 599.133 284.144 599.076 284.401 598.954C284.657 598.832 284.88 598.648 285.047 598.418C285.215 598.188 285.322 597.921 285.361 597.639Z" fill="#E8EFFF"/>
<path d="M464.607 9.18293L466.32 0.980906C466.366 0.68796 466.336 0.387954 466.231 0.110275C466.127 -0.167404 465.952 -0.41323 465.725 -0.60312C465.497 -0.79301 465.223 -0.920451 464.932 -0.972958C464.64 -1.02546 464.339 -1.00124 464.059 -0.902647L456.131 1.7857C455.865 1.89223 455.631 2.06369 455.448 2.28439C455.266 2.50509 455.142 2.768 455.087 3.04905C455.033 3.33011 455.05 3.62035 455.136 3.89322C455.223 4.16609 455.377 4.41289 455.583 4.61103L461.867 10.1076C462.092 10.2889 462.358 10.4106 462.642 10.4615C462.926 10.5123 463.218 10.4906 463.492 10.3984C463.765 10.3061 464.01 10.1464 464.205 9.93387C464.4 9.72139 464.539 9.46309 464.607 9.18293Z" fill="#E8EFFF"/>
<path d="M459.092 478.359L460.805 470.157C460.851 469.864 460.821 469.564 460.716 469.287C460.612 469.009 460.438 468.763 460.21 468.573C459.982 468.383 459.709 468.256 459.417 468.203C459.125 468.151 458.824 468.175 458.544 468.274L450.616 470.962C450.351 471.068 450.116 471.24 449.933 471.461C449.751 471.681 449.627 471.944 449.572 472.225C449.518 472.506 449.535 472.797 449.621 473.069C449.708 473.342 449.862 473.589 450.068 473.787L456.353 479.284C456.577 479.465 456.843 479.587 457.127 479.638C457.411 479.689 457.703 479.667 457.977 479.575C458.25 479.482 458.495 479.323 458.69 479.11C458.886 478.898 459.024 478.639 459.092 478.359Z" fill="#E8EFFF"/>
<path d="M210.842 253.468L215.106 260.66C215.262 260.897 215.474 261.091 215.723 261.225C215.973 261.36 216.252 261.43 216.535 261.43C216.819 261.43 217.098 261.36 217.347 261.225C217.597 261.091 217.809 260.897 217.965 260.66L222.092 253.366C222.218 253.109 222.277 252.826 222.266 252.541C222.254 252.256 222.171 251.978 222.025 251.733C221.879 251.488 221.673 251.283 221.428 251.138C221.182 250.992 220.905 250.911 220.619 250.9L212.263 250.986C211.98 251.003 211.706 251.091 211.465 251.241C211.224 251.39 211.024 251.598 210.883 251.844C210.743 252.09 210.665 252.367 210.658 252.651C210.65 252.934 210.714 253.215 210.842 253.468Z" fill="#E8EFFF"/>
<path d="M205.327 722.645L209.591 729.836C209.747 730.073 209.959 730.267 210.209 730.402C210.458 730.536 210.737 730.606 211.021 730.606C211.304 730.606 211.583 730.536 211.833 730.402C212.082 730.267 212.294 730.073 212.45 729.836L216.577 722.542C216.703 722.286 216.763 722.002 216.751 721.717C216.739 721.432 216.657 721.154 216.51 720.909C216.364 720.664 216.159 720.46 215.913 720.314C215.668 720.169 215.39 720.087 215.105 720.076L206.748 720.162C206.465 720.179 206.191 720.267 205.95 720.417C205.709 720.567 205.509 720.774 205.369 721.02C205.228 721.266 205.15 721.544 205.143 721.827C205.136 722.111 205.199 722.392 205.327 722.645Z" fill="#E8EFFF"/>
<path d="M689.914 252.983L694.178 260.175C694.334 260.412 694.546 260.606 694.796 260.741C695.045 260.875 695.324 260.945 695.608 260.945C695.891 260.945 696.17 260.875 696.42 260.741C696.669 260.606 696.882 260.412 697.038 260.175L701.164 252.881C701.29 252.625 701.35 252.341 701.338 252.056C701.326 251.771 701.244 251.493 701.097 251.248C700.951 251.003 700.746 250.798 700.5 250.653C700.255 250.507 699.977 250.426 699.692 250.415L691.336 250.501C691.052 250.518 690.778 250.606 690.537 250.756C690.297 250.905 690.097 251.113 689.956 251.359C689.815 251.605 689.737 251.882 689.73 252.166C689.723 252.449 689.786 252.73 689.914 252.983Z" fill="#E8EFFF"/>
<path d="M684.4 722.16L688.664 729.351C688.819 729.588 689.032 729.782 689.281 729.917C689.531 730.051 689.81 730.121 690.093 730.121C690.377 730.121 690.656 730.051 690.905 729.917C691.155 729.782 691.367 729.588 691.523 729.351L695.65 722.057C695.776 721.801 695.835 721.517 695.824 721.232C695.812 720.947 695.729 720.669 695.583 720.424C695.437 720.179 695.231 719.975 694.986 719.829C694.74 719.684 694.462 719.602 694.177 719.591L685.821 719.677C685.538 719.694 685.264 719.782 685.023 719.932C684.782 720.082 684.582 720.289 684.441 720.535C684.3 720.781 684.223 721.059 684.216 721.342C684.208 721.626 684.272 721.907 684.4 722.16Z" fill="#E8EFFF"/>
<path d="M219.352 379.735L225.363 385.522C225.578 385.713 225.837 385.846 226.117 385.91C226.397 385.973 226.689 385.966 226.965 385.887C227.241 385.809 227.493 385.662 227.698 385.461C227.903 385.259 228.054 385.01 228.137 384.735L230.14 376.618C230.193 376.338 230.175 376.049 230.088 375.778C230.002 375.506 229.848 375.261 229.643 375.063C229.437 374.866 229.185 374.723 228.91 374.648C228.635 374.573 228.346 374.567 228.068 374.632L220.037 376.944C219.767 377.037 219.525 377.197 219.333 377.408C219.141 377.62 219.004 377.876 218.936 378.153C218.868 378.431 218.871 378.721 218.943 378.997C219.016 379.273 219.157 379.527 219.352 379.735Z" fill="#E8EFFF"/>
<path d="M213.837 848.911L219.848 854.699C220.063 854.889 220.322 855.022 220.602 855.086C220.882 855.15 221.174 855.142 221.45 855.063C221.726 854.985 221.978 854.838 222.183 854.637C222.388 854.435 222.539 854.186 222.622 853.911L224.625 845.794C224.678 845.514 224.661 845.225 224.574 844.954C224.487 844.682 224.333 844.437 224.128 844.24C223.922 844.042 223.67 843.899 223.395 843.824C223.12 843.749 222.831 843.743 222.553 843.808L214.522 846.12C214.253 846.214 214.01 846.373 213.818 846.585C213.626 846.796 213.489 847.052 213.421 847.329C213.353 847.607 213.356 847.897 213.428 848.173C213.501 848.449 213.642 848.703 213.837 848.911Z" fill="#E8EFFF"/>
<path d="M698.425 379.25L704.435 385.037C704.65 385.228 704.909 385.361 705.189 385.425C705.469 385.488 705.761 385.481 706.037 385.402C706.313 385.324 706.566 385.177 706.77 384.976C706.975 384.774 707.126 384.525 707.209 384.25L709.212 376.133C709.265 375.853 709.248 375.564 709.161 375.293C709.074 375.021 708.921 374.776 708.715 374.578C708.509 374.381 708.257 374.238 707.982 374.163C707.707 374.088 707.418 374.082 707.14 374.147L699.109 376.459C698.84 376.552 698.598 376.712 698.405 376.923C698.213 377.135 698.077 377.391 698.008 377.668C697.94 377.946 697.943 378.236 698.015 378.512C698.088 378.788 698.229 379.042 698.425 379.25Z" fill="#E8EFFF"/>
<path d="M692.91 848.426L698.92 854.214C699.136 854.404 699.395 854.537 699.675 854.601C699.955 854.665 700.247 854.657 700.523 854.578C700.799 854.5 701.051 854.353 701.256 854.152C701.461 853.951 701.611 853.701 701.694 853.426L703.698 845.31C703.751 845.029 703.733 844.74 703.646 844.469C703.559 844.197 703.406 843.952 703.2 843.755C702.995 843.557 702.743 843.415 702.468 843.339C702.193 843.264 701.903 843.258 701.626 843.323L693.595 845.635C693.325 845.729 693.083 845.888 692.891 846.1C692.699 846.311 692.562 846.567 692.494 846.844C692.426 847.122 692.428 847.412 692.501 847.688C692.574 847.964 692.714 848.218 692.91 848.426Z" fill="#E8EFFF"/>
<path d="M338.854 271.562L331.44 275.432C331.196 275.578 330.993 275.782 330.848 276.026C330.703 276.269 330.621 276.546 330.609 276.829C330.597 277.113 330.656 277.395 330.78 277.65C330.904 277.905 331.09 278.126 331.32 278.291L338.375 282.76C338.623 282.902 338.902 282.979 339.187 282.985C339.473 282.99 339.755 282.925 340.008 282.794C340.262 282.663 340.479 282.471 340.639 282.234C340.799 281.998 340.898 281.726 340.926 281.442L341.286 273.086C341.281 272.801 341.205 272.522 341.065 272.274C340.924 272.025 340.725 271.816 340.483 271.665C340.242 271.514 339.966 271.425 339.682 271.407C339.397 271.389 339.113 271.442 338.854 271.562Z" fill="#E8EFFF"/>
<path d="M333.34 740.738L325.925 744.608C325.682 744.754 325.478 744.958 325.333 745.202C325.188 745.446 325.106 745.722 325.094 746.005C325.082 746.289 325.141 746.571 325.265 746.826C325.389 747.081 325.575 747.302 325.806 747.467L332.86 751.937C333.108 752.078 333.388 752.155 333.673 752.161C333.958 752.167 334.24 752.101 334.494 751.97C334.747 751.839 334.964 751.647 335.124 751.411C335.285 751.175 335.383 750.902 335.412 750.618L335.771 742.262C335.766 741.977 335.69 741.698 335.55 741.45C335.41 741.202 335.21 740.992 334.969 740.841C334.727 740.69 334.452 740.601 334.167 740.583C333.883 740.565 333.598 740.618 333.34 740.738Z" fill="#E8EFFF"/>
<path d="M359.608 382.28L357.724 390.431C357.678 390.717 357.704 391.01 357.802 391.283C357.899 391.556 358.064 391.799 358.282 391.991C358.499 392.182 358.761 392.316 359.044 392.378C359.327 392.441 359.621 392.431 359.899 392.349L367.895 389.9C368.166 389.804 368.408 389.641 368.599 389.427C368.789 389.212 368.924 388.954 368.988 388.674C369.053 388.394 369.047 388.103 368.969 387.827C368.892 387.55 368.747 387.298 368.546 387.092L362.416 381.39C362.194 381.192 361.925 381.055 361.634 380.993C361.343 380.931 361.042 380.945 360.758 381.035C360.475 381.125 360.22 381.287 360.018 381.506C359.816 381.724 359.675 381.991 359.608 382.28Z" fill="#E8EFFF"/>
<path d="M354.093 851.457L352.209 859.607C352.163 859.893 352.19 860.186 352.287 860.459C352.385 860.732 352.55 860.975 352.767 861.167C352.984 861.359 353.246 861.492 353.529 861.555C353.812 861.617 354.106 861.607 354.384 861.525L362.381 859.076C362.651 858.98 362.893 858.817 363.084 858.603C363.275 858.389 363.409 858.13 363.473 857.85C363.538 857.571 363.532 857.279 363.454 857.003C363.377 856.726 363.232 856.474 363.031 856.268L356.901 850.566C356.679 850.368 356.41 850.231 356.119 850.169C355.829 850.107 355.527 850.122 355.243 850.211C354.96 850.301 354.705 850.463 354.503 850.682C354.302 850.9 354.16 851.167 354.093 851.457Z" fill="#E8EFFF"/>
<path d="M203.291 186.465L208.753 192.784C208.95 192.991 209.195 193.145 209.467 193.233C209.739 193.321 210.029 193.339 210.31 193.286C210.591 193.234 210.854 193.111 211.076 192.931C211.297 192.75 211.47 192.517 211.578 192.253L214.318 184.342C214.398 184.067 214.408 183.777 214.347 183.497C214.286 183.218 214.156 182.958 213.968 182.742C213.781 182.525 213.542 182.359 213.274 182.259C213.007 182.159 212.718 182.127 212.434 182.167L204.232 183.742C203.954 183.81 203.697 183.947 203.484 184.14C203.272 184.333 203.112 184.576 203.018 184.847C202.924 185.118 202.9 185.408 202.948 185.691C202.995 185.973 203.113 186.24 203.291 186.465Z" fill="#E8EFFF"/>
<path d="M197.776 655.641L203.238 661.96C203.435 662.167 203.681 662.321 203.953 662.409C204.225 662.497 204.515 662.515 204.795 662.463C205.076 662.41 205.34 662.288 205.561 662.107C205.783 661.926 205.955 661.693 206.064 661.429L208.803 653.518C208.884 653.243 208.893 652.953 208.832 652.673C208.771 652.394 208.641 652.134 208.454 651.918C208.267 651.701 208.028 651.535 207.76 651.435C207.492 651.335 207.203 651.303 206.92 651.343L198.718 652.919C198.439 652.986 198.182 653.123 197.97 653.316C197.758 653.509 197.597 653.752 197.504 654.023C197.41 654.294 197.386 654.584 197.433 654.867C197.481 655.15 197.599 655.416 197.776 655.641Z" fill="#E8EFFF"/>
<path d="M682.363 185.98L687.826 192.299C688.023 192.506 688.268 192.66 688.54 192.748C688.812 192.836 689.102 192.854 689.383 192.802C689.663 192.749 689.927 192.627 690.148 192.446C690.37 192.265 690.543 192.032 690.651 191.768L693.391 183.857C693.471 183.582 693.481 183.292 693.42 183.012C693.359 182.733 693.228 182.473 693.041 182.257C692.854 182.04 692.615 181.874 692.347 181.774C692.079 181.674 691.79 181.642 691.507 181.682L683.305 183.258C683.026 183.325 682.769 183.462 682.557 183.655C682.345 183.848 682.185 184.091 682.091 184.362C681.997 184.633 681.973 184.923 682.021 185.206C682.068 185.489 682.186 185.755 682.363 185.98Z" fill="#E8EFFF"/>
<path d="M676.849 655.156L682.311 661.475C682.508 661.682 682.754 661.836 683.026 661.924C683.298 662.012 683.587 662.03 683.868 661.978C684.149 661.925 684.412 661.803 684.634 661.622C684.855 661.442 685.028 661.208 685.137 660.944L687.876 653.033C687.956 652.758 687.966 652.468 687.905 652.188C687.844 651.909 687.714 651.649 687.527 651.433C687.339 651.217 687.101 651.051 686.833 650.95C686.565 650.85 686.276 650.818 685.993 650.858L677.791 652.434C677.512 652.501 677.255 652.638 677.043 652.831C676.831 653.024 676.67 653.267 676.577 653.538C676.483 653.809 676.459 654.099 676.506 654.382C676.554 654.665 676.672 654.931 676.849 655.156Z" fill="#E8EFFF"/>
<path d="M395.567 453.599L394.299 445.328C394.241 445.049 394.115 444.789 393.931 444.572C393.747 444.354 393.512 444.186 393.247 444.083C392.981 443.979 392.695 443.943 392.412 443.978C392.129 444.013 391.86 444.118 391.628 444.284L385.104 449.523C384.89 449.713 384.727 449.953 384.629 450.221C384.532 450.49 384.503 450.778 384.546 451.061C384.588 451.344 384.701 451.611 384.873 451.839C385.045 452.067 385.272 452.248 385.532 452.366L393.341 455.397C393.611 455.483 393.898 455.501 394.177 455.449C394.456 455.397 394.718 455.276 394.938 455.098C395.159 454.92 395.332 454.689 395.442 454.428C395.551 454.166 395.594 453.881 395.567 453.599Z" fill="#E8EFFF"/>
<path d="M294.762 357.178L298.649 349.764C298.765 349.504 298.816 349.22 298.795 348.937C298.774 348.653 298.683 348.38 298.53 348.14C298.378 347.901 298.167 347.703 297.919 347.565C297.671 347.427 297.392 347.353 297.108 347.349L288.752 347.692C288.466 347.717 288.192 347.814 287.953 347.973C287.715 348.133 287.521 348.349 287.388 348.603C287.255 348.857 287.188 349.14 287.193 349.427C287.198 349.713 287.274 349.994 287.416 350.243L291.902 357.298C292.068 357.528 292.288 357.714 292.543 357.838C292.799 357.962 293.081 358.021 293.364 358.009C293.648 357.997 293.924 357.915 294.168 357.77C294.412 357.625 294.616 357.422 294.762 357.178Z" fill="#E8EFFF"/>
<path d="M289.247 826.354L293.134 818.94C293.251 818.681 293.301 818.396 293.28 818.113C293.26 817.83 293.169 817.556 293.016 817.316C292.863 817.077 292.653 816.879 292.405 816.741C292.156 816.603 291.877 816.529 291.593 816.525L283.237 816.868C282.952 816.893 282.677 816.99 282.439 817.15C282.201 817.309 282.006 817.525 281.873 817.779C281.74 818.033 281.673 818.316 281.678 818.603C281.683 818.889 281.76 819.17 281.902 819.419L286.388 826.474C286.553 826.704 286.774 826.89 287.029 827.014C287.284 827.138 287.566 827.197 287.85 827.185C288.133 827.174 288.41 827.091 288.654 826.946C288.898 826.801 289.102 826.598 289.247 826.354Z" fill="#E8EFFF"/>
<path d="M403.751 96.4599L395.395 96.1174C395.113 96.1221 394.837 96.1963 394.59 96.3334C394.344 96.4705 394.135 96.6664 393.983 96.9036C393.83 97.1407 393.739 97.4119 393.716 97.693C393.694 97.974 393.741 98.2563 393.854 98.5147L397.707 105.929C397.85 106.177 398.054 106.385 398.298 106.534C398.543 106.683 398.821 106.769 399.108 106.782C399.394 106.796 399.679 106.738 399.937 106.612C400.195 106.487 400.417 106.299 400.583 106.066L405.07 99.0113C405.211 98.7633 405.288 98.484 405.294 98.1987C405.3 97.9134 405.234 97.6312 405.103 97.3777C404.972 97.1242 404.78 96.9075 404.544 96.7472C404.308 96.5869 404.035 96.4881 403.751 96.4599Z" fill="#E8EFFF"/>
<path d="M398.237 565.636L389.881 565.294C389.599 565.298 389.322 565.373 389.076 565.51C388.83 565.647 388.621 565.843 388.468 566.08C388.316 566.317 388.224 566.588 388.202 566.869C388.179 567.15 388.227 567.433 388.34 567.691L392.192 575.105C392.336 575.353 392.539 575.562 392.784 575.711C393.029 575.86 393.307 575.945 393.593 575.959C393.88 575.972 394.165 575.914 394.422 575.789C394.68 575.664 394.903 575.476 395.069 575.242L399.555 568.188C399.696 567.94 399.773 567.66 399.779 567.375C399.785 567.09 399.72 566.807 399.589 566.554C399.458 566.3 399.265 566.084 399.029 565.923C398.793 565.763 398.521 565.664 398.237 565.636Z" fill="#E8EFFF"/>
<path d="M39.7811 422.971L46.3907 417.834C46.6059 417.647 46.771 417.409 46.8712 417.143C46.9713 416.876 47.0033 416.588 46.9642 416.306C46.9251 416.023 46.8161 415.755 46.6472 415.526C46.4783 415.296 46.2548 415.113 45.9969 414.991L38.24 411.824C37.9751 411.734 37.6921 411.71 37.4159 411.755C37.1397 411.799 36.8787 411.911 36.6557 412.08C36.4326 412.249 36.2544 412.47 36.1366 412.724C36.0188 412.978 35.9649 413.256 35.9798 413.536L37.127 421.823C37.1723 422.108 37.2887 422.377 37.4656 422.605C37.6425 422.833 37.874 423.012 38.1387 423.127C38.4035 423.241 38.6928 423.287 38.9799 423.26C39.2671 423.232 39.5426 423.133 39.7811 422.971Z" fill="#E8EFFF"/>
<path d="M34.2667 892.147L40.8762 887.01C41.0914 886.823 41.2566 886.586 41.3567 886.319C41.4569 886.052 41.4888 885.764 41.4497 885.482C41.4106 885.2 41.3016 884.932 41.1327 884.702C40.9638 884.473 40.7403 884.289 40.4824 884.168L32.7256 881C32.4606 880.91 32.1777 880.886 31.9015 880.931C31.6253 880.976 31.3642 881.087 31.1412 881.256C30.9182 881.425 30.74 881.646 30.6221 881.9C30.5043 882.154 30.4505 882.433 30.4653 882.712L31.6126 891C31.6578 891.285 31.7743 891.553 31.9511 891.781C32.128 892.009 32.3595 892.188 32.6243 892.303C32.889 892.417 33.1784 892.463 33.4655 892.436C33.7526 892.409 34.0282 892.309 34.2667 892.147Z" fill="#E8EFFF"/>
<path d="M518.854 422.486L525.463 417.349C525.679 417.162 525.844 416.924 525.944 416.658C526.044 416.391 526.076 416.103 526.037 415.821C525.998 415.539 525.889 415.271 525.72 415.041C525.551 414.811 525.327 414.628 525.069 414.506L517.313 411.339C517.048 411.249 516.765 411.225 516.489 411.27C516.212 411.315 515.951 411.426 515.728 411.595C515.505 411.764 515.327 411.985 515.209 412.239C515.091 412.493 515.038 412.772 515.052 413.051L516.2 421.339C516.245 421.623 516.361 421.892 516.538 422.12C516.715 422.348 516.947 422.527 517.211 422.642C517.476 422.756 517.765 422.802 518.053 422.775C518.34 422.747 518.615 422.648 518.854 422.486Z" fill="#E8EFFF"/>
<path d="M513.339 891.662L519.948 886.525C520.164 886.338 520.329 886.101 520.429 885.834C520.529 885.567 520.561 885.279 520.522 884.997C520.483 884.715 520.374 884.447 520.205 884.217C520.036 883.988 519.812 883.804 519.555 883.683L511.798 880.515C511.533 880.425 511.25 880.401 510.974 880.446C510.697 880.491 510.436 880.602 510.213 880.771C509.99 880.94 509.812 881.161 509.694 881.415C509.577 881.669 509.523 881.948 509.538 882.227L510.685 890.515C510.73 890.8 510.846 891.068 511.023 891.296C511.2 891.524 511.432 891.703 511.696 891.818C511.961 891.932 512.251 891.978 512.538 891.951C512.825 891.924 513.1 891.824 513.339 891.662Z" fill="#E8EFFF"/>
<path d="M29.0793 339.461L27.2642 347.629C27.2178 347.91 27.2425 348.199 27.3362 348.469C27.4298 348.738 27.5894 348.98 27.8004 349.173C28.0114 349.365 28.2671 349.501 28.5443 349.57C28.8215 349.638 29.1113 349.636 29.3875 349.564L37.3669 347.064C37.6346 346.963 37.8729 346.798 38.0602 346.582C38.2474 346.366 38.3776 346.106 38.4389 345.827C38.5002 345.548 38.4906 345.258 38.4111 344.983C38.3315 344.709 38.1844 344.459 37.9833 344.255L31.819 338.605C31.5993 338.423 31.3377 338.299 31.0579 338.244C30.7782 338.189 30.4891 338.205 30.217 338.29C29.9448 338.375 29.6982 338.527 29.4996 338.731C29.3009 338.936 29.1564 339.186 29.0793 339.461Z" fill="#E8EFFF"/>
<path d="M23.5644 808.637L21.7494 816.805C21.7029 817.087 21.7277 817.375 21.8213 817.645C21.915 817.915 22.0745 818.157 22.2855 818.349C22.4965 818.541 22.7523 818.678 23.0294 818.746C23.3066 818.814 23.5965 818.812 23.8726 818.74L31.852 816.24C32.1197 816.14 32.3581 815.974 32.5453 815.758C32.7326 815.542 32.8628 815.283 32.924 815.003C32.9853 814.724 32.9758 814.434 32.8962 814.16C32.8166 813.885 32.6696 813.635 32.4685 813.432L26.3041 807.781C26.0844 807.599 25.8228 807.475 25.5431 807.42C25.2633 807.365 24.9742 807.381 24.7021 807.466C24.43 807.551 24.1834 807.703 23.9847 807.907C23.786 808.112 23.6416 808.363 23.5644 808.637Z" fill="#E8EFFF"/>
<path d="M508.152 338.976L506.336 347.144C506.29 347.425 506.315 347.714 506.408 347.984C506.502 348.254 506.662 348.496 506.873 348.688C507.084 348.88 507.339 349.017 507.617 349.085C507.894 349.153 508.184 349.151 508.46 349.079L516.439 346.579C516.707 346.478 516.945 346.313 517.132 346.097C517.32 345.881 517.45 345.621 517.511 345.342C517.572 345.063 517.563 344.773 517.483 344.498C517.404 344.224 517.257 343.974 517.056 343.771L510.891 338.12C510.672 337.938 510.41 337.814 510.13 337.759C509.85 337.704 509.561 337.72 509.289 337.805C509.017 337.89 508.77 338.042 508.572 338.246C508.373 338.451 508.229 338.702 508.152 338.976Z" fill="#E8EFFF"/>
<path d="M502.637 808.152L500.822 816.32C500.776 816.602 500.8 816.891 500.894 817.16C500.988 817.43 501.147 817.672 501.358 817.864C501.569 818.056 501.825 818.193 502.102 818.261C502.379 818.329 502.669 818.327 502.945 818.255L510.925 815.755C511.192 815.655 511.431 815.489 511.618 815.273C511.805 815.057 511.935 814.798 511.997 814.519C512.058 814.239 512.048 813.949 511.969 813.675C511.889 813.4 511.742 813.15 511.541 812.947L505.377 807.296C505.157 807.114 504.895 806.99 504.616 806.935C504.336 806.88 504.047 806.896 503.775 806.981C503.503 807.066 503.256 807.218 503.057 807.422C502.859 807.627 502.714 807.878 502.637 808.152Z" fill="#E8EFFF"/>
<path d="M169.592 105.609L162.538 101.123C162.29 100.982 162.01 100.905 161.725 100.899C161.44 100.893 161.157 100.959 160.904 101.09C160.65 101.221 160.434 101.413 160.273 101.649C160.113 101.885 160.014 102.158 159.986 102.442L159.644 110.798C159.646 111.084 159.72 111.365 159.859 111.616C159.998 111.866 160.197 112.078 160.439 112.231C160.681 112.384 160.958 112.475 161.244 112.493C161.529 112.512 161.815 112.459 162.075 112.339L169.49 108.469C169.732 108.322 169.934 108.116 170.078 107.872C170.221 107.627 170.302 107.35 170.312 107.067C170.322 106.783 170.262 106.502 170.136 106.247C170.011 105.993 169.824 105.774 169.592 105.609Z" fill="#E8EFFF"/>
<path d="M164.077 574.786L157.023 570.299C156.775 570.158 156.495 570.081 156.21 570.075C155.925 570.069 155.643 570.135 155.389 570.266C155.136 570.397 154.919 570.589 154.759 570.825C154.598 571.061 154.5 571.334 154.471 571.618L154.129 579.974C154.131 580.26 154.205 580.542 154.344 580.792C154.483 581.042 154.683 581.254 154.924 581.407C155.166 581.561 155.443 581.651 155.729 581.67C156.014 581.688 156.3 581.635 156.56 581.515L163.975 577.645C164.217 577.498 164.419 577.293 164.563 577.048C164.706 576.803 164.787 576.527 164.797 576.243C164.807 575.959 164.747 575.678 164.621 575.423C164.496 575.169 164.309 574.95 164.077 574.786Z" fill="#E8EFFF"/>
<path d="M648.665 105.124L641.61 100.638C641.362 100.497 641.083 100.42 640.797 100.414C640.512 100.408 640.23 100.474 639.976 100.605C639.723 100.736 639.506 100.928 639.346 101.164C639.185 101.4 639.087 101.673 639.058 101.957L638.716 110.313C638.718 110.599 638.792 110.88 638.931 111.131C639.07 111.381 639.27 111.593 639.512 111.746C639.753 111.899 640.03 111.99 640.316 112.008C640.602 112.027 640.888 111.974 641.147 111.854L648.562 107.984C648.804 107.837 649.006 107.631 649.15 107.387C649.294 107.142 649.374 106.865 649.384 106.582C649.394 106.298 649.334 106.017 649.208 105.762C649.083 105.508 648.896 105.289 648.665 105.124Z" fill="#E8EFFF"/>
<path d="M643.15 574.301L636.095 569.814C635.847 569.673 635.568 569.596 635.283 569.59C634.998 569.584 634.715 569.65 634.462 569.781C634.208 569.912 633.992 570.104 633.831 570.34C633.671 570.576 633.572 570.849 633.544 571.133L633.202 579.489C633.204 579.775 633.278 580.057 633.417 580.307C633.556 580.557 633.755 580.769 633.997 580.922C634.239 581.076 634.516 581.166 634.801 581.185C635.087 581.203 635.373 581.15 635.633 581.03L643.047 577.16C643.29 577.013 643.492 576.808 643.636 576.563C643.779 576.318 643.86 576.042 643.87 575.758C643.88 575.474 643.82 575.193 643.694 574.938C643.568 574.684 643.381 574.465 643.15 574.301Z" fill="#E8EFFF"/>
<path d="M230.739 38.0069L227.914 30.1473C227.804 29.8841 227.629 29.6526 227.407 29.4739C227.185 29.2951 226.921 29.1747 226.64 29.1237C226.36 29.0727 226.071 29.0926 225.8 29.1816C225.529 29.2707 225.284 29.426 225.088 29.6336L219.677 36.0035C219.504 36.231 219.391 36.4983 219.347 36.781C219.304 37.0637 219.332 37.3528 219.429 37.6218C219.526 37.8909 219.689 38.1313 219.903 38.3212C220.117 38.5111 220.375 38.6444 220.654 38.7089L228.873 40.1986C229.157 40.2366 229.445 40.2028 229.713 40.1002C229.98 39.9977 230.218 39.8297 230.403 39.6116C230.589 39.3935 230.717 39.1324 230.776 38.852C230.834 38.5717 230.822 38.2811 230.739 38.0069Z" fill="#E8EFFF"/>
<path d="M225.225 507.183L222.399 499.323C222.289 499.06 222.115 498.829 221.893 498.65C221.67 498.471 221.407 498.351 221.126 498.3C220.845 498.249 220.556 498.269 220.285 498.358C220.014 498.447 219.77 498.602 219.574 498.81L214.163 505.18C213.99 505.407 213.876 505.674 213.833 505.957C213.789 506.24 213.818 506.529 213.915 506.798C214.012 507.067 214.175 507.307 214.388 507.497C214.602 507.687 214.86 507.821 215.139 507.885L223.358 509.375C223.642 509.413 223.931 509.379 224.198 509.276C224.466 509.174 224.703 509.006 224.889 508.788C225.075 508.57 225.203 508.309 225.261 508.028C225.32 507.748 225.307 507.457 225.225 507.183Z" fill="#E8EFFF"/>
<path d="M709.812 37.5219L706.986 29.6623C706.876 29.3991 706.702 29.1676 706.48 28.9889C706.257 28.8101 705.994 28.6897 705.713 28.6387C705.432 28.5877 705.143 28.6076 704.872 28.6966C704.601 28.7857 704.357 28.9411 704.161 29.1486L698.75 35.5185C698.577 35.746 698.463 36.0134 698.42 36.2961C698.377 36.5787 698.405 36.8678 698.502 37.1368C698.599 37.4059 698.762 37.6463 698.976 37.8362C699.189 38.0261 699.448 38.1594 699.726 38.2239L707.945 39.7137C708.229 39.7516 708.518 39.7178 708.785 39.6152C709.053 39.5127 709.29 39.3447 709.476 39.1266C709.662 38.9086 709.79 38.6474 709.848 38.367C709.907 38.0867 709.894 37.7961 709.812 37.5219Z" fill="#E8EFFF"/>
<path d="M704.297 506.698L701.472 498.839C701.362 498.575 701.188 498.344 700.965 498.165C700.743 497.986 700.479 497.866 700.199 497.815C699.918 497.764 699.629 497.784 699.358 497.873C699.087 497.962 698.842 498.117 698.647 498.325L693.236 504.695C693.062 504.922 692.949 505.19 692.906 505.472C692.862 505.755 692.89 506.044 692.987 506.313C693.084 506.582 693.247 506.823 693.461 507.012C693.675 507.202 693.933 507.336 694.212 507.4L702.431 508.89C702.715 508.928 703.004 508.894 703.271 508.792C703.539 508.689 703.776 508.521 703.962 508.303C704.147 508.085 704.275 507.824 704.334 507.543C704.393 507.263 704.38 506.972 704.297 506.698Z" fill="#E8EFFF"/>
</g>
</svg>
