<svg xmlns="http://www.w3.org/2000/svg" width="254" height="293" fill="none" viewBox="0 0 254 293"><g opacity=".2"><path fill="#fff" d="M245.763 50.7629L242.326 5.57117C242.221 4.20199 242.667 2.8474 243.566 1.80542C244.465 0.763435 245.743 0.119403 247.12 0.0149986C248.496 -0.0894055 249.858 0.354374 250.905 1.24871C251.952 2.14304 252.6 3.41467 252.705 4.78386C252.728 5.04579 252.728 5.30924 252.705 5.57117L249.268 50.7629C249.253 50.9925 249.193 51.2171 249.091 51.4233C248.988 51.6296 248.846 51.8135 248.671 51.9643C248.496 52.1151 248.293 52.2297 248.073 52.3015C247.853 52.3733 247.621 52.4009 247.391 52.3825C246.969 52.3513 246.573 52.1707 246.275 51.8734C245.976 51.5762 245.794 51.1821 245.763 50.7629Z"/><path fill="#fff" d="M225.797 53.2145L212.999 9.7324C212.806 9.07956 212.744 8.39529 212.817 7.71866C212.89 7.04204 213.096 6.38631 213.423 5.7889C213.751 5.1915 214.193 4.66412 214.726 4.2369C215.258 3.80967 215.87 3.49095 216.526 3.29894C217.182 3.10693 217.87 3.04538 218.55 3.11782C219.231 3.19026 219.89 3.39525 220.49 3.72111C221.091 4.04696 221.621 4.4873 222.05 5.01696C222.48 5.54663 222.8 6.15526 222.993 6.8081C222.993 7.05555 223.106 7.32548 223.151 7.57292L229.234 52.5622C229.284 52.9965 229.17 53.434 228.913 53.7888C228.656 54.1436 228.275 54.3902 227.845 54.4803C227.415 54.5704 226.967 54.4975 226.588 54.2758C226.209 54.0541 225.927 53.6997 225.797 53.282V53.2145Z"/><path fill="#fff" d="M206.781 59.7383L185.164 19.8553C184.828 19.2562 184.615 18.5966 184.537 17.9148C184.459 17.2329 184.519 16.5425 184.712 15.8838C184.905 15.2251 185.228 14.6112 185.662 14.0778C186.096 13.5444 186.632 13.1022 187.24 12.777C187.847 12.4518 188.513 12.25 189.2 12.1834C189.886 12.1168 190.579 12.1867 191.238 12.3891C191.897 12.5914 192.509 12.9222 193.039 13.3621C193.568 13.802 194.004 14.3423 194.322 14.9515C194.455 15.1704 194.561 15.4045 194.638 15.6488L209.969 58.3886C210.158 58.8092 210.171 59.2872 210.006 59.7175C209.84 60.1478 209.51 60.4951 209.087 60.6831C208.664 60.871 208.184 60.8841 207.751 60.7196C207.319 60.5551 206.97 60.2264 206.781 59.8058V59.7383Z"/><path fill="#fff" d="M189.527 70.0632L160.132 35.5339C159.233 34.4839 158.789 33.1214 158.899 31.7462C159.01 30.3709 159.665 29.0956 160.72 28.2007C161.776 27.3058 163.145 26.8647 164.528 26.9744C165.91 27.084 167.192 27.7356 168.092 28.7856C168.255 28.994 168.406 29.2118 168.544 29.4379L192.309 68.0162C192.551 68.4131 192.625 68.8893 192.515 69.3405C192.404 69.7916 192.119 70.1809 191.721 70.4231C191.37 70.6269 190.959 70.7024 190.559 70.6367C190.158 70.571 189.794 70.3681 189.527 70.0632Z"/><path fill="#fff" d="M174.83 83.7624L138.764 56.049C137.661 55.2078 136.939 53.965 136.756 52.594C136.574 51.2229 136.947 49.836 137.792 48.7383C138.638 47.6405 139.887 46.9219 141.265 46.7405C142.643 46.5591 144.038 46.9298 145.141 47.771L145.729 48.2884L177.182 81.063C177.51 81.3918 177.695 81.8366 177.695 82.3002C177.695 82.7639 177.51 83.2087 177.182 83.5374C176.887 83.8577 176.484 84.0579 176.049 84.0995C175.615 84.141 175.181 84.0209 174.83 83.7624Z"/><path fill="#fff" d="M163.299 100.139L122.213 80.5008C121.597 80.2054 121.045 79.7921 120.59 79.2846C120.134 78.7771 119.783 78.1853 119.558 77.543C119.332 76.9007 119.236 76.2205 119.274 75.5411C119.313 74.8618 119.485 74.1966 119.782 73.5837C120.079 72.9707 120.495 72.4219 121.005 71.9687C121.515 71.5154 122.11 71.1665 122.755 70.942C123.401 70.7174 124.085 70.6216 124.768 70.66C125.451 70.6983 126.119 70.8701 126.735 71.1655C126.974 71.2786 127.201 71.4142 127.414 71.5704L165.175 97.1243C165.524 97.3814 165.765 97.7574 165.853 98.1803C165.94 98.6033 165.868 99.0435 165.65 99.4168C165.431 99.79 165.082 100.07 164.669 100.203C164.256 100.336 163.809 100.313 163.412 100.139H163.299Z"/><path fill="#fff" d="M155.451 118.561L111.177 107.854C110.513 107.693 109.888 107.404 109.337 107.002C108.786 106.601 108.319 106.095 107.965 105.515C107.61 104.934 107.373 104.289 107.269 103.618C107.164 102.946 107.194 102.261 107.356 101.601C107.518 100.94 107.809 100.318 108.212 99.7699C108.615 99.2215 109.124 98.7576 109.707 98.4046C110.291 98.0516 110.939 97.8164 111.614 97.7125C112.289 97.6086 112.978 97.6379 113.642 97.7989C113.897 97.85 114.147 97.9253 114.388 98.0239L156.536 115.255C156.922 115.439 157.227 115.756 157.394 116.147C157.562 116.538 157.582 116.977 157.449 117.381C157.316 117.785 157.041 118.128 156.673 118.345C156.306 118.562 155.871 118.639 155.451 118.561Z"/><path fill="#fff" d="M151.607 138.222L106.067 136.895C104.682 136.853 103.37 136.265 102.42 135.261C101.471 134.257 100.96 132.919 101.002 131.541C101.044 130.163 101.635 128.858 102.644 127.913C103.653 126.968 104.999 126.46 106.384 126.502C106.647 126.479 106.912 126.479 107.175 126.502L151.992 134.623C152.411 134.719 152.781 134.964 153.031 135.312C153.282 135.661 153.395 136.088 153.351 136.514C153.306 136.94 153.107 137.335 152.79 137.625C152.473 137.914 152.06 138.079 151.63 138.087L151.607 138.222Z"/><path fill="#fff" d="M151.994 158.242L107.177 166.362C105.819 166.61 104.418 166.31 103.281 165.53C102.145 164.75 101.366 163.552 101.118 162.201C100.869 160.849 101.17 159.455 101.954 158.325C102.738 157.194 103.942 156.42 105.301 156.172H106.092L151.632 154.867C151.863 154.858 152.093 154.895 152.309 154.975C152.525 155.055 152.723 155.178 152.891 155.335C153.06 155.492 153.195 155.68 153.289 155.89C153.384 156.099 153.435 156.325 153.441 156.555C153.428 156.957 153.277 157.344 153.015 157.65C152.752 157.957 152.392 158.165 151.994 158.242Z"/><path fill="#fff" d="M156.538 177.745L114.39 194.954C113.757 195.212 113.08 195.344 112.396 195.342C111.712 195.34 111.036 195.204 110.405 194.942C109.13 194.413 108.12 193.401 107.595 192.131C107.07 190.86 107.074 189.434 107.607 188.166C108.139 186.898 109.155 185.893 110.433 185.371L111.179 185.124L155.453 174.416C155.885 174.31 156.342 174.371 156.732 174.587C157.121 174.803 157.414 175.157 157.551 175.579C157.689 176 157.661 176.458 157.473 176.86C157.285 177.262 156.951 177.578 156.538 177.745Z"/><path fill="#fff" d="M165.04 195.875L127.436 221.429C126.872 221.813 126.238 222.083 125.569 222.223C124.9 222.363 124.209 222.371 123.538 222.245C122.866 222.12 122.225 221.864 121.653 221.493C121.08 221.121 120.587 220.641 120.201 220.08C119.815 219.518 119.544 218.887 119.403 218.221C119.262 217.556 119.254 216.869 119.38 216.201C119.506 215.533 119.763 214.895 120.137 214.326C120.511 213.756 120.993 213.265 121.557 212.881C121.77 212.725 121.997 212.59 122.236 212.476L163.299 192.861C163.7 192.631 164.178 192.57 164.625 192.69C165.072 192.81 165.453 193.103 165.684 193.502C165.915 193.902 165.977 194.377 165.856 194.822C165.735 195.267 165.442 195.646 165.04 195.875Z"/><path fill="#fff" d="M177.16 211.847L145.707 244.644C144.753 245.637 143.442 246.213 142.062 246.244C140.682 246.276 139.345 245.761 138.347 244.812C137.348 243.864 136.77 242.559 136.738 241.186C136.706 239.813 137.224 238.484 138.177 237.49C138.357 237.293 138.554 237.113 138.765 236.951L174.831 209.26C175.183 209.035 175.604 208.943 176.019 209.002C176.433 209.061 176.812 209.266 177.086 209.58C177.361 209.894 177.512 210.296 177.514 210.712C177.515 211.128 177.365 211.531 177.092 211.847H177.16Z"/><path fill="#fff" d="M192.308 224.983L168.407 263.539C167.685 264.708 166.525 265.544 165.183 265.862C163.841 266.181 162.426 265.956 161.251 265.237C160.075 264.518 159.235 263.364 158.915 262.029C158.595 260.694 158.821 259.287 159.544 258.118C159.681 257.891 159.832 257.674 159.996 257.465L189.391 222.936C189.526 222.751 189.697 222.595 189.892 222.476C190.088 222.357 190.306 222.277 190.533 222.242C190.759 222.206 190.991 222.215 191.214 222.269C191.437 222.322 191.648 222.419 191.833 222.554C192.019 222.688 192.176 222.857 192.296 223.052C192.416 223.247 192.495 223.463 192.531 223.689C192.567 223.915 192.558 224.145 192.504 224.367C192.45 224.589 192.353 224.798 192.218 224.983H192.308Z"/><path fill="#fff" d="M209.969 234.678L194.638 277.418C194.173 278.713 193.21 279.771 191.962 280.359C190.713 280.948 189.28 281.019 187.979 280.556C186.677 280.094 185.614 279.136 185.022 277.894C184.431 276.651 184.36 275.226 184.824 273.932C184.916 273.686 185.022 273.446 185.141 273.212L206.758 233.329C206.972 232.947 207.322 232.658 207.74 232.519C208.157 232.381 208.611 232.402 209.013 232.58C209.415 232.757 209.736 233.078 209.913 233.479C210.09 233.879 210.11 234.331 209.969 234.746V234.678Z"/><path fill="#fff" d="M229.211 240.504L223.129 285.494C222.943 286.854 222.221 288.085 221.123 288.916C220.025 289.747 218.64 290.11 217.272 289.925C215.905 289.74 214.667 289.022 213.832 287.93C212.997 286.837 212.632 285.459 212.818 284.099C212.849 283.84 212.902 283.584 212.976 283.334L225.797 239.852C225.844 239.629 225.936 239.417 226.065 239.229C226.195 239.041 226.361 238.881 226.553 238.756C226.745 238.632 226.96 238.547 227.185 238.505C227.41 238.463 227.642 238.466 227.866 238.514C228.09 238.561 228.303 238.652 228.492 238.781C228.681 238.91 228.842 239.074 228.967 239.265C229.092 239.457 229.178 239.67 229.22 239.894C229.262 240.119 229.259 240.349 229.211 240.572V240.504Z"/><path fill="#fff" d="M249.268 242.237L252.705 287.429C252.81 288.798 252.364 290.153 251.465 291.195C250.566 292.237 249.288 292.881 247.912 292.985C246.535 293.089 245.174 292.646 244.126 291.751C243.079 290.857 242.431 289.585 242.326 288.216C242.303 287.954 242.303 287.691 242.326 287.429L245.763 242.237C245.812 241.809 246.018 241.414 246.341 241.127C246.665 240.84 247.083 240.681 247.516 240.681C247.949 240.681 248.367 240.84 248.69 241.127C249.014 241.414 249.219 241.809 249.268 242.237Z"/></g><path fill="#E8AA33" d="M110.486 89.5623L101.154 58.2799C101.014 57.8102 100.968 57.318 101.022 56.8312C101.075 56.3444 101.225 55.8726 101.464 55.4428C101.703 55.0131 102.025 54.6336 102.413 54.3263C102.802 54.0189 103.248 53.7896 103.726 53.6515C104.205 53.5133 104.706 53.4691 105.202 53.5212C105.698 53.5733 106.179 53.7208 106.616 53.9552C107.054 54.1896 107.441 54.5064 107.754 54.8875C108.067 55.2685 108.301 55.7064 108.441 56.1761C108.441 56.3541 108.524 56.5483 108.557 56.7263L112.992 89.093C113.028 89.4055 112.945 89.7202 112.758 89.9754C112.57 90.2307 112.293 90.4081 111.979 90.4729C111.665 90.5377 111.338 90.4853 111.062 90.3258C110.786 90.1663 110.58 89.9113 110.486 89.6108V89.5623Z"/><path fill="#fff" d="M182.776 175.024L160.842 210.248C160.178 211.316 159.114 212.08 157.882 212.371C156.651 212.662 155.353 212.456 154.274 211.8C153.195 211.143 152.424 210.089 152.13 208.869C151.836 207.649 152.044 206.364 152.707 205.295C152.834 205.089 152.972 204.89 153.122 204.699L180.099 173.154C180.223 172.985 180.379 172.842 180.559 172.733C180.739 172.624 180.938 172.552 181.146 172.519C181.354 172.487 181.567 172.495 181.772 172.544C181.977 172.593 182.17 172.682 182.34 172.804C182.51 172.927 182.654 173.082 182.764 173.26C182.874 173.438 182.948 173.636 182.98 173.842C183.013 174.048 183.005 174.258 182.955 174.461C182.906 174.664 182.817 174.855 182.693 175.024H182.776Z"/><path fill="#EAB1D2" d="M4.26752 35.0044L57.9944 76.5865C59.6204 77.8487 60.6792 79.7064 60.9382 81.7509C61.1972 83.7954 60.6352 85.8592 59.3755 87.4883C58.1159 89.1175 56.2619 90.1786 54.2215 90.4381C52.1811 90.6976 50.1213 90.1343 48.4954 88.8722L47.6195 88.0959L0.764297 39.0884C0.274737 38.5951 0 37.9277 0 37.232C0 36.5363 0.274737 35.8689 0.764297 35.3757C1.19864 34.89 1.79742 34.5832 2.44462 34.5146C3.09182 34.446 3.7414 34.6205 4.26752 35.0044Z"/><path fill="#E58A6D" d="M129.67 133.12L217.891 73.607C220.564 71.8007 223.854 71.1171 227.038 71.7066C230.221 72.2961 233.037 74.1104 234.867 76.7502C236.696 79.3901 237.388 82.6394 236.791 85.7833C236.194 88.9272 234.357 91.7081 231.684 93.5144C231.185 93.8782 230.652 94.1939 230.092 94.4573L133.755 140.14C132.797 140.572 131.705 140.617 130.713 140.265C129.722 139.912 128.91 139.19 128.45 138.254C128.007 137.393 127.886 136.406 128.109 135.466C128.333 134.527 128.886 133.695 129.67 133.12Z"/></svg>