<svg xmlns="http://www.w3.org/2000/svg" width="120" height="120" fill="none" viewBox="0 0 120 120"><rect width="120" height="120" fill="#fff"/><g clip-path="url(#clip0)"><path fill="#E58A6D" d="M42.8825 58.4075C43.19 59.555 42.395 61.34 43.2125 62.7425C44.03 64.145 46.01 64.3925 46.7975 65.1875C47.2951 65.8927 47.7197 66.6465 48.065 67.4375C47.8776 68.041 49.25 68.75 49.25 68.75L55 70C55 70 55.7973 70.7613 56.45 70.775C56.45 70.775 57.879 71.0601 58.55 70.775L61.3775 69.11L62.2098 69.1996C63.9686 69.389 65.7153 68.7487 66.935 67.4675V67.4675C67.2816 66.6787 67.7035 65.9252 68.195 65.2175C69.0125 64.3775 71 64.1525 71.7875 62.75C72.575 61.3475 71.825 59.525 72.1175 58.415C72.41 57.305 74 56.1425 74 54.5C74 52.8575 72.395 51.635 72.1175 50.585C71.84 49.535 72.605 47.6525 71.7875 46.25C70.97 44.8475 68.99 44.6 68.2025 43.805C67.415 43.01 67.1675 41 65.75 40.205C64.3325 39.41 62.525 40.205 61.415 39.8825C60.305 39.56 59.15 38 57.5 38C55.85 38 54.6425 39.5975 53.585 39.8825C52.415 40.19 50.66 39.3875 49.25 40.205C47.84 41.0225 47.6075 42.995 46.805 43.7975C46.0025 44.6 44 44.8325 43.25 46.25C42.5 47.6675 43.25 49.475 42.92 50.585C42.59 51.695 41 52.8425 41 54.5C41 56.1575 42.5975 57.3425 42.8825 58.4075ZM55 70L49.25 68.75C49.25 68.75 52.475 68.75 53.585 69.0725C54.1259 69.3047 54.546 69.6253 55 70ZM43.34 52.775C44.4125 51.275 44.5625 50.78 44.39 48.8375C44.2175 46.895 44.3225 46.76 46.07 45.9575C47.8175 45.155 48.1625 44.8025 48.9575 43.0625C49.7525 41.3225 50 41.2175 51.845 41.39C53.69 41.5625 54.2675 41.39 55.7825 40.34C57.2975 39.29 57.635 39.2225 59.2175 40.34C60.8 41.4575 61.25 41.555 63.155 41.39C65.06 41.225 65.24 41.3225 66.0425 43.0625C66.845 44.8025 67.205 45.155 68.93 45.9575C70.655 46.76 70.7825 46.9625 70.61 48.8375C70.4375 50.7125 70.61 51.2675 71.66 52.775C72.71 54.2825 72.7775 54.6275 71.66 56.21C70.5425 57.7925 70.4375 58.205 70.61 60.1475C70.7825 62.09 70.6775 62.225 68.93 63.035C67.1825 63.845 66.845 64.1825 66.0425 65.9225C65.24 67.6625 65.0375 67.7675 63.155 67.6025C61.2725 67.4375 60.7325 67.6025 59.2175 68.645C57.7025 69.6875 57.365 69.7625 55.7825 68.645C55.0008 67.938 53.9865 67.543 52.9325 67.535C51.8525 67.535 50.63 67.8425 50 67.4825C49.1375 66.98 48.905 65.165 47.8625 64.13C46.82 63.095 44.9975 62.84 44.51 62C44.0225 61.16 44.7125 59.45 44.33 58.0325C43.9475 56.615 42.5 55.4975 42.5 54.5C42.6136 53.8579 42.9046 53.2604 43.34 52.775Z"/><path fill="#E58A6D" d="M57.5 65.75C63.7132 65.75 68.75 60.7132 68.75 54.5C68.75 48.2868 63.7132 43.25 57.5 43.25C51.2868 43.25 46.25 48.2868 46.25 54.5C46.25 60.7132 51.2868 65.75 57.5 65.75ZM57.5 44.75C62.8848 44.75 67.25 49.1152 67.25 54.5C67.25 59.8848 62.8848 64.25 57.5 64.25C52.1152 64.25 47.75 59.8848 47.75 54.5C47.75 51.9141 48.7772 49.4342 50.6057 47.6057C52.4342 45.7772 54.9141 44.75 57.5 44.75Z"/><path stroke="#E58A6D" stroke-linecap="square" d="M54 54.5L57.5 58.5L61 50"/><path stroke="#E58A6D" d="M48.5 68L44 81L48.5 78.5L51.5 83.5L56.5 70H59L63.5 83.5L66 78.5L71 81L66 68"/></g><defs><clipPath id="clip0"><rect width="45" height="47" fill="#fff" transform="translate(35 38)"/></clipPath></defs></svg>