<svg xmlns="http://www.w3.org/2000/svg" width="120" height="120" fill="none" viewBox="0 0 120 120"><rect width="120" height="120" fill="#fff"/><g clip-path="url(#clip0)"><path fill="#E58A6D" d="M41.1134 57.9575C39.8889 57.9575 38.8984 58.9319 38.8984 60.1367C38.8984 61.3414 39.8889 62.3158 41.1134 62.3158C42.3379 62.3158 43.3283 61.3414 43.3283 60.1367C43.3283 58.9408 42.3379 57.9575 41.1134 57.9575ZM41.1134 60.863C40.7082 60.863 40.3751 60.5353 40.3751 60.1367C40.3751 59.738 40.7082 59.4103 41.1134 59.4103C41.5186 59.4103 41.8517 59.738 41.8517 60.1367C41.8517 60.5353 41.5186 60.863 41.1134 60.863Z"/><path fill="#E58A6D" d="M65.2249 49.6752C65.378 49.0639 65.459 48.435 65.459 47.7972C65.459 43.3947 61.8214 39.8159 57.3465 39.8159C52.8716 39.8159 49.234 43.3947 49.234 47.7972C49.234 48.3199 49.288 48.8336 49.3871 49.3297C48.7298 49.4803 48.0725 49.6397 47.4512 49.8258C45.9476 47.6643 43.4355 46.3445 40.7613 46.3445C38.4113 46.3445 36.0703 47.5403 36.0703 47.5403L37.9161 48.2224C39.7799 48.9134 41.2295 50.375 41.8688 52.2086C39.1857 53.7854 37.1238 55.7608 35.8722 57.9665C34.2859 57.9665 33 59.2525 33 60.8387V65.2549C33 66.8362 34.2819 68.1181 35.8632 68.1181C37.4389 70.8907 40.3202 73.309 44.0658 75.001V78.184C44.0658 79.8409 45.4089 81.184 47.0658 81.184H49.9166C51.5734 81.184 52.9166 79.8409 52.9166 78.184V77.3484C55.1676 77.5964 57.3375 77.623 59.5525 77.4281V78.184C59.5525 79.8409 60.8956 81.184 62.5525 81.184H65.4033C67.0601 81.184 68.4033 79.8409 68.4033 78.184V75.3287C74.8861 72.6624 78.7397 68.1004 78.7397 63.0423C78.7397 57.125 73.4544 51.9429 65.2249 49.6752ZM57.3465 41.2687C61.0111 41.2687 63.9824 44.2008 63.9824 47.7972C63.9824 49.4183 63.3881 50.9596 62.2896 52.1555H58.0848V51.2962C58.9402 50.9951 59.5615 50.1978 59.5615 49.25C59.5615 48.0452 58.571 47.0708 57.3465 47.0708C56.9413 47.0708 56.6082 46.7431 56.6082 46.3445C56.6082 45.9458 56.9413 45.6181 57.3465 45.6181C57.7517 45.6181 58.0848 45.9458 58.0848 46.3445H59.5615C59.5615 45.3966 58.9402 44.5994 58.0848 44.2982V43.4389H56.6082V44.2982C55.7528 44.5994 55.1315 45.3966 55.1315 46.3445C55.1315 47.5492 56.122 48.5236 57.3465 48.5236C57.7517 48.5236 58.0848 48.8514 58.0848 49.25C58.0848 49.6486 57.7517 49.9764 57.3465 49.9764C56.9413 49.9764 56.6082 49.6486 56.6082 49.25H55.1315C55.1315 50.1978 55.7528 50.9951 56.6082 51.2962V52.1555H52.3944C51.3049 50.9596 50.7016 49.4271 50.7016 47.7972C50.7016 44.1919 53.6819 41.2687 57.3465 41.2687ZM67.4038 74.1683L66.9356 74.3543V78.7401C66.9356 79.2924 66.4879 79.7401 65.9356 79.7401H62.0381C61.4858 79.7401 61.0381 79.2924 61.0381 78.7401V75.8159L60.2187 75.9045C57.5806 76.1968 54.9875 76.1791 52.2863 75.8071L51.449 75.6919V78.7313C51.449 79.2836 51.0012 79.7313 50.449 79.7313H46.5514C45.9991 79.7313 45.5514 79.2836 45.5514 78.7313V74.0531L45.1102 73.8671C41.2836 72.2283 38.3933 69.8189 36.9797 67.0728L36.7726 66.6742H35.4766C34.9244 66.6742 34.4766 66.2265 34.4766 65.6742V60.4193C34.4766 59.867 34.9244 59.4193 35.4766 59.4193H36.7636C36.7636 59.4193 38.4744 55.4153 43.0934 53.1919L43.5886 52.9173L43.4535 52.3769C42.9763 50.5167 41.8328 48.9045 40.2661 47.8238C42.7692 47.6466 45.2183 48.9134 46.4878 51.0571L46.7849 51.562C46.7849 51.562 48.9549 50.9242 49.8012 50.7293C49.9993 51.2254 50.2514 51.7037 50.5486 52.1555H49.234V53.6082H65.468V52.1555H64.1534C64.3875 51.8012 64.5856 51.438 64.7567 51.0571C72.2659 53.1122 77.2721 57.8691 77.2721 63.0512C77.2631 67.5954 73.5805 71.7588 67.4038 74.1683Z"/><path stroke="#E58A6D" stroke-linecap="round" stroke-linejoin="round" stroke-width="2" d="M78.0013 61.6808C80.0983 64.0713 87.4194 60.8341 85.2219 56.5854"/></g><defs><clipPath id="clip0"><rect width="53" height="45" fill="#fff" transform="translate(33 38)"/></clipPath></defs></svg>