<svg xmlns="http://www.w3.org/2000/svg" width="240" height="60" fill="none" viewBox="0 0 240 60"><path fill="#143284" d="M167.855 32.0717H169.806V34.3088C170.271 32.9021 171.634 31.8853 173.512 31.8853C175.537 31.8853 177.122 32.7631 177.559 34.3562C178.024 32.9699 179.672 31.8853 181.536 31.8853C184.192 31.8853 185.801 33.58 185.801 36.3865V43.7045H183.868V36.8712C183.868 34.8884 182.811 33.5258 181.088 33.5258C179.042 33.5258 177.823 34.8816 177.823 36.8712V43.7045H175.872V36.8712C175.872 34.8884 174.815 33.5258 173.117 33.5258C171.043 33.5258 169.824 34.8816 169.824 36.8712V43.7045H167.872L167.855 32.0717Z"/><path fill="#143284" d="M188.313 37.8881C188.313 34.3799 190.923 31.8853 194.554 31.8853C198.186 31.8853 200.821 34.3799 200.821 37.8881C200.821 41.3962 198.211 43.8909 194.554 43.8909C190.898 43.8909 188.313 41.3725 188.313 37.8881ZM198.824 37.8881C198.824 35.3493 197.091 33.5495 194.554 33.5495C192.018 33.5495 190.328 35.3493 190.328 37.8881C190.328 40.4268 192.057 42.2267 194.554 42.2267C197.052 42.2267 198.824 40.4268 198.824 37.8881Z"/><path fill="#143284" d="M203.332 32.0717H205.283V34.3088C205.918 32.6953 207.453 31.8853 209.331 31.8853C212.11 31.8853 213.91 33.7563 213.91 36.5967V43.7147H211.962V36.895C211.965 34.9121 210.743 33.5563 208.876 33.5563C206.78 33.5563 205.269 35.1494 205.269 37.4135V43.6909H203.318L203.332 32.0717Z"/><path fill="#143284" d="M228.13 39.9659C227.714 42.3385 225.544 43.8909 222.494 43.8909C218.862 43.8909 216.421 41.142 216.421 37.8203C216.421 34.4037 218.665 31.8853 222.275 31.8853C225.886 31.8853 228.003 34.2579 228.003 37.3356C228.003 37.5864 227.978 37.9796 227.957 38.1423H218.351C218.499 40.5421 220.18 42.2504 222.497 42.2504C224.498 42.2504 225.766 41.42 226.154 39.9659H228.13ZM218.45 36.6645H226.009C225.861 34.7019 224.473 33.4546 222.279 33.4546C220.204 33.4546 218.816 34.6104 218.45 36.6645Z"/><path fill="#143284" d="M236.08 42.1114L233.836 48.4159H231.958L233.533 43.8909L228.954 32.0717H230.979L234.466 41.3047L237.954 32.0717H240L236.08 42.1114Z"/><path fill="#143284" d="M156.918 18.9813H155.9V18.4559H158.549V18.9813H157.527V21.7641H156.918V18.9813ZM159.176 18.4627H159.813L160.831 20.6015L161.846 18.4627H162.48V21.7641H161.881V19.6592L161.014 21.4421H160.645L159.785 19.6592V21.7471H159.176V18.4627Z"/><path fill="#143284" d="M0 0H6.98133V25.1197C9.24974 19.3202 14.7482 16.4425 21.4864 16.4425C31.4336 16.4425 37.8901 23.1368 37.8901 33.2986V58.747H30.8912V34.373C30.8912 27.2551 26.5305 22.4759 19.8979 22.4759C12.3917 22.4759 6.98133 28.177 6.98133 36.2712V58.747H0V0Z"/><path fill="#143284" d="M84.2972 31.8952V58.7469H77.3159V51.5577C74.9595 56.3505 69.1123 59.4078 62.3071 59.4078C53.0574 59.4078 47.0341 54.449 47.0341 46.8497C47.0341 38.9182 53.9309 33.878 64.5755 33.878H74.5262C76.4459 33.878 77.3159 32.9663 77.3159 31.6443C77.3159 25.9432 73.0398 22.0622 65.5371 22.0622C59.0771 22.0622 54.0155 25.8618 53.6667 30.4072H47.0341C47.8196 22.391 55.84 16.4424 65.7027 16.4424C77.1398 16.4424 84.2972 22.6384 84.2972 31.8952ZM77.3159 39.9961V38.9216H65.0123C58.4677 38.9216 54.1916 41.8942 54.1916 46.7684C54.1916 51.0662 57.7703 53.7914 63.3497 53.7914C72.1697 53.788 77.3159 48.5851 77.3159 39.9961Z"/><path fill="#143284" d="M94.9419 0H101.923V58.747H94.9419V0Z"/><path fill="#EAB1D2" d="M133.371 23.4995L132.836 16.6899C132.819 16.4836 132.889 16.2795 133.029 16.1225C133.169 15.9655 133.368 15.8685 133.582 15.8527C133.797 15.837 134.009 15.9039 134.172 16.0386C134.335 16.1734 134.436 16.365 134.452 16.5713C134.456 16.6108 134.456 16.6505 134.452 16.6899L133.917 23.4995C133.915 23.5341 133.905 23.5679 133.889 23.599C133.873 23.6301 133.851 23.6578 133.824 23.6805C133.797 23.7032 133.765 23.7205 133.731 23.7313C133.697 23.7421 133.66 23.7463 133.625 23.7435C133.559 23.7388 133.497 23.7116 133.451 23.6668C133.404 23.622 133.376 23.5626 133.371 23.4995Z"/><path fill="#E8AA33" d="M130.261 23.869L128.267 17.317C128.237 17.2187 128.227 17.1156 128.239 17.0136C128.25 16.9117 128.282 16.8129 128.333 16.7228C128.384 16.6328 128.453 16.5534 128.536 16.489C128.619 16.4246 128.714 16.3766 128.816 16.3476C128.919 16.3187 129.026 16.3094 129.132 16.3204C129.238 16.3313 129.34 16.3622 129.434 16.4113C129.528 16.4604 129.61 16.5267 129.677 16.6065C129.744 16.6863 129.794 16.778 129.824 16.8764C129.824 16.9137 129.841 16.9544 129.849 16.9917L130.796 23.7707C130.804 23.8361 130.786 23.902 130.746 23.9555C130.706 24.009 130.647 24.0461 130.58 24.0597C130.513 24.0733 130.443 24.0623 130.384 24.0289C130.325 23.9955 130.281 23.9421 130.261 23.8791V23.869Z"/><path fill="#F63A19" d="M127.298 24.8519L123.931 18.8423C123.879 18.752 123.845 18.6526 123.833 18.5499C123.821 18.4472 123.83 18.3431 123.861 18.2439C123.891 18.1446 123.941 18.0521 124.009 17.9718C124.076 17.8914 124.16 17.8248 124.254 17.7757C124.349 17.7267 124.453 17.6963 124.56 17.6863C124.667 17.6763 124.775 17.6868 124.877 17.7173C124.98 17.7478 125.075 17.7976 125.158 17.8639C125.24 17.9302 125.308 18.0116 125.358 18.1034C125.378 18.1364 125.395 18.1717 125.407 18.2085L127.795 24.6486C127.824 24.7119 127.826 24.784 127.801 24.8488C127.775 24.9136 127.723 24.966 127.658 24.9943C127.592 25.0226 127.517 25.0246 127.45 24.9998C127.382 24.975 127.328 24.9255 127.298 24.8621V24.8519Z"/><path fill="#143284" d="M124.611 26.4077L120.032 21.2048C119.892 21.0466 119.822 20.8413 119.84 20.6341C119.857 20.4269 119.959 20.2347 120.123 20.0999C120.288 19.965 120.501 19.8986 120.716 19.9151C120.932 19.9316 121.131 20.0298 121.272 20.188C121.297 20.2194 121.321 20.2522 121.342 20.2863L125.044 26.0993C125.082 26.1591 125.093 26.2309 125.076 26.2988C125.059 26.3668 125.014 26.4255 124.952 26.462C124.898 26.4927 124.834 26.5041 124.771 26.4942C124.709 26.4843 124.652 26.4537 124.611 26.4077Z"/><path fill="#E58A6D" d="M122.321 28.472L116.703 24.2961C116.531 24.1694 116.419 23.9821 116.39 23.7755C116.362 23.5689 116.42 23.3599 116.552 23.1945C116.683 23.0291 116.878 22.9208 117.093 22.8935C117.307 22.8662 117.524 22.922 117.696 23.0488L117.788 23.1267L122.688 28.0653C122.739 28.1148 122.767 28.1818 122.767 28.2517C122.767 28.3215 122.739 28.3886 122.688 28.4381C122.642 28.4864 122.579 28.5165 122.511 28.5228C122.443 28.5291 122.376 28.511 122.321 28.472Z"/><path fill="#EAB1D2" d="M120.525 30.9393L114.125 27.9803C114.029 27.9358 113.943 27.8735 113.872 27.797C113.801 27.7206 113.746 27.6314 113.711 27.5346C113.676 27.4378 113.661 27.3353 113.667 27.233C113.673 27.1306 113.7 27.0304 113.746 26.938C113.792 26.8456 113.857 26.7629 113.936 26.6947C114.016 26.6264 114.109 26.5738 114.209 26.54C114.31 26.5061 114.416 26.4917 114.523 26.4975C114.629 26.5032 114.733 26.5291 114.829 26.5736C114.866 26.5907 114.902 26.6111 114.935 26.6346L120.817 30.4851C120.871 30.5239 120.909 30.5805 120.923 30.6443C120.936 30.708 120.925 30.7743 120.891 30.8306C120.857 30.8868 120.803 30.929 120.738 30.9491C120.674 30.9691 120.604 30.9657 120.542 30.9393H120.525Z"/><path fill="#E8AA33" d="M119.303 33.7153L112.406 32.1019C112.302 32.0776 112.205 32.034 112.119 31.9735C112.033 31.913 111.961 31.8369 111.905 31.7494C111.85 31.6619 111.813 31.5648 111.797 31.4636C111.781 31.3624 111.785 31.2591 111.81 31.1596C111.836 31.0601 111.881 30.9664 111.944 30.8838C112.007 30.8011 112.086 30.7312 112.177 30.678C112.268 30.6248 112.369 30.5894 112.474 30.5737C112.579 30.5581 112.686 30.5625 112.79 30.5868C112.829 30.5945 112.868 30.6058 112.906 30.6207L119.472 33.217C119.532 33.2448 119.579 33.2926 119.605 33.3515C119.631 33.4104 119.635 33.4765 119.614 33.5374C119.593 33.5983 119.55 33.6499 119.493 33.6827C119.436 33.7154 119.368 33.727 119.303 33.7153Z"/><path fill="#F63A19" d="M118.704 36.678L111.61 36.478C111.394 36.4717 111.19 36.3832 111.042 36.2319C110.894 36.0806 110.814 35.8789 110.821 35.6713C110.827 35.4636 110.919 35.267 111.076 35.1246C111.234 34.9822 111.443 34.9057 111.659 34.912C111.7 34.9086 111.741 34.9086 111.782 34.912L118.764 36.1356C118.829 36.1501 118.887 36.1871 118.926 36.2396C118.965 36.292 118.982 36.3564 118.975 36.4206C118.968 36.4848 118.937 36.5443 118.888 36.588C118.839 36.6316 118.774 36.6564 118.707 36.6576L118.704 36.678Z"/><path fill="#143284" d="M118.764 39.6945L111.782 40.9182C111.571 40.9555 111.352 40.9104 111.175 40.7928C110.998 40.6752 110.877 40.4947 110.838 40.2911C110.8 40.0875 110.846 39.8774 110.969 39.707C111.091 39.5367 111.278 39.42 111.49 39.3827H111.613L118.707 39.1861C118.743 39.1848 118.779 39.1903 118.813 39.2024C118.846 39.2144 118.877 39.2328 118.903 39.2565C118.93 39.2802 118.951 39.3086 118.965 39.3401C118.98 39.3717 118.988 39.4058 118.989 39.4403C118.987 39.501 118.964 39.5592 118.923 39.6054C118.882 39.6516 118.826 39.683 118.764 39.6945Z"/><path fill="#E58A6D" d="M119.472 42.6333L112.906 45.2263C112.807 45.2652 112.702 45.2851 112.595 45.2848C112.489 45.2845 112.383 45.264 112.285 45.2245C112.087 45.1448 111.929 44.9924 111.847 44.8009C111.766 44.6094 111.766 44.3945 111.849 44.2035C111.932 44.0125 112.09 43.861 112.289 43.7824L112.406 43.7451L119.302 42.1317C119.37 42.1157 119.441 42.1249 119.502 42.1574C119.562 42.1899 119.608 42.2433 119.629 42.3068C119.651 42.3704 119.646 42.4394 119.617 42.4999C119.588 42.5605 119.536 42.6082 119.472 42.6333Z"/><path fill="#E8AA33" d="M120.796 45.3651L114.938 49.2156C114.85 49.2735 114.752 49.3141 114.647 49.3352C114.543 49.3563 114.436 49.3574 114.331 49.3386C114.226 49.3197 114.127 49.2811 114.037 49.2251C113.948 49.1692 113.871 49.0968 113.811 49.0122C113.751 48.9277 113.709 48.8325 113.687 48.7322C113.665 48.632 113.664 48.5285 113.683 48.4278C113.703 48.3271 113.743 48.2311 113.801 48.1452C113.859 48.0594 113.935 47.9855 114.023 47.9276C114.056 47.904 114.091 47.8836 114.128 47.8666L120.525 44.9109C120.587 44.8763 120.662 44.867 120.731 44.8852C120.801 44.9033 120.86 44.9473 120.896 45.0075C120.932 45.0678 120.942 45.1393 120.923 45.2063C120.904 45.2734 120.859 45.3305 120.796 45.3651Z"/><path fill="#F63A19" d="M122.684 47.7718L117.784 52.7137C117.636 52.8634 117.432 52.9502 117.217 52.9549C117.002 52.9597 116.793 52.8821 116.638 52.7392C116.482 52.5962 116.392 52.3997 116.387 52.1928C116.382 51.9859 116.463 51.7855 116.611 51.6359C116.639 51.6062 116.67 51.579 116.703 51.5545L122.321 47.382C122.376 47.3481 122.442 47.3343 122.506 47.3432C122.571 47.3521 122.63 47.383 122.673 47.4303C122.715 47.4776 122.739 47.5382 122.739 47.6009C122.739 47.6636 122.716 47.7243 122.673 47.7718H122.684Z"/><path fill="#143284" d="M125.044 49.7512L121.321 55.5608C121.208 55.737 121.028 55.863 120.819 55.911C120.609 55.959 120.389 55.9251 120.206 55.8168C120.023 55.7084 119.892 55.5345 119.842 55.3334C119.792 55.1322 119.828 54.9202 119.94 54.744C119.962 54.7099 119.985 54.6771 120.011 54.6457L124.59 49.4428C124.611 49.415 124.637 49.3914 124.668 49.3734C124.698 49.3555 124.732 49.3435 124.767 49.3381C124.803 49.3328 124.839 49.3342 124.874 49.3423C124.908 49.3503 124.941 49.3649 124.97 49.3852C124.999 49.4054 125.023 49.4309 125.042 49.4603C125.061 49.4897 125.073 49.5223 125.079 49.5563C125.084 49.5902 125.083 49.625 125.075 49.6584C125.066 49.6919 125.051 49.7234 125.03 49.7512H125.044Z"/><path fill="#E58A6D" d="M127.795 51.2122L125.407 57.6523C125.335 57.8473 125.185 58.0068 124.99 58.0954C124.795 58.1841 124.572 58.1948 124.37 58.1251C124.167 58.0554 124.001 57.9111 123.909 57.7239C123.817 57.5367 123.806 57.322 123.878 57.1269C123.893 57.0899 123.909 57.0537 123.928 57.0184L127.295 51.0088C127.328 50.9513 127.383 50.9078 127.448 50.8869C127.513 50.866 127.584 50.8693 127.646 50.896C127.709 50.9227 127.759 50.971 127.786 51.0314C127.814 51.0918 127.817 51.1599 127.795 51.2224V51.2122Z"/><path fill="#E8AA33" d="M130.793 52.0901L129.845 58.8691C129.816 59.0741 129.704 59.2596 129.533 59.3848C129.362 59.51 129.146 59.5647 128.933 59.5368C128.72 59.509 128.527 59.4008 128.397 59.2362C128.267 59.0716 128.21 58.8639 128.239 58.659C128.244 58.6199 128.252 58.5814 128.263 58.5437L130.261 51.9918C130.268 51.9582 130.282 51.9263 130.302 51.898C130.323 51.8697 130.348 51.8454 130.378 51.8267C130.408 51.808 130.442 51.7951 130.477 51.7888C130.512 51.7826 130.548 51.783 130.583 51.7901C130.618 51.7972 130.651 51.8109 130.68 51.8303C130.71 51.8498 130.735 51.8746 130.755 51.9034C130.774 51.9322 130.787 51.9644 130.794 51.9982C130.8 52.032 130.8 52.0666 130.793 52.1002V52.0901Z"/><path fill="#F63A19" d="M133.917 52.3511L134.452 59.1606C134.469 59.3669 134.399 59.571 134.259 59.728C134.119 59.885 133.92 59.9821 133.706 59.9978C133.491 60.0135 133.279 59.9467 133.116 59.8119C132.953 59.6772 132.852 59.4855 132.836 59.2792C132.832 59.2398 132.832 59.2001 132.836 59.1606L133.371 52.3511C133.379 52.2865 133.411 52.227 133.461 52.1837C133.511 52.1405 133.576 52.1166 133.644 52.1166C133.711 52.1166 133.777 52.1405 133.827 52.1837C133.877 52.227 133.909 52.2865 133.917 52.3511Z"/><path fill="#143284" d="M137.02 51.9816L139.014 58.5335C139.044 58.6319 139.053 58.735 139.042 58.8369C139.031 58.9389 138.999 59.0377 138.948 59.1277C138.897 59.2177 138.828 59.2972 138.745 59.3615C138.662 59.4259 138.567 59.474 138.464 59.5029C138.362 59.5318 138.255 59.5411 138.149 59.5302C138.043 59.5193 137.94 59.4884 137.847 59.4393C137.753 59.3902 137.671 59.3238 137.604 59.244C137.537 59.1642 137.487 59.0725 137.457 58.9741C137.457 58.9368 137.439 58.8962 137.432 58.8589L136.485 52.0798C136.477 52.0144 136.495 51.9485 136.535 51.895C136.575 51.8416 136.634 51.8044 136.701 51.7908C136.768 51.7773 136.838 51.7882 136.897 51.8216C136.956 51.855 137 51.9084 137.02 51.9714V51.9816Z"/><path fill="#E58A6D" d="M139.989 50.9986L143.36 57.0082C143.411 57.0984 143.443 57.1972 143.454 57.2991C143.465 57.4011 143.455 57.5041 143.424 57.6023C143.394 57.7005 143.344 57.792 143.276 57.8715C143.209 57.951 143.126 58.017 143.033 58.0658C142.939 58.1145 142.836 58.145 142.73 58.1555C142.625 58.1661 142.517 58.1564 142.415 58.1272C142.313 58.0979 142.218 58.0496 142.136 57.9849C142.053 57.9203 141.984 57.8407 141.934 57.7505C141.913 57.7164 141.896 57.68 141.884 57.6421L139.496 51.202C139.467 51.1386 139.465 51.0666 139.491 51.0017C139.516 50.9369 139.568 50.8846 139.634 50.8563C139.7 50.8279 139.774 50.826 139.842 50.8508C139.909 50.8755 139.964 50.9251 139.993 50.9885L139.989 50.9986Z"/><path fill="#E8AA33" d="M142.677 49.4427L147.256 54.649C147.396 54.8072 147.465 55.0125 147.448 55.2198C147.431 55.427 147.329 55.6192 147.165 55.754C147 55.8888 146.787 55.9553 146.571 55.9388C146.356 55.9223 146.156 55.8241 146.016 55.6659L145.946 55.571L142.233 49.7512C142.198 49.6944 142.186 49.6269 142.2 49.5621C142.214 49.4972 142.252 49.4398 142.308 49.401C142.364 49.3622 142.433 49.345 142.501 49.3528C142.569 49.3605 142.632 49.3926 142.677 49.4427Z"/><path fill="#F63A19" d="M144.967 47.3821L150.585 51.558C150.755 51.6847 150.866 51.8713 150.893 52.0766C150.92 52.2819 150.861 52.4892 150.729 52.6528C150.597 52.8164 150.404 52.9229 150.19 52.949C149.977 52.9751 149.761 52.9185 149.591 52.7917L149.5 52.7138L144.6 47.7922C144.549 47.7427 144.52 47.6756 144.52 47.6058C144.52 47.5359 144.549 47.4689 144.6 47.4194C144.646 47.3706 144.708 47.3398 144.776 47.3329C144.844 47.326 144.912 47.3435 144.967 47.3821Z"/><path fill="#143284" d="M146.763 44.9112L153.16 47.8702C153.256 47.9147 153.341 47.977 153.412 48.0535C153.483 48.13 153.538 48.2191 153.573 48.3159C153.608 48.4127 153.623 48.5152 153.617 48.6176C153.611 48.7199 153.584 48.8201 153.538 48.9125C153.492 49.0049 153.427 49.0876 153.348 49.1559C153.268 49.2242 153.176 49.2767 153.075 49.3106C152.974 49.3444 152.868 49.3588 152.762 49.3531C152.655 49.3473 152.551 49.3214 152.455 49.2769L152.349 49.2193L146.492 45.3654C146.462 45.3463 146.436 45.3216 146.416 45.2927C146.396 45.2638 146.382 45.2314 146.375 45.1973C146.368 45.1632 146.368 45.1281 146.375 45.0941C146.383 45.0602 146.397 45.0279 146.418 44.9993C146.455 44.948 146.511 44.9111 146.574 44.8949C146.637 44.8788 146.704 44.8846 146.763 44.9112Z"/><path fill="#E58A6D" d="M147.985 42.1349L154.882 43.7483C154.985 43.7726 155.083 43.8162 155.169 43.8767C155.255 43.9372 155.327 44.0133 155.382 44.1008C155.438 44.1883 155.475 44.2855 155.491 44.3867C155.507 44.4878 155.502 44.5911 155.477 44.6906C155.452 44.7901 155.407 44.8838 155.344 44.9665C155.281 45.0491 155.202 45.119 155.111 45.1722C155.02 45.2254 154.919 45.2608 154.814 45.2765C154.709 45.2921 154.601 45.2877 154.498 45.2634C154.458 45.2558 154.419 45.2444 154.382 45.2296L147.816 42.6332C147.756 42.6054 147.709 42.5577 147.682 42.4987C147.656 42.4398 147.653 42.3737 147.674 42.3128C147.695 42.2519 147.738 42.2003 147.795 42.1676C147.852 42.1348 147.92 42.1232 147.985 42.1349Z"/><path fill="#E8AA33" d="M148.581 39.1725L155.675 39.3725C155.781 39.3754 155.886 39.3984 155.983 39.4403C156.08 39.4821 156.168 39.542 156.241 39.6164C156.314 39.6908 156.371 39.7784 156.409 39.8741C156.447 39.9698 156.465 40.0717 156.462 40.1741C156.459 40.2765 156.435 40.3773 156.391 40.4708C156.348 40.5642 156.286 40.6485 156.208 40.7189C156.131 40.7892 156.04 40.8442 155.941 40.8807C155.841 40.9172 155.735 40.9345 155.629 40.9317C155.588 40.9351 155.547 40.9351 155.506 40.9317L148.524 39.708C148.489 39.7019 148.455 39.6892 148.425 39.6705C148.395 39.6518 148.369 39.6276 148.349 39.5993C148.329 39.5709 148.314 39.539 148.307 39.5053C148.3 39.4716 148.299 39.4368 148.306 39.403C148.314 39.3389 148.347 39.2801 148.398 39.2376C148.448 39.1951 148.513 39.172 148.581 39.1725Z"/><path fill="#F63A19" d="M148.524 36.1558L155.505 34.9322C155.61 34.9137 155.718 34.9153 155.822 34.9368C155.926 34.9583 156.025 34.9994 156.112 35.0576C156.2 35.1158 156.275 35.1901 156.333 35.2762C156.391 35.3623 156.43 35.4585 156.449 35.5593C156.469 35.6601 156.467 35.7636 156.445 35.8638C156.422 35.964 156.38 36.059 156.319 36.1433C156.259 36.2277 156.181 36.2997 156.092 36.3554C156.003 36.411 155.903 36.4492 155.798 36.4677H155.674L148.58 36.6643C148.508 36.6661 148.438 36.6404 148.385 36.5928C148.333 36.5453 148.301 36.4796 148.299 36.41C148.301 36.3493 148.324 36.2911 148.365 36.2449C148.406 36.1987 148.462 36.1673 148.524 36.1558Z"/><path fill="#143284" d="M147.816 33.2172L154.382 30.6242C154.577 30.5624 154.79 30.5746 154.977 30.6583C155.163 30.7419 155.31 30.8907 155.386 31.0745C155.463 31.2583 155.464 31.4633 155.389 31.6478C155.315 31.8324 155.17 31.9826 154.984 32.0681L154.868 32.1054L147.971 33.7188C147.904 33.7348 147.833 33.7256 147.772 33.6931C147.711 33.6606 147.666 33.6072 147.644 33.5436C147.623 33.4801 147.627 33.4111 147.657 33.3505C147.686 33.29 147.738 33.2423 147.802 33.2172H147.816Z"/><path fill="#E58A6D" d="M146.492 30.4853L152.349 26.6349C152.527 26.518 152.745 26.4738 152.957 26.5119C153.168 26.55 153.355 26.6674 153.477 26.8382C153.598 27.009 153.644 27.2193 153.604 27.4227C153.565 27.6261 153.443 27.806 153.265 27.9229C153.232 27.9464 153.197 27.9668 153.16 27.9839L146.763 30.9395C146.699 30.9675 146.627 30.9704 146.561 30.9476C146.495 30.9248 146.441 30.8781 146.411 30.8175C146.381 30.7619 146.373 30.698 146.388 30.6372C146.403 30.5764 146.44 30.5226 146.492 30.4853Z"/><path fill="#E8AA33" d="M144.604 28.0786L149.503 23.1401C149.577 23.066 149.665 23.0065 149.762 22.9652C149.86 22.9238 149.965 22.9012 150.071 22.8989C150.178 22.8965 150.284 22.9144 150.383 22.9514C150.482 22.9884 150.573 23.0439 150.65 23.1147C150.727 23.1855 150.789 23.2701 150.832 23.3639C150.875 23.4576 150.898 23.5586 150.901 23.6611C150.903 23.7635 150.884 23.8654 150.846 23.961C150.808 24.0565 150.75 24.1438 150.676 24.218L150.585 24.2959L144.967 28.4718C144.912 28.5057 144.846 28.5195 144.782 28.5106C144.717 28.5018 144.658 28.4708 144.615 28.4235C144.572 28.3762 144.549 28.3156 144.549 28.2529C144.548 28.1902 144.572 28.1295 144.614 28.082L144.604 28.0786Z"/><path fill="#F63A19" d="M142.237 26.0993L145.96 20.2897C146.073 20.1135 146.254 19.9877 146.463 19.94C146.673 19.8924 146.893 19.9267 147.076 20.0355C147.259 20.1442 147.39 20.3186 147.44 20.5201C147.489 20.7216 147.454 20.9337 147.341 21.1099L147.27 21.2049L142.691 26.4078C142.648 26.4639 142.585 26.5016 142.513 26.5124C142.442 26.5232 142.369 26.5063 142.311 26.4654C142.252 26.4245 142.213 26.3629 142.202 26.2943C142.191 26.2256 142.208 26.1555 142.251 26.0993H142.237Z"/><path fill="#143284" d="M139.486 24.6382L141.874 18.1981C141.955 18.0146 142.107 17.868 142.297 17.7884C142.487 17.7087 142.702 17.7019 142.897 17.7694C143.092 17.8369 143.253 17.9737 143.347 18.1516C143.441 18.3296 143.461 18.5354 143.402 18.7269C143.388 18.7628 143.372 18.7979 143.353 18.832L139.986 24.845C139.95 24.9053 139.891 24.9499 139.821 24.9694C139.751 24.989 139.677 24.9821 139.612 24.95C139.557 24.9201 139.514 24.8727 139.491 24.8159C139.468 24.7591 139.466 24.6963 139.486 24.6382Z"/><path fill="#E58A6D" d="M136.495 23.7608L137.443 16.9817C137.457 16.8802 137.492 16.7825 137.546 16.694C137.599 16.6055 137.67 16.5281 137.755 16.466C137.84 16.404 137.936 16.3587 138.039 16.3326C138.142 16.3065 138.25 16.3002 138.355 16.314C138.46 16.3278 138.562 16.3614 138.654 16.413C138.746 16.4646 138.826 16.5331 138.891 16.6146C138.955 16.6962 139.002 16.7891 139.03 16.8881C139.057 16.9872 139.063 17.0904 139.049 17.1919C139.044 17.2309 139.036 17.2694 139.024 17.3071L137.02 23.8692C137.005 23.9371 136.963 23.9965 136.902 24.0343C136.842 24.0721 136.768 24.0853 136.698 24.0709C136.627 24.0565 136.565 24.0158 136.526 23.9576C136.487 23.8994 136.473 23.8286 136.488 23.7608H136.495Z"/></svg>