<svg xmlns="http://www.w3.org/2000/svg" width="92" height="63" fill="none" viewBox="0 0 92 63"><path fill="#fff" d="M13.8412 16.616C16.5625 16.616 18.8114 17.5288 20.5878 19.3545C22.3629 21.1801 23.2508 23.7028 23.2515 26.9226V42.2075H16.8285V27.7191C16.8285 26.0595 16.3805 24.7899 15.4844 23.9102C14.5882 23.0312 13.3932 22.5913 11.8994 22.5906C10.2393 22.5906 8.91164 23.1052 7.91647 24.1344C6.92055 25.1636 6.42258 26.707 6.42258 28.7647V42.2075H0V7.35547H6.42266V20.1012C7.98258 17.7784 10.4554 16.6167 13.8412 16.616Z"/><path fill="#fff" d="M45.6563 17.313H52.0792V42.2075H45.6563V39.2701C43.7309 41.6934 41.0257 42.9049 37.5407 42.9045C34.2212 42.9045 31.375 41.6349 29.002 39.0956C26.6284 36.5565 25.4417 33.4448 25.4419 29.7605C25.4419 26.0759 26.6286 22.964 29.002 20.4249C31.3746 17.8858 34.2208 16.6161 37.5407 16.616C41.026 16.616 43.7312 17.8276 45.6563 20.2509V17.313ZM33.8066 34.8139C35.101 36.1255 36.7441 36.7812 38.7357 36.7809C40.7272 36.7809 42.3785 36.1252 43.6897 34.8139C45.0005 33.5028 45.656 31.8184 45.6563 29.7605C45.6563 27.7027 45.0008 26.0181 43.6897 24.7066C42.3781 23.3961 40.7267 22.7407 38.7357 22.7403C36.7442 22.7403 35.1012 23.3957 33.8066 24.7066C32.5119 26.0183 31.8646 27.7029 31.8648 29.7605C31.8648 31.8189 32.5121 33.5033 33.8066 34.8139Z"/><path fill="#fff" d="M56 42.2074V5.86182H62.4226V42.2074H56Z"/><path fill="#fff" d="M87.4285 39.0956C84.8722 41.6347 81.7521 42.9044 78.0682 42.9045C74.3838 42.9045 71.272 41.6349 68.7328 39.0956C66.1936 36.5563 64.9239 33.4446 64.9238 29.7605C64.9238 26.0759 66.1935 22.964 68.7328 20.4249C71.2721 17.8858 74.3839 16.6161 78.0682 16.616C81.7526 16.616 84.8727 17.8856 87.4285 20.4249C89.984 22.964 91.262 26.0759 91.2624 29.7605C91.2624 33.4446 89.9844 36.5563 87.4285 39.0956ZM73.2636 34.6896C74.5409 35.9837 76.1424 36.6309 78.0682 36.6311C79.9928 36.6311 81.6026 35.9839 82.8977 34.6896C84.1923 33.3949 84.8396 31.7519 84.8394 29.7605C84.8394 27.7688 84.1922 26.1258 82.8977 24.8314C81.6032 23.5368 79.9934 22.8894 78.0682 22.8894C76.1428 22.8894 74.5413 23.5368 73.2636 24.8314C71.9853 26.1256 71.3464 27.7686 71.3467 29.7605C71.3467 31.7517 71.9857 33.3947 73.2636 34.6896Z"/><path fill="#FD9727" d="M44.4838 9.17768L47.8427 6.03253C48.0182 5.91334 48.2155 5.82994 48.4234 5.78712C48.6312 5.74429 48.8454 5.74287 49.0538 5.78294C49.2621 5.82301 49.4606 5.90378 49.6377 6.02063C49.8148 6.13748 49.9671 6.28811 50.0859 6.4639C50.2048 6.6397 50.2877 6.8372 50.3301 7.0451C50.3725 7.25301 50.3735 7.46723 50.333 7.67551C50.2925 7.88379 50.2113 8.08204 50.0941 8.25891C49.9769 8.43577 49.8259 8.58778 49.6499 8.70623C49.5823 8.75141 49.5115 8.79177 49.4383 8.82703L45.0224 10.121C44.8984 10.1799 44.7566 10.1897 44.6256 10.1486C44.4946 10.1074 44.3839 10.0183 44.3158 9.89901C44.2477 9.77975 44.2272 9.63916 44.2583 9.5054C44.2895 9.37164 44.37 9.25459 44.4838 9.17768H44.4838Z"/><path fill="#FD9727" d="M41.759 6.8833L43.0953 2.48011C43.2825 2.09529 43.615 1.80062 44.0195 1.66091C44.424 1.52121 44.8674 1.54791 45.2523 1.73516C45.6371 1.9224 45.9318 2.25484 46.0715 2.65934C46.2112 3.06385 46.1845 3.50728 45.9972 3.8921C45.9613 3.96503 45.9202 4.03533 45.8744 4.1025L42.6971 7.43089C42.6191 7.54395 42.5013 7.62337 42.3672 7.65325C42.2332 7.68313 42.0928 7.66126 41.9742 7.59202C41.8556 7.52278 41.7675 7.41128 41.7276 7.27986C41.6877 7.14844 41.6989 7.0068 41.759 6.8833Z"/><path fill="#FD9727" d="M38.2233 6.20906L37.1788 1.72767C37.1486 1.3008 37.2891 0.879386 37.5696 0.556142C37.85 0.232899 38.2474 0.0343026 38.6743 0.00404227C39.1012 -0.026218 39.5226 0.114337 39.8458 0.394786C40.1691 0.675234 40.3677 1.0726 40.398 1.49948C40.4033 1.58059 40.403 1.66198 40.3969 1.74305L39.3096 6.2142C39.2985 6.3511 39.2362 6.47879 39.1351 6.57169C39.0339 6.66458 38.9014 6.71584 38.7641 6.71518C38.6267 6.71452 38.4947 6.662 38.3944 6.56814C38.2942 6.47427 38.2331 6.346 38.2234 6.209L38.2233 6.20906Z"/><path fill="#FD9727" d="M34.8236 7.39293L31.6784 4.03414C31.5587 3.8586 31.4749 3.66116 31.4317 3.45314C31.3885 3.24512 31.3868 3.03062 31.4267 2.82194C31.4666 2.61327 31.5473 2.41453 31.6642 2.23713C31.7811 2.05973 31.9319 1.90717 32.108 1.78819C32.284 1.66922 32.4818 1.58618 32.69 1.54384C32.8982 1.5015 33.1127 1.50069 33.3212 1.54146C33.5297 1.58224 33.7281 1.66378 33.905 1.78143C34.0819 1.89907 34.2339 2.05049 34.3521 2.227C34.3973 2.29461 34.4377 2.36531 34.4729 2.43858L35.7669 6.85439C35.8258 6.97845 35.8356 7.12019 35.7945 7.25122C35.7533 7.38225 35.6642 7.49289 35.5449 7.56099C35.4257 7.62909 35.2851 7.64962 35.1513 7.61846C35.0175 7.58731 34.9005 7.50677 34.8236 7.39298V7.39293Z"/><path fill="#FD9727" d="M32.472 10.1566L28.0687 8.82041C27.6839 8.63316 27.3892 8.30072 27.2495 7.89622C27.1098 7.49171 27.1365 7.04827 27.3238 6.66346C27.511 6.27864 27.8435 5.98397 28.248 5.84426C28.6525 5.70456 29.0959 5.73126 29.4807 5.9185C29.5537 5.95447 29.624 5.99551 29.6911 6.04134L33.0197 9.21858C33.1327 9.29656 33.2122 9.41439 33.2421 9.54847C33.272 9.68255 33.2501 9.82297 33.1808 9.9416C33.1116 10.0602 33 10.1483 32.8686 10.1882C32.7371 10.2281 32.5955 10.2168 32.472 10.1566H32.472Z"/><path fill="#fff" d="M7.79703 48.367V53.3704C7.10566 52.4817 6.08782 51.9602 4.6859 51.9602C2.11249 51.9602 0 54.1817 0 57.0601C0 59.9384 2.11249 62.16 4.6859 62.16C6.08782 62.16 7.10566 61.6384 7.79703 60.7498V61.8895H10.2744V48.367H7.79703ZM5.1468 59.7839C3.61045 59.7839 2.47738 58.6828 2.47738 57.0601C2.47738 55.4374 3.61045 54.3363 5.1468 54.3363C6.66396 54.3363 7.79703 55.4374 7.79703 57.0601C7.79703 58.6828 6.66396 59.7839 5.1468 59.7839Z"/><path fill="#fff" d="M13.7692 51.0715C14.6142 51.0715 15.3055 50.3761 15.3055 49.5454C15.3055 48.7148 14.6142 48 13.7692 48C12.9434 48 12.252 48.7148 12.252 49.5454C12.252 50.3761 12.9434 51.0715 13.7692 51.0715ZM12.5401 61.8895H15.0175V52.2306H12.5401V61.8895Z"/><path fill="#fff" d="M19.7623 53.892V52.2306H17.2849V61.8895H19.7623V57.2726C19.7623 55.2442 21.3947 54.6647 22.6814 54.8192V52.0374C21.4715 52.0374 20.2616 52.5783 19.7623 53.892Z"/><path fill="#fff" d="M25.8673 58.0839H33.1073C33.165 57.7555 33.2034 57.4271 33.2034 57.0601C33.2034 54.2204 31.1869 51.9602 28.3446 51.9602C25.3295 51.9602 23.2746 54.1817 23.2746 57.0601C23.2746 59.9384 25.3103 62.16 28.5367 62.16C30.3803 62.16 31.8206 61.4066 32.7233 60.093L30.726 58.9339C30.3035 59.4941 29.5353 59.8998 28.5751 59.8998C27.2692 59.8998 26.2129 59.3589 25.8673 58.0839ZM25.8288 56.1521C26.1169 54.9158 27.0195 54.201 28.3446 54.201C29.3817 54.201 30.4187 54.7613 30.726 56.1521H25.8288Z"/><path fill="#fff" d="M39.4285 62.16C41.3105 62.16 42.9429 61.1555 43.7687 59.6487L41.6178 58.4123C41.2337 59.2044 40.4079 59.6873 39.4093 59.6873C37.9305 59.6873 36.8359 58.5862 36.8359 57.0601C36.8359 55.5147 37.9305 54.4135 39.4093 54.4135C40.3887 54.4135 41.2145 54.9158 41.5986 55.7078L43.7303 54.4522C42.9429 52.9647 41.3105 51.9602 39.4285 51.9602C36.5094 51.9602 34.3585 54.1817 34.3585 57.0601C34.3585 59.9384 36.5094 62.16 39.4285 62.16Z"/><path fill="#fff" d="M50.5714 54.626V52.2306H48.4013V49.5261L45.9239 50.2795V52.2306H44.2532V54.626H45.9239V58.6441C45.9239 61.2521 47.0954 62.2759 50.5714 61.8895V59.6294C49.1503 59.7066 48.4013 59.6873 48.4013 58.6441V54.626H50.5714Z"/></svg>