<svg xmlns="http://www.w3.org/2000/svg" width="96" height="63" fill="none" viewBox="0 0 96 63"><path fill="#fff" d="M43.3365 62.5593C43.4502 62.5593 43.4502 62.5593 43.564 62.5593C44.5877 62.5593 45.4976 62.218 46.2938 61.6493C46.6351 61.4218 46.9763 61.0806 47.09 60.6256C47.3175 60.1706 47.4313 59.7157 47.3175 59.3744C47.3175 58.692 47.09 58.0095 46.7488 57.5545C46.4076 57.0996 45.8389 56.7583 45.2701 56.5308C44.7014 56.3033 44.1327 56.1896 43.564 55.9621C42.9953 55.8484 42.5403 55.6209 42.0853 55.3934C41.8578 55.2797 41.7441 55.1659 41.6303 55.0522C41.5166 54.8247 41.4028 54.7109 41.4028 54.4834C41.4028 54.256 41.4028 54.0285 41.5166 53.9147C41.6303 53.6872 41.7441 53.5735 41.9716 53.4597C42.3128 53.2323 42.7678 53.1185 43.2227 53.1185C43.2227 53.1185 43.2227 53.1185 43.3365 53.1185C43.4502 53.1185 43.4502 53.1185 43.564 53.1185C44.019 53.1185 44.3602 53.2323 44.7014 53.4597C45.1564 53.6872 45.3839 54.0285 45.6114 54.4834L47.2038 53.5735C46.8626 52.891 46.2938 52.3223 45.7251 51.9811C45.0427 51.6398 44.2464 51.4124 43.4502 51.4124C43.4502 51.4124 43.4502 51.4124 43.3365 51.4124H43.2227C42.3128 51.4124 41.4028 51.7536 40.6066 52.3223C40.2654 52.5498 40.0379 52.891 39.8104 53.346C39.5829 53.6872 39.5829 54.1422 39.5829 54.5972C39.5829 55.2797 39.8104 55.8484 40.1517 56.3033C40.6066 56.7583 41.0616 57.0996 41.6303 57.2133C42.199 57.4408 42.7678 57.5545 43.3365 57.782C43.9052 57.8958 44.3602 58.1233 44.8152 58.4645C45.0427 58.5782 45.1564 58.692 45.2701 58.9195C45.3839 59.1469 45.3839 59.2607 45.3839 59.4882C45.3839 59.7157 45.3839 59.9432 45.2701 60.1706C45.1564 60.3981 45.0427 60.5119 44.8152 60.6256C44.3602 60.8531 43.9052 60.9669 43.4502 60.9669H43.3365C43.3365 60.9669 43.3365 60.9669 43.2227 60.9669C42.654 60.9669 42.0853 60.8531 41.6303 60.5119C41.1753 60.2844 40.8341 59.8294 40.7204 59.2607L39.128 60.1706C39.4692 60.9669 40.0379 61.5356 40.7204 61.9906C41.5166 62.4455 42.3128 62.673 43.2227 62.673C43.2227 62.5593 43.3365 62.5593 43.3365 62.5593Z"/><path fill="#fff" d="M48.1137 51.64V53.4599H50.2749V59.2608C50.2749 60.6257 50.6161 61.5357 51.4123 61.9907C52.2085 62.3319 53.0047 62.5594 53.8009 62.5594C54.2559 62.5594 54.5972 62.5594 55.0521 62.4457V60.7395C54.5972 60.7395 54.1422 60.7395 53.6872 60.7395C53.5735 60.7395 53.4597 60.7395 53.4597 60.7395C53.4597 60.7395 53.4597 60.7395 53.346 60.7395C53.2322 60.7395 53.0047 60.7395 52.891 60.6257C52.7772 60.512 52.5498 60.512 52.436 60.3983C52.2085 60.057 52.0948 59.7158 52.0948 59.2608V53.4599H54.9384V51.64H52.0948V48.6826L50.2749 49.2513V51.64H48.1137Z"/><path fill="#fff" d="M15.6967 51.6396L20.019 62.3316H22.1801L26.5024 51.6396H24.455L21.0427 60.2842L17.7441 51.6396H15.6967Z"/><path fill="#fff" d="M10.1232 53.1185C10.4645 53.1185 10.692 53.1185 11.0332 53.2323C11.3744 53.346 11.7157 53.5735 11.9431 53.801C12.1706 54.0285 12.3981 54.3697 12.5119 54.7109C12.6256 55.0522 12.7394 55.3934 12.6256 55.8484V62.3318H14.4455V55.7346C14.5593 54.5972 14.1043 53.346 13.3081 52.5498C12.9668 52.0948 12.3981 51.8673 11.9431 51.6398C11.4882 51.4124 11.0332 51.4124 10.4645 51.4124C10.3507 51.4124 10.3507 51.4124 10.237 51.4124C10.1232 51.4124 10.1232 51.4124 10.0095 51.4124C9.44078 51.4124 8.75831 51.5261 8.18959 51.8673C7.62087 52.2086 7.05215 52.6635 6.71092 53.2323V51.6398H5.00476V62.3318H6.82467V56.6446C6.82467 55.7346 7.1659 54.7109 7.73462 54.0285C8.07585 53.6872 8.41708 53.4597 8.75831 53.346C9.09955 53.2323 9.44078 53.1185 9.89576 53.1185H10.0095H10.1232Z"/><path fill="#fff" d="M0.341187 51.6396V62.3316H2.16109V51.6396H0.341187Z"/><path fill="#fff" d="M1.25118 47.2039C1.13744 47.2039 0.909952 47.2039 0.796208 47.3176C0.682464 47.4313 0.454976 47.4313 0.341232 47.5451C0.227488 47.6588 0.113744 47.7726 0.113744 48.0001C0 48.1138 0 48.2276 0 48.455C0 48.5688 0 48.7963 0.113744 48.91C0.227488 49.0238 0.227488 49.2513 0.341232 49.365C0.454976 49.4787 0.56872 49.5925 0.796208 49.5925C0.909952 49.7062 1.13744 49.7062 1.25118 49.7062C1.59242 49.7062 1.93365 49.5925 2.16114 49.365C2.38863 49.1375 2.50237 48.7963 2.50237 48.455C2.50237 48.3413 2.50237 48.1138 2.38863 48.0001C2.38863 47.7726 2.27488 47.6588 2.16114 47.5451C2.04739 47.4313 1.93365 47.3176 1.70616 47.3176C1.59242 47.2039 1.47867 47.2039 1.25118 47.2039Z"/><path fill="#fff" d="M58.9194 6.02856V42.6542H65.6303V6.02856H58.9194Z"/><path fill="#fff" d="M12.9668 22.0665C13.5356 22.0665 14.218 22.1802 14.7867 22.4077C15.4692 22.6352 16.0379 22.9764 16.4929 23.4314C16.9479 24.0001 17.4029 24.5688 17.6304 25.2513C17.8578 25.9338 17.9716 26.6162 17.9716 27.4124V42.6542H24.6825V26.6162C24.6825 23.2039 23.7725 20.5878 21.8389 18.6542C20.9289 17.7442 19.7915 16.948 18.654 16.493C17.5166 16.038 16.2654 15.8106 15.128 15.8106C15.0142 15.8106 14.9005 15.8106 14.9005 15.8106C11.3744 15.8106 8.75831 17.0617 7.1659 19.4504V6.02856H0.227509V42.5404H6.93841V28.5499C6.93841 26.3888 7.50713 24.7963 8.53082 23.6589C9.09955 23.0902 9.78201 22.6352 10.4645 22.4077C11.1469 22.1802 11.8294 22.0665 12.5119 22.0665C12.6256 22.0665 12.6256 22.0665 12.7394 22.0665C12.8531 22.0665 12.9668 22.0665 12.9668 22.0665Z"/><path fill="#fff" d="M30.4834 6.02856C30.2559 6.02856 30.1422 6.02856 29.9147 6.14231C29.6872 6.25605 29.4597 6.3698 29.3459 6.48354C29.2322 6.59728 29.0047 6.82477 28.891 7.05226C28.7772 7.27975 28.7772 7.50724 28.7772 7.73473C28.7772 7.96221 28.7772 8.1897 28.891 8.41719C29.0047 8.64468 29.1185 8.87217 29.2322 8.98591C29.3459 9.09965 29.5734 9.32714 29.8009 9.44089L34.4644 10.8058C34.5782 10.8058 34.5782 10.9196 34.6919 10.9196H34.8057C34.9194 10.9196 35.0331 10.8058 35.1469 10.6921C35.2606 10.5783 35.2606 10.4646 35.2606 10.2371C35.2606 10.1234 35.1469 10.0096 35.0331 9.89586L31.5071 6.59728L31.2796 6.48354C31.0521 6.14231 30.8246 6.02856 30.4834 6.02856Z"/><path fill="#fff" d="M51.4123 6.02856C51.2986 6.02856 51.1848 6.02856 51.0711 6.02856C50.8436 6.02856 50.6161 6.14231 50.5024 6.25605L46.9763 9.55463C46.8626 9.66837 46.7488 9.78212 46.7488 9.89586C46.7488 10.0096 46.7488 10.2371 46.8626 10.3508C46.9763 10.4646 47.09 10.5783 47.2038 10.5783H47.3175C47.4313 10.5783 47.4313 10.5783 47.545 10.5783L52.2085 9.2134L52.3223 9.09965C52.5498 8.98591 52.6635 8.87217 52.7772 8.64468C52.891 8.41719 53.0047 8.30345 53.0047 8.07596C53.0047 7.84847 53.0047 7.62098 53.0047 7.39349C53.0047 7.166 52.891 6.93852 52.7772 6.82477C52.6635 6.59728 52.436 6.48354 52.3223 6.3698C52.0948 6.25605 51.981 6.14231 51.7536 6.14231C51.6398 6.02856 51.5261 6.02856 51.4123 6.02856Z"/><path fill="#fff" d="M46.9763 1.7063C46.7488 1.7063 46.6351 1.7063 46.4076 1.82004C46.1801 1.93379 45.9526 2.04753 45.8389 2.16128C45.7251 2.27502 45.6114 2.38876 45.4977 2.61625L44.1327 7.27976C44.019 7.3935 44.019 7.50725 44.1327 7.73473C44.1327 7.84848 44.2465 7.96222 44.3602 8.07597C44.474 8.07597 44.5877 8.18971 44.7015 8.18971H44.8152C44.9289 8.18971 45.0427 8.07597 45.1564 7.96222L48.455 4.43616L48.5688 4.20867C48.6825 3.98118 48.6825 3.75369 48.6825 3.5262C48.6825 3.29872 48.6825 3.07123 48.5688 2.84374C48.455 2.61625 48.3413 2.38876 48.2275 2.27502C48.1138 2.16128 48 1.93379 47.7725 1.82004C47.5451 1.7063 47.3176 1.7063 46.9763 1.7063C47.0901 1.7063 47.0901 1.7063 46.9763 1.7063Z"/><path fill="#fff" d="M34.9194 1.59229C34.5782 1.59229 34.237 1.70603 34.0095 1.93352C33.6682 2.16101 33.327 2.61598 33.327 3.07096C33.2133 3.52593 33.327 3.98091 33.5545 4.32214L36.8531 7.84821C36.8531 7.84821 36.9668 7.96195 37.1943 7.96195H37.308C37.4218 7.96195 37.5355 7.96195 37.5355 7.96195C37.6493 7.84821 37.763 7.73446 37.763 7.62072C37.763 7.50698 37.763 7.27949 37.763 7.16574L36.3981 2.61598L36.2843 2.38849C36.0569 2.04726 35.6019 1.70603 35.1469 1.70603C35.1469 1.59229 35.0332 1.59229 34.9194 1.59229Z"/><path fill="#fff" d="M40.9479 0H40.8341C40.6066 0 40.3791 0.113744 40.1517 0.227488C39.9242 0.341232 39.8104 0.454976 39.5829 0.682464C39.4692 0.796209 39.3554 1.0237 39.2417 1.25118C39.128 1.47867 39.128 1.70616 39.128 1.93365L40.2654 6.59716C40.2654 6.7109 40.3791 6.82464 40.4929 6.93839C40.6066 7.05213 40.7204 7.05213 40.8341 7.05213C40.9479 7.05213 41.0616 7.05213 41.1754 6.93839C41.2891 6.82464 41.4028 6.7109 41.4028 6.59716L42.5403 1.93365V1.70616C42.5403 1.47867 42.4265 1.25118 42.3128 1.0237C42.199 0.796208 42.0853 0.682464 41.8578 0.454976C41.7441 0.341232 41.5166 0.227488 41.2891 0.113744C41.2891 0 41.1754 0 40.9479 0Z"/><path fill="#143284" d="M24.6825 42.6542H17.9716V27.4124C17.9716 26.73 17.9716 25.9338 17.6304 25.2513C17.4029 24.5688 17.0616 23.8864 16.4929 23.4314C16.0379 22.9764 15.3555 22.6352 14.7867 22.4077C14.218 22.1802 13.6493 22.0665 12.9668 22.0665C12.8531 22.0665 12.8531 22.0665 12.7394 22.0665C12.6256 22.0665 12.6256 22.0665 12.5119 22.0665C11.8294 22.0665 11.1469 22.1802 10.4645 22.4077C9.78201 22.6352 9.09955 23.0902 8.53082 23.6589C7.50713 24.6826 6.93841 26.3888 6.93841 28.5499V42.6542H0.227509V6.02856H6.93841V19.4504C8.53082 17.0617 11.1469 15.8106 14.673 15.8106C14.7867 15.8106 14.9005 15.8106 14.9005 15.8106C16.1517 15.8106 17.2891 16.038 18.4266 16.493C19.6777 16.948 20.7014 17.7442 21.6114 18.6542C23.4313 20.5878 24.455 23.2039 24.455 26.6162V42.6542"/><path fill="#143284" d="M39.5829 43.3364C37.8768 43.3364 36.2843 42.9951 34.8057 42.3127C33.2132 41.6302 31.8483 40.6065 30.7109 39.3553C28.2085 36.7392 26.8436 33.2131 26.9573 29.5733C26.8436 25.9335 28.2085 22.4075 30.7109 19.7913C31.8483 18.5402 33.2132 17.5165 34.8057 16.834C36.2843 16.1515 37.9905 15.8103 39.5829 15.8103H39.6967C43.3365 15.8103 46.1801 17.0615 48.2275 19.6776V16.6065H54.9384V42.7676H48.2275V39.6966C46.1801 42.0852 43.3365 43.3364 39.5829 43.3364ZM40.7204 22.18C39.8104 22.18 39.0142 22.2937 38.1042 22.6349C37.1943 22.9762 36.3981 23.5449 35.7156 24.2274C35.0332 24.9098 34.4644 25.706 34.1232 26.616C33.782 27.5259 33.6682 28.5496 33.6682 29.4596C33.6682 30.4833 33.782 31.3932 34.1232 32.3032C34.4644 33.2131 35.0332 34.0094 35.7156 34.6918C36.3981 35.3743 37.1943 35.943 38.1042 36.2842C38.9005 36.6255 39.8104 36.7392 40.7204 36.7392C40.8341 36.7392 40.8341 36.7392 40.9478 36.7392C41.0616 36.7392 41.0616 36.7392 41.1753 36.7392C42.0853 36.7392 42.9952 36.6255 43.7914 36.2842C44.7014 35.943 45.4976 35.3743 46.1801 34.6918C46.8625 34.0094 47.4313 33.2131 47.7725 32.3032C48.1137 31.3932 48.3412 30.3695 48.2275 29.4596C48.2275 28.4359 48.1137 27.5259 47.7725 26.616C47.4313 25.706 46.8625 24.9098 46.1801 24.2274C45.4976 23.5449 44.7014 22.9762 43.7914 22.6349C42.9952 22.2937 42.0853 22.18 41.1753 22.18C41.0616 22.18 41.0616 22.18 40.9478 22.18C40.8341 22.18 40.7204 22.18 40.7204 22.18Z"/><path fill="#143284" d="M65.6303 42.6542H58.9194V6.02856H65.6303V42.6542Z"/><path fill="#143284" d="M82.2369 43.4501C80.417 43.4501 78.5971 43.1089 76.891 42.4264C74.3886 41.4027 72.2275 39.5828 70.635 37.3079C69.1564 35.0331 68.3602 32.3032 68.3602 29.5733C68.3602 26.8435 69.1564 24.2274 70.7488 21.9525C72.2275 19.6776 74.3886 17.9714 76.891 16.834C78.5971 16.1515 80.417 15.8103 82.2369 15.8103C83.1469 15.8103 84.0568 15.924 84.8531 16.0378C87.5829 16.6065 89.9715 17.8577 91.9052 19.7913C93.1564 21.0425 94.2938 22.6349 94.9763 24.2274C95.6587 25.9335 96 27.7534 96 29.5733C96 31.3932 95.6587 33.2131 94.9763 34.9193C94.2938 36.6255 93.2701 38.1041 91.9052 39.3553C89.9715 41.289 87.4692 42.6539 84.8531 43.2226C84.0568 43.3364 83.1469 43.4501 82.2369 43.4501ZM82.0095 22.2937C81.0995 22.2937 80.3033 22.4075 79.5071 22.7487C78.5971 23.0899 77.8009 23.6586 77.2322 24.3411C76.5497 25.0236 76.0948 25.8198 75.7535 26.7297C75.2986 27.6397 75.0711 28.5496 75.0711 29.5733C75.0711 30.4833 75.1848 31.507 75.526 32.4169C75.8673 33.3269 76.436 34.1231 77.0047 34.8056C77.6872 35.488 78.4834 35.943 79.2796 36.398C80.0758 36.7392 80.9858 36.853 81.782 36.853C81.8957 36.853 81.8957 36.853 82.0095 36.853C82.1232 36.853 82.1232 36.853 82.2369 36.853C83.1469 36.853 83.9431 36.7392 84.8531 36.398C85.763 36.0567 86.5592 35.488 87.1279 34.8056C87.8104 34.1231 88.3791 33.3269 88.7204 32.4169C89.0616 31.507 89.2891 30.597 89.1753 29.5733C89.1753 28.6634 89.0616 27.6397 88.7204 26.7297C88.3791 25.8198 87.8104 25.0236 87.1279 24.3411C86.4455 23.6586 85.6493 23.2037 84.8531 22.7487C84.0568 22.4075 83.1469 22.2937 82.2369 22.2937C82.1232 22.2937 82.1232 22.2937 82.0095 22.2937C82.1232 22.2937 82.0095 22.2937 82.0095 22.2937Z"/><path fill="#F7931E" d="M47.3176 10.6919C47.2038 10.6919 47.2038 10.6919 47.2038 10.6919C47.0901 10.6919 46.9763 10.5781 46.8626 10.4644C46.7488 10.2369 46.6351 10.1231 46.7488 10.0094C46.7488 9.89564 46.8626 9.7819 46.9763 9.66816L50.5024 6.36958C50.7299 6.25583 50.8436 6.14209 51.0711 6.14209C51.1849 6.14209 51.2986 6.14209 51.4123 6.14209C51.5261 6.14209 51.6398 6.14209 51.7536 6.14209C51.9811 6.14209 52.2086 6.25583 52.3223 6.36958C52.5498 6.48332 52.6635 6.59707 52.7773 6.82455C52.891 7.05204 53.0048 7.16579 53.0048 7.39327C53.0048 7.62076 53.0048 7.84825 53.0048 8.07574C53.0048 8.30323 52.891 8.53071 52.7773 8.64446C52.6635 8.87195 52.5498 8.98569 52.3223 9.09944L52.0948 9.21318L47.4313 10.5781C47.4313 10.6919 47.3176 10.6919 47.3176 10.6919Z"/><path fill="#F7931E" d="M44.5877 8.0757C44.4739 8.0757 44.3602 8.0757 44.2464 7.96195C44.1327 7.84821 44.019 7.73446 44.019 7.62072C44.019 7.50698 44.019 7.27949 44.019 7.16574L45.4976 2.61598C45.6114 2.38849 45.7251 2.27475 45.9526 2.04726C46.0663 1.93352 46.2938 1.81977 46.5213 1.70603C46.7488 1.59229 46.8626 1.59229 47.09 1.59229H47.2038C47.4313 1.59229 47.6588 1.70603 47.8862 1.70603C48.1137 1.81977 48.2275 1.93352 48.455 2.16101C48.6825 2.38849 48.6825 2.50224 48.7962 2.72973C48.9099 2.95721 48.9099 3.1847 48.9099 3.41219C48.9099 3.63968 48.7962 3.86717 48.7962 4.09465L48.6825 4.32214L45.3839 7.84821C45.0426 7.96195 44.8152 7.96195 44.7014 8.0757H44.5877Z"/><path fill="#F7931E" d="M40.9479 7.05213C40.8341 7.05213 40.6066 7.05213 40.6066 6.93839C40.4929 6.82464 40.4929 6.7109 40.3791 6.59716L39.2417 1.93365C39.2417 1.70616 39.2417 1.47867 39.3554 1.25118C39.4692 1.0237 39.5829 0.796209 39.6967 0.682464C39.8104 0.56872 40.0379 0.341232 40.2654 0.227488C40.3791 0.113744 40.6066 0 40.8341 0H40.9479C41.1753 0 41.2891 0 41.5166 0.113744C41.7441 0.227488 41.9716 0.341232 42.0853 0.454976C42.199 0.56872 42.4265 0.796208 42.5403 1.0237C42.654 1.25118 42.654 1.47867 42.7678 1.70616V1.93365L41.6303 6.59716C41.6303 6.7109 41.5166 6.82464 41.4028 6.93839C41.1753 7.05213 41.0616 7.05213 40.9479 7.05213Z"/><path fill="#F7931E" d="M37.308 7.96217H37.1943C37.0806 7.96217 36.9668 7.84843 36.8531 7.73468L33.5545 4.20862C33.327 3.86739 33.2133 3.41241 33.327 2.95743C33.4407 2.50246 33.6682 2.16122 34.0095 1.81999C34.237 1.5925 34.5782 1.47876 34.9194 1.47876C35.0332 1.47876 35.1469 1.47876 35.2607 1.47876C35.7156 1.5925 36.0569 1.81999 36.3981 2.16122V2.6162L37.763 7.27971C37.8768 7.39345 37.8768 7.5072 37.763 7.73468C37.763 7.84843 37.6493 7.96217 37.5355 8.07592C37.5355 7.96217 37.4218 7.96217 37.308 7.96217Z"/><path fill="#F7931E" d="M34.5782 10.692C34.4645 10.692 34.3507 10.692 34.3507 10.5783L29.6872 9.21335C29.4598 9.0996 29.346 8.98586 29.1185 8.75837C29.0048 8.64463 28.891 8.41714 28.7773 8.18965C28.6635 7.96216 28.6635 7.73467 28.6635 7.50719C28.6635 7.2797 28.7773 7.05221 28.7773 6.82472C28.891 6.59723 29.0048 6.48349 29.2323 6.256C29.346 6.14226 29.5735 6.02851 29.801 5.91477C30.0285 5.80103 30.1422 5.80103 30.3697 5.80103H30.4834C30.7109 5.80103 30.9384 5.91477 31.1659 5.91477L31.3934 6.02851L34.9195 9.32709C35.0332 9.44084 35.147 9.55458 35.147 9.66832C35.147 9.78207 35.147 10.0096 35.0332 10.1233C34.9195 10.237 34.8057 10.3508 34.692 10.3508C34.692 10.692 34.692 10.692 34.5782 10.692Z"/><path fill="#143284" d="M2.16114 62.3318H0.341232V51.6399H2.16114V62.3318ZM1.25118 49.7062C1.13744 49.7062 0.909952 49.7062 0.796208 49.5925C0.682464 49.4787 0.454976 49.4787 0.341232 49.365C0.227488 49.2513 0.113744 49.1375 0.113744 48.91C0 48.7963 0 48.5688 0 48.455C0 48.3413 0 48.1138 0.113744 48.0001C0.227488 47.8863 0.227488 47.6588 0.341232 47.5451C0.454976 47.4313 0.56872 47.3176 0.796208 47.3176C0.909952 47.2039 1.13744 47.2039 1.25118 47.2039C1.36493 47.2039 1.59242 47.2039 1.70616 47.3176C1.8199 47.4313 2.04739 47.4313 2.16114 47.5451C2.27488 47.6588 2.38863 47.7726 2.38863 48.0001C2.50237 48.1138 2.50237 48.3413 2.50237 48.455C2.50237 48.7963 2.38863 49.1375 2.16114 49.365C1.93365 49.5925 1.59242 49.7062 1.25118 49.7062Z"/><path fill="#143284" d="M14.5593 62.3318H12.7394V55.8484C12.7394 55.5071 12.7394 55.1659 12.6256 54.7109C12.5119 54.3697 12.2844 54.0285 12.0569 53.801C11.8294 53.5735 11.4882 53.346 11.1469 53.2323C10.8057 53.1185 10.5782 53.1185 10.237 53.1185H10.1232H10.0095C9.66827 53.1185 9.32704 53.2323 8.87206 53.346C8.53083 53.4597 8.07585 53.6872 7.84836 54.0285C7.1659 54.7109 6.82467 55.7346 6.93841 56.6446V62.3318H5.00476V51.6398H6.82467V53.2323C7.1659 52.6635 7.73462 52.2086 8.30334 51.8673C8.87206 51.5261 9.44078 51.4124 10.1232 51.4124C10.237 51.4124 10.237 51.4124 10.3507 51.4124C10.4645 51.4124 10.4645 51.4124 10.5782 51.4124C11.0332 51.4124 11.6019 51.5261 12.0569 51.6398C12.6256 51.8673 13.0806 52.2086 13.4218 52.5498C14.218 53.4597 14.673 54.5972 14.5593 55.7346V62.3318Z"/><path fill="#143284" d="M22.1801 62.3316H20.019L15.6967 51.6396H17.7441L21.0427 60.2842L24.455 51.6396H26.5024L22.1801 62.3316Z"/><path fill="#143284" d="M33.0995 62.5593C32.9858 62.5593 32.872 62.5593 32.7583 62.5593C32.6445 62.5593 32.6445 62.5593 32.5308 62.5593C31.8483 62.5593 31.1658 62.4455 30.4834 62.218C29.8009 61.9906 29.1185 61.5356 28.5497 60.9669C27.981 60.3981 27.6398 59.8294 27.2985 59.1469C27.0711 58.4645 26.8436 57.6683 26.9573 56.9858C26.9573 56.1896 27.0711 55.5071 27.2985 54.8247C27.526 54.1422 27.981 53.4597 28.436 53.0048C29.0047 52.436 29.5734 52.0948 30.2559 51.7536C30.9384 51.5261 31.5071 51.4124 32.1895 51.4124C32.3033 51.4124 32.3033 51.4124 32.417 51.4124H32.5308C33.2132 51.4124 33.8957 51.5261 34.4644 51.8673C35.1469 52.2086 35.7156 52.5498 36.1706 53.1185C37.1943 54.256 37.6493 55.6209 37.6493 57.0996C37.6493 57.327 37.6493 57.6683 37.5355 57.8958H28.5497C28.6635 58.8057 29.1185 59.6019 29.9147 60.1706C30.5971 60.7394 31.5071 60.9669 32.3033 60.9669H32.417C32.5308 60.9669 32.5308 60.9669 32.6445 60.9669C33.2132 60.9669 33.6682 60.8531 34.1232 60.6256C34.6919 60.3981 35.1469 59.9432 35.4881 59.3744L37.0805 60.2844C36.6256 61.0806 35.8294 61.7631 35.0331 62.1043C34.6919 62.4455 33.8957 62.5593 33.0995 62.5593ZM32.5308 53.1185C31.7346 53.1185 30.9384 53.4597 30.2559 53.9147C29.5734 54.4834 29.1185 55.2797 29.0047 56.1896H36.1706C36.0568 55.2797 35.6019 54.4834 34.9194 53.9147C34.3507 53.346 33.5545 53.1185 32.7583 53.1185C32.6445 53.1185 32.5308 53.1185 32.5308 53.1185Z"/><path fill="#143284" d="M43.564 62.5592C43.4502 62.5592 43.4502 62.5592 43.3365 62.5592H43.2227C42.3128 62.5592 41.4028 62.3318 40.7204 61.8768C40.0379 61.4218 39.4692 60.8531 39.128 60.0569L40.7204 59.1469C40.8341 59.6019 41.1753 60.0569 41.6303 60.3981C42.0853 60.7393 42.654 60.8531 43.2227 60.8531C43.2227 60.8531 43.2227 60.8531 43.3365 60.8531H43.4502C43.9052 60.8531 44.4739 60.7393 44.8152 60.5119C45.0427 60.3981 45.1564 60.2844 45.2701 60.0569C45.3839 59.8294 45.3839 59.6019 45.3839 59.3744C45.3839 59.1469 45.2701 58.9194 45.2701 58.8057C45.1564 58.5782 45.0427 58.4645 44.8152 58.3507C44.3602 58.1232 43.7915 57.8957 43.3365 57.6683C42.7678 57.4408 42.199 57.327 41.6303 57.0995C41.0616 56.9858 40.4929 56.6446 40.1517 56.1896C39.6967 55.7346 39.4692 55.0521 39.5829 54.4834C39.5829 54.0284 39.6967 53.5735 39.8104 53.2322C40.0379 52.891 40.2654 52.436 40.6066 52.2085C41.2891 51.6398 42.199 51.2986 43.2227 51.2986H43.3365C43.3365 51.2986 43.3365 51.2986 43.4502 51.2986C44.2464 51.2986 45.0427 51.5261 45.7251 51.8673C46.4076 52.2085 46.9763 52.7773 47.2038 53.4597L45.4976 54.4834C45.2701 54.0284 45.0427 53.6872 44.5877 53.4597C44.2464 53.2322 43.7915 53.1185 43.4502 53.1185C43.3365 53.1185 43.3365 53.1185 43.2227 53.1185C43.2227 53.1185 43.2227 53.1185 43.109 53.1185C42.654 53.1185 42.199 53.2322 41.8578 53.4597C41.6303 53.5735 41.5166 53.6872 41.4028 53.9147C41.2891 54.1422 41.2891 54.2559 41.2891 54.4834C41.2891 54.7109 41.4028 54.9384 41.5166 55.0521C41.6303 55.2796 41.7441 55.3934 41.9716 55.3934C42.4265 55.6209 42.9953 55.8483 43.4502 55.9621C44.019 56.1896 44.5877 56.3033 45.1564 56.5308C45.7251 56.6446 46.2938 56.9858 46.6351 57.5545C47.09 58.1232 47.3175 58.692 47.2038 59.3744C47.2038 59.8294 47.09 60.2844 46.9763 60.6256C46.7488 61.0806 46.5213 61.4218 46.1801 61.6493C45.3839 62.3318 44.4739 62.5592 43.564 62.5592Z"/><path fill="#143284" d="M53.8009 62.4457C53.0047 62.4457 52.2085 62.2182 51.4123 61.8769C50.6161 61.422 50.2749 60.512 50.2749 59.1471V53.4599H48.1137V51.64H50.2749V49.2513L52.0948 48.6826V51.64H54.9384V53.4599H52.0948V59.2608C52.0948 59.7158 52.2085 60.057 52.436 60.3983C52.5498 60.512 52.6635 60.6257 52.891 60.6257C53.0047 60.6257 53.2322 60.7395 53.346 60.7395C53.346 60.7395 53.346 60.7395 53.4597 60.7395C53.5735 60.7395 53.6872 60.7395 53.6872 60.7395C54.0284 60.7395 54.4834 60.7395 55.0521 60.7395V62.4457C54.5972 62.4457 54.1422 62.4457 53.8009 62.4457Z"/></svg>