<svg xmlns="http://www.w3.org/2000/svg" width="113" height="74" fill="none" viewBox="0 0 113 74"><path fill="#fff" d="M50.8929 73.1156C51.0256 73.1156 51.0256 73.1156 51.1583 73.1156C52.3526 73.1156 53.4142 72.7176 54.3431 72.0543C54.7412 71.7889 55.1393 71.3909 55.272 70.8603C55.5374 70.3296 55.6701 69.799 55.5374 69.401C55.5374 68.605 55.272 67.809 54.8739 67.2784C54.4758 66.7477 53.8123 66.3497 53.1488 66.0844C52.4853 65.8191 51.8218 65.6864 51.1583 65.4211C50.4948 65.2884 49.9639 65.0231 49.4331 64.7577C49.1677 64.6251 49.035 64.4924 48.9023 64.3598C48.7696 64.0944 48.6369 63.9618 48.6369 63.6964C48.6369 63.4311 48.6369 63.1658 48.7696 63.0331C48.9023 62.7678 49.035 62.6351 49.3004 62.5025C49.6985 62.2371 50.2294 62.1045 50.7602 62.1045C50.7602 62.1045 50.7602 62.1045 50.8929 62.1045C51.0256 62.1045 51.0256 62.1045 51.1583 62.1045C51.6891 62.1045 52.0872 62.2371 52.4853 62.5025C53.0161 62.7678 53.2815 63.1658 53.5469 63.6964L55.4047 62.6351C55.0066 61.8391 54.3431 61.1758 53.6796 60.7778C52.8834 60.3798 51.9545 60.1145 51.0256 60.1145C51.0256 60.1145 51.0256 60.1145 50.8929 60.1145H50.7602C49.6985 60.1145 48.6369 60.5125 47.708 61.1758C47.3099 61.4411 47.0445 61.8391 46.7791 62.3698C46.5137 62.7678 46.5137 63.2984 46.5137 63.8291C46.5137 64.6251 46.7791 65.2884 47.1772 65.8191C47.708 66.3497 48.2388 66.7477 48.9023 66.8804C49.5658 67.1457 50.2293 67.2784 50.8929 67.5437C51.5564 67.6763 52.0872 67.9417 52.618 68.3397C52.8834 68.4723 53.0161 68.605 53.1488 68.8703C53.2815 69.1357 53.2815 69.2683 53.2815 69.5336C53.2815 69.799 53.2815 70.0643 53.1488 70.3296C53.0161 70.595 52.8834 70.7276 52.618 70.8603C52.0872 71.1256 51.5564 71.2583 51.0256 71.2583H50.8929C50.8929 71.2583 50.8929 71.2583 50.7602 71.2583C50.0966 71.2583 49.4331 71.1256 48.9023 70.7276C48.3715 70.4623 47.9734 69.9316 47.8407 69.2683L45.9829 70.3296C46.381 71.2583 47.0445 71.9216 47.8407 72.4523C48.7696 72.9829 49.6985 73.2482 50.7602 73.2482C50.7602 73.1156 50.8929 73.1156 50.8929 73.1156Z"/><path fill="#fff" d="M56.4663 60.3799V62.5025H58.9876V69.2684C58.9876 70.8604 59.3857 71.9217 60.3147 72.4523C61.2436 72.8503 62.1725 73.1156 63.1014 73.1156C63.6322 73.1156 64.0303 73.1156 64.5611 72.983V70.993C64.0303 70.993 63.4995 70.993 62.9687 70.993C62.836 70.993 62.7033 70.993 62.7033 70.993C62.7033 70.993 62.7033 70.993 62.5706 70.993C62.4379 70.993 62.1725 70.993 62.0398 70.8604C61.9071 70.7277 61.6417 70.7277 61.509 70.595C61.2436 70.197 61.1109 69.7991 61.1109 69.2684V62.5025H64.4284V60.3799H61.1109V56.9307L58.9876 57.594V60.3799H56.4663Z"/><path fill="#fff" d="M18.6465 60.3796L23.6891 72.85H26.2105L31.2531 60.3796H28.8645L24.8834 70.4621L21.0351 60.3796H18.6465Z"/><path fill="#fff" d="M12.1439 62.1045C12.542 62.1045 12.8074 62.1045 13.2055 62.2371C13.6036 62.3698 14.0017 62.6351 14.2671 62.9004C14.5326 63.1658 14.798 63.5638 14.9307 63.9617C15.0634 64.3597 15.1961 64.7577 15.0634 65.2884V72.8502H17.1866V65.1557C17.3193 63.8291 16.7885 62.3698 15.8596 61.4411C15.4615 60.9105 14.798 60.6452 14.2671 60.3798C13.7363 60.1145 13.2055 60.1145 12.542 60.1145C12.4093 60.1145 12.4093 60.1145 12.2766 60.1145C12.1439 60.1145 12.1439 60.1145 12.0112 60.1145C11.3477 60.1145 10.5515 60.2472 9.888 60.6452C9.22449 61.0431 8.56099 61.5738 8.16288 62.2371V60.3798H6.17236V72.8502H8.29559V66.217C8.29559 65.1557 8.69369 63.9618 9.3572 63.1658C9.7553 62.7678 10.1534 62.5025 10.5515 62.3698C10.9496 62.2371 11.3477 62.1045 11.8785 62.1045H12.0112H12.1439Z"/><path fill="#fff" d="M0.731445 60.3796V72.85H2.85467V60.3796H0.731445Z"/><path fill="#fff" d="M1.79321 55.2061C1.66051 55.2061 1.39511 55.2061 1.26241 55.3387C1.12971 55.4714 0.864302 55.4714 0.731601 55.604C0.598899 55.7367 0.466198 55.8694 0.466198 56.1347C0.333496 56.2674 0.333496 56.4 0.333496 56.6654C0.333496 56.798 0.333496 57.0634 0.466198 57.196C0.598899 57.3287 0.598899 57.594 0.731601 57.7267C0.864302 57.8593 0.997004 57.992 1.26241 57.992C1.39511 58.1247 1.66051 58.1247 1.79321 58.1247C2.19132 58.1247 2.58942 57.992 2.85483 57.7267C3.12023 57.4613 3.25293 57.0633 3.25293 56.6654C3.25293 56.5327 3.25293 56.2674 3.12023 56.1347C3.12023 55.8694 2.98753 55.7367 2.85483 55.604C2.72212 55.4714 2.58942 55.3387 2.32402 55.3387C2.19132 55.2061 2.05862 55.2061 1.79321 55.2061Z"/><path fill="#fff" d="M69.0728 7.18188V49.8997H76.9022V7.18188H69.0728Z"/><path fill="#fff" d="M15.4617 25.8875C16.1252 25.8875 16.9214 26.0202 17.5849 26.2855C18.3811 26.5508 19.0446 26.9488 19.5754 27.4795C20.1062 28.1428 20.637 28.8061 20.9024 29.6021C21.1678 30.3981 21.3005 31.194 21.3005 32.1227V49.8997H29.1299V31.194C29.1299 27.2141 28.0683 24.1629 25.8124 21.9076C24.7508 20.8463 23.4237 19.9176 22.0967 19.387C20.7697 18.8563 19.31 18.591 17.983 18.591C17.8503 18.591 17.7176 18.591 17.7176 18.591C13.6039 18.591 10.5517 20.0503 8.6939 22.8362V7.18188H0.599121V49.767H8.4285V33.4493C8.4285 30.9287 9.09201 29.0714 10.2863 27.7448C10.9498 27.0815 11.746 26.5508 12.5422 26.2855C13.3384 26.0202 14.1347 25.8875 14.9309 25.8875C15.0636 25.8875 15.0636 25.8875 15.1963 25.8875C15.329 25.8875 15.4617 25.8875 15.4617 25.8875Z"/><path fill="#fff" d="M35.8973 7.18188C35.6319 7.18188 35.4992 7.18188 35.2338 7.31455C34.9684 7.44721 34.7029 7.57988 34.5702 7.71254C34.4375 7.8452 34.1721 8.11053 34.0394 8.37586C33.9067 8.64119 33.9067 8.90651 33.9067 9.17184C33.9067 9.43717 33.9067 9.7025 34.0394 9.96782C34.1721 10.2332 34.3048 10.4985 34.4375 10.6311C34.5702 10.7638 34.8357 11.0291 35.1011 11.1618L40.5418 12.7538C40.6745 12.7538 40.6745 12.8864 40.8072 12.8864H40.9399C41.0726 12.8864 41.2053 12.7538 41.338 12.6211C41.4707 12.4884 41.4707 12.3558 41.4707 12.0904C41.4707 11.9578 41.338 11.8251 41.2053 11.6925L37.0916 7.8452L36.8262 7.71254C36.5608 7.31455 36.2954 7.18188 35.8973 7.18188Z"/><path fill="#fff" d="M60.3143 7.18188C60.1816 7.18188 60.0489 7.18188 59.9162 7.18188C59.6508 7.18188 59.3854 7.31455 59.2527 7.44721L55.1389 11.2945C55.0062 11.4271 54.8735 11.5598 54.8735 11.6925C54.8735 11.8251 54.8735 12.0905 55.0062 12.2231C55.1389 12.3558 55.2716 12.4884 55.4043 12.4884H55.537C55.6697 12.4884 55.6697 12.4884 55.8024 12.4884L61.2432 10.8965L61.3759 10.7638C61.6413 10.6312 61.774 10.4985 61.9067 10.2332C62.0394 9.96783 62.1721 9.83517 62.1721 9.56984C62.1721 9.30451 62.1721 9.03918 62.1721 8.77385C62.1721 8.50853 62.0394 8.2432 61.9067 8.11053C61.774 7.84521 61.5086 7.71254 61.3759 7.57988C61.1105 7.44721 60.9778 7.31455 60.7124 7.31455C60.5797 7.18188 60.447 7.18188 60.3143 7.18188Z"/><path fill="#fff" d="M55.1392 2.14062C54.8738 2.14062 54.7411 2.14063 54.4757 2.27329C54.2103 2.40595 53.9449 2.53862 53.8122 2.67128C53.6795 2.80394 53.5468 2.93661 53.4141 3.20194L51.8217 8.64115C51.689 8.77382 51.689 8.90648 51.8217 9.17181C51.8217 9.30447 51.9544 9.43714 52.0871 9.5698C52.2198 9.5698 52.3525 9.70247 52.4852 9.70247H52.6179C52.7506 9.70247 52.8833 9.5698 53.016 9.43714L56.8643 5.32456L56.997 5.05923C57.1297 4.7939 57.1297 4.52857 57.1297 4.26325C57.1297 3.99792 57.1297 3.73259 56.997 3.46726C56.8643 3.20194 56.7316 2.93661 56.5989 2.80394C56.4662 2.67128 56.3335 2.40595 56.0681 2.27329C55.8027 2.14063 55.5373 2.14062 55.1392 2.14062C55.2719 2.14062 55.2719 2.14062 55.1392 2.14062Z"/><path fill="#fff" d="M41.073 2.00769C40.6749 2.00769 40.2768 2.14035 40.0114 2.40568C39.6132 2.67101 39.2151 3.20166 39.2151 3.73232C39.0824 4.26298 39.2151 4.79363 39.4805 5.19162L43.3289 9.3042C43.3289 9.3042 43.4616 9.43686 43.727 9.43686H43.8597C43.9924 9.43686 44.1251 9.43686 44.1251 9.43686C44.2578 9.3042 44.3905 9.17154 44.3905 9.03887C44.3905 8.90621 44.3905 8.64088 44.3905 8.50822L42.7981 3.20166L42.6654 2.93634C42.4 2.53835 41.8692 2.14035 41.3384 2.14035C41.3384 2.00769 41.2057 2.00769 41.073 2.00769Z"/><path fill="#fff" d="M48.1061 0.150513H47.9734C47.708 0.150513 47.4426 0.283176 47.1772 0.41584C46.9118 0.548504 46.7791 0.681168 46.5137 0.946496C46.381 1.07916 46.2483 1.34449 46.1156 1.60981C45.9829 1.87514 45.9829 2.14047 45.9829 2.4058L47.3099 7.84501C47.3099 7.97768 47.4426 8.11034 47.5753 8.243C47.708 8.37567 47.8407 8.37567 47.9734 8.37567C48.1061 8.37567 48.2388 8.37567 48.3715 8.243C48.5042 8.11034 48.6369 7.97768 48.6369 7.84501L49.964 2.4058V2.14047C49.964 1.87514 49.8313 1.60981 49.6986 1.34449C49.5659 1.07916 49.4331 0.946495 49.1677 0.681168C49.035 0.548504 48.7696 0.41584 48.5042 0.283176C48.5042 0.150513 48.3715 0.150513 48.1061 0.150513Z"/><path fill="#fff" d="M29.1299 49.8997H21.3005V32.1227C21.3005 31.3267 21.3005 30.3981 20.9024 29.6021C20.637 28.8061 20.2389 28.0101 19.5754 27.4795C19.0446 26.9488 18.2484 26.5508 17.5849 26.2855C16.9214 26.0202 16.2579 25.8875 15.4617 25.8875C15.329 25.8875 15.329 25.8875 15.1963 25.8875C15.0636 25.8875 15.0636 25.8875 14.9309 25.8875C14.1347 25.8875 13.3384 26.0202 12.5422 26.2855C11.746 26.5508 10.9498 27.0815 10.2863 27.7448C9.09201 28.9388 8.4285 30.9287 8.4285 33.4493V49.8997H0.599121V7.18188H8.4285V22.8362C10.2863 20.0503 13.3384 18.591 17.4522 18.591C17.5849 18.591 17.7176 18.591 17.7176 18.591C19.1773 18.591 20.5043 18.8563 21.8313 19.387C23.291 19.9176 24.4854 20.8463 25.547 21.9076C27.6702 24.1629 28.8645 27.2141 28.8645 31.194V49.8997"/><path fill="#fff" d="M46.5134 50.6952C44.5229 50.6952 42.6651 50.2972 40.94 49.5013C39.0821 48.7053 37.4897 47.5113 36.1627 46.052C33.2433 43.0007 31.6509 38.8881 31.7836 34.6429C31.6509 30.3977 33.2433 26.2851 36.1627 23.2338C37.4897 21.7745 39.0821 20.5805 40.94 19.7846C42.6651 18.9886 44.6556 18.5906 46.5134 18.5906H46.6461C50.8926 18.5906 54.2101 20.0499 56.5987 23.1011V19.5192H64.4281V50.0319H56.5987V46.45C54.2101 49.2359 50.8926 50.6952 46.5134 50.6952ZM47.8404 26.0198C46.7788 26.0198 45.8499 26.1524 44.7883 26.5504C43.7267 26.9484 42.7978 27.6117 42.0016 28.4077C41.2054 29.2037 40.5418 30.1323 40.1437 31.1936C39.7456 32.255 39.6129 33.4489 39.6129 34.5102C39.6129 35.7042 39.7456 36.7655 40.1437 37.8268C40.5418 38.8881 41.2054 39.8168 42.0016 40.6128C42.7978 41.4088 43.7267 42.0721 44.7883 42.4701C45.7172 42.8681 46.7788 43.0007 47.8404 43.0007C47.9731 43.0007 47.9731 43.0007 48.1058 43.0007C48.2385 43.0007 48.2385 43.0007 48.3712 43.0007C49.4328 43.0007 50.4945 42.8681 51.4234 42.4701C52.485 42.0721 53.4139 41.4088 54.2101 40.6128C55.0063 39.8168 55.6698 38.8881 56.0679 37.8268C56.466 36.7655 56.7314 35.5716 56.5987 34.5102C56.5987 33.3163 56.466 32.255 56.0679 31.1936C55.6698 30.1323 55.0063 29.2037 54.2101 28.4077C53.4139 27.6117 52.485 26.9484 51.4234 26.5504C50.4945 26.1524 49.4328 26.0198 48.3712 26.0198C48.2385 26.0198 48.2385 26.0198 48.1058 26.0198C47.9731 26.0198 47.8404 26.0198 47.8404 26.0198Z"/><path fill="#fff" d="M76.9022 49.8997H69.0728V7.18188H76.9022V49.8997Z"/><path fill="#fff" d="M96.2765 50.8279C94.1533 50.8279 92.03 50.4299 90.0395 49.6339C87.1201 48.4399 84.5988 46.3173 82.7409 43.664C81.0158 41.0108 80.0869 37.8268 80.0869 34.6429C80.0869 31.459 81.0158 28.4077 82.8736 25.7544C84.5988 23.1011 87.1201 21.1112 90.0395 19.7846C92.03 18.9886 94.1533 18.5906 96.2765 18.5906C97.3381 18.5906 98.3997 18.7232 99.3286 18.8559C102.513 19.5192 105.3 20.9785 107.556 23.2338C109.016 24.6931 110.343 26.5504 111.139 28.4077C111.935 30.3977 112.333 32.5203 112.333 34.6429C112.333 36.7655 111.935 38.8881 111.139 40.8781C110.343 42.8681 109.149 44.5927 107.556 46.052C105.3 48.3073 102.381 49.8992 99.3286 50.5626C98.3997 50.6952 97.3381 50.8279 96.2765 50.8279ZM96.0111 26.1524C94.9495 26.1524 94.0206 26.2851 93.0917 26.6831C92.0301 27.0811 91.1011 27.7444 90.4376 28.5404C89.6414 29.3363 89.1106 30.265 88.7125 31.3263C88.1817 32.3876 87.9163 33.4489 87.9163 34.6429C87.9163 35.7042 88.049 36.8982 88.4471 37.9595C88.8452 39.0208 89.5087 39.9495 90.1722 40.7454C90.9684 41.5414 91.8973 42.0721 92.8263 42.6027C93.7552 43.0007 94.8168 43.1334 95.7457 43.1334C95.8784 43.1334 95.8784 43.1334 96.0111 43.1334C96.1438 43.1334 96.1438 43.1334 96.2765 43.1334C97.3381 43.1334 98.267 43.0007 99.3286 42.6027C100.39 42.2047 101.319 41.5414 101.983 40.7454C102.779 39.9495 103.442 39.0208 103.84 37.9595C104.239 36.8982 104.504 35.8369 104.371 34.6429C104.371 33.5816 104.239 32.3876 103.84 31.3263C103.442 30.265 102.779 29.3363 101.983 28.5404C101.186 27.7444 100.258 27.2137 99.3286 26.6831C98.3997 26.2851 97.3381 26.1524 96.2765 26.1524C96.1438 26.1524 96.1438 26.1524 96.0111 26.1524C96.1438 26.1524 96.0111 26.1524 96.0111 26.1524Z"/><path fill="#F7931E" d="M55.5373 12.6208C55.4046 12.6208 55.4046 12.6208 55.4046 12.6208C55.2719 12.6208 55.1392 12.4881 55.0065 12.3554C54.8738 12.0901 54.7411 11.9574 54.8738 11.8248C54.8738 11.6921 55.0065 11.5595 55.1392 11.4268L59.253 7.57954C59.5184 7.44687 59.6511 7.31421 59.9165 7.31421C60.0492 7.31421 60.1819 7.31421 60.3146 7.31421C60.4473 7.31421 60.58 7.31421 60.7127 7.31421C60.9781 7.31421 61.2435 7.44687 61.3762 7.57954C61.6416 7.7122 61.7743 7.84486 61.907 8.11019C62.0397 8.37552 62.1724 8.50818 62.1724 8.77351C62.1724 9.03884 62.1724 9.30417 62.1724 9.5695C62.1724 9.83482 62.0397 10.1002 61.907 10.2328C61.7743 10.4981 61.6416 10.6308 61.3762 10.7635L61.1108 10.8961L55.67 12.4881C55.67 12.6208 55.5373 12.6208 55.5373 12.6208Z"/><path fill="#F7931E" d="M52.3525 9.56953C52.2198 9.56953 52.0871 9.56953 51.9544 9.43687C51.8217 9.3042 51.689 9.17154 51.689 9.03888C51.689 8.90621 51.689 8.64088 51.689 8.50822L53.4141 3.20167C53.5468 2.93634 53.6795 2.80367 53.9449 2.53835C54.0776 2.40568 54.343 2.27302 54.6084 2.14035C54.8738 2.00769 55.0065 2.00769 55.2719 2.00769H55.4046C55.67 2.00769 55.9354 2.14035 56.2008 2.14035C56.4662 2.27302 56.5989 2.40568 56.8643 2.67101C57.1297 2.93634 57.1297 3.069 57.2624 3.33433C57.3951 3.59966 57.3951 3.86498 57.3951 4.13031C57.3951 4.39564 57.2624 4.66097 57.2624 4.9263L57.1297 5.19162L53.2814 9.3042C52.8833 9.43687 52.6179 9.43687 52.4852 9.56953H52.3525Z"/><path fill="#F7931E" d="M48.1058 8.37567C47.9731 8.37567 47.7077 8.37567 47.7077 8.243C47.5749 8.11034 47.5749 7.97768 47.4422 7.84501L46.1152 2.4058C46.1152 2.14047 46.1152 1.87514 46.2479 1.60981C46.3806 1.34449 46.5133 1.07916 46.646 0.946496C46.7787 0.813832 47.0441 0.548504 47.3095 0.41584C47.4422 0.283176 47.7077 0.150513 47.9731 0.150513H48.1058C48.3712 0.150513 48.5039 0.150513 48.7693 0.283176C49.0347 0.41584 49.3001 0.548504 49.4328 0.681168C49.5655 0.813832 49.8309 1.07916 49.9636 1.34449C50.0963 1.60981 50.0963 1.87514 50.229 2.14047V2.4058L48.902 7.84501C48.902 7.97768 48.7693 8.11034 48.6366 8.243C48.3712 8.37567 48.2385 8.37567 48.1058 8.37567Z"/><path fill="#F7931E" d="M43.8597 9.43696H43.727C43.5943 9.43696 43.4616 9.3043 43.3289 9.17164L39.4805 5.05906C39.2151 4.66106 39.0824 4.13041 39.2151 3.59975C39.3478 3.0691 39.6132 2.67111 40.0114 2.27311C40.2768 2.00779 40.6749 1.87512 41.073 1.87512C41.2057 1.87512 41.3384 1.87512 41.4711 1.87512C42.0019 2.00779 42.4 2.27311 42.7981 2.67111V3.20176L44.3905 8.64098C44.5232 8.77365 44.5232 8.90631 44.3905 9.17164C44.3905 9.3043 44.2578 9.43697 44.1251 9.56963C44.1251 9.43697 43.9924 9.43696 43.8597 9.43696Z"/><path fill="#F7931E" d="M40.6749 12.6211C40.5422 12.6211 40.4095 12.6211 40.4095 12.4884L34.9687 10.8964C34.7033 10.7638 34.5706 10.6311 34.3052 10.3658C34.1725 10.2331 34.0398 9.96778 33.9071 9.70245C33.7744 9.43712 33.7744 9.17179 33.7744 8.90647C33.7744 8.64114 33.9071 8.37581 33.9071 8.11048C34.0398 7.84515 34.1725 7.71249 34.4379 7.44716C34.5706 7.3145 34.836 7.18183 35.1014 7.04917C35.3668 6.9165 35.4995 6.9165 35.7649 6.9165H35.8976C36.163 6.9165 36.4284 7.04917 36.6938 7.04917L36.9592 7.18183L41.073 11.0291C41.2057 11.1618 41.3384 11.2944 41.3384 11.4271C41.3384 11.5597 41.3384 11.8251 41.2057 11.9577C41.073 12.0904 40.9403 12.2231 40.8076 12.2231C40.8076 12.6211 40.8076 12.6211 40.6749 12.6211Z"/><path fill="#fff" d="M2.85483 72.8504H0.731601V60.38H2.85483V72.8504ZM1.79321 58.1247C1.66051 58.1247 1.39511 58.1247 1.26241 57.992C1.12971 57.8593 0.864302 57.8593 0.731601 57.7267C0.598899 57.594 0.466198 57.4613 0.466198 57.196C0.333496 57.0633 0.333496 56.798 0.333496 56.6654C0.333496 56.5327 0.333496 56.2674 0.466198 56.1347C0.598899 56.002 0.598899 55.7367 0.731601 55.604C0.864302 55.4714 0.997004 55.3387 1.26241 55.3387C1.39511 55.2061 1.66051 55.2061 1.79321 55.2061C1.92591 55.2061 2.19132 55.2061 2.32402 55.3387C2.45672 55.4714 2.72212 55.4714 2.85483 55.604C2.98753 55.7367 3.12023 55.8694 3.12023 56.1347C3.25293 56.2674 3.25293 56.5327 3.25293 56.6654C3.25293 57.0633 3.12023 57.4613 2.85483 57.7267C2.58942 57.992 2.19132 58.1247 1.79321 58.1247Z"/><path fill="#fff" d="M17.3193 72.8502H15.1961V65.2884C15.1961 64.8904 15.1961 64.4924 15.0634 63.9617C14.9307 63.5638 14.6653 63.1658 14.3999 62.9004C14.1344 62.6351 13.7363 62.3698 13.3382 62.2371C12.9401 62.1045 12.6747 62.1045 12.2766 62.1045H12.1439H12.0112C11.6131 62.1045 11.215 62.2371 10.6842 62.3698C10.2861 62.5025 9.7553 62.7678 9.4899 63.1658C8.69369 63.9618 8.29559 65.1557 8.42829 66.217V72.8502H6.17236V60.3798H8.29559V62.2371C8.69369 61.5738 9.3572 61.0431 10.0207 60.6452C10.6842 60.2472 11.3477 60.1145 12.1439 60.1145C12.2766 60.1145 12.2766 60.1145 12.4093 60.1145C12.542 60.1145 12.542 60.1145 12.6747 60.1145C13.2055 60.1145 13.869 60.2472 14.3999 60.3798C15.0634 60.6452 15.5942 61.0431 15.9923 61.4411C16.9212 62.5025 17.452 63.8291 17.3193 65.1557V72.8502Z"/><path fill="#fff" d="M26.2105 72.85H23.6891L18.6465 60.3796H21.0351L24.8834 70.4621L28.8645 60.3796H31.2531L26.2105 72.85Z"/><path fill="#fff" d="M38.9497 73.1156C38.817 73.1156 38.6843 73.1156 38.5516 73.1156C38.4189 73.1156 38.4189 73.1156 38.2862 73.1156C37.49 73.1156 36.6938 72.9829 35.8976 72.7176C35.1014 72.4523 34.3052 71.9216 33.6417 71.2583C32.9781 70.595 32.58 69.9316 32.1819 69.1357C31.9165 68.3397 31.6511 67.411 31.7838 66.615C31.7838 65.6864 31.9165 64.8904 32.1819 64.0944C32.4473 63.2984 32.9781 62.5025 33.5089 61.9718C34.1725 61.3085 34.836 60.9105 35.6322 60.5125C36.4284 60.2472 37.0919 60.1145 37.8881 60.1145C38.0208 60.1145 38.0208 60.1145 38.1535 60.1145H38.2862C39.0824 60.1145 39.8786 60.2472 40.5421 60.6452C41.3383 61.0431 42.0018 61.4411 42.5326 62.1045C43.727 63.4311 44.2578 65.0231 44.2578 66.7477C44.2578 67.013 44.2578 67.411 44.1251 67.6764H33.6417C33.7744 68.7377 34.3052 69.6663 35.2341 70.3296C36.0303 70.993 37.0919 71.2583 38.0208 71.2583H38.1535C38.2862 71.2583 38.2862 71.2583 38.4189 71.2583C39.0824 71.2583 39.6132 71.1256 40.144 70.8603C40.8075 70.595 41.3383 70.0643 41.7364 69.401L43.5943 70.4623C43.0635 71.3909 42.1345 72.1869 41.2056 72.5849C40.8075 72.9829 39.8786 73.1156 38.9497 73.1156ZM38.2862 62.1045C37.3573 62.1045 36.4284 62.5025 35.6322 63.0331C34.836 63.6964 34.3052 64.6251 34.1725 65.6864H42.5326C42.3999 64.6251 41.8691 63.6964 41.0729 63.0331C40.4094 62.3698 39.4805 62.1045 38.5516 62.1045C38.4189 62.1045 38.2862 62.1045 38.2862 62.1045Z"/><path fill="#fff" d="M51.1583 73.1157C51.0256 73.1157 51.0256 73.1157 50.8929 73.1157H50.7602C49.6985 73.1157 48.6369 72.8503 47.8407 72.3197C47.0445 71.789 46.381 71.1257 45.9829 70.1971L47.8407 69.1357C47.9734 69.6664 48.3715 70.1971 48.9023 70.5951C49.4331 70.993 50.0967 71.1257 50.7602 71.1257C50.7602 71.1257 50.7602 71.1257 50.8929 71.1257H51.0256C51.5564 71.1257 52.2199 70.993 52.618 70.7277C52.8834 70.5951 53.0161 70.4624 53.1488 70.1971C53.2815 69.9317 53.2815 69.6664 53.2815 69.4011C53.2815 69.1358 53.1488 68.8704 53.1488 68.7378C53.0161 68.4724 52.8834 68.3398 52.618 68.2071C52.0872 67.9418 51.4237 67.6764 50.8929 67.4111C50.2294 67.1458 49.5658 67.0131 48.9023 66.7478C48.2388 66.6151 47.5753 66.2171 47.1772 65.6865C46.6464 65.1558 46.381 64.3598 46.5137 63.6965C46.5137 63.1659 46.6464 62.6352 46.7791 62.2372C47.0445 61.8392 47.3099 61.3086 47.708 61.0432C48.5042 60.3799 49.5658 59.9819 50.7602 59.9819H50.8929C50.8929 59.9819 50.8929 59.9819 51.0256 59.9819C51.9545 59.9819 52.8834 60.2473 53.6796 60.6453C54.4758 61.0432 55.1393 61.7066 55.4047 62.5026L53.4142 63.6965C53.1488 63.1659 52.8834 62.7679 52.3526 62.5026C51.9545 62.2372 51.4237 62.1046 51.0256 62.1046C50.8929 62.1046 50.8929 62.1046 50.7602 62.1046C50.7602 62.1046 50.7602 62.1046 50.6275 62.1046C50.0967 62.1046 49.5658 62.2372 49.1677 62.5026C48.9023 62.6352 48.7696 62.7679 48.6369 63.0332C48.5042 63.2985 48.5042 63.4312 48.5042 63.6965C48.5042 63.9619 48.6369 64.2272 48.7696 64.3598C48.9023 64.6252 49.035 64.7578 49.3004 64.7578C49.8312 65.0232 50.4948 65.2885 51.0256 65.4212C51.6891 65.6865 52.3526 65.8192 53.0161 66.0845C53.6796 66.2171 54.3431 66.6151 54.7412 67.2785C55.272 67.9418 55.5374 68.6051 55.4047 69.4011C55.4047 69.9317 55.272 70.4624 55.1393 70.8604C54.8739 71.391 54.6085 71.789 54.2104 72.0544C53.2815 72.8503 52.2199 73.1157 51.1583 73.1157Z"/><path fill="#fff" d="M63.1014 72.983C62.1725 72.983 61.2436 72.7177 60.3147 72.3197C59.3857 71.789 58.9876 70.7277 58.9876 69.1357V62.5025H56.4663V60.3799H58.9876V57.594L61.1109 56.9307V60.3799H64.4284V62.5025H61.1109V69.2684C61.1109 69.7991 61.2436 70.1971 61.509 70.595C61.6417 70.7277 61.7744 70.8604 62.0398 70.8604C62.1725 70.8604 62.4379 70.993 62.5706 70.993C62.5706 70.993 62.5706 70.993 62.7033 70.993C62.836 70.993 62.9687 70.993 62.9687 70.993C63.3668 70.993 63.8976 70.993 64.5611 70.993V72.983C64.0303 72.983 63.4995 72.983 63.1014 72.983Z"/></svg>