<svg xmlns="http://www.w3.org/2000/svg" width="59" height="41" fill="none" viewBox="0 0 59 41"><path fill="#143285" d="M8.9298 10.7199C10.6855 10.7199 12.1364 11.3088 13.2824 12.4866C14.4277 13.6645 15.0005 15.292 15.001 17.3693V27.2305H10.8571V17.8832C10.8571 16.8125 10.5681 15.9934 9.98994 15.4258C9.41176 14.8587 8.6408 14.575 7.67705 14.5745C6.606 14.5745 5.74945 14.9065 5.1074 15.5705C4.46487 16.2345 4.1436 17.2302 4.1436 18.5577V27.2305H0V4.74536H4.14365V12.9684C5.15005 11.4699 6.74544 10.7203 8.9298 10.7199Z"/><path fill="#143285" d="M29.4556 11.1694H33.5994V27.2304H29.4556V25.3353C28.2134 26.8987 26.4682 27.6803 24.2197 27.6801C22.0781 27.6801 20.2419 26.861 18.7109 25.2227C17.1796 23.5846 16.4139 21.577 16.4141 19.2001C16.4141 16.8229 17.1797 14.8152 18.7109 13.1771C20.2416 11.539 22.0779 10.7198 24.2197 10.7197C26.4683 10.7197 28.2136 11.5014 29.4556 13.0648V11.1694ZM21.8106 22.4603C22.6458 23.3065 23.7058 23.7295 24.9907 23.7293C26.2755 23.7293 27.3409 23.3063 28.1868 22.4603C29.0325 21.6145 29.4554 20.5277 29.4556 19.2001C29.4556 17.8725 29.0327 16.7856 28.1868 15.9395C27.3406 15.094 26.2753 14.6711 24.9907 14.6709C23.7059 14.6709 22.6459 15.0938 21.8106 15.9395C20.9753 16.7857 20.5578 17.8726 20.5579 19.2001C20.5579 20.5281 20.9755 21.6148 21.8106 22.4603Z"/><path fill="#143285" d="M36.1289 27.2305V3.78174H40.2725V27.2305H36.1289Z"/><path fill="#143285" d="M56.4056 25.2227C54.7564 26.8609 52.7434 27.68 50.3667 27.6801C47.9897 27.6801 45.9821 26.861 44.3439 25.2227C42.7057 23.5845 41.8865 21.5769 41.8865 19.2001C41.8865 16.8229 42.7056 14.8152 44.3439 13.1771C45.9821 11.539 47.9898 10.7198 50.3667 10.7197C52.7438 10.7197 54.7567 11.5388 56.4056 13.1771C58.0544 14.8152 58.8788 16.8229 58.8791 19.2001C58.8791 21.5769 58.0546 23.5845 56.4056 25.2227ZM47.267 22.3801C48.091 23.2151 49.1243 23.6326 50.3667 23.6327C51.6084 23.6327 52.647 23.2152 53.4825 22.3801C54.3178 21.5449 54.7354 20.4848 54.7352 19.2001C54.7352 17.9151 54.3177 16.8551 53.4825 16.02C52.6474 15.1848 51.6088 14.7671 50.3667 14.7671C49.1246 14.7671 48.0913 15.1848 47.267 16.02C46.4423 16.855 46.03 17.915 46.0303 19.2001C46.0303 20.4847 46.4425 21.5447 47.267 22.3801Z"/><path fill="#FD9727" d="M28.6994 5.92105L30.8663 3.89191C30.9796 3.81502 31.1069 3.76122 31.241 3.73358C31.3751 3.70595 31.5133 3.70504 31.6477 3.73089C31.7821 3.75674 31.9101 3.80885 32.0244 3.88424C32.1387 3.95962 32.237 4.05681 32.3136 4.17022C32.3903 4.28364 32.4438 4.41106 32.4712 4.54519C32.4985 4.67932 32.4991 4.81753 32.473 4.9519C32.4469 5.08628 32.3945 5.21418 32.3189 5.32829C32.2432 5.44239 32.1459 5.54046 32.0323 5.61688C31.9887 5.64603 31.943 5.67207 31.8958 5.69482L29.0468 6.52961C28.9668 6.56761 28.8753 6.57398 28.7908 6.54743C28.7063 6.52087 28.6349 6.46337 28.5909 6.38642C28.547 6.30947 28.5338 6.21877 28.5539 6.13247C28.574 6.04618 28.6259 5.97066 28.6993 5.92105H28.6994Z"/><path fill="#FD9727" d="M26.9413 4.44097L27.8034 1.6002C27.9242 1.35193 28.1387 1.16182 28.3997 1.07168C28.6606 0.98155 28.9467 0.99878 29.195 1.11958C29.4433 1.24038 29.6334 1.45486 29.7235 1.71583C29.8136 1.9768 29.7964 2.26289 29.6756 2.51116C29.6524 2.55821 29.6259 2.60357 29.5964 2.6469L27.5465 4.79425C27.4962 4.86719 27.4202 4.91843 27.3337 4.93771C27.2472 4.95699 27.1566 4.94288 27.0801 4.8982C27.0036 4.85353 26.9467 4.7816 26.921 4.69681C26.8953 4.61202 26.9025 4.52064 26.9413 4.44097Z"/><path fill="#FD9727" d="M24.6601 4.00584L23.9863 1.11463C23.9667 0.839225 24.0574 0.567346 24.2383 0.358801C24.4193 0.150257 24.6757 0.0221307 24.9511 0.00260791C25.2265 -0.0169149 25.4983 0.0737655 25.7069 0.2547C25.9154 0.435635 26.0436 0.692003 26.0631 0.967406C26.0666 1.01974 26.0663 1.07225 26.0624 1.12455L25.3609 4.00916C25.3538 4.09749 25.3136 4.17986 25.2483 4.2398C25.1831 4.29973 25.0976 4.3328 25.009 4.33237C24.9204 4.33195 24.8352 4.29806 24.7705 4.23751C24.7058 4.17695 24.6664 4.09419 24.6601 4.00581L24.6601 4.00584Z"/><path fill="#FD9727" d="M22.4672 4.76958L20.4381 2.60262C20.3608 2.48937 20.3067 2.36199 20.2789 2.22779C20.251 2.09358 20.2499 1.95519 20.2756 1.82056C20.3014 1.68593 20.3535 1.55771 20.4289 1.44326C20.5043 1.32881 20.6016 1.23038 20.7152 1.15363C20.8287 1.07687 20.9564 1.0233 21.0907 0.99598C21.225 0.968663 21.3634 0.968142 21.4979 0.994446C21.6324 1.02075 21.7604 1.07336 21.8746 1.14926C21.9887 1.22516 22.0867 1.32285 22.163 1.43673C22.1922 1.48035 22.2182 1.52596 22.241 1.57323L23.0758 4.42214C23.1138 4.50218 23.1201 4.59362 23.0936 4.67816C23.067 4.76269 23.0095 4.83408 22.9326 4.87801C22.8556 4.92195 22.7649 4.93519 22.6786 4.91509C22.5923 4.89499 22.5168 4.84303 22.4672 4.76962V4.76958Z"/><path fill="#FD9727" d="M20.9498 6.55259L18.109 5.69051C17.8607 5.5697 17.6706 5.35523 17.5805 5.09426C17.4903 4.83328 17.5076 4.5472 17.6284 4.29893C17.7492 4.05066 17.9637 3.86055 18.2246 3.77041C18.4856 3.68028 18.7717 3.69751 19.02 3.81831C19.067 3.84151 19.1124 3.868 19.1557 3.89756L21.3031 5.94739C21.3761 5.9977 21.4274 6.07372 21.4466 6.16023C21.4659 6.24673 21.4518 6.33732 21.4071 6.41386C21.3624 6.4904 21.2905 6.54722 21.2057 6.57294C21.1209 6.59867 21.0295 6.5914 20.9498 6.55259H20.9498Z"/><path fill="#143285" d="M5.03034 31.2046V34.4325C4.5843 33.8592 3.92763 33.5227 3.02316 33.5227C1.3629 33.5227 0 34.956 0 36.813C0 38.67 1.3629 40.1033 3.02316 40.1033C3.92763 40.1033 4.5843 39.7668 5.03034 39.1934V39.9288H6.62865V31.2046H5.03034ZM3.32052 38.5703C2.32932 38.5703 1.59831 37.8599 1.59831 36.813C1.59831 35.7661 2.32932 35.0557 3.32052 35.0557C4.29933 35.0557 5.03034 35.7661 5.03034 36.813C5.03034 37.8599 4.29933 38.5703 3.32052 38.5703Z"/><path fill="#143285" d="M8.88334 32.9494C9.4285 32.9494 9.87454 32.5007 9.87454 31.9648C9.87454 31.4289 9.4285 30.9678 8.88334 30.9678C8.35057 30.9678 7.90453 31.4289 7.90453 31.9648C7.90453 32.5007 8.35057 32.9494 8.88334 32.9494ZM8.09038 39.9288H9.68869V33.6972H8.09038V39.9288Z"/><path fill="#143285" d="M12.7499 34.769V33.6972H11.1516V39.9288H12.7499V36.9501C12.7499 35.6415 13.803 35.2676 14.6332 35.3673V33.5726C13.8526 33.5726 13.072 33.9215 12.7499 34.769Z"/><path fill="#143285" d="M16.6886 37.4735H21.3596C21.3967 37.2617 21.4215 37.0498 21.4215 36.813C21.4215 34.9809 20.1206 33.5227 18.2869 33.5227C16.3416 33.5227 15.0159 34.956 15.0159 36.813C15.0159 38.67 16.3292 40.1033 18.4108 40.1033C19.6002 40.1033 20.5294 39.6172 21.1118 38.7697L19.8232 38.0219C19.5506 38.3833 19.055 38.6451 18.4355 38.6451C17.593 38.6451 16.9116 38.2961 16.6886 37.4735ZM16.6638 36.2272C16.8496 35.4296 17.4319 34.9684 18.2869 34.9684C18.9559 34.9684 19.625 35.3299 19.8232 36.2272H16.6638Z"/><path fill="#143285" d="M25.4377 40.1033C26.6519 40.1033 27.7051 39.4552 28.2379 38.483L26.8502 37.6854C26.6024 38.1964 26.0696 38.508 25.4253 38.508C24.4713 38.508 23.7651 37.7976 23.7651 36.813C23.7651 35.8159 24.4713 35.1055 25.4253 35.1055C26.0572 35.1055 26.59 35.4296 26.8378 35.9406L28.2131 35.1305C27.7051 34.1708 26.6519 33.5227 25.4377 33.5227C23.5544 33.5227 22.1668 34.956 22.1668 36.813C22.1668 38.67 23.5544 40.1033 25.4377 40.1033Z"/><path fill="#143285" d="M32.6267 35.2426V33.6972H31.2267V31.9524L29.6284 32.4384V33.6972H28.5504V35.2426H29.6284V37.835C29.6284 39.5175 30.3841 40.178 32.6267 39.9288V38.4706C31.7099 38.5204 31.2267 38.508 31.2267 37.835V35.2426H32.6267Z"/></svg>