<svg width="430" height="359" viewBox="0 0 430 359" fill="none" xmlns="http://www.w3.org/2000/svg">
<path d="M220.513 209.306C221.784 215.089 223.401 220.668 225.044 226.37C225.52 227.942 225.968 229.391 226.568 230.936C228.433 236.46 230.518 241.807 232.728 247.126C233.328 248.671 234.024 250.066 234.748 251.584C237.055 256.753 239.556 261.621 242.305 266.434C243.153 267.925 243.973 269.292 244.821 270.783C247.516 275.351 250.405 279.617 253.542 283.83C254.638 285.266 255.707 286.579 256.803 288.015C258.763 290.422 260.696 292.706 262.753 294.963C264.481 296.905 266.278 298.574 267.952 300.27C269.42 301.624 270.888 302.978 272.206 304.237C276.529 307.93 280.718 311.009 285.047 313.54C287.286 314.854 289.348 315.949 291.534 317.016C294.572 318.412 297.681 319.535 300.735 320.412C303.638 321.193 306.611 321.7 309.433 322.112C311.03 322.277 312.752 322.414 314.295 322.333C317.559 322.39 320.591 321.981 323.72 321.423L353.871 314.796L354.248 313.552L354.722 312.158L355.826 308.303L355.799 308.18C358.205 306.103 360.459 303.931 362.632 301.39C364.195 299.627 365.705 297.618 367.187 295.486C370.055 291.373 372.691 286.795 374.944 281.656C375.736 279.934 376.501 278.089 377.266 276.244C378.268 273.702 379.146 271.187 379.997 268.549C380.848 265.911 381.548 263.177 382.248 260.443C382.668 258.803 383.061 257.04 383.454 255.276C384.563 250.26 385.369 245.052 385.9 239.775C386.072 238.189 386.217 236.481 386.361 234.772C386.866 229.372 387.067 223.781 386.994 218.121C387.042 216.563 386.938 214.909 386.959 213.227C386.876 209.892 386.766 206.433 386.408 203.029L388.616 195.32L388.826 194.499L378.441 147.248L378.111 146.933L372.75 140.888C371.524 137.674 370.324 134.584 368.974 131.398C368.374 129.853 367.677 128.458 366.953 126.94C364.647 121.771 362.146 116.903 359.521 112.062C358.673 110.572 357.852 109.204 357.004 107.714C354.309 103.146 351.393 98.7563 348.283 94.667C347.187 93.2309 346.242 91.8907 345.022 90.4819C343.035 87.9517 341.075 85.5446 338.894 83.315C337.194 81.4959 335.493 79.6767 333.847 78.1037C332.378 76.7494 331.034 75.368 329.593 74.1368C325.393 70.416 321.081 67.365 316.752 64.8335C314.636 63.4926 312.451 62.425 310.265 61.3575C307.226 59.9614 304.091 58.7156 301.064 57.962C300.789 57.8935 300.513 57.825 300.362 57.7292L297.949 55.0347L296.194 52.9695L266.167 59.5692C263.092 60.374 260.071 61.425 257.104 62.722C255.821 63.3912 254.537 64.0603 253.253 64.7295C250.713 66.1908 248.253 68.0213 245.821 69.9748C243.416 72.0514 241.065 74.3741 238.892 76.9156C237.328 78.6783 235.819 80.687 234.46 82.7916C231.592 86.9048 229.08 91.4557 226.704 96.6219C225.912 98.344 225.146 100.189 224.381 102.034C223.352 104.453 222.474 106.968 221.623 109.606C220.799 112.367 219.975 115.128 219.302 117.985C218.882 119.625 218.489 121.389 218.097 123.152C216.988 128.168 216.181 133.377 215.65 138.653C215.479 140.239 215.334 141.948 215.189 143.656C214.712 149.179 214.483 154.647 214.556 160.307C214.509 161.865 214.612 163.519 214.591 165.201C214.692 170.984 215.164 176.685 215.788 182.481C216.015 184.108 216.092 185.64 216.319 187.266C217.067 193.036 218.09 198.874 219.237 204.685C219.837 206.23 220.161 207.706 220.513 209.306Z" fill="#A4C1F5"/>
<path d="M253.653 64.705C254.88 63.9048 256.135 63.2311 257.418 62.6839C260.293 61.2563 263.252 60.2082 266.294 59.5395L295.741 53.0673L296.6 54.0721L297.458 55.0769L299.857 57.8649C300.128 57.9379 300.399 58.0109 300.549 58.1107L246.4 70.0121C248.771 68.0322 251.17 66.1788 253.653 64.705Z" fill="#A4C1F5"/>
<path d="M238.573 77.8328L310.936 61.9281C313.098 62.7772 315.311 63.8561 317.423 65.0774L234.005 83.4119C235.41 81.4175 236.967 79.5103 238.573 77.8328Z" fill="#A4C1F5"/>
<path d="M226.748 97.2081L329.921 74.5317C331.343 75.664 332.79 76.9111 334.112 78.1856L224.351 102.31C225.117 100.456 225.933 98.8322 226.748 97.2081Z" fill="#A4C1F5"/>
<path d="M219.411 118.646L345.318 90.9721C346.366 92.1867 347.438 93.5161 348.51 94.8456L218.261 123.473C218.553 121.844 218.994 120.302 219.411 118.646Z" fill="#A4C1F5"/>
<path d="M215.639 139.301L357.533 108.114C358.335 109.382 359.161 110.766 359.988 112.149L215.103 143.994C215.149 142.419 215.444 140.789 215.639 139.301Z" fill="#A4C1F5"/>
<path d="M215.218 160.742L366.907 127.402C367.58 128.698 368.156 130.137 368.854 131.549L215.189 165.323C215.108 163.776 215.15 162.201 215.218 160.742Z" fill="#A4C1F5"/>
<path d="M216.591 183.316L378.295 147.775L378.62 148.074L379.502 152.084L217.056 187.789C216.894 186.464 216.805 184.876 216.591 183.316Z" fill="#A4C1F5"/>
<path d="M219.431 205.566L383.34 169.54L384.3 173.904L220.39 209.93C220.062 208.437 219.759 207.059 219.431 205.566Z" fill="#A4C1F5"/>
<path d="M388.943 195.037L388.723 195.808L227.143 231.321C226.691 229.856 226.141 228.532 225.689 227.066L388.135 191.362L388.943 195.037Z" fill="#A4C1F5"/>
<path d="M387.172 219.025L235.361 252.392C234.586 250.636 233.901 248.699 233.093 246.79L386.758 213.016C386.948 215.061 387.015 217.133 387.172 219.025Z" fill="#A4C1F5"/>
<path d="M385.179 240.813L244.72 271.684C243.823 269.955 242.892 268.073 241.96 266.191L385.381 234.668C385.325 236.768 385.235 238.714 385.179 240.813Z" fill="#A4C1F5"/>
<path d="M382.726 261.177L256.95 288.821C255.801 287.148 254.617 285.321 253.434 283.494L383.684 254.866C383.376 257.021 383.067 259.175 382.726 261.177Z" fill="#A4C1F5"/>
<path d="M375.514 282.587L272.348 305.262C270.825 303.671 269.267 301.926 267.834 300.154L377.595 276.03C376.946 278.42 376.23 280.504 375.514 282.587Z" fill="#A4C1F5"/>
<path d="M362.186 302.291L291.25 317.882C289.115 317.027 286.93 315.942 284.843 314.715L366.798 296.702C365.295 298.718 363.766 300.62 362.186 302.291Z" fill="#A4C1F5"/>
<path d="M354.429 312.205L353.949 313.608L353.568 314.86L323.132 321.55C320 322.238 316.913 322.527 313.618 322.473C312.033 322.432 310.323 322.418 308.711 322.253C305.765 321.992 302.89 321.456 299.933 320.548L355.546 308.325L354.429 312.205Z" fill="#A4C1F5"/>
<path d="M399.367 264.269C417.597 206.453 399.389 123.61 358.676 79.1357C318.087 34.634 270.355 45.3833 252.248 103.173C234.142 160.962 252.35 243.805 292.939 288.306C333.652 332.781 381.261 322.059 399.367 264.269Z" fill="#DCEFFE"/>
<path d="M392.343 168.635C384.975 135.112 370.709 105.56 352.097 85.1027C334.728 66.1811 315.917 57.7833 299.115 61.4761C282.19 65.1961 268.688 80.9545 260.812 105.812C252.52 132.312 251.988 165.246 259.356 198.768C266.724 232.291 280.99 261.843 299.603 282.3C316.971 301.222 335.659 309.647 352.461 305.954C369.386 302.234 383.011 286.449 390.764 261.618C399.179 235.091 399.711 202.158 392.343 168.635Z" fill="#A4C1F5"/>
<path d="M384.843 176.383C377.475 142.861 363.473 113.251 345.507 92.6512C328.784 73.5877 310.75 65.0192 294.603 68.568C278.457 72.1169 265.485 87.7587 258.255 112.475C250.61 138.832 250.342 171.708 257.71 205.23C265.078 238.753 278.957 268.39 297.046 288.963C313.769 308.026 331.803 316.595 347.95 313.046C364.096 309.497 377.068 293.855 384.298 269.139C391.943 242.782 392.211 209.906 384.843 176.383Z" fill="#DCEFFE"/>
<path d="M306.723 133.818L329.458 173.196L283.902 146.994L267.304 156.577L317.036 242.714L337.783 230.736L315.048 191.359L360.604 217.561L377.201 207.978L327.47 121.84L306.723 133.818Z" fill="#A4C1F5"/>
<rect width="26.6417" height="98.6042" transform="matrix(0.506557 0.862206 -0.860637 0.509219 357.487 145.526)" fill="#A4C1F5"/>
<path d="M248.972 222.138C246.39 228.288 243.469 234.142 240.494 240.127C239.648 241.773 238.858 243.288 237.881 244.879C234.699 250.623 231.308 256.126 227.787 261.573C226.81 263.164 225.758 264.569 224.65 266.105C221.052 271.367 217.302 276.257 213.29 281.037C212.051 282.518 210.867 283.868 209.628 285.348C205.726 289.867 201.671 294.013 197.353 298.049C195.852 299.42 194.406 300.66 192.905 302.03C190.254 304.303 187.657 306.445 184.93 308.532C182.629 310.337 180.308 311.825 178.117 313.368C176.222 314.573 174.328 315.779 172.619 316.909C167.1 320.132 161.856 322.702 156.569 324.638C153.833 325.644 151.337 326.443 148.711 327.187C145.077 328.125 141.423 328.745 137.878 329.104C134.519 329.387 131.14 329.353 127.946 329.243C126.152 329.106 124.227 328.914 122.544 328.515C118.935 327.923 115.677 326.863 112.344 325.617L80.4726 312.236L80.3112 310.783L80.0737 309.144L79.6446 304.655L79.6995 304.524C77.4733 301.742 75.4332 298.885 73.5579 295.635C72.1949 293.369 70.9417 290.842 69.7435 288.184C67.4233 283.054 65.454 277.456 64.0216 271.314C63.5005 269.248 63.0343 267.051 62.5681 264.855C61.983 261.839 61.5292 258.878 61.1303 255.786C60.7314 252.694 60.5186 249.526 60.3058 246.359C60.1781 244.458 60.1053 242.426 60.0326 240.395C59.8356 234.617 60.0108 228.688 60.5033 222.738C60.6379 220.948 60.8275 219.027 61.017 217.105C61.5644 211.025 62.484 204.792 63.7209 198.539C63.9867 196.804 64.4385 194.993 64.7592 193.126C65.5318 189.449 66.3594 185.641 67.4492 181.942L66.591 172.963L66.5272 172.013L87.6232 121.766L88.0503 121.484L95.1927 115.863C97.2006 112.55 99.1536 109.368 101.293 106.111C102.269 104.52 103.322 103.115 104.43 101.579C108.027 96.3171 111.777 91.4271 115.659 86.5922C116.897 85.1114 118.081 83.7615 119.32 82.2807C123.223 77.7625 127.333 73.4853 131.595 69.58C133.096 68.2093 134.411 66.9145 136.043 65.5989C138.75 63.195 141.401 60.922 144.26 58.89C146.505 57.2162 148.751 55.5424 150.886 54.1303C152.781 52.9249 154.544 51.6643 156.384 50.5897C161.772 47.3108 167.147 44.7963 172.434 42.8603C175.04 41.7993 177.666 41.0551 180.293 40.3108C183.926 39.3736 187.635 38.6223 191.125 38.3944C191.443 38.3737 191.76 38.353 191.946 38.2772L195.155 35.7769L197.511 33.8414L229.251 47.1673C232.475 48.6748 235.589 50.444 238.593 52.4749C239.871 53.4732 241.149 54.4715 242.427 55.4698C244.928 57.5972 247.264 60.1171 249.545 62.7679C251.771 65.5496 253.887 68.593 255.763 71.843C257.126 74.1083 258.379 76.6353 259.446 79.2382C261.766 84.3681 263.604 89.9112 265.168 96.1086C265.689 98.1744 266.155 100.371 266.621 102.568C267.261 105.453 267.715 108.414 268.114 111.506C268.458 114.729 268.802 117.951 268.96 121.25C269.088 123.15 269.16 125.182 269.233 127.213C269.43 132.991 269.255 138.92 268.762 144.87C268.628 146.661 268.438 148.582 268.249 150.503C267.646 156.715 266.782 162.816 265.545 169.069C265.279 170.805 264.827 172.616 264.506 174.482C263.215 180.866 261.529 187.085 259.658 193.379C259.075 195.135 258.678 196.816 258.095 198.572C256.093 204.811 253.773 211.071 251.322 217.276C250.345 218.867 249.686 220.437 248.972 222.138Z" fill="#D3D8B6"/>
<path d="M241.99 55.363C240.802 54.2309 239.556 53.2333 238.254 52.3702C235.378 50.2131 232.331 48.4595 229.116 47.1094L197.989 34.0409L196.838 34.9816L195.686 35.9222L192.474 38.5291C192.16 38.5556 191.846 38.5821 191.661 38.6627L248.898 62.6936C246.69 60.0258 244.425 57.4926 241.99 55.363Z" fill="#D3D8B6"/>
<path d="M255.926 72.923L179.436 40.8088C176.88 41.3159 174.222 42.0672 171.645 42.9964L259.821 80.017C258.679 77.5267 257.354 75.1027 255.926 72.923Z" fill="#D3D8B6"/>
<path d="M265 96.7483L155.943 50.9608C154.145 51.9298 152.296 53.021 150.578 54.1673L266.599 102.879C266.135 100.672 265.567 98.7104 265 96.7483Z" fill="#D3D8B6"/>
<path d="M268.702 121.959L135.613 66.0813C134.211 67.2165 132.758 68.4739 131.305 69.7312L268.983 127.535C268.994 125.672 268.822 123.877 268.702 121.959Z" fill="#D3D8B6"/>
<path d="M268.644 145.589L118.657 82.6171C117.515 83.8615 116.322 85.228 115.129 86.5945L268.276 150.893C268.548 149.14 268.556 147.276 268.644 145.589Z" fill="#D3D8B6"/>
<path d="M264.726 169.419L104.386 102.1C103.379 103.401 102.451 104.879 101.393 106.302L263.822 174.498C264.227 172.801 264.502 171.049 264.726 169.419Z" fill="#D3D8B6"/>
<path d="M258.601 194.142L87.6745 122.379L87.255 122.645L85.4645 126.91L257.175 199.003C257.624 197.568 258.047 195.828 258.601 194.142Z" fill="#D3D8B6"/>
<path d="M250.927 218.214L77.6697 145.472L75.7212 150.113L248.979 222.855C249.646 221.268 250.261 219.802 250.927 218.214Z" fill="#D3D8B6"/>
<path d="M66.2857 172.585L66.3704 173.482L237.166 245.191C237.963 243.658 238.84 242.302 239.637 240.77L67.9265 168.677L66.2857 172.585Z" fill="#D3D8B6"/>
<path d="M63.3402 199.504L223.809 266.877C225.022 265.087 226.172 263.08 227.453 261.128L65.0234 192.932C64.396 195.159 63.8993 197.44 63.3402 199.504Z" fill="#D3D8B6"/>
<path d="M61.085 224.032L209.554 286.367C210.897 284.632 212.307 282.734 213.718 280.836L62.1173 217.187C61.7504 219.523 61.4519 221.696 61.085 224.032Z" fill="#D3D8B6"/>
<path d="M59.6283 247.075L192.577 302.894C194.186 301.271 195.863 299.485 197.54 297.699L59.8616 239.895C59.761 242.343 59.6605 244.791 59.6283 247.075Z" fill="#D3D8B6"/>
<path d="M80.3859 309.258L80.6275 310.908L80.792 312.371L112.964 325.878C116.274 327.268 119.617 328.207 123.259 328.807C125.014 329.079 126.901 329.406 128.71 329.547C132.01 329.848 135.288 329.831 138.732 329.418L79.9476 304.738L80.3859 309.258Z" fill="#D3D8B6"/>
<path d="M40.6597 247.162C32.3817 179.481 69.3676 91.3882 123.314 50.2944C177.131 9.14582 227.533 30.6151 235.681 98.2411C243.828 165.867 206.842 253.96 153.026 295.109C99.0789 336.202 48.8071 314.788 40.6597 247.162Z" fill="#F9FFEC"/>
<path d="M67.9321 142.664C82.8988 107.016 104.655 77.1483 129.344 58.2236C152.348 40.7498 174.792 35.2195 192.552 42.6759C210.442 50.1872 222.101 70.3441 225.702 99.4505C229.427 130.459 223.286 167.037 208.319 202.684C193.352 238.332 171.596 268.2 146.907 287.125C123.903 304.598 101.59 310.183 83.83 302.727C65.9397 295.216 54.1497 275.004 50.6793 245.952C46.8245 214.89 52.9655 178.311 67.9321 142.664Z" fill="#D3D8B6"/>
<path d="M74.6153 152.749C89.582 117.101 111.06 87.1161 135.064 67.904C157.386 50.1438 179.009 44.2688 196.076 51.4345C213.143 58.6002 224.242 78.5218 227.161 107.342C230.201 138.062 223.781 174.524 208.814 210.171C193.848 245.819 172.5 275.858 148.366 295.016C126.044 312.776 104.421 318.651 87.3536 311.485C70.2863 304.32 59.1875 284.398 56.269 255.578C53.229 224.857 59.6487 188.396 74.6153 152.749Z" fill="#F9FFEC"/>
<path d="M136.449 258.291L146.452 250.757C148.468 249.287 149.846 246.005 149.428 243.668L148.165 233.719C157.287 224.58 163.789 214.649 167.724 203.794C171.604 193.072 172.951 182.829 171.731 173.516C170.467 163.567 167.418 157.5 162.605 155.634C157.848 153.637 151.646 153.967 144.057 156.493C143.363 156.665 141.226 157.311 138.097 158.468C131.014 160.899 125.837 162.122 122.698 162.193C119.371 162.341 117.511 160.479 116.983 156.552C115.653 147.501 119.786 139.509 129.172 132.333C134.658 128.152 140.475 125.035 146.567 123.115C149.585 122.221 152.493 121.589 155.235 121.351C156.062 121.235 156.943 120.987 157.67 120.366C160.226 118.351 162.309 114.13 161.803 110.521L160.067 96.5138C159.803 94.5503 158.57 93.4149 157.05 93.7031C149.394 95.2753 140.934 99.1345 131.746 105.467L130.241 93.8728C129.878 91.4045 128.028 90.6277 126.144 92.1528L116.14 99.6873C114.124 101.157 112.747 104.438 113.164 106.775L114.714 119.006C106.374 127.393 100.17 136.986 96.4216 147.765C92.5413 158.487 91.2716 168.917 92.4803 178.997C93.3594 186.16 95.3075 191.147 98.3246 193.957C101.342 196.768 105.02 198.004 109.36 197.664C113.7 197.325 119.119 195.894 125.564 193.505C131.071 191.494 135.026 190.221 137.482 189.554C139.939 188.886 142.12 188.876 144.047 189.839C145.897 190.616 147.064 192.65 147.416 195.886C147.888 199.944 147.083 204.084 144.68 208.324C142.333 212.434 138.873 216.231 134.489 219.64C129.674 223.331 124.585 225.827 119.386 226.732C117.172 227.192 115.013 227.521 112.832 227.531C111.874 227.592 111.069 228.027 110.21 228.592C107.654 230.607 105.571 234.828 106.077 238.437L107.89 252.631C108.154 254.595 109.387 255.73 110.907 255.442C113.947 254.865 116.911 254.102 119.72 252.966C123.223 251.657 127.056 249.561 131.187 247.127L132.407 256.44C132.583 258.984 134.433 259.761 136.449 258.291Z" fill="#D3D8B6"/>
</svg>
