<svg width="510" height="500" viewBox="0 0 510 500" fill="none" xmlns="http://www.w3.org/2000/svg">
<g clip-path="url(#clip0)">
<g filter="url(#filter0_d)">
<path d="M474.577 354.521H65.7141C46.3633 354.521 30.7578 338.876 30.7578 319.475V61.329C30.7578 41.9289 46.3633 26.2837 65.7141 26.2837H474.577C493.928 26.2837 509.534 41.9289 509.534 61.329V319.475C509.534 338.876 493.928 354.521 474.577 354.521Z" fill="#143284"/>
</g>
<path d="M19.5218 22.5291C18.8976 22.5291 17.9612 22.2162 17.337 21.5903L11.719 15.9581C10.4706 14.7064 10.4706 12.829 11.719 11.5774C12.9675 10.3258 14.8401 10.3258 16.0886 11.5774L21.7065 17.2097C22.955 18.4613 22.955 20.3387 21.7065 21.5903C21.0823 22.2162 20.4581 22.5291 19.5218 22.5291Z" fill="#143284"/>
<path d="M11.0947 42.242H3.29199C1.41934 42.242 0.170898 40.9904 0.170898 39.1129C0.170898 37.2355 1.41934 35.9839 3.29199 35.9839H11.0947C12.9674 35.9839 14.2158 37.2355 14.2158 39.1129C14.2158 40.9904 12.9674 42.242 11.0947 42.242Z" fill="#143284"/>
<path d="M39.4968 14.0807C37.9362 14.0807 36.3757 12.8291 36.3757 11.2646L35.7515 3.44195C35.7515 1.56452 36.9999 0.312905 38.5605 0C40.4331 0 41.6815 1.25162 41.9937 2.81614L42.6179 10.6388C42.6179 12.5162 41.3694 14.0807 39.4968 14.0807Z" fill="#143284"/>
<g filter="url(#filter1_d)">
<path d="M310.613 352.662L436.081 478.45V352.662H310.613Z" fill="#143284"/>
</g>
<path d="M113.779 221.223C112.218 221.223 110.657 220.598 110.033 219.033C95.0519 196.817 89.7461 169.907 95.0519 143.623C100.358 117.339 115.339 94.81 137.499 80.1035C139.684 78.5389 142.493 79.1647 144.053 81.3551C145.614 83.5454 144.989 86.3616 142.805 87.9261C122.518 101.381 108.785 122.033 104.103 145.813C99.4215 169.594 104.103 194.001 117.524 214.027C119.084 216.217 118.46 219.033 116.275 220.598C115.651 220.911 114.715 221.223 113.779 221.223Z" fill="white"/>
<path d="M133.442 208.081C131.881 208.081 130.32 207.456 129.696 205.891C118.46 188.994 114.403 168.655 118.46 148.63C122.518 128.604 134.066 111.394 150.92 100.129C153.104 98.5648 155.913 99.1906 157.474 101.381C159.035 103.571 158.41 106.387 156.226 107.952C141.244 117.965 131.257 132.984 127.824 150.507C124.39 168.03 127.824 185.865 137.811 200.885C139.372 203.075 138.747 205.891 136.563 207.456C135.314 207.769 134.378 208.081 133.442 208.081Z" fill="white"/>
<path d="M153.417 194.627C151.856 194.627 150.295 194.001 149.671 192.437C141.869 180.859 139.06 166.778 141.869 153.011C144.677 139.243 152.48 127.352 164.028 119.53C166.213 117.965 169.022 118.591 170.583 120.781C172.143 122.972 171.519 125.788 169.334 127.352C159.659 133.61 153.417 143.623 150.92 154.888C148.735 166.153 150.92 177.73 157.474 187.43C159.035 189.62 158.41 192.437 156.226 194.001C155.289 194.314 154.353 194.627 153.417 194.627Z" fill="white"/>
<path d="M383.753 287.246C382.193 287.246 380.32 286.308 379.696 284.743C378.447 282.553 379.384 279.737 381.569 278.485C403.104 267.221 419.022 248.446 426.512 225.291C434.003 202.136 431.818 177.417 420.582 155.827C419.334 153.636 420.27 150.82 422.455 149.568C424.64 148.317 427.449 149.256 428.697 151.446C440.869 175.227 443.366 202.449 435.251 228.107C427.137 253.766 409.658 274.417 385.938 286.934C385.002 287.246 384.378 287.246 383.753 287.246Z" fill="white"/>
<path d="M372.829 265.969C371.269 265.969 369.396 265.03 368.772 263.466C367.524 261.275 368.46 258.459 370.645 257.208C386.562 249.072 398.11 234.991 403.728 218.095C409.034 200.885 407.786 182.736 399.359 167.091C398.11 164.901 399.047 162.085 401.231 160.833C403.416 159.581 406.225 160.52 407.474 162.71C416.837 180.859 418.71 201.511 412.467 220.911C406.225 240.311 392.804 256.269 374.702 265.656C374.078 265.969 373.454 265.969 372.829 265.969Z" fill="white"/>
<path d="M361.906 244.691C360.345 244.691 358.472 243.753 357.848 242.188C356.6 239.998 357.536 237.182 359.721 235.93C370.021 230.611 377.511 221.536 380.944 210.585C384.378 199.633 383.441 188.056 378.135 177.73C376.887 175.539 377.823 172.723 380.008 171.472C382.193 170.22 385.002 171.159 386.25 173.349C399.359 199.007 389.371 230.924 363.778 244.066C363.154 244.691 362.53 244.691 361.906 244.691Z" fill="white"/>
<path d="M302.245 254.986L214.353 230.749C208.286 229.076 204.713 222.823 206.374 216.784L224.548 150.695C226.413 144.913 232.527 141.636 238.411 143.265L326.303 167.502C332.37 169.175 335.943 175.428 334.282 181.467L316.239 247.08C314.578 253.12 308.313 256.659 302.245 254.986ZM232.595 164.414L217.36 219.814L305.252 244.05L320.487 188.651L268.524 205.687L232.595 164.414ZM239.798 155.412L272.132 192.564L318.901 177.226L239.798 155.412Z" fill="white"/>
</g>
<defs>
<filter id="filter0_d" x="20.7578" y="26.2837" width="498.776" height="348.237" filterUnits="userSpaceOnUse" color-interpolation-filters="sRGB">
<feFlood flood-opacity="0" result="BackgroundImageFix"/>
<feColorMatrix in="SourceAlpha" type="matrix" values="0 0 0 0 0 0 0 0 0 0 0 0 0 0 0 0 0 0 127 0" result="hardAlpha"/>
<feOffset dy="10"/>
<feGaussianBlur stdDeviation="5"/>
<feColorMatrix type="matrix" values="0 0 0 0 0.0784314 0 0 0 0 0.196078 0 0 0 0 0.517647 0 0 0 0.25 0"/>
<feBlend mode="normal" in2="BackgroundImageFix" result="effect1_dropShadow"/>
<feBlend mode="normal" in="SourceGraphic" in2="effect1_dropShadow" result="shape"/>
</filter>
<filter id="filter1_d" x="300.613" y="352.662" width="145.468" height="145.788" filterUnits="userSpaceOnUse" color-interpolation-filters="sRGB">
<feFlood flood-opacity="0" result="BackgroundImageFix"/>
<feColorMatrix in="SourceAlpha" type="matrix" values="0 0 0 0 0 0 0 0 0 0 0 0 0 0 0 0 0 0 127 0" result="hardAlpha"/>
<feOffset dy="10"/>
<feGaussianBlur stdDeviation="5"/>
<feColorMatrix type="matrix" values="0 0 0 0 0.0784314 0 0 0 0 0.196078 0 0 0 0 0.517647 0 0 0 0.25 0"/>
<feBlend mode="normal" in2="BackgroundImageFix" result="effect1_dropShadow"/>
<feBlend mode="normal" in="SourceGraphic" in2="effect1_dropShadow" result="shape"/>
</filter>
<clipPath id="clip0">
<rect width="509.363" height="499.073" fill="white" transform="translate(0.170898)"/>
</clipPath>
</defs>
</svg>
