<?xml version="1.0" encoding="UTF-8"?> <svg xmlns="http://www.w3.org/2000/svg" width="140" height="154" viewBox="0 0 140 154" fill="none"><path d="M106.651 99.4765C105.251 101.901 103.726 104.185 102.171 106.52C101.732 107.161 101.323 107.75 100.832 108.361C99.2036 110.585 97.5013 112.697 95.7473 114.78C95.2566 115.391 94.7441 115.921 94.2017 116.502C92.4258 118.503 90.606 120.341 88.6827 122.12C88.0887 122.671 87.5244 123.171 86.9304 123.722C85.0667 125.398 83.1592 126.91 81.1483 128.363C80.4508 128.855 79.7831 129.294 79.0856 129.786C77.8615 130.593 76.6672 131.348 75.4212 132.073C74.368 132.703 73.3226 133.2 72.3289 133.727C71.4763 134.129 70.6237 134.531 69.8526 134.911C67.3841 135.962 65.0646 136.755 62.7608 137.282C61.5681 137.557 60.4868 137.758 59.3537 137.929C57.7912 138.128 56.2366 138.193 54.7415 138.155C53.3279 138.096 51.9222 137.903 50.598 137.689C49.8584 137.537 49.067 137.355 48.3869 137.1C46.9154 136.664 45.6148 136.05 44.2922 135.355L31.7266 128.101L31.7361 127.487L31.7237 126.792L31.782 124.9L31.8118 124.848C31.0316 123.572 30.3329 122.275 29.7235 120.822C29.2755 119.807 28.8871 118.688 28.5284 117.518C27.833 115.26 27.3085 112.824 27.0363 110.191C26.9283 109.303 26.8501 108.364 26.7719 107.424C26.6875 106.137 26.6549 104.88 26.652 103.572C26.6491 102.263 26.7277 100.933 26.8063 99.6025C26.8534 98.8043 26.9304 97.9545 27.0073 97.1047C27.2303 94.6884 27.6163 92.2285 28.1355 89.7768C28.2861 89.0383 28.4664 88.2482 28.6468 87.4581C29.1958 84.9548 29.9077 82.4081 30.7529 79.8694C30.9552 79.1608 31.239 78.4304 31.471 77.6702C31.9869 76.1795 32.5326 74.6373 33.1816 73.1548L33.2983 69.3702L33.3219 68.971L44.7595 49.1605L44.9523 49.0655L48.2233 47.1019C49.2343 45.8284 50.2156 44.6065 51.2784 43.3629C51.769 42.7519 52.2816 42.2224 52.8239 41.6413C54.5999 39.64 56.4197 37.8017 58.2912 35.9931C58.8852 35.4419 59.4495 34.9422 60.0436 34.391C61.9072 32.7155 63.8445 31.1513 65.8256 29.75C66.5231 29.2585 67.1391 28.7887 67.8883 28.327C69.1422 27.4688 70.3663 26.6623 71.664 25.967C72.6874 25.3885 73.7109 24.81 74.6748 24.3347C75.5274 23.9328 76.3283 23.5009 77.1511 23.1506C79.5679 22.0696 81.9391 21.3062 84.2429 20.7791C85.3839 20.4748 86.5169 20.3035 87.65 20.1323C89.2125 19.9338 90.7969 19.8168 92.2622 19.9061C92.3954 19.9142 92.5286 19.9223 92.6101 19.9006L94.0787 19.0288L95.1617 18.3472L107.676 25.5721C108.939 26.3701 110.142 27.2712 111.286 28.2755C111.765 28.7587 112.245 29.2419 112.724 29.7251C113.653 30.743 114.493 31.9157 115.303 33.14C116.083 34.4159 116.804 35.795 117.413 37.2474C117.861 38.2627 118.25 39.3812 118.557 40.5214C119.252 42.7801 119.725 45.1855 120.049 47.8488C120.157 48.7366 120.235 49.676 120.313 50.6153C120.427 51.8506 120.46 53.1077 120.463 54.4163C120.436 55.7765 120.409 57.1367 120.301 58.5186C120.254 59.3168 120.177 60.1666 120.1 61.0164C119.877 63.4328 119.491 65.8926 118.972 68.3443C118.821 69.0828 118.641 69.8729 118.46 70.663C117.882 73.2179 117.199 75.7131 116.354 78.2518C116.152 78.9604 115.868 79.6908 115.636 80.451C114.761 83.0412 113.731 85.5419 112.619 88.0643C112.284 88.7649 112.03 89.4437 111.694 90.1442C110.531 92.6367 109.235 95.1212 107.886 97.5757C107.396 98.1867 107.038 98.8058 106.651 99.4765Z" fill="#E9EECC"></path><path d="M112.548 29.6577C112.112 29.1235 111.646 28.6424 111.15 28.2142C110.066 27.1641 108.89 26.273 107.622 25.541L95.3498 18.4557L94.8206 18.7866L94.2915 19.1176L92.816 20.0335C92.684 20.028 92.552 20.0225 92.4706 20.0463L115.037 33.0751C114.258 31.8476 113.449 30.6731 112.548 29.6577Z" fill="#D3D8B6"></path><path d="M117.424 37.7057L87.2666 20.2943C86.1754 20.3706 85.0287 20.5431 83.9065 20.794L118.671 40.8654C118.327 39.7681 117.903 38.6888 117.424 37.7057Z" fill="#D3D8B6"></path><path d="M119.944 48.1064L76.947 23.2818C76.1472 23.5905 75.3195 23.9472 74.5437 24.3339L120.287 50.7437C120.21 49.8004 120.077 48.9534 119.944 48.1064Z" fill="#D3D8B6"></path><path d="M120.157 58.8002L67.6842 28.5053C67.0404 28.904 66.3688 29.3509 65.6973 29.7977L119.979 61.1373C120.082 60.3621 120.105 59.6052 120.157 58.8002Z" fill="#D3D8B6"></path><path d="M118.884 68.6377L59.7492 34.4962C59.208 34.9541 58.6389 35.4601 58.0698 35.9662L118.451 70.8271C118.656 70.1112 118.758 69.3354 118.884 68.6377Z" fill="#D3D8B6"></path><path d="M115.995 78.3543L52.7785 41.8562C52.2905 42.3448 51.8261 42.9113 51.3103 43.4481L115.351 80.4218C115.609 79.7364 115.816 79.0213 115.995 78.3543Z" fill="#D3D8B6"></path><path d="M112.138 88.326L44.7479 49.4182L44.5591 49.507L43.5884 51.1884L111.288 90.2748C111.551 89.7011 111.819 88.9987 112.138 88.326Z" fill="#D3D8B6"></path><path d="M107.672 97.9459L39.3628 58.5073L38.3064 60.337L106.616 99.7756C106.977 99.1496 107.311 98.5718 107.672 97.9459Z" fill="#D3D8B6"></path><path d="M33.1912 69.1967L33.1791 69.5749L100.518 108.453C100.931 107.857 101.368 107.339 101.781 106.742L34.0808 67.6559L33.1912 69.1967Z" fill="#D3D8B6"></path><path d="M30.5429 80.2508L93.8104 116.778C94.4098 116.097 94.9947 115.322 95.6311 114.577L31.5908 77.603C31.212 78.4971 30.8847 79.4209 30.5429 80.2508Z" fill="#D3D8B6"></path><path d="M28.3093 90.3464L86.8457 124.142C87.4963 123.491 88.1839 122.775 88.8715 122.059L29.1006 87.5504C28.8245 88.5038 28.5854 89.393 28.3093 90.3464Z" fill="#D3D8B6"></path><path d="M26.4864 99.8654L78.9036 130.128C79.6591 129.537 80.4518 128.882 81.2444 128.227L26.9626 96.8875C26.7916 97.9016 26.6205 98.9156 26.4864 99.8654Z" fill="#D3D8B6"></path><path d="M26.6461 110.529L69.6404 135.352C70.5519 134.851 71.5006 134.286 72.3973 133.691L26.6543 107.281C26.6021 108.45 26.6241 109.49 26.6461 110.529Z" fill="#D3D8B6"></path><path d="M29.7931 121.292L59.3561 138.36C60.4358 138.277 61.5711 138.098 62.6826 137.841L28.5278 118.122C28.9125 119.243 29.325 120.316 29.7931 121.292Z" fill="#D3D8B6"></path><path d="M31.8479 126.856L31.8614 127.556L31.8527 128.174L44.5371 135.497C45.8421 136.25 47.1848 136.818 48.6696 137.26C49.3859 137.466 50.1544 137.702 50.9007 137.856C52.2588 138.156 53.6247 138.321 55.0805 138.331L31.9041 124.95L31.8479 126.856Z" fill="#D3D8B6"></path><path d="M18.5839 98.8978C18.7097 70.2764 38.7623 35.5443 63.3968 21.2796C87.9799 6.9851 107.836 18.5864 107.658 47.178C107.481 75.7696 87.4285 110.502 62.8454 124.796C38.2109 139.061 18.4067 127.489 18.5839 98.8978Z" fill="#F9FFEC"></path><path d="M35.4559 56.8236C43.5703 42.769 54.2071 31.4797 65.4872 24.9021C75.9893 18.84 85.6277 17.7218 92.6297 21.7645C99.6833 25.8368 103.474 34.8463 103.437 47.1572C103.351 60.2665 98.8631 75.1746 90.7486 89.2292C82.6342 103.284 71.9974 114.573 60.7173 121.151C50.2153 127.213 40.6284 128.361 33.6263 124.318C26.5728 120.246 22.7301 111.207 22.8186 98.9254C22.8531 85.7863 27.3415 70.8783 35.4559 56.8236Z" fill="#E9EECC"></path><path d="M37.7066 61.3756C45.8211 47.321 56.348 35.9682 67.3583 29.2349C77.5914 23.0174 86.906 21.7124 93.6351 25.5974C100.364 29.4824 103.934 38.3643 103.628 50.5198C103.272 63.4734 98.6742 78.318 90.5597 92.3726C82.4453 106.427 71.9698 117.81 60.9081 124.513C50.675 130.731 41.3604 132.036 34.6313 128.151C27.9022 124.266 24.3321 115.384 24.6381 103.228C24.994 90.2748 29.5922 75.4302 37.7066 61.3756Z" fill="#F9FFEC"></path><path d="M57.8839 108.591L62.4473 105.981C63.3645 105.476 64.1115 104.182 64.0608 103.187L64.0598 98.977C68.3412 95.6527 71.5729 91.8602 73.7847 87.548C75.9666 83.2875 77.0681 79.0932 77.0518 75.1506C77.0507 70.9408 76.1012 68.2535 74.1955 67.2223C72.3197 66.1393 69.7199 65.9493 66.426 66.6007C66.1279 66.6356 65.2039 66.7921 63.84 67.1088C60.7621 67.7469 58.5416 67.9829 57.2306 67.847C55.8376 67.7328 55.161 66.8591 55.1486 65.1959C55.0725 61.3568 57.2154 58.2468 61.503 55.7541C64.0085 54.3025 66.5952 53.3118 69.2333 52.8338C70.5373 52.6207 71.7817 52.5111 72.9364 52.5567C73.2866 52.5519 73.6666 52.4953 74.0022 52.275C75.1729 51.5709 76.2631 49.9232 76.2431 48.3936L76.2596 42.4688C76.2534 41.6372 75.7998 41.0993 75.1515 41.1391C71.8805 41.3896 68.1537 42.5501 63.9933 44.7023L63.9784 39.7945C63.9576 38.7474 63.2282 38.3263 62.3631 38.8619L57.7997 41.4714C56.8825 41.9769 56.1356 43.2708 56.1862 44.266L56.1858 49.441C52.2698 52.4934 49.1799 56.1606 47.0501 60.4512C44.8682 64.7118 43.7889 68.9878 43.76 73.2494C43.748 76.2785 44.296 78.458 45.404 79.7878C46.5121 81.1175 47.9787 81.8263 49.8038 81.914C51.629 82.0017 53.9613 81.6922 56.771 81.0373C59.1708 80.4907 60.8848 80.1692 61.9429 80.0211C63.0011 79.873 63.9098 79.9837 64.6615 80.4866C65.391 80.9078 65.7696 81.8164 65.7452 83.1824C65.7277 84.8973 65.1738 86.5787 63.9495 88.2179C62.755 89.8054 61.1139 91.204 59.108 92.392C56.9083 93.6751 54.6571 94.4455 52.4443 94.548C51.498 94.6226 50.5816 94.6456 49.6729 94.5349C49.2706 94.5097 48.9128 94.6481 48.5251 94.8383C47.3543 95.5424 46.2641 97.1901 46.2842 98.7197L46.2899 104.726C46.2961 105.558 46.7497 106.096 47.398 106.056C48.6944 105.977 49.9686 105.815 51.1984 105.49C52.7262 105.13 54.4333 104.46 56.2822 103.664L56.2985 107.607C56.2373 108.675 56.9668 109.097 57.8839 108.591Z" fill="#E9EECC"></path><path d="M25.8767 74.9961H19.4628V95.724H9.9202V74.9961H5.38354V66.8615H9.9202V61.6208C9.9202 57.8664 11.7192 52 19.541 52H26.5807V59.9H21.4183C20.5579 59.9 19.3846 60.2911 19.3846 62.0901V66.8615H26.6589L25.8767 74.9961Z" fill="#6C80B3"></path><path d="M62.4068 59.4221C63.8148 57.6231 64.8316 55.1984 64.5187 52.6954C62.4068 52.7736 59.9038 54.1033 58.4177 55.9023C57.088 57.4667 55.9147 59.9697 56.2276 62.3944C58.5741 62.5509 60.9207 61.1429 62.4068 59.4221Z" fill="#6C80B3"></path><path d="M67.5693 74.9875C67.5693 73.2667 67.9604 71.937 68.5861 70.7638C69.8376 68.2608 71.9495 67.0875 72.0277 67.0093C69.603 63.4113 65.8485 62.8637 64.4406 62.8637C61.2336 62.5509 58.1831 64.8192 56.5406 64.8192C54.898 64.8192 52.395 62.942 49.7356 63.0202C46.2158 63.0984 43.0088 65.1321 41.2098 68.2608C40.6623 69.2776 40.2712 70.2945 39.9583 71.4677C38.3939 77.5687 40.8187 85.0777 43.791 89.4579C45.5118 92.0391 47.6237 94.855 50.2831 94.7767C52.8643 94.6985 53.8811 93.0559 57.0881 93.0559C60.2168 93.0559 61.1554 94.7767 63.8931 94.6985C66.7089 94.6203 68.5079 92.1173 70.2287 89.5361C72.1842 86.5638 73.0446 83.6698 73.1228 83.5915C73.0446 83.5133 67.6475 81.4014 67.5693 74.9875Z" fill="#6C80B3"></path><path d="M103.871 70.9204V78.1947H115.916C115.447 81.3234 112.24 87.3462 103.871 87.3462C96.5965 87.3462 90.6519 81.3234 90.6519 73.8927C90.6519 66.462 96.5965 60.4392 103.871 60.4392C108.016 60.4392 110.754 62.2382 112.318 63.7243L118.107 58.2491C114.43 54.8075 109.581 52.6956 103.871 52.6956C92.1381 52.6956 82.5955 62.2382 82.5955 73.9709C82.5955 85.7036 92.1381 95.2463 103.871 95.2463C116.151 95.2463 124.286 86.6423 124.286 74.4402C124.286 73.0323 124.129 72.0155 123.973 70.9204H103.871Z" fill="#6C80B3"></path><path d="M16.647 109.412C20.245 111.602 23.9995 113.479 27.8322 115.2C31.6649 116.921 35.5758 118.329 39.4867 119.58C47.3867 122.005 55.5996 123.335 63.8125 123.491H66.863C67.8799 123.491 68.8967 123.413 69.9135 123.335C70.9304 123.335 71.9472 123.178 72.9641 123.1C73.9809 122.944 74.9977 122.944 76.0146 122.709C80.0819 122.161 84.071 121.145 88.0602 119.971C95.9602 117.468 103.469 113.87 110.822 109.49C104.486 115.122 97.1335 119.659 89.077 122.865C88.0602 123.257 87.0433 123.569 86.0265 123.961L84.4621 124.508C83.9146 124.664 83.4453 124.821 82.8978 124.977C81.8809 125.29 80.7859 125.525 79.769 125.838L76.7185 126.307C72.4947 127.011 68.1145 127.48 63.8125 127.402C55.1303 127.246 46.5263 125.603 38.5481 122.474C34.5589 120.988 30.648 119.033 26.9718 116.921C25.1728 115.826 23.2955 114.731 21.5747 113.479C19.8539 112.228 18.1331 110.898 16.647 109.412Z" fill="#6C80B3"></path><path d="M103.704 105.892C104.642 105.266 105.659 104.719 106.676 104.25C107.693 103.78 108.71 103.311 109.726 102.92C111.76 102.138 113.872 101.512 116.062 100.964L118.8 100.261L118.409 103.155C118.252 104.406 118.018 105.658 117.783 106.909C117.548 108.161 117.235 109.412 116.922 110.585C116.61 111.837 116.219 113.01 115.749 114.262C115.28 115.435 114.811 116.686 114.185 117.86C113.95 116.53 113.794 115.278 113.716 113.949C113.637 112.697 113.637 111.368 113.716 110.116C113.794 108.865 113.872 107.613 113.95 106.362C114.107 105.11 114.263 103.859 114.498 102.607L116.844 104.797C114.732 105.266 112.542 105.658 110.352 105.892C109.257 105.97 108.162 106.049 106.989 106.127C106.05 106.049 104.877 106.049 103.704 105.892Z" fill="#6C80B3"></path></svg> 