<svg xmlns="http://www.w3.org/2000/svg" width="46" height="45" fill="none" viewBox="0 0 46 45"><path fill="#000" d="M26.1213 22.6755C25.9625 22.6109 28.5562 24.5169 28.5562 24.5169C28.5562 24.5169 25.5042 24.4036 25.5863 24.4256L26.1213 22.6755Z"/><path fill="#14237E" d="M35.6565 8.4535L33.3969 7.84804L21.944 39.1697L24.4501 39.8412C30.1608 41.3714 37.305 35.5797 40.3963 26.9187C43.4876 18.2577 41.3672 9.98368 35.6565 8.4535Z"/><path fill="#E9EECC" d="M37.601 27.696C41.191 19.2033 39.7161 10.4649 34.3067 8.17829C28.8974 5.89167 21.602 10.9227 18.012 19.4154C14.422 27.908 15.8969 36.6464 21.3062 38.933C26.7156 41.2196 34.011 36.1886 37.601 27.696Z"/><path fill="#C1CDE5" d="M39.3932 21.2119C39.6586 19.2354 39.639 17.3367 39.3479 15.6294C39.0853 14.062 38.6185 12.6819 37.9473 11.4893C36.8946 9.66603 35.3742 8.35594 33.4433 7.83854C27.7326 6.30837 20.5884 12.1 17.4971 20.761C16.6147 23.2326 16.1555 25.6856 16.0816 27.9335C16.0371 29.6609 16.1954 31.2886 16.5786 32.7343C17.4364 36.0245 19.3815 38.4612 22.2163 39.2207C27.927 40.7509 35.0711 34.9593 38.1624 26.2983C38.7741 24.5907 39.1693 22.8692 39.3932 21.2119ZM37.3147 26.0931C37.2336 26.3136 37.0348 26.4805 36.891 26.442L36.7677 26.4089C34.0151 33.6415 28.068 38.4989 23.1896 37.478L23.1195 37.6574C23.0385 37.8778 22.8396 38.0447 22.6958 38.0062C22.552 37.9677 22.4783 37.7498 22.5649 37.5088L22.635 37.3294C20.2536 36.6032 18.5971 34.4861 17.8608 31.6468C17.5267 30.3463 17.386 28.8995 17.4276 27.3475C17.4941 25.5379 17.8417 23.5834 18.5043 21.6033L18.4427 21.5868C18.2989 21.5483 18.2252 21.3304 18.3118 21.0894C18.3929 20.8689 18.5917 20.702 18.7355 20.7406L18.7972 20.7571C21.5252 13.4519 27.571 8.55483 32.4794 9.62786L32.507 9.52515C32.5881 9.3047 32.7869 9.1378 32.9307 9.17633C33.0745 9.21486 33.1482 9.43277 33.0616 9.67377L33.0341 9.77648C34.5938 10.2825 35.8446 11.3662 36.7168 12.8769C37.3183 13.9187 37.7566 15.159 37.981 16.5402C38.2394 18.0405 38.258 19.6968 38.0326 21.4418C37.8502 22.78 37.5485 24.1523 37.0866 25.5476L37.2098 25.5807C37.3426 25.6603 37.3958 25.8727 37.3147 26.0931Z"/><path fill="#C1CDE5" d="M31.4551 12.546L31.4716 12.4843C31.5527 12.2639 31.7515 12.097 31.8953 12.1355C32.0391 12.174 32.1128 12.3919 32.0262 12.6329L32.0097 12.6946C35.6878 13.9223 37.0773 19.3365 35.1704 25.0563L35.232 25.0728C35.3758 25.1114 35.4495 25.3293 35.3629 25.5703C35.2818 25.7907 35.083 25.9576 34.9392 25.9191L34.8776 25.9026C32.7091 31.5303 28.0592 35.3263 24.234 34.5655L24.2064 34.6682C24.1254 34.8887 23.9265 35.0555 23.7827 35.017C23.6389 34.9785 23.5652 34.7606 23.6518 34.5196L23.6793 34.4169C19.9847 33.2508 18.5692 27.8516 20.435 22.1208L20.3939 22.1098C20.2501 22.0712 20.1764 21.8533 20.263 21.6123C20.3441 21.3919 20.5429 21.225 20.6867 21.2635L20.7278 21.2745C22.8923 15.5796 27.5943 11.7536 31.4551 12.546ZM32.6764 10.7816C32.5803 10.976 32.413 11.1073 32.2692 11.0688C32.1254 11.0303 32.0667 10.8384 32.1218 10.633C27.5831 9.65902 21.987 14.1922 19.4487 20.9538C19.587 21.0129 19.6196 21.2198 19.5441 21.4197C19.463 21.6401 19.2957 21.7715 19.1669 21.759C16.9272 28.5565 18.584 34.945 22.9921 36.3243C23.0732 36.1039 23.2665 35.9575 23.4103 35.9961C23.5541 36.0346 23.6073 36.247 23.5467 36.473C28.0554 37.3948 33.5733 32.9067 36.1307 26.2383C35.9869 26.1998 35.9337 25.9874 36.0203 25.7464C36.1014 25.5259 36.2947 25.3796 36.444 25.3976C38.7043 18.6055 37.053 12.1965 32.6764 10.7816Z"/><path fill="#fff" d="M19.182 21.7849C19.1615 21.7794 19.1615 21.7794 19.1409 21.7739L18.5247 21.6088C16.0952 28.95 17.898 35.862 22.6553 37.3348L23.0072 36.3503C18.5991 34.971 16.9217 28.577 19.182 21.7849ZM36.1307 26.2382C33.5884 32.9327 28.0705 37.4208 23.5468 36.4729C23.5468 36.4729 23.5468 36.4729 23.5413 36.4934L23.1894 37.4779C28.0678 38.4989 34.0355 33.647 36.7881 26.4144L36.1307 26.2382ZM32.4998 9.63331C27.5913 8.56027 21.566 13.4628 18.8175 20.7625L19.4337 20.9277C19.4543 20.9332 19.4543 20.9332 19.4748 20.9387C22.0131 14.1771 27.5886 9.63839 32.1479 10.6179C32.1534 10.5973 32.1589 10.5768 32.1589 10.5768L32.4998 9.63331ZM33.0339 9.77642L32.693 10.7199C32.6875 10.7404 32.682 10.761 32.682 10.761C37.0585 12.1758 38.7098 18.5849 36.4235 25.392L37.0809 25.5681C39.5514 18.2379 37.7802 11.2904 33.0339 9.77642Z"/><path fill="#C1CDE5" d="M30.4106 15.4585L30.4382 15.3558C30.5192 15.1353 30.7181 14.9684 30.8619 15.007C31.0057 15.0455 31.0794 15.2634 30.9928 15.5044L30.9653 15.6071C33.6012 16.5336 34.5829 20.4294 33.2546 24.565L33.3163 24.5815L33.419 24.609C33.5628 24.6475 33.6365 24.8654 33.5499 25.1064C33.4688 25.3269 33.27 25.4938 33.1262 25.4553L33.0235 25.4277L32.9618 25.4112C31.372 29.4547 28.0508 32.1535 25.2883 31.6995L25.2608 31.8022C25.1797 32.0227 24.9808 32.1896 24.837 32.151C24.6932 32.1125 24.6195 31.8946 24.7061 31.6536L24.7336 31.5509C22.0867 30.6655 21.0529 26.7998 22.3606 22.6587L22.299 22.6422C22.1552 22.6037 22.0815 22.3858 22.1681 22.1448C22.2492 21.9243 22.448 21.7574 22.5918 21.7959L22.6534 21.8125C24.2392 17.7019 27.6235 14.9319 30.4106 15.4585ZM31.632 13.6941L31.6265 13.7147C31.5454 13.9351 31.3465 14.102 31.2027 14.0635C31.059 14.025 30.9852 13.8071 31.0718 13.5661L31.0773 13.5455C27.5863 12.8523 23.334 16.3144 21.3593 21.4657L21.3798 21.4712C21.5236 21.5097 21.5973 21.7276 21.5107 21.9686C21.4297 22.1891 21.2308 22.356 21.087 22.3174L21.0665 22.3119C19.3904 27.4992 20.6599 32.3748 24.0259 33.4529C24.122 33.2585 24.2893 33.1271 24.4331 33.1657C24.5769 33.2042 24.6355 33.3961 24.5805 33.6015C28.0415 34.2426 32.2361 30.8311 34.2149 25.747C34.0971 25.6934 34.044 25.481 34.1196 25.2811C34.2006 25.0606 34.3679 24.9293 34.4967 24.9418C36.2099 19.6985 34.9664 14.8078 31.632 13.6941Z"/><path fill="#F6F9FB" d="M21.0925 22.297L20.4351 22.1208C18.5693 27.8517 19.9848 33.2508 23.6794 34.4169L24.0203 33.4735C24.0258 33.4529 24.0313 33.4324 24.0313 33.4324C20.6914 32.3393 19.4163 27.4842 21.0925 22.297ZM34.1998 25.721C32.221 30.8051 28.0469 34.2221 24.5654 33.5755C24.5599 33.596 24.5544 33.6166 24.5489 33.6371L24.208 34.5806C28.0388 35.3208 32.6832 31.5454 34.8516 25.9177L34.2354 25.7525C34.2409 25.732 34.2203 25.7265 34.1998 25.721ZM31.4552 12.546C27.5944 11.7537 22.8923 15.5797 20.7224 21.2951L21.3798 21.4712C23.3545 16.32 27.6067 12.8579 31.0978 13.5511L31.4552 12.546ZM31.9893 12.6891L31.6319 13.6942C34.9403 14.8229 36.2098 19.6985 34.5076 24.9008C34.5282 24.9063 34.5282 24.9063 34.5487 24.9118L35.165 25.0769C37.0569 19.331 35.6674 13.9169 31.9893 12.6891Z"/><path fill="#C1CDE5" d="M29.3714 18.3504C29.4525 18.1299 29.6458 17.9836 29.7896 18.0221C29.9334 18.0606 29.9865 18.273 29.926 18.499C31.4938 19.1392 32.0937 21.5017 31.3496 24.0324L31.3701 24.0379C31.5139 24.0764 31.5876 24.2943 31.501 24.5353C31.4199 24.7558 31.2211 24.9227 31.0773 24.8841L31.0362 24.8731C30.0305 27.3117 28.0271 28.9546 26.3177 28.7608L26.3122 28.7813C26.2311 29.0018 26.0323 29.1687 25.8885 29.1301C25.7447 29.0916 25.671 28.8737 25.7576 28.6327L25.7631 28.6122C24.1637 28.0075 23.5322 25.6806 24.2764 23.1499C24.1326 23.1114 24.0794 22.899 24.166 22.658C24.2471 22.4375 24.4199 22.2857 24.5692 22.3037C25.5709 19.7979 27.6264 18.125 29.3714 18.3504ZM30.5927 16.586C30.5116 16.8065 30.3183 16.9528 30.1745 16.9143C30.0307 16.8758 29.9775 16.6634 30.0381 16.4374C27.6001 16.0043 24.6656 18.4105 23.2751 21.9569C23.4188 21.9954 23.472 22.2078 23.3854 22.4488C23.3043 22.6693 23.1315 22.8211 22.9823 22.8031C21.8847 26.4061 22.7781 29.7278 25.0553 30.5141C25.1459 30.3402 25.3077 30.2295 25.4309 30.2625C25.5542 30.2955 25.6184 30.4668 25.5949 30.6367C28.0027 31.0177 30.8796 28.6621 32.2798 25.1623C32.1675 25.0882 32.1499 24.9073 32.2255 24.7074C32.3011 24.5075 32.4478 24.3707 32.5821 24.3626C33.7357 20.7968 32.874 17.4395 30.5927 16.586Z"/><path fill="#fff" d="M23.0029 22.8088L22.3455 22.6327C21.0378 26.7737 22.0716 30.6395 24.7186 31.5249L25.0484 30.6225C25.0594 30.5814 25.0649 30.5609 25.0965 30.5253C22.7987 29.7335 21.9109 26.3912 23.0029 22.8088ZM32.2949 25.1885C30.8948 28.6883 28.0179 31.0439 25.61 30.6629C25.599 30.704 25.5935 30.7245 25.5825 30.7656L25.2582 31.6474C28.0152 32.122 31.3419 29.4026 32.9317 25.3591L32.336 25.1995C32.3305 25.2201 32.3099 25.2146 32.2949 25.1885ZM30.4106 15.4585C27.6179 14.9524 24.2392 17.7019 22.6328 21.807L23.2902 21.9831C24.6863 18.4162 27.6153 16.0305 30.0532 16.4636L30.0587 16.4431L30.4106 15.4585ZM30.9447 15.6016L30.5928 16.5862L30.5873 16.6067C32.8535 17.4341 33.7098 20.812 32.5712 24.4039C32.5917 24.4094 32.6178 24.3944 32.6383 24.3999L33.234 24.5595C34.5884 20.4089 33.5807 16.5281 30.9447 15.6016Z"/><path fill="#C1CDE5" d="M28.3158 21.3041L28.3914 21.1042C28.4724 20.8837 28.6713 20.7168 28.8151 20.7554C28.9589 20.7939 29.0326 21.0118 28.946 21.2528L28.8704 21.4527C29.4166 21.7972 29.6087 22.6413 29.3761 23.5918L29.4377 23.6083C29.5815 23.6468 29.6552 23.8647 29.5686 24.1057C29.4875 24.3262 29.2887 24.4931 29.1449 24.4545L29.0627 24.4325C28.6261 25.2402 27.9515 25.786 27.3323 25.7962L27.2993 25.9195C27.2182 26.1399 27.0193 26.3068 26.8755 26.2683C26.7317 26.2298 26.658 26.0119 26.7446 25.7709L26.7776 25.6476C26.267 25.3347 26.0584 24.5522 26.2279 23.6729L26.0841 23.6344C25.9403 23.5959 25.8666 23.378 25.9532 23.137C26.0343 22.9165 26.2331 22.7496 26.3769 22.7881L26.5002 22.8212C26.9122 21.9408 27.65 21.3239 28.3158 21.3041ZM29.5481 19.4987C29.4615 19.7397 29.2682 19.886 29.1244 19.8475C28.9806 19.809 28.9069 19.5911 28.9935 19.3501L28.999 19.3295C27.6292 19.1827 26.0235 20.4917 25.206 22.4744L25.2266 22.4799C25.3704 22.5184 25.4441 22.7363 25.3575 22.9773C25.2764 23.1978 25.0776 23.3647 24.9338 23.3262C24.3999 25.3187 24.8854 27.1221 26.115 27.6277L26.1205 27.6072C26.2016 27.3867 26.4004 27.2198 26.5442 27.2584C26.688 27.2969 26.7617 27.5148 26.6751 27.7558C28.0093 27.8711 29.5629 26.5921 30.3789 24.6971C30.2351 24.6586 30.1614 24.4407 30.248 24.1997C30.3291 23.9792 30.5279 23.8123 30.6717 23.8508C31.2467 21.8693 30.7667 20.0453 29.5481 19.4987Z"/><path fill="#F6F9FB" d="M24.2766 23.15C23.553 25.6862 24.1639 28.0076 25.7633 28.6123L26.1206 27.6072C24.8911 27.1016 24.385 25.2927 24.9394 23.3056L24.2766 23.15ZM31.0364 24.8732L30.3791 24.6971C29.5631 26.5921 28.0149 27.8505 26.6753 27.7558L26.3179 28.7609C28.0068 28.9492 30.0102 27.3063 31.0364 24.8732ZM29.3716 18.3505C27.6321 18.1045 25.5711 19.798 24.5489 22.2983L24.5694 22.3038L25.2062 22.4744C26.0182 20.5123 27.6294 19.1827 28.9991 19.3295L29.3716 18.3505C29.3661 18.371 29.3661 18.371 29.3716 18.3505ZM29.9262 18.4991C29.9207 18.5196 29.9207 18.5196 29.9262 18.4991L29.5688 19.5042C30.7874 20.0509 31.2469 21.8693 30.6924 23.8564L31.3498 24.0325C32.0939 21.5018 31.494 19.1393 29.9262 18.4991Z"/><path fill="#F9FFEC" d="M28.3027 24.2289C28.1285 24.4684 27.9091 24.6298 27.6967 24.683C27.6967 24.683 27.6967 24.683 27.6912 24.7035L27.3118 25.7908C27.931 25.7806 28.6262 25.2403 29.0423 24.427L28.3438 24.2399C28.3233 24.2344 28.3233 24.2344 28.3027 24.2289ZM26.9525 23.8451C26.9264 23.8601 26.8853 23.8491 26.8648 23.8436L26.2075 23.6675C26.0379 24.5467 26.2466 25.3292 26.7572 25.6422L27.1366 24.5549C27.1366 24.5549 27.1366 24.5549 27.1421 24.5344C27.0052 24.3876 26.9425 24.1286 26.9525 23.8451ZM28.3158 21.3041C27.65 21.3239 26.9178 21.9203 26.5003 22.8212L27.1781 23.0028C27.1987 23.0084 27.1987 23.0084 27.2192 23.0139C27.4155 22.6922 27.6774 22.4541 27.9364 22.3914C27.9419 22.3709 27.953 22.3298 27.964 22.2887L28.3158 21.3041ZM28.8705 21.4528L28.5131 22.4578C28.5021 22.4989 28.4966 22.5195 28.465 22.5551C28.6374 22.7334 28.7042 23.0595 28.6517 23.4197L29.3706 23.6123C29.6033 22.6619 29.3961 21.7918 28.8705 21.4528Z"/><path fill="#fff" d="M28.465 22.555C28.3744 22.7288 28.2126 22.8396 28.0893 22.8066C27.9661 22.7735 27.9019 22.6022 27.9309 22.4118C27.6719 22.4746 27.3894 22.7071 27.2137 23.0343C27.3259 23.1084 27.3641 23.2948 27.309 23.5002C27.2389 23.6796 27.1127 23.8219 26.973 23.8505C26.963 24.134 27.0257 24.393 27.1831 24.5453C27.2642 24.3248 27.4575 24.1785 27.6013 24.217C27.7451 24.2555 27.7983 24.4679 27.7377 24.6939C27.9501 24.6407 28.1695 24.4793 28.3438 24.2398C28.2055 24.1807 28.1729 23.9738 28.2484 23.7739C28.3295 23.5535 28.5284 23.3866 28.6722 23.4251L28.6927 23.4306C28.7041 23.0594 28.6374 22.7333 28.465 22.555Z"/><path fill="red" d="M33.4189 24.6089L33.3162 24.5814C33.46 24.6199 33.5337 24.8378 33.4471 25.0788C33.366 25.2993 33.1672 25.4662 33.0234 25.4276L33.1261 25.4552C33.2699 25.4937 33.4632 25.3473 33.5498 25.1063C33.6364 24.8653 33.5627 24.6474 33.4189 24.6089Z"/><path fill="#fff" d="M37.1782 25.6162L37.0549 25.5832L36.3976 25.4071C36.2538 25.3685 36.0605 25.5149 35.9739 25.7559C35.8928 25.9763 35.946 26.1887 36.0843 26.2478L36.7416 26.4239L36.8649 26.457C37.0086 26.4955 37.202 26.3491 37.2886 26.1081C37.3957 25.8726 37.3425 25.6603 37.1782 25.6162Z"/><path fill="#fff" d="M35.2268 25.0933L35.1652 25.0768L34.5489 24.9117C34.5284 24.9062 34.5284 24.9062 34.5078 24.9007C34.3585 24.8827 34.2063 25.0401 34.1307 25.24C34.0551 25.4399 34.1083 25.6523 34.226 25.7059C34.2466 25.7114 34.2466 25.7114 34.2671 25.7169L34.8834 25.882L34.945 25.8985C35.0888 25.937 35.2821 25.7907 35.3687 25.5497C35.4238 25.3443 35.3706 25.1319 35.2268 25.0933Z"/><path fill="#fff" d="M33.3164 24.5814L33.2548 24.5649L32.6591 24.4053C32.6385 24.3998 32.618 24.3943 32.5919 24.4093C32.4577 24.4174 32.3109 24.5542 32.2354 24.7541C32.1598 24.954 32.1979 25.1404 32.2896 25.209C32.3102 25.2145 32.3252 25.2406 32.3457 25.2461L32.9415 25.4057L33.0031 25.4222C33.1469 25.4607 33.3402 25.3144 33.4268 25.0734C33.5134 24.8324 33.4602 24.62 33.3164 24.5814Z"/><path fill="#fff" d="M31.3442 24.053L30.6663 23.8713C30.5225 23.8328 30.3291 23.9792 30.2425 24.2202C30.1615 24.4406 30.2091 24.6736 30.3735 24.7176L31.0308 24.8937L31.0514 24.8992C31.1951 24.9378 31.3885 24.7914 31.4751 24.5504C31.5411 24.3039 31.4879 24.0915 31.3442 24.053Z"/><path fill="#fff" d="M19.4283 20.9482L18.8121 20.7831L18.7504 20.7665C18.6066 20.728 18.4133 20.8744 18.3267 21.1154C18.2456 21.3358 18.2933 21.5688 18.4576 21.6128L18.5193 21.6293L19.1355 21.7944C19.1561 21.7999 19.1561 21.7999 19.1766 21.8055C19.3259 21.8234 19.4781 21.6661 19.5537 21.4662C19.6348 21.2457 19.5761 21.0538 19.4584 21.0003C19.4489 20.9537 19.4489 20.9537 19.4283 20.9482Z"/><path fill="#fff" d="M21.4004 21.4766L21.3798 21.4711L20.7225 21.295L20.6814 21.2839C20.5376 21.2454 20.3443 21.3918 20.2577 21.6328C20.1766 21.8532 20.2243 22.0862 20.3886 22.1302L20.4297 22.1412L21.087 22.3173L21.1076 22.3228C21.2514 22.3614 21.4447 22.215 21.5313 21.974C21.6179 21.733 21.5442 21.5151 21.4004 21.4766Z"/><path fill="#fff" d="M23.2901 21.9829L22.6327 21.8068L22.5711 21.7903C22.4273 21.7518 22.234 21.8981 22.1474 22.1391C22.0663 22.3596 22.114 22.5925 22.2783 22.6365L22.3399 22.6531L22.9767 22.8237C22.9767 22.8237 22.9767 22.8237 22.9973 22.8292C23.1466 22.8472 23.3194 22.6953 23.4005 22.4749C23.4871 22.2339 23.4339 22.0215 23.2901 21.9829Z"/><path fill="#fff" d="M25.2213 22.5004L24.564 22.3243L24.5434 22.3188C24.3941 22.3008 24.2214 22.4527 24.1403 22.6731C24.0592 22.8936 24.1123 23.106 24.2506 23.165L24.908 23.3412C25.0518 23.3797 25.2451 23.2334 25.3317 22.9924C25.4388 22.7569 25.3651 22.539 25.2213 22.5004Z"/><path fill="#F9FFEC" d="M27.1726 23.0233L26.4947 22.8416L26.3715 22.8086C26.2277 22.7701 26.0343 22.9164 25.9477 23.1574C25.8667 23.3779 25.9143 23.6108 26.0787 23.6549L26.2225 23.6934L26.8798 23.8695C26.9003 23.875 26.9414 23.886 26.9675 23.871C27.1072 23.8424 27.2279 23.7206 27.3035 23.5207C27.3791 23.3208 27.3465 23.1139 27.2082 23.0548C27.1931 23.0288 27.1726 23.0233 27.1726 23.0233Z"/><path fill="#F9FFEC" d="M29.4322 23.6287L29.3706 23.6122L28.6516 23.4196L28.6311 23.4141C28.4873 23.3755 28.2939 23.5219 28.2074 23.7629C28.1263 23.9834 28.1849 24.1752 28.3027 24.2288C28.3027 24.2288 28.3232 24.2343 28.3438 24.2398L29.0422 24.4269L29.1244 24.449C29.2682 24.4875 29.4615 24.3411 29.5481 24.1001C29.6292 23.8797 29.576 23.6673 29.4322 23.6287Z"/><path fill="#fff" d="M23.4105 35.996C23.2667 35.9575 23.0734 36.1038 22.9923 36.3243L22.6405 37.3089L22.5909 37.4937C22.5098 37.7142 22.5575 37.9471 22.7218 37.9912C22.8656 38.0297 23.059 37.8833 23.1455 37.6423L23.2156 37.463L23.5675 36.4784C23.5675 36.4784 23.5675 36.4784 23.573 36.4579C23.6281 36.2525 23.5749 36.0401 23.4105 35.996Z"/><path fill="#fff" d="M24.4385 33.145C24.2947 33.1065 24.1274 33.2378 24.0313 33.4322C24.0258 33.4527 24.0203 33.4733 24.0203 33.4733L23.6794 34.4168L23.6519 34.5195C23.5708 34.7399 23.6185 34.9729 23.7828 35.0169C23.9266 35.0554 24.1199 34.9091 24.2065 34.6681L24.2341 34.5654L24.5749 33.6219C24.5804 33.6014 24.5859 33.5808 24.5914 33.5603C24.6465 33.3549 24.5823 33.1835 24.4385 33.145Z"/><path fill="#fff" d="M25.4721 30.2737C25.3488 30.2406 25.187 30.3514 25.0964 30.5253C25.0854 30.5664 25.0594 30.5814 25.0483 30.6225L24.7185 31.5249L24.691 31.6276C24.6099 31.848 24.6575 32.081 24.8219 32.125C24.9657 32.1635 25.159 32.0172 25.2456 31.7762L25.2731 31.6735L25.5975 30.7917C25.6085 30.7506 25.6195 30.7095 25.625 30.6889C25.6595 30.478 25.5953 30.3067 25.4721 30.2737Z"/><path fill="#fff" d="M26.5445 27.2584C26.4007 27.2199 26.2073 27.3662 26.1207 27.6072L26.1152 27.6278L25.7579 28.6329L25.7523 28.6534C25.6713 28.8739 25.7189 29.1068 25.8833 29.1508C26.0271 29.1894 26.2204 29.043 26.307 28.802L26.3125 28.7815L26.6699 27.7764C26.762 27.5148 26.6882 27.2969 26.5445 27.2584Z"/><path fill="#fff" d="M32.9457 9.20236C32.8019 9.16383 32.6086 9.31018 32.522 9.55118L32.4945 9.65389L32.1536 10.5973C32.1481 10.6179 32.1426 10.6384 32.1426 10.6384C32.0876 10.8439 32.1462 11.0357 32.29 11.0742C32.4338 11.1128 32.6011 10.9815 32.6972 10.787C32.7027 10.7665 32.7082 10.746 32.7082 10.746L33.0491 9.8025L33.0766 9.69979C33.1372 9.47383 33.0895 9.24089 32.9457 9.20236Z"/><path fill="#fff" d="M31.8899 12.156C31.7461 12.1175 31.5528 12.2638 31.4662 12.5048L31.4497 12.5664L31.0923 13.5715L31.0868 13.5921C31.0057 13.8125 31.0534 14.0455 31.2177 14.0895C31.3615 14.128 31.5548 13.9817 31.6414 13.7407L31.6469 13.7201L32.0043 12.7151L32.0208 12.6534C32.0869 12.4069 32.0337 12.1945 31.8899 12.156Z"/><path fill="#fff" d="M30.862 15.007C30.7182 14.9685 30.5248 15.1148 30.4382 15.3558L30.4107 15.4585L30.0588 16.4431L30.0533 16.4636C29.9722 16.6841 30.0254 16.8965 30.1898 16.9405C30.3336 16.9791 30.5269 16.8327 30.608 16.6122L30.6135 16.5917L30.9654 15.6072L30.9929 15.5044C31.0795 15.2634 31.0263 15.051 30.862 15.007Z"/><path fill="#fff" d="M29.7843 18.0427C29.6405 18.0041 29.4471 18.1505 29.366 18.3709L29.3605 18.3915L29.0087 19.376L29.0032 19.3966C28.9221 19.617 28.9697 19.85 29.1341 19.894C29.2779 19.9325 29.4712 19.7862 29.5578 19.5452L29.5633 19.5246L29.9152 18.5401L29.9207 18.5195C29.9867 18.273 29.9281 18.0812 29.7843 18.0427Z"/><path fill="#F9FFEC" d="M28.8096 20.7759C28.6658 20.7374 28.4725 20.8837 28.3859 21.1247L28.3103 21.3247L27.9529 22.3297C27.9419 22.3708 27.9364 22.3914 27.9254 22.4325C27.8964 22.6228 27.94 22.7886 28.0838 22.8272C28.2071 22.8602 28.3688 22.7494 28.4595 22.5756C28.465 22.555 28.4965 22.5194 28.5075 22.4784L28.8649 21.4733L28.9405 21.2734C29.0066 21.0268 28.9534 20.8144 28.8096 20.7759Z"/><path fill="#F9FFEC" d="M27.5807 24.2115C27.4369 24.173 27.2436 24.3194 27.1625 24.5398C27.1625 24.5398 27.1625 24.5398 27.157 24.5604L26.7776 25.6476L26.7446 25.7709C26.6635 25.9913 26.7111 26.2243 26.8755 26.2683C27.0193 26.3068 27.2126 26.1605 27.2992 25.9195L27.3322 25.7962L27.7116 24.709C27.7116 24.709 27.7116 24.709 27.7171 24.6884C27.7777 24.4625 27.7245 24.2501 27.5807 24.2115Z"/><path fill="#51244E" d="M27.6682 23.6405L17.861 31.6468L16.5472 32.7699C16.164 31.3242 16.0057 29.6966 16.0502 27.9692L17.4428 27.3736L27.1561 23.4152L27.6682 23.6405Z" opacity=".5"/><path fill="#51244E" d="M27.9328 23.5572C27.9053 23.6599 27.7956 23.7406 27.6724 23.7076C27.5697 23.6801 27.489 23.5704 27.522 23.4471C27.5495 23.3444 27.6592 23.2637 27.7824 23.2967C27.8852 23.3243 27.9603 23.4545 27.9328 23.5572Z" opacity=".5"/><path fill="#fff" d="M39.3934 21.212L38.0273 21.4624L28.1029 23.2506L28.0692 22.8012L36.7115 12.8975L37.9215 11.5044C38.5982 12.6765 39.08 14.0826 39.322 15.6446C39.6337 17.3573 39.6588 19.2355 39.3934 21.212Z" opacity=".5"/><path fill="#143284" d="M10.2739 15.6478C10.586 15.7975 10.8315 15.6211 10.8113 15.2855L10.7725 14.5265C10.7523 14.1908 10.4857 13.7891 10.168 13.66L7.28044 12.3578C6.96828 12.2082 6.72285 12.3846 6.743 12.7202L6.78182 13.4792C6.80197 13.8149 7.06862 14.2166 7.38628 14.3457L10.2739 15.6478Z"/><path fill="#143284" d="M10.2944 15.6534C10.6065 15.8031 10.6432 16.0771 10.3662 16.2891L9.75468 16.7638C9.4777 16.9758 9.07895 17.0671 8.82291 16.9544C8.58741 16.8473 8.25471 16.6921 8.11642 16.633C7.95759 16.5685 7.5893 16.3817 7.27714 16.232L5.63968 15.441C5.32751 15.2913 5.3114 15.0228 5.60341 14.8368L6.31767 14.3897C6.60968 14.2037 7.10014 14.181 7.39176 14.3252L10.2944 15.6534Z"/><path fill="#143284" d="M27.2458 23.3005L6.76678 14.3565C6.64904 14.3029 6.59439 14.1782 6.64796 14.0604C6.70152 13.9427 6.82625 13.8881 6.944 13.9416L27.4231 22.8856C27.5408 22.9392 27.5955 23.0639 27.5419 23.1817C27.4883 23.2994 27.3636 23.3541 27.2458 23.3005Z"/><path fill="#143284" d="M6.65024 14.0605C6.70381 13.9427 6.82854 13.8881 6.94628 13.9416L27.4253 22.8856C27.5431 22.9392 27.5977 23.0639 27.5442 23.1817L6.65024 14.0605Z"/><path fill="#fff" d="M9.80207 16.0938L8.38751 16.7716L7.83986 16.5148C8.65791 16.3377 9.80207 16.0938 9.80207 16.0938Z"/><path fill="#143284" d="M28.0511 23.5817C27.3978 23.4727 26.4639 23.1784 26.4639 23.1784L26.593 22.8608L26.7648 22.4664C26.7648 22.4664 27.6136 22.914 28.1432 23.3202L28.1253 23.4695L28.0511 23.5817Z"/><path fill="#143284" d="M28.1461 23.4751L26.6249 22.8253L26.7856 22.472C26.7856 22.472 27.6344 22.9196 28.164 23.3258L28.1461 23.4751Z"/></svg>