<svg width="161" height="148" viewBox="0 0 161 148" fill="none" xmlns="http://www.w3.org/2000/svg">
<path opacity="0.5" d="M99.8614 60.0442C119.513 83.6685 125.085 81.5619 110.42 114.365C99.4214 138.742 57.3326 157.4 32.2553 121.437C10.551 90.2893 12.8974 52.2196 32.8419 34.7647C52.7864 17.1593 80.2101 36.4199 99.8614 60.0442Z" fill="#14237E"/>
<path d="M104.407 46.0494C124.058 69.6737 128.165 97.2103 103.967 120.534C84.9027 138.891 51.9063 133.023 32.255 109.399C12.6038 85.7743 12.7505 52.3693 32.695 34.9144C52.6395 17.309 84.7561 22.4251 104.407 46.0494Z" fill="#143284"/>
<path d="M104.407 46.0494C124.058 69.6737 128.165 97.2103 103.967 120.534C84.9027 138.891 51.9063 133.023 32.255 109.399C12.6038 85.7743 12.7505 52.3693 32.695 34.9144C52.6395 17.309 84.7561 22.4251 104.407 46.0494Z" fill="#143284"/>
<path d="M35.2478 105.67C15.781 82.2921 16.174 49.1612 36.1256 31.6702C56.0772 14.1792 88.0321 18.9517 107.499 42.3298C126.966 65.7079 126.573 98.8389 106.621 116.33C86.6696 133.821 54.7147 129.048 35.2478 105.67Z" fill="#143284"/>
<path d="M40.5992 100.979C24.0261 81.0763 24.3687 52.8632 41.3645 37.9635C58.3603 23.0638 85.5733 27.1197 102.146 47.0227C118.72 66.9257 118.377 95.1388 101.381 110.039C84.3853 124.938 57.1723 120.882 40.5992 100.979Z" fill="#EFF5FB"/>
<path d="M45.5065 96.677C31.564 79.9332 31.8428 56.2067 46.1291 43.6823C60.4155 31.1579 83.2994 34.5784 97.2419 51.3222C111.184 68.0659 110.906 91.7925 96.6193 104.317C82.3329 116.841 59.449 113.421 45.5065 96.677Z" fill="#143284"/>
<path d="M50.634 92.1812C39.4274 78.723 39.6278 59.673 51.0815 49.6319C62.5352 39.5908 80.9049 42.3609 92.1115 55.8191C103.318 69.2773 103.118 88.3273 91.6641 98.3684C80.2104 108.409 61.8406 105.639 50.634 92.1812Z" fill="#EFF5FB"/>
<path d="M55.7638 87.6838C47.3457 77.5744 47.5103 63.2522 56.1313 55.6944C64.7524 48.1366 78.5653 50.2051 86.9834 60.3145C95.4015 70.424 95.237 84.7462 86.6159 92.304C77.9949 99.8618 64.1819 97.7933 55.7638 87.6838Z" fill="#143284"/>
<path d="M60.8922 83.1878C55.2626 76.4272 55.3913 66.8328 61.1798 61.7583C66.9682 56.6837 76.2243 58.0506 81.8539 64.8113C87.4835 71.572 87.3548 81.1664 81.5664 86.2409C75.7779 91.3154 66.5218 89.9485 60.8922 83.1878Z" fill="#EFF5FB"/>
<path d="M75.9571 69.9747C78.4501 72.8337 78.3035 77.0469 75.8104 79.1535C73.3173 81.4106 69.3578 80.8088 66.8647 77.7993C64.3716 74.9403 64.5183 70.727 67.0114 68.6204C69.5044 66.5138 73.464 67.1157 75.9571 69.9747Z" fill="#143284"/>
<path d="M121.859 23.3289C121.859 23.3289 127.138 4.51978 129.925 4.51978C132.711 4.51978 133.884 10.8397 133.884 10.8397L121.859 23.3289Z" fill="#10286A"/>
<path d="M122.299 23.7811C122.299 23.7811 140.631 18.364 140.631 15.5051C140.631 12.6461 134.471 11.4423 134.471 11.4423L122.299 23.7811Z" fill="#10286A"/>
<path d="M134.324 11.1409L71.411 74.0388" stroke="#FFA412" stroke-width="0.5" stroke-miterlimit="10"/>
<path d="M137.991 49.9619C137.991 49.9619 150.603 35.2155 153.096 36.4193C155.589 37.6231 153.976 43.7925 153.976 43.7925L137.991 49.9619Z" fill="#10286A"/>
<path d="M138.285 50.7138C138.285 50.7138 157.203 53.7233 158.376 51.1652C159.549 48.6072 154.416 44.8454 154.416 44.8454L138.285 50.7138Z" fill="#10286A"/>
<path d="M154.416 44.394L71.4113 74.0373" stroke="#FFA412" stroke-width="0.5" stroke-miterlimit="10"/>
<path d="M140.337 89.5367C140.337 89.5367 158.669 83.8187 160.135 86.2263C161.602 88.6339 157.056 92.9976 157.056 92.9976L140.337 89.5367Z" fill="#10286A"/>
<path d="M140.191 90.2896C140.191 90.2896 154.709 103.08 157.056 101.575C159.402 100.07 156.909 94.0515 156.909 94.0515L140.191 90.2896Z" fill="#10286A"/>
<path d="M157.056 93.5996L71.4115 74.038" stroke="#FFA412" stroke-width="0.5" stroke-miterlimit="10"/>
<path d="M127.432 117.976C127.432 117.976 146.35 120.684 146.79 123.543C147.23 126.402 141.217 128.358 141.217 128.358L127.432 117.976Z" fill="#10286A"/>
<path d="M126.993 118.578C126.993 118.578 134.912 136.485 137.552 136.033C140.338 135.582 140.485 129.262 140.485 129.262L126.993 118.578Z" fill="#10286A"/>
<path d="M140.924 128.961L71.412 74.038" stroke="#FFA412" stroke-width="0.5" stroke-miterlimit="10"/>
</svg>
