<svg xmlns="http://www.w3.org/2000/svg" width="57" height="53" fill="none" viewBox="0 0 57 53"><path fill="#14237E" d="M35.1339 21.5023C42.0477 29.9623 44.0084 29.2079 38.8488 40.955C34.9792 49.6845 20.1712 56.3663 11.3484 43.4876C3.71227 32.3333 4.53779 18.7002 11.5548 12.4495C18.5718 6.14484 28.2201 13.0422 35.1339 21.5023Z" opacity=".5"/><path fill="#143284" d="M36.7333 16.4909C43.6471 24.951 45.0918 34.8121 36.5785 43.1644C29.8711 49.7384 18.2621 47.6369 11.3483 39.1768C4.43452 30.7168 4.48612 18.7541 11.5031 12.5034C18.5201 6.19875 29.8195 8.03087 36.7333 16.4909Z"/><path fill="#143284" d="M36.7333 16.4909C43.6471 24.951 45.0918 34.8121 36.5785 43.1644C29.8711 49.7384 18.2621 47.6369 11.3483 39.1768C4.43452 30.7168 4.48612 18.7541 11.5031 12.5034C18.5201 6.19875 29.8195 8.03087 36.7333 16.4909Z"/><path fill="#143284" d="M12.401 37.8414C5.55211 29.4695 5.69037 17.605 12.7099 11.3414C19.7293 5.07772 30.9719 6.78678 37.8208 15.1587C44.6698 23.5306 44.5315 35.395 37.512 41.6587C30.4925 47.9223 19.25 46.2133 12.401 37.8414Z"/><path fill="#DCEFFE" d="M14.2838 36.1614C8.45293 29.0339 8.57349 18.9306 14.553 13.5949C20.5326 8.25916 30.1068 9.71163 35.9377 16.839C41.7685 23.9665 41.648 34.0698 35.6684 39.4055C29.6889 44.7412 20.1146 43.2888 14.2838 36.1614Z"/><path fill="#143284" d="M16.0101 34.621C11.1048 28.6249 11.2029 20.1283 16.2292 15.6432C21.2555 11.1581 29.3066 12.383 34.2119 18.3791C39.1173 24.3752 39.0192 32.8718 33.9929 37.3569C28.9666 41.842 20.9154 40.6171 16.0101 34.621Z"/><path fill="#DCEFFE" d="M17.8144 33.011C13.8716 28.1915 13.9421 21.3695 17.9718 17.7737C22.0015 14.1779 28.4645 15.1699 32.4072 19.9894C36.35 24.8089 36.2795 31.6309 32.2498 35.2267C28.2201 38.8225 21.7572 37.8305 17.8144 33.011Z"/><path fill="#143284" d="M19.619 31.4004C16.6573 27.7802 16.7152 22.6513 19.7483 19.9448C22.7814 17.2382 27.6411 17.979 30.6028 21.5993C33.5645 25.2195 33.5066 30.3484 30.4735 33.0549C27.4404 35.7615 22.5807 35.0207 19.619 31.4004Z"/><path fill="#DCEFFE" d="M21.4233 29.7905C19.4427 27.3695 19.488 23.9336 21.5245 22.1164C23.561 20.2992 26.8176 20.7887 28.7982 23.2097C30.7788 25.6308 30.7335 29.0666 28.697 30.8838C26.6605 32.7011 23.404 32.2116 21.4233 29.7905Z"/><path fill="#143284" d="M26.7238 25.0588C27.6009 26.0826 27.5493 27.5914 26.6722 28.3458C25.7951 29.1541 24.402 28.9385 23.5249 27.8608C22.6478 26.837 22.6994 25.3282 23.5765 24.5738C24.4536 23.8194 25.8467 24.0349 26.7238 25.0588Z"/><path fill="#10286A" d="M42.8733 8.35419C42.8733 8.35419 44.7307 1.61847 45.711 1.61847C46.6914 1.61847 47.1041 3.88167 47.1041 3.88167L42.8733 8.35419Z"/><path fill="#10286A" d="M43.028 8.51592C43.028 8.51592 49.4774 6.57603 49.4774 5.5522C49.4774 4.52838 47.3104 4.09729 47.3104 4.09729L43.028 8.51592Z"/><path stroke="#FFA412" stroke-miterlimit="10" stroke-width=".5" d="M47.2587 3.98944L25.1242 26.5137"/><path fill="#10286A" d="M48.5486 17.892C48.5486 17.892 52.9858 12.6112 53.8629 13.0422C54.7401 13.4733 54.1725 15.6826 54.1725 15.6826L48.5486 17.892Z"/><path fill="#10286A" d="M48.6519 18.1614C48.6519 18.1614 55.3078 19.2391 55.7205 18.3231C56.1333 17.407 54.3275 16.0599 54.3275 16.0599L48.6519 18.1614Z"/><path stroke="#FFA412" stroke-miterlimit="10" stroke-width=".5" d="M54.3275 15.8982L25.1244 26.5137"/><path fill="#10286A" d="M49.3742 32.0639C49.3742 32.0639 55.8237 30.0163 56.3396 30.8784C56.8556 31.7406 55.2561 33.3033 55.2561 33.3033L49.3742 32.0639Z"/><path fill="#10286A" d="M49.3227 32.3334C49.3227 32.3334 54.4306 36.9137 55.2562 36.3748C56.0817 35.8359 55.2046 33.6805 55.2046 33.6805L49.3227 32.3334Z"/><path stroke="#FFA412" stroke-miterlimit="10" stroke-width=".5" d="M55.256 33.5188L25.1243 26.5137"/><path fill="#10286A" d="M44.8337 42.2483C44.8337 42.2483 51.4896 43.2182 51.6443 44.2421C51.7991 45.2659 49.6837 45.9664 49.6837 45.9664L44.8337 42.2483Z"/><path fill="#10286A" d="M44.679 42.4638C44.679 42.4638 47.4651 48.8762 48.3938 48.7145C49.3742 48.5529 49.4258 46.2897 49.4258 46.2897L44.679 42.4638Z"/><path stroke="#FFA412" stroke-miterlimit="10" stroke-width=".5" d="M49.5804 46.182L25.1241 26.5137"/></svg>