<svg width="160" height="151" viewBox="0 0 160 151" fill="none" xmlns="http://www.w3.org/2000/svg">
<path opacity="0.5" d="M99.5964 60.9538C119.195 84.936 124.753 82.7975 110.127 116.098C99.1577 140.844 57.1808 159.785 32.1702 123.277C10.5235 91.6571 12.8637 53.0106 32.7552 35.2913C52.6467 17.4191 79.9975 36.9715 99.5964 60.9538Z" fill="#143284"/>
<path d="M104.13 46.7478C123.729 70.73 127.825 98.6839 103.692 122.361C84.6776 140.996 51.7689 135.039 32.1699 111.057C12.571 87.0746 12.7172 53.1634 32.6087 35.4441C52.5002 17.572 84.5313 22.7656 104.13 46.7478Z" fill="#6C80B3"/>
<path d="M104.13 46.7478C123.729 70.73 127.825 98.6839 103.692 122.361C84.6776 140.996 51.7689 135.039 32.1699 111.057C12.571 87.0746 12.7172 53.1634 32.6087 35.4441C52.5002 17.572 84.5313 22.7656 104.13 46.7478Z" fill="#6C80B3"/>
<path d="M35.1541 107.271C15.739 83.5389 16.1309 49.906 36.0294 32.1501C55.928 14.3941 87.798 19.2389 107.213 42.9712C126.628 66.7035 126.236 100.336 106.338 118.092C86.4391 135.848 54.5691 131.004 35.1541 107.271Z" fill="#6C80B3"/>
<path d="M40.4912 102.509C23.9621 82.3042 24.3038 53.6636 41.2545 38.5382C58.2051 23.4127 85.3457 27.5301 101.875 47.7346C118.404 67.9392 118.062 96.5798 101.111 111.705C84.1608 126.831 57.0202 122.713 40.4912 102.509Z" fill="#DCE3F3"/>
<path d="M45.3847 98.1423C31.4793 81.1448 31.7574 57.0588 46.0057 44.3447C60.2541 31.6305 83.0772 35.1028 96.9826 52.1003C110.888 69.0978 110.61 93.1838 96.3616 105.898C82.1133 118.612 59.2901 115.14 45.3847 98.1423Z" fill="#6C80B3"/>
<path d="M50.4993 93.5782C39.3225 79.9161 39.5223 60.5775 50.9456 50.3842C62.3688 40.191 80.6897 43.0031 91.8665 56.6652C103.043 70.3273 102.844 89.6659 91.4203 99.8591C79.9971 110.052 61.6761 107.24 50.4993 93.5782Z" fill="#DCE3F3"/>
<path d="M55.6148 89.0127C47.2191 78.7501 47.3832 64.2109 55.9813 56.5386C64.5794 48.8663 78.3557 50.9661 86.7514 61.2287C95.1471 71.4913 94.983 86.0305 86.3849 93.7028C77.7867 101.375 64.0105 99.2753 55.6148 89.0127Z" fill="#6C80B3"/>
<path d="M60.7302 84.4489C55.1156 77.5858 55.244 67.8461 61.017 62.6947C66.7901 57.5433 76.0216 58.9309 81.6362 65.794C87.2509 72.6571 87.1224 82.3968 81.3494 87.5483C75.5764 92.6997 66.3449 91.3121 60.7302 84.4489Z" fill="#DCE3F3"/>
<path d="M75.7557 71.0356C78.2422 73.9379 78.0959 78.215 75.6095 80.3535C73.123 82.6448 69.174 82.0338 66.6875 78.9787C64.2011 76.0764 64.3474 71.7993 66.8338 69.6608C69.3202 67.5222 73.2693 68.1332 75.7557 71.0356Z" fill="#6C80B3"/>
<path d="M121.536 23.6821C121.536 23.6821 126.801 4.58798 129.58 4.58798C132.359 4.58798 133.529 11.0036 133.529 11.0036L121.536 23.6821Z" fill="#7681AC"/>
<path d="M121.974 24.1406C121.974 24.1406 140.257 18.6415 140.257 15.7392C140.257 12.8369 134.114 11.6148 134.114 11.6148L121.974 24.1406Z" fill="#7681AC"/>
<path d="M133.967 11.3091L71.2214 75.1599" stroke="#7681AC" stroke-width="0.5" stroke-miterlimit="10"/>
<path d="M137.623 50.7194C137.623 50.7194 150.202 35.7496 152.688 36.9716C155.175 38.1936 153.566 44.4565 153.566 44.4565L137.623 50.7194Z" fill="#7681AC"/>
<path d="M137.916 51.4833C137.916 51.4833 156.784 54.5383 157.954 51.9415C159.124 49.3447 154.005 45.5259 154.005 45.5259L137.916 51.4833Z" fill="#7681AC"/>
<path d="M154.005 45.0676L71.2215 75.1599" stroke="#7681AC" stroke-width="0.5" stroke-miterlimit="10"/>
<path d="M139.964 90.8936C139.964 90.8936 158.247 85.0889 159.709 87.533C161.172 89.977 156.638 94.4069 156.638 94.4069L139.964 90.8936Z" fill="#7681AC"/>
<path d="M139.818 91.6574C139.818 91.6574 154.298 104.641 156.638 103.114C158.978 101.586 156.492 95.4762 156.492 95.4762L139.818 91.6574Z" fill="#7681AC"/>
<path d="M156.638 95.0178L71.2215 75.1599" stroke="#7681AC" stroke-width="0.5" stroke-miterlimit="10"/>
<path d="M127.093 119.764C127.093 119.764 145.96 122.513 146.399 125.416C146.838 128.318 140.841 130.304 140.841 130.304L127.093 119.764Z" fill="#7681AC"/>
<path d="M126.654 120.375C126.654 120.375 134.552 138.552 137.185 138.094C139.964 137.636 140.11 131.22 140.11 131.22L126.654 120.375Z" fill="#7681AC"/>
<path d="M140.548 130.915L71.2207 75.1599" stroke="#7681AC" stroke-width="0.5" stroke-miterlimit="10"/>
</svg>
