<svg xmlns="http://www.w3.org/2000/svg" width="206" height="198" fill="none" viewBox="0 0 206 198"><path fill="#76A2EF" d="M40.3176 74.0235H16.244V194.395H40.3176V74.0235Z"/><path fill="#143284" d="M64.3942 74.0235H40.3206V194.395H64.3942V74.0235Z"/><path fill="#A4C1F5" d="M106.115 34.1647H77.8153V193.6H106.115V34.1647Z"/><path fill="#76A2EF" d="M128.755 34.1647H106.115V193.6H128.755V34.1647Z"/><path fill="#76A2EF" d="M166.038 0H141.964V195.269H166.038V0Z"/><path fill="#A4C1F5" d="M190.11 0H166.036V195.269H190.11V0Z"/><g style="mix-blend-mode:multiply" opacity=".5"><path fill="#DD851B" d="M162.862 58.0368C163.897 59.2038 164.863 60.3021 165.897 61.4691L195.283 30.4417L197.973 36.551L205.561 16.2322L185.626 24.9501L191.903 27.284L162.862 58.0368Z"/><path fill="#DD851B" d="M191.696 27.7652L116.852 106.707L110.437 100.666C109.541 99.8421 108.092 99.8421 107.195 100.735L96.9862 111.237L93.951 108.354C93.0543 107.462 91.6057 107.53 90.709 108.423L47.3205 154.209L44.4923 150.708C44.0785 150.227 43.4576 149.884 42.8368 149.884C42.147 149.884 41.5262 150.09 41.1123 150.571L3.17328 190.59L3.38022 197.043L42.6299 155.582L45.4581 159.083C45.8719 159.563 46.4928 159.906 47.1136 159.906C47.8034 159.906 48.4242 159.7 48.8381 159.22L92.5025 113.159L95.5376 116.042C96.4343 116.866 97.8829 116.866 98.7797 115.974L108.989 105.471L115.473 111.512C115.887 111.924 116.508 112.13 117.128 112.13C117.749 112.13 118.301 111.855 118.715 111.443L194.8 31.1288C193.696 30.0305 192.73 28.8635 191.696 27.7652Z"/></g><path fill="#FD9727" d="M159.62 50.0738C160.654 51.2408 161.62 52.3391 162.655 53.5061L192.04 22.4786L194.731 28.588L202.318 8.2692L182.383 16.9871L188.66 19.321L159.62 50.0738Z"/><path fill="#FD9727" d="M188.523 19.8022L113.679 98.8122L107.264 92.7715C106.367 91.9477 104.919 91.9477 104.022 92.8401L93.8129 103.343L90.7778 100.46C89.8811 99.5673 88.4325 99.6359 87.5357 100.528L44.1473 146.314L41.3191 142.813C40.9052 142.333 40.2844 141.99 39.6636 141.99C38.9738 141.99 38.3529 142.196 37.9391 142.676L3.05176e-05 182.696L0.20697 189.149L39.4566 147.687L42.2848 151.188C42.6987 151.669 43.3195 152.012 43.9403 152.012C44.6301 152.012 45.251 151.806 45.6648 151.325L89.3292 105.265L92.3643 108.148C93.2611 108.972 94.7097 108.972 95.6064 108.079L105.815 97.5766L112.3 103.617C112.713 104.029 113.334 104.235 113.955 104.235C114.576 104.235 115.128 103.961 115.542 103.549L191.627 23.2344C190.523 22.1361 189.488 20.9691 188.523 19.8022Z"/></svg>