<svg xmlns="http://www.w3.org/2000/svg" width="257" height="260" fill="none" viewBox="0 0 257 260"><path fill="#000" d="M102.39 98.7805C101.764 98.5255 111.98 106.052 111.98 106.052C111.98 106.052 99.9589 105.605 100.282 105.692L102.39 98.7805Z"/><path fill="#14237E" d="M139.946 42.6165L131.046 40.2255L85.9376 163.918L95.8083 166.569C118.301 172.612 146.439 149.74 158.614 115.537C170.79 81.3344 162.438 48.6594 139.946 42.6165Z"/><path fill="#E9EECC" d="M147.605 118.607C161.744 85.0686 155.935 50.56 134.63 41.53C113.325 32.4999 84.5908 52.3678 70.4512 85.9062C56.3115 119.445 62.1205 153.953 83.4259 162.983C104.731 172.013 133.465 152.145 147.605 118.607Z"/><path fill="#C1CDE5" d="M154.664 93.0011C155.709 85.1959 155.632 77.6977 154.485 70.9555C153.451 64.7654 151.612 59.3154 148.969 54.6056C144.823 47.4054 138.834 42.2318 131.229 40.1885C108.737 34.1457 80.5987 57.0175 68.4232 91.2205C64.9476 100.981 63.1393 110.668 62.8482 119.546C62.6728 126.367 63.2964 132.795 64.8057 138.504C68.184 151.497 75.845 161.12 87.0102 164.12C109.502 170.163 137.641 147.291 149.816 113.088C152.225 106.344 153.782 99.546 154.664 93.0011ZM146.477 112.278C146.158 113.148 145.375 113.807 144.808 113.655L144.323 113.525C133.481 142.087 110.058 161.269 90.8439 157.237L90.5679 157.946C90.2485 158.816 89.4653 159.476 88.899 159.323C88.3326 159.171 88.0423 158.311 88.3834 157.359L88.6594 156.651C79.2799 153.783 72.7559 145.422 69.8557 134.209C68.5399 129.074 67.9856 123.36 68.1494 117.231C68.4115 110.085 69.7804 102.367 72.3904 94.547L72.1477 94.4818C71.5813 94.3296 71.291 93.4691 71.632 92.5174C71.9514 91.6467 72.7346 90.9877 73.3009 91.1398L73.5436 91.2051C84.2882 62.3561 108.1 43.0172 127.433 47.2547L127.541 46.8491C127.861 45.9785 128.644 45.3194 129.21 45.4716C129.777 45.6238 130.067 46.4843 129.726 47.436L129.617 47.8416C135.761 49.8398 140.687 54.1196 144.122 60.0854C146.491 64.1998 148.218 69.0978 149.101 74.5521C150.119 80.4771 150.193 87.0178 149.305 93.909C148.586 99.1936 147.398 104.613 145.579 110.123L146.064 110.254C146.587 110.568 146.797 111.407 146.477 112.278Z"/><path fill="#C1CDE5" d="M123.4 58.7791L123.465 58.5357C123.784 57.6651 124.567 57.0061 125.134 57.1582C125.7 57.3104 125.99 58.1709 125.649 59.1226L125.584 59.366C140.071 64.2144 145.543 85.5955 138.033 108.184L138.276 108.249C138.842 108.401 139.132 109.262 138.791 110.213C138.472 111.084 137.689 111.743 137.122 111.591L136.88 111.526C128.339 133.75 110.025 148.741 94.9584 145.736L94.85 146.142C94.5306 147.012 93.7475 147.672 93.1811 147.519C92.6148 147.367 92.3244 146.507 92.6655 145.555L92.7739 145.149C78.2222 140.544 72.647 119.223 79.9958 96.591L79.834 96.5475C79.2677 96.3953 78.9773 95.5348 79.3184 94.5831C79.6378 93.7124 80.4209 93.0534 80.9873 93.2055L81.1491 93.249C89.6739 70.7594 108.193 55.6502 123.4 58.7791ZM128.21 51.8115C127.831 52.5793 127.173 53.0978 126.606 52.9457C126.04 52.7935 125.809 52.0358 126.026 51.2246C108.149 47.3784 86.1086 65.2803 76.1111 91.9825C76.6558 92.2157 76.7843 93.0328 76.4866 93.8223C76.1672 94.6929 75.5084 95.2114 75.0013 95.1622C66.1798 122.006 72.7053 147.235 90.0671 152.682C90.3865 151.812 91.148 151.234 91.7143 151.386C92.2807 151.538 92.4901 152.377 92.2516 153.269C110.009 156.91 131.742 139.186 141.815 112.852C141.249 112.699 141.039 111.861 141.38 110.909C141.7 110.038 142.461 109.46 143.049 109.531C151.951 82.7089 145.448 57.399 128.21 51.8115Z"/><path fill="#fff" d="M75.0601 95.2649C74.9792 95.2431 74.9792 95.2431 74.8983 95.2214L72.4711 94.5693C62.9025 123.56 70.0028 150.856 88.7401 156.673L90.126 152.785C72.7642 147.338 66.1578 122.087 75.0601 95.2649ZM141.815 112.851C131.801 139.288 110.068 157.012 92.2512 153.269C92.2512 153.269 92.2512 153.269 92.2296 153.35L90.8436 157.238C110.058 161.27 133.562 142.109 144.404 113.547L141.815 112.851ZM127.514 47.2771C108.181 43.0395 84.4498 62.4002 73.6243 91.2274L76.0515 91.8795C76.1324 91.9012 76.1324 91.9012 76.2133 91.9229C86.2108 65.2208 108.171 47.2971 126.128 51.1651C126.149 51.084 126.171 51.0029 126.171 51.0029L127.514 47.2771ZM129.617 47.8422L128.275 51.568C128.253 51.6492 128.231 51.7303 128.231 51.7303C145.469 57.3178 151.973 82.6277 142.968 109.51L145.557 110.205C155.287 81.2575 148.311 53.821 129.617 47.8422Z"/><path fill="#C1CDE5" d="M119.285 70.2809L119.394 69.8753C119.713 69.0047 120.496 68.3456 121.063 68.4978C121.629 68.6499 121.919 69.5105 121.578 70.4622L121.47 70.8678C131.852 74.5265 135.718 89.9115 130.487 106.243L130.729 106.308L131.134 106.417C131.7 106.569 131.991 107.43 131.65 108.381C131.33 109.252 130.547 109.911 129.981 109.759L129.576 109.65L129.333 109.585C123.072 125.553 109.991 136.211 99.1103 134.418L99.0019 134.824C98.6825 135.694 97.8994 136.353 97.333 136.201C96.7667 136.049 96.4763 135.189 96.8174 134.237L96.9258 133.831C86.5003 130.335 82.4287 115.069 87.5794 98.7152L87.3367 98.65C86.7704 98.4978 86.48 97.6373 86.8211 96.6856C87.1405 95.815 87.9236 95.1559 88.49 95.308L88.7327 95.3733C94.9785 79.1402 108.308 68.2012 119.285 70.2809ZM124.096 63.3133L124.074 63.3944C123.755 64.265 122.971 64.9241 122.405 64.772C121.839 64.6198 121.548 63.7593 121.889 62.8075L121.911 62.7264C108.161 59.9887 91.4132 73.6611 83.6355 94.0038L83.7164 94.0256C84.2828 94.1777 84.5731 95.0383 84.232 95.99C83.9127 96.8606 83.1295 97.5197 82.5632 97.3675L82.4823 97.3458C75.8806 117.831 80.8809 137.085 94.1381 141.342C94.5167 140.575 95.1756 140.056 95.7419 140.208C96.3083 140.36 96.5394 141.118 96.3226 141.929C109.954 144.461 126.475 130.989 134.269 110.911C133.805 110.7 133.596 109.861 133.893 109.071C134.213 108.201 134.872 107.682 135.379 107.731C142.126 87.0249 137.229 67.7111 124.096 63.3133Z"/><path fill="#F6F9FB" d="M82.5848 97.2866L79.9958 96.5911C72.647 119.223 78.2221 140.544 92.7739 145.149L94.1164 141.424C94.1381 141.343 94.1598 141.261 94.1598 141.261C81.0051 136.945 75.9832 117.771 82.5848 97.2866ZM134.21 110.808C126.416 130.886 109.976 144.38 96.2633 141.827C96.2417 141.908 96.22 141.989 96.1983 142.07L94.8558 145.796C109.944 148.719 128.236 133.81 136.777 111.585L134.35 110.933C134.371 110.852 134.29 110.83 134.21 110.808ZM123.4 58.7792C108.193 55.6503 89.6739 70.7596 81.1274 93.3302L83.7164 94.0258C91.4941 73.6831 108.242 60.0107 121.992 62.7484L123.4 58.7792ZM125.503 59.3444L124.096 63.3136C137.126 67.7707 142.126 87.0252 135.422 107.569C135.503 107.591 135.503 107.591 135.584 107.613L138.011 108.265C145.462 85.5739 139.99 64.1928 125.503 59.3444Z"/><path fill="#C1CDE5" d="M115.192 81.7017C115.511 80.8311 116.273 80.2531 116.839 80.4053C117.405 80.5575 117.615 81.3962 117.376 82.2886C123.551 84.817 125.914 94.1465 122.983 104.141L123.064 104.162C123.63 104.314 123.921 105.175 123.58 106.127C123.26 106.997 122.477 107.656 121.911 107.504L121.749 107.461C117.788 117.091 109.897 123.579 103.165 122.813L103.143 122.894C102.823 123.765 102.04 124.424 101.474 124.272C100.908 124.12 100.617 123.259 100.958 122.308L100.98 122.226C94.6809 119.839 92.1937 110.65 95.1246 100.656C94.5583 100.503 94.3489 99.6646 94.6899 98.7129C95.0093 97.8423 95.6899 97.2426 96.2779 97.3136C100.223 87.4182 108.319 80.8116 115.192 81.7017ZM120.002 74.7341C119.683 75.6047 118.921 76.1827 118.355 76.0305C117.789 75.8784 117.579 75.0396 117.818 74.1472C108.216 72.437 96.6577 81.9391 91.1807 95.9442C91.7471 96.0964 91.9565 96.9352 91.6154 97.8869C91.2961 98.7575 90.6155 99.3572 90.0275 99.2862C85.7048 113.514 89.2233 126.632 98.1924 129.737C98.5493 129.051 99.1865 128.613 99.6719 128.744C100.157 128.874 100.41 129.551 100.318 130.222C109.801 131.726 121.132 122.424 126.647 108.603C126.205 108.31 126.135 107.596 126.433 106.806C126.731 106.017 127.309 105.477 127.838 105.445C132.381 91.3628 128.987 78.1044 120.002 74.7341Z"/><path fill="#fff" d="M90.1092 99.3076L87.5202 98.612C82.3695 114.965 86.4411 130.232 96.8665 133.728L98.1657 130.165C98.2091 130.002 98.2308 129.921 98.355 129.781C89.305 126.654 85.8083 113.455 90.1092 99.3076ZM126.707 108.705C121.192 122.526 109.861 131.829 100.378 130.324C100.334 130.486 100.313 130.567 100.269 130.73L98.9918 134.212C109.851 136.086 122.953 125.347 129.215 109.379L126.869 108.749C126.847 108.83 126.766 108.808 126.707 108.705ZM119.285 70.2806C108.286 68.282 94.9785 79.1399 88.6518 95.3512L91.2408 96.0468C96.7395 81.9606 108.276 72.5396 117.878 74.2498L117.899 74.1687L119.285 70.2806ZM121.389 70.8458L120.003 74.7338L119.981 74.8149C128.907 78.0824 132.28 91.4219 127.795 105.607C127.876 105.628 127.979 105.569 128.059 105.591L130.406 106.221C135.74 89.8301 131.771 74.5045 121.389 70.8458Z"/><path fill="#C1CDE5" d="M111.035 93.3659L111.332 92.5764C111.652 91.7058 112.435 91.0467 113.001 91.1989C113.568 91.351 113.858 92.2115 113.517 93.1633L113.219 93.9528C115.37 95.3132 116.127 98.6466 115.211 102.4L115.454 102.465C116.02 102.617 116.31 103.478 115.969 104.43C115.65 105.3 114.867 105.959 114.3 105.807L113.977 105.72C112.257 108.91 109.6 111.065 107.161 111.106L107.031 111.592C106.712 112.463 105.929 113.122 105.362 112.97C104.796 112.818 104.506 111.957 104.847 111.006L104.977 110.519C102.966 109.283 102.144 106.193 102.812 102.721L102.245 102.568C101.679 102.416 101.389 101.556 101.73 100.604C102.049 99.7334 102.832 99.0743 103.398 99.2265L103.884 99.3569C105.507 95.8803 108.412 93.4439 111.035 93.3659ZM115.889 86.236C115.547 87.1878 114.786 87.7657 114.22 87.6136C113.653 87.4614 113.363 86.6009 113.704 85.6491L113.726 85.568C108.331 84.9881 102.006 90.1578 98.7868 97.9875L98.8677 98.0092C99.434 98.1614 99.7244 99.0219 99.3833 99.9736C99.0639 100.844 98.2808 101.503 97.7144 101.351C95.6116 109.22 97.5239 116.342 102.367 118.338L102.388 118.257C102.708 117.387 103.491 116.728 104.057 116.88C104.624 117.032 104.914 117.892 104.573 118.844C109.828 119.3 115.947 114.249 119.161 106.765C118.594 106.613 118.304 105.752 118.645 104.801C118.964 103.93 119.748 103.271 120.314 103.423C122.579 95.5978 120.688 88.3949 115.889 86.236Z"/><path fill="#F6F9FB" d="M95.1256 100.655C92.2756 110.671 94.6818 119.838 100.981 122.226L102.389 118.257C97.5458 116.26 95.5525 109.117 97.7363 101.27L95.1256 100.655ZM121.75 107.461L119.161 106.765C115.947 114.248 109.849 119.218 104.573 118.844L103.165 122.813C109.817 123.557 117.708 117.069 121.75 107.461ZM115.193 81.7015C108.342 80.7303 100.224 87.4181 96.1979 97.2917L96.2788 97.3135L98.787 97.9873C101.985 90.2387 108.331 84.9879 113.726 85.5678L115.193 81.7015C115.171 81.7826 115.171 81.7826 115.193 81.7015ZM117.377 82.2884C117.356 82.3695 117.356 82.3695 117.377 82.2884L115.97 86.2576C120.769 88.4165 122.579 95.5976 120.395 103.445L122.984 104.14C125.915 94.1463 123.552 84.8168 117.377 82.2884Z"/><path fill="#F9FFEC" d="M110.984 104.916C110.297 105.862 109.433 106.499 108.597 106.709C108.597 106.709 108.597 106.709 108.575 106.79L107.081 111.084C109.52 111.044 112.258 108.91 113.896 105.699L111.146 104.96C111.065 104.938 111.065 104.938 110.984 104.916ZM105.666 103.4C105.563 103.46 105.401 103.416 105.32 103.395L102.731 102.699C102.063 106.171 102.885 109.261 104.896 110.497L106.391 106.204C106.391 106.204 106.391 106.204 106.412 106.122C105.873 105.543 105.626 104.52 105.666 103.4ZM111.035 93.366C108.413 93.444 105.529 95.7993 103.884 99.357L106.554 100.074C106.635 100.096 106.635 100.096 106.716 100.118C107.489 98.8474 108.521 97.9073 109.541 97.6597C109.563 97.5786 109.606 97.4163 109.649 97.2541L111.035 93.366ZM113.22 93.9529L111.812 97.9221C111.769 98.0843 111.747 98.1655 111.623 98.306C112.302 99.0101 112.565 100.298 112.358 101.721L115.19 102.481C116.106 98.7279 115.29 95.2917 113.22 93.9529Z"/><path fill="#fff" d="M111.623 98.3051C111.266 98.9917 110.629 99.4292 110.144 99.2988C109.658 99.1683 109.405 98.4918 109.52 97.74C108.5 97.9876 107.387 98.9059 106.695 100.198C107.137 100.491 107.287 101.227 107.07 102.038C106.794 102.746 106.297 103.308 105.747 103.421C105.708 104.541 105.955 105.564 106.574 106.165C106.894 105.294 107.655 104.717 108.222 104.869C108.788 105.021 108.997 105.86 108.759 106.752C109.595 106.542 110.459 105.905 111.146 104.959C110.601 104.725 110.473 103.908 110.77 103.119C111.09 102.248 111.873 101.589 112.439 101.741L112.52 101.763C112.565 100.297 112.302 99.0092 111.623 98.3051Z"/><path fill="red" d="M131.134 106.417L130.729 106.308C131.296 106.461 131.586 107.321 131.245 108.273C130.926 109.143 130.143 109.802 129.576 109.65L129.981 109.759C130.547 109.911 131.309 109.333 131.65 108.381C131.991 107.43 131.7 106.569 131.134 106.417Z"/><path fill="#fff" d="M145.94 110.394L145.454 110.264L142.865 109.568C142.299 109.416 141.538 109.994 141.197 110.946C140.877 111.816 141.087 112.655 141.631 112.888L144.22 113.584L144.706 113.714C145.272 113.866 146.034 113.288 146.375 112.337C146.797 111.407 146.587 110.568 145.94 110.394Z"/><path fill="#fff" d="M138.254 108.33L138.011 108.265L135.584 107.613C135.503 107.591 135.503 107.591 135.422 107.569C134.834 107.498 134.234 108.119 133.937 108.909C133.639 109.698 133.848 110.537 134.312 110.749C134.393 110.77 134.393 110.77 134.474 110.792L136.901 111.444L137.144 111.51C137.71 111.662 138.472 111.084 138.813 110.132C139.03 109.321 138.82 108.482 138.254 108.33Z"/><path fill="#fff" d="M130.731 106.308L130.488 106.243L128.141 105.613C128.061 105.591 127.98 105.569 127.877 105.629C127.348 105.66 126.77 106.201 126.473 106.99C126.175 107.78 126.325 108.516 126.686 108.786C126.767 108.808 126.826 108.911 126.907 108.933L129.254 109.563L129.496 109.628C130.063 109.781 130.824 109.203 131.165 108.251C131.506 107.299 131.297 106.46 130.731 106.308Z"/><path fill="#fff" d="M122.962 104.221L120.292 103.504C119.726 103.352 118.965 103.93 118.623 104.882C118.304 105.752 118.492 106.672 119.139 106.846L121.728 107.542L121.809 107.563C122.375 107.716 123.137 107.138 123.478 106.186C123.738 105.212 123.529 104.374 122.962 104.221Z"/><path fill="#fff" d="M76.0303 91.9602L73.6031 91.3081L73.3603 91.2429C72.794 91.0907 72.0325 91.6687 71.6915 92.6204C71.3721 93.491 71.5598 94.4109 72.2071 94.5848L72.4498 94.65L74.877 95.3021C74.958 95.3239 74.958 95.3239 75.0389 95.3456C75.6269 95.4166 76.2265 94.7952 76.5242 94.0057C76.8436 93.1351 76.6125 92.3774 76.1487 92.1659C76.1112 91.9819 76.1112 91.9819 76.0303 91.9602Z"/><path fill="#fff" d="M83.7966 94.0471L83.7157 94.0254L81.1267 93.3298L80.9648 93.2863C80.3985 93.1342 79.637 93.7121 79.296 94.6639C78.9766 95.5345 79.1643 96.4544 79.8116 96.6283L79.9734 96.6717L82.5624 97.3673L82.6434 97.389C83.2097 97.5412 83.9712 96.9633 84.3122 96.0115C84.6533 95.0598 84.3629 94.1993 83.7966 94.0471Z"/><path fill="#fff" d="M91.2402 96.0456L88.6512 95.3501L88.4084 95.2849C87.8421 95.1327 87.0806 95.7107 86.7396 96.6624C86.4202 97.533 86.6079 98.4529 87.2552 98.6268L87.4979 98.692L90.006 99.3658C90.006 99.3658 90.006 99.3658 90.087 99.3876C90.675 99.4586 91.3555 98.8589 91.6749 97.9883C92.016 97.0366 91.8065 96.1978 91.2402 96.0456Z"/><path fill="#fff" d="M98.8469 98.0903L96.2579 97.3947L96.1769 97.373C95.5889 97.302 94.9084 97.9017 94.589 98.7723C94.2696 99.6429 94.479 100.482 95.0237 100.715L97.6127 101.411C98.1791 101.563 98.9406 100.985 99.2816 100.033C99.7036 99.103 99.4132 98.2425 98.8469 98.0903Z"/><path fill="#F9FFEC" d="M106.531 100.155L103.862 99.4377L103.376 99.3073C102.81 99.1552 102.048 99.7331 101.707 100.685C101.388 101.555 101.576 102.475 102.223 102.649L102.789 102.801L105.378 103.497C105.459 103.519 105.621 103.562 105.724 103.503C106.274 103.39 106.749 102.909 107.047 102.119C107.345 101.33 107.216 100.513 106.672 100.28C106.612 100.177 106.531 100.155 106.531 100.155Z"/><path fill="#F9FFEC" d="M115.432 102.546L115.189 102.481L112.357 101.72L112.276 101.698C111.71 101.546 110.949 102.124 110.607 103.076C110.288 103.947 110.519 104.704 110.983 104.916C110.983 104.916 111.064 104.938 111.145 104.959L113.896 105.698L114.219 105.785C114.786 105.937 115.547 105.359 115.888 104.408C116.208 103.537 115.998 102.698 115.432 102.546Z"/><path fill="#fff" d="M91.7153 151.386C91.149 151.234 90.3875 151.812 90.0682 152.682L88.6822 156.57L88.4871 157.301C88.1678 158.171 88.3555 159.091 89.0028 159.265C89.5691 159.417 90.3306 158.839 90.6716 157.887L90.9477 157.179L92.3336 153.291C92.3336 153.291 92.3336 153.291 92.3552 153.21C92.572 152.399 92.3626 151.56 91.7153 151.386Z"/><path fill="#fff" d="M95.7633 140.127C95.197 139.975 94.5381 140.494 94.1595 141.261C94.1378 141.342 94.1161 141.424 94.1161 141.424L92.7736 145.149L92.6652 145.555C92.3458 146.426 92.5336 147.346 93.1808 147.519C93.7472 147.672 94.5086 147.094 94.8497 146.142L94.9581 145.736L96.3006 142.01C96.3223 141.929 96.344 141.848 96.3657 141.767C96.5825 140.956 96.3297 140.279 95.7633 140.127Z"/><path fill="#fff" d="M99.8347 128.787C99.3493 128.657 98.7121 129.094 98.3552 129.781C98.3118 129.943 98.2092 130.003 98.1659 130.165L96.8667 133.728L96.7583 134.134C96.4389 135.005 96.6266 135.925 97.2739 136.098C97.8403 136.251 98.6017 135.673 98.9428 134.721L99.0512 134.315L100.329 130.833C100.372 130.671 100.415 130.508 100.437 130.427C100.573 129.594 100.32 128.918 99.8347 128.787Z"/><path fill="#fff" d="M104.058 116.88C103.492 116.728 102.73 117.306 102.389 118.258L102.368 118.339L100.96 122.308L100.938 122.389C100.619 123.26 100.807 124.18 101.454 124.353C102.02 124.506 102.782 123.928 103.123 122.976L103.145 122.895L104.552 118.926C104.915 117.893 104.625 117.032 104.058 116.88Z"/><path fill="#fff" d="M129.27 45.5741C128.704 45.422 127.942 45.9999 127.601 46.9517L127.493 47.3573L126.15 51.0831C126.129 51.1642 126.107 51.2453 126.107 51.2453C125.89 52.0566 126.121 52.8142 126.688 52.9664C127.254 53.1185 127.913 52.6 128.291 51.8322C128.313 51.7511 128.335 51.67 128.335 51.67L129.677 47.9442L129.786 47.5385C130.024 46.6462 129.836 45.7263 129.27 45.5741Z"/><path fill="#fff" d="M125.112 57.2395C124.546 57.0873 123.784 57.6653 123.443 58.617L123.378 58.8604L121.971 62.8296L121.949 62.9107C121.63 63.7813 121.817 64.7012 122.465 64.8751C123.031 65.0272 123.792 64.4493 124.133 63.4976L124.155 63.4164L125.563 59.4473L125.628 59.2039C125.888 58.2304 125.678 57.3916 125.112 57.2395Z"/><path fill="#fff" d="M121.063 68.4978C120.496 68.3456 119.735 68.9236 119.394 69.8753L119.285 70.2809L117.899 74.169L117.878 74.2501C117.558 75.1207 117.768 75.9595 118.415 76.1334C118.981 76.2855 119.743 75.7076 120.062 74.837L120.084 74.7559L121.47 70.8678L121.578 70.4622C121.919 69.5105 121.71 68.6717 121.063 68.4978Z"/><path fill="#fff" d="M116.819 80.4861C116.252 80.3339 115.491 80.9119 115.171 81.7825L115.15 81.8636L113.764 85.7516L113.742 85.8328C113.423 86.7034 113.611 87.6233 114.258 87.7972C114.824 87.9493 115.586 87.3714 115.927 86.4197L115.948 86.3385L117.334 82.4505L117.356 82.3694C117.616 81.3959 117.385 80.6382 116.819 80.4861Z"/><path fill="#F9FFEC" d="M112.979 91.2799C112.412 91.1278 111.651 91.7057 111.31 92.6575L111.012 93.447L109.605 97.4161C109.561 97.5784 109.54 97.6595 109.496 97.8218C109.382 98.5736 109.554 99.2284 110.12 99.3806C110.606 99.511 111.243 99.0735 111.6 98.3869C111.621 98.3058 111.746 98.1653 111.789 98.003L113.197 94.0339L113.494 93.2444C113.755 92.2709 113.545 91.4321 112.979 91.2799Z"/><path fill="#F9FFEC" d="M108.14 104.848C107.573 104.696 106.812 105.274 106.492 106.144C106.492 106.144 106.492 106.144 106.471 106.225L104.976 110.519L104.846 111.006C104.527 111.876 104.715 112.796 105.362 112.97C105.928 113.122 106.69 112.544 107.031 111.593L107.161 111.106L108.655 106.812C108.655 106.812 108.655 106.812 108.677 106.731C108.915 105.839 108.706 105 108.14 104.848Z"/><path fill="#51244E" d="M108.482 102.592L69.8553 134.21L64.6811 138.645C63.1718 132.936 62.5482 126.508 62.7236 119.686L68.2083 117.334L106.465 101.702L108.482 102.592Z" opacity=".5"/><path fill="#51244E" d="M109.525 102.263C109.416 102.669 108.984 102.987 108.499 102.857C108.094 102.748 107.776 102.315 107.906 101.828C108.015 101.423 108.447 101.104 108.932 101.234C109.337 101.343 109.633 101.857 109.525 102.263Z" opacity=".5"/><path fill="#fff" d="M154.663 93.0023L149.283 93.9912L110.194 101.053L110.062 99.2783L144.1 60.1677L148.866 54.6661C151.531 59.2948 153.429 64.8476 154.382 71.0161C155.61 77.7799 155.709 85.197 154.663 93.0023Z" opacity=".5"/><path fill="#143284" d="M39.9731 71.0282C41.2025 71.6194 42.1692 70.9227 42.0898 69.5971L41.9369 66.5999C41.8576 65.2744 40.8073 63.688 39.5562 63.178L28.1831 58.0357C26.9536 57.4446 25.987 58.1413 26.0663 59.4668L26.2192 62.4641C26.2986 63.7896 27.3488 65.376 28.6 65.886L39.9731 71.0282Z"/><path fill="#143284" d="M40.0538 71.0509C41.2833 71.642 41.4277 72.7242 40.3368 73.5614L37.9281 75.4357C36.8372 76.273 35.2667 76.6335 34.2582 76.1887C33.3307 75.7656 32.0203 75.1527 31.4756 74.9195C30.8501 74.6644 29.3995 73.927 28.1701 73.3358L21.7207 70.212C20.4912 69.6208 20.4277 68.5604 21.5779 67.826L24.3911 66.0603C25.5412 65.326 27.4729 65.2363 28.6215 65.8058L40.0538 71.0509Z"/><path fill="#143284" d="M106.819 101.247L26.1602 65.9265C25.6964 65.7149 25.4812 65.2224 25.6921 64.7574C25.9031 64.2924 26.3944 64.0766 26.8581 64.2881L107.517 99.6088C107.981 99.8204 108.196 100.313 107.985 100.778C107.774 101.243 107.283 101.459 106.819 101.247Z"/><path fill="#143284" d="M25.6934 64.7567C25.9044 64.2917 26.3956 64.0759 26.8594 64.2874L107.519 99.6081C107.982 99.8197 108.198 100.312 107.987 100.777L25.6934 64.7567Z"/><path fill="#fff" d="M38.1148 72.7898L32.5434 75.4664L30.3864 74.4521C33.6084 73.7527 38.1148 72.7898 38.1148 72.7898Z"/><path fill="#143284" d="M109.991 102.359C107.417 101.928 103.739 100.766 103.739 100.766L104.248 99.5116L104.924 97.9544C104.924 97.9544 108.267 99.722 110.353 101.326L110.283 101.915L109.991 102.359Z"/><path fill="#143284" d="M110.364 101.939L104.372 99.3733L105.005 97.9783C105.005 97.9783 108.349 99.7459 110.435 101.35L110.364 101.939Z"/><path fill="#14237E" d="M130.564 127.929C130.627 128.685 131.258 129 132.457 128.685C133.656 128.307 134.792 127.426 135.612 126.544C134.665 125.6 133.719 124.656 132.899 123.648C132.331 124.278 131.826 124.971 131.321 125.726C131.069 126.104 130.88 126.481 130.753 126.859C130.564 127.237 130.501 127.615 130.564 127.929Z"/><path fill="#754C29" d="M151.323 121.256C150.881 121.319 150.503 121.382 150.061 121.445C149.051 121.634 147.979 121.949 146.906 121.76C145.833 121.634 145.266 121.005 144.508 120.249C143.31 119.116 142.363 117.794 141.48 116.472L141.417 116.535C140.533 117.101 139.776 117.857 138.956 118.423C136.874 119.934 134.728 121.634 132.962 123.586C133.845 124.593 134.728 125.538 135.675 126.482C136.747 127.552 137.883 128.559 139.019 129.504C140.218 130.511 141.48 131.707 142.994 132.085C144.256 132.4 145.518 132.211 146.78 132.085C147.474 132.022 148.231 132.022 148.925 132.022C149.241 132.022 149.556 132.022 149.809 132.022C150.818 132.085 151.828 132.274 152.837 132.274C153.216 132.274 153.973 132.274 154.162 131.833C154.415 131.204 153.342 130.763 152.963 130.574C152.143 130.196 151.197 130.007 150.25 129.882C149.43 129.756 148.61 129.756 147.853 129.756C148.61 129.441 149.493 129.315 150.313 129.252C151.26 129.189 152.269 129.189 153.153 129.252C153.91 129.315 155.235 129.63 155.929 129.126C156.939 128.371 155.677 127.804 154.919 127.552C155.803 127.552 156.812 128.056 157.633 127.804C158.074 127.615 158.074 127.049 157.759 126.734C157.065 126.104 156.181 125.726 155.298 125.412C153.91 124.845 152.459 124.467 151.007 124.341C150.376 124.278 149.746 124.215 149.115 124.215V124.152C149.682 123.838 150.376 123.586 151.071 123.46C152.017 123.208 153.09 123.145 153.973 123.145C154.604 123.145 155.235 123.145 155.866 123.082C156.118 123.082 156.497 123.019 156.623 122.83C156.876 122.579 156.686 122.201 156.434 122.012C155.866 121.571 155.298 121.382 154.604 121.256C153.531 121.131 152.396 121.131 151.323 121.256Z"/><path fill="#E8EDF8" d="M164.51 83.7333C163.437 90.9104 162.743 98.1505 162.301 105.391C165.961 105.579 169.684 105.831 173.343 105.894L173.407 105.957C173.722 105.579 174.101 105.265 174.605 105.076C176.057 104.572 178.013 105.328 178.77 106.398C182.619 106.587 187.225 106.776 191.011 106.587C191.389 92.6732 190.632 74.4785 195.427 61.5093C191.768 64.7201 187.982 67.9939 183.944 70.5752C181.862 71.8973 179.969 73.4082 177.634 74.2267C174.353 75.4229 170.63 74.6674 167.602 73.3453C167.097 73.0934 166.592 72.8416 166.087 72.5898C165.015 76.1784 165.015 80.0817 164.51 83.7333Z"/><path fill="#000" d="M168.927 17.5028C168.801 17.6916 168.738 17.8805 168.927 18.0694C169.369 18.4471 170.378 18.1953 170.883 18.1323C171.64 18.0694 172.46 18.1323 173.154 18.2583C173.596 18.3842 174.164 18.699 174.669 18.636C174.921 18.636 174.984 18.1953 174.858 18.0064C174.732 17.7546 174.669 17.5657 174.479 17.4398C173.407 16.6843 171.514 16.4325 170.189 16.7473C169.684 16.9362 169.179 17.0621 168.927 17.5028Z"/><path fill="#000" d="M170.883 21.0903C170.252 21.0903 169.684 21.9717 169.684 22.9791C169.684 24.0493 170.189 24.8678 170.883 24.8678C171.577 24.8678 172.082 23.9864 172.082 22.9791C172.019 21.9717 171.514 21.0903 170.883 21.0903Z"/><path fill="#fff" d="M175.173 127.993C175.236 128.938 175.299 129.945 175.489 130.826C176.309 130.826 178.58 130.889 179.338 130.889C178.517 123.964 177.634 117.039 177.192 110.113C177.129 109.861 176.94 109.61 176.624 109.484C176.372 109.358 176.057 109.358 175.804 109.421C175.678 109.421 175.552 109.484 175.489 109.547C175.299 110.743 175.426 112.002 175.363 113.198C175.299 115.968 175.236 118.738 175.236 121.572C175.299 123.586 175.11 125.79 175.173 127.993Z"/><path fill="#fff" d="M175.425 109.546C175.362 109.168 175.047 108.854 174.605 108.854C174.29 108.854 173.911 109.042 173.785 109.294C172.902 115.716 172.838 122.263 171.64 128.685C171.387 130.133 171.261 131.581 170.819 133.029C171.577 133.092 173.659 133.155 174.416 133.029C174.605 132.211 174.984 128.874 175.11 127.93C175.047 125.789 175.173 123.586 175.173 121.508C175.173 118.738 175.236 115.968 175.299 113.135C175.425 112.001 175.299 110.742 175.425 109.546C175.489 109.546 175.489 109.546 175.425 109.546Z"/><path fill="#fff" d="M205.649 52.8843C205.775 52.7584 205.775 52.5695 205.775 52.4436C205.712 52.2547 205.649 52.1918 205.523 52.0658C204.324 51.3733 202.809 51.1844 201.674 50.366C201.043 49.8623 201.421 49.1698 200.917 48.6032C200.033 47.6588 198.582 47.1552 197.446 46.3997C197.446 45.0776 198.393 43.5036 198.897 42.3074C199.781 40.1669 200.538 37.9634 201.295 35.8228C203.504 29.1493 205.333 19.9575 202.809 13.0952C201.926 10.7657 200.412 8.68813 198.897 6.79941C193.156 0.56662 183.502 0.0629575 180.094 0C168.043 0 164.131 13.5359 165.077 23.5461C165.267 22.9795 165.393 22.4129 165.519 21.8462C166.087 19.3279 166.529 16.7467 167.475 14.3543C168.169 12.5285 169.305 10.8287 170.314 9.1918C171.261 7.68082 172.397 6.29575 173.722 5.0366C174.163 4.5959 174.605 4.21816 175.11 3.84041C175.299 3.65154 175.551 3.46266 175.804 3.3997C175.993 3.33674 176.246 3.33675 176.498 3.33675C177.066 3.58858 177.634 3.90337 178.138 4.28111C178.896 4.72181 179.59 5.22547 180.284 5.79209C181.672 6.86236 182.871 8.12152 184.006 9.44362C185.142 10.7657 186.089 12.2138 186.972 13.7247C187.224 14.1025 187.414 14.4802 187.603 14.858C189.496 18.3206 190.758 21.5315 191.073 25.4978C191.2 27.4495 191.326 29.7789 190.884 31.8565C190.316 32.9268 189.559 34.123 188.549 35.6339C186.53 38.6559 183.249 40.8594 179.779 41.8038C177.886 42.3074 176.119 42.6852 174.226 41.9297C172.901 41.3631 171.766 40.4187 170.63 39.5373C169.431 38.53 168.421 37.3967 167.538 36.1376L167.475 36.2006C167.601 37.3338 168.169 38.7818 168.043 39.915C167.917 41.0483 167.16 42.0556 166.655 43.1259C163.311 41.5519 161.859 45.7701 159.335 47.1552C158.957 46.9033 158.578 46.6515 158.137 46.4626C154.603 45.2035 153.657 49.7364 151.322 51.3103C150.944 51.5622 150.439 51.6881 149.934 51.751C149.555 51.814 149.114 51.877 148.798 52.0029C147.789 52.3177 147.095 53.0732 146.779 53.9546C146.527 54.836 146.653 55.7803 147.031 56.5988C147.221 56.4099 147.41 56.284 147.599 56.0951L147.726 55.9692C149.492 57.3543 150.944 59.4319 152.458 61.0688C154.792 63.65 157.443 66.0424 160.156 68.3089C160.976 69.0014 161.796 69.631 162.617 70.2606C163.689 71.079 164.825 71.8345 165.961 72.4641C166.465 72.7159 166.97 73.0307 167.475 73.2196C170.567 74.6046 174.29 75.2971 177.507 74.101C179.842 73.2825 181.798 71.7715 183.817 70.4494C187.855 67.8682 191.641 64.5944 195.301 61.3835C196.5 60.3762 197.635 59.306 198.834 58.2986C200.98 56.4729 203.062 54.3323 205.46 52.8843C205.586 52.9472 205.586 52.9472 205.649 52.8843Z"/><path fill="#000" d="M181.609 18.3207C181.483 18.5095 181.42 18.6984 181.609 18.8873C182.051 19.265 183.06 19.0132 183.565 18.9502C184.322 18.8873 185.142 18.9502 185.836 19.0761C186.278 19.202 186.846 19.5168 187.351 19.4539C187.603 19.4539 187.666 19.0132 187.54 18.8243C187.414 18.5725 187.414 18.4466 187.161 18.2577C186.089 17.5022 184.196 17.2504 182.871 17.5652C182.366 17.6911 181.861 17.88 181.609 18.3207Z"/><path fill="#000" d="M182.745 21.8462C182.114 21.8462 181.546 22.7276 181.546 23.7349C181.546 24.8052 182.05 25.6237 182.745 25.6237C183.375 25.6237 183.943 24.7423 183.943 23.7349C183.88 22.7276 183.375 21.8462 182.745 21.8462Z"/><path fill="#754C29" d="M207.731 121.382C207.479 121.319 207.29 121.193 207.037 121.13C205.586 120.627 203.946 120.375 202.431 120.249C201.043 120.123 199.276 120.123 197.951 120.564C197.447 120.753 196.626 121.319 197.257 121.823C197.888 122.326 198.961 122.326 199.718 122.326C200.664 122.389 201.548 122.515 202.494 122.641C203.315 122.767 204.135 123.082 204.955 123.397C203.63 123.082 202.305 122.956 200.917 122.956C199.907 122.956 198.961 122.893 197.951 123.082C197.194 123.271 196.311 123.46 195.743 123.963C195.238 124.467 195.427 125.034 196.058 125.223C196.248 125.285 196.5 125.285 196.689 125.348C197.005 125.411 197.383 125.411 197.699 125.411L197.762 125.474C197.51 125.6 197.32 125.726 197.131 125.915C196.942 126.104 196.752 126.419 197.005 126.608C197.636 127.237 198.961 127.111 199.781 127.111C201.422 127.174 203.251 127.363 204.766 127.993C204.955 128.056 205.081 128.182 205.271 128.244C203.378 128.056 201.422 128.056 199.592 128.622C199.466 128.685 199.276 128.685 199.15 128.748C198.772 128.874 197.573 129.567 198.204 130.07C198.708 130.448 199.655 130.322 200.286 130.322C201.611 130.322 202.999 130.196 204.387 130.322C205.586 130.448 206.785 131.015 207.794 131.644C207.858 131.707 207.921 131.707 207.984 131.77C209.246 132.526 210.445 133.407 212.022 133.533C214.104 133.722 216.25 132.777 218.079 131.959C219.531 131.329 220.919 130.574 222.307 129.755C223.443 129.126 224.515 128.37 225.588 127.678C224.074 125.411 222.37 123.46 220.351 121.508C219.531 120.69 218.773 119.745 217.764 119.116L217.638 118.99C216.88 119.808 216.06 120.627 215.114 121.319C214.609 121.697 214.041 122.138 213.473 122.452C213.221 122.578 213.032 122.767 212.779 122.893C212.59 122.956 212.337 123.019 212.085 122.956C210.571 122.767 209.183 122.012 207.731 121.382Z"/><path fill="#FDD9C5" d="M240.542 79.5783C235.179 75.9897 228.68 68.8755 223.506 63.9648C221.297 61.8872 219.215 59.4948 216.628 57.795C214.988 56.7247 213.158 55.9063 211.328 55.2137C210.445 54.8989 209.624 54.3953 208.741 54.0175C207.858 53.6398 206.911 53.2621 205.965 52.9473C205.839 52.8843 205.712 52.8843 205.586 52.8214C205.586 52.8843 205.523 52.8843 205.523 52.8843C203.062 54.3323 200.98 56.4729 198.898 58.2987C197.762 59.306 196.563 60.3133 195.364 61.3836C190.569 74.3528 191.389 92.5475 190.948 106.461C190.948 107.217 190.885 107.972 190.885 108.728C190.317 123.586 190.127 138.444 189.433 153.301C189.118 160.542 188.045 168.034 188.234 175.337L212.085 175.211H214.167C213.158 160.982 211.265 145.747 207.984 131.833C207.921 131.77 207.858 131.77 207.795 131.707C206.785 131.077 205.586 130.574 204.387 130.385C203.062 130.259 201.674 130.385 200.286 130.385C199.718 130.385 198.709 130.574 198.204 130.133C197.573 129.629 198.772 128.937 199.15 128.811C199.277 128.748 199.466 128.685 199.592 128.685C201.485 128.118 203.378 128.118 205.271 128.307C205.081 128.244 205.018 128.118 204.766 128.056C203.189 127.426 201.422 127.237 199.781 127.174C198.961 127.174 197.636 127.3 197.005 126.67C196.816 126.482 197.005 126.104 197.131 125.978C197.32 125.789 197.51 125.663 197.762 125.537L197.699 125.474C197.384 125.474 197.005 125.411 196.69 125.411C196.437 125.348 196.248 125.348 196.059 125.285C195.364 125.097 195.238 124.53 195.743 124.026C196.311 123.46 197.194 123.271 197.951 123.145C198.898 122.956 199.907 122.956 200.917 123.019C202.305 123.019 203.63 123.145 204.955 123.46C204.135 123.145 203.315 122.83 202.494 122.704C201.548 122.578 200.665 122.452 199.718 122.389C198.961 122.326 197.888 122.389 197.257 121.886C196.626 121.382 197.447 120.752 197.951 120.627C199.277 120.186 201.043 120.186 202.431 120.312C203.946 120.438 205.586 120.627 207.037 121.193C207.29 121.256 207.479 121.382 207.732 121.445C206.911 117.479 207.353 113.198 207.353 109.168C207.353 100.858 207.353 92.2957 208.678 83.9853C214.104 86.9443 219.909 90.344 225.02 93.7437C228.175 95.8213 231.078 98.2137 234.169 100.291L234.359 100.48C229.5 105.391 226.282 109.735 221.928 114.205C220.414 115.779 219.089 117.542 217.575 119.179L217.701 119.304C218.71 119.934 219.468 120.878 220.288 121.697C222.307 123.586 224.011 125.6 225.525 127.867C225.904 128.496 226.282 129.126 226.661 129.755C227.418 131.077 227.986 132.714 228.112 134.225C228.175 134.603 228.175 135.17 227.923 135.422C230.825 133.659 233.601 131.203 235.999 128.937C238.018 127.048 240.037 125.097 241.867 122.956C243.381 121.193 244.833 119.43 246.284 117.605C249.754 113.072 253.351 109.042 255.244 103.565C256.127 100.921 256.695 97.8989 255.622 95.2547C254.234 92.6734 251.71 90.4699 250.133 88.6441C248.24 86.3147 246.473 83.6075 244.076 81.7188C243.066 80.7745 241.867 80.1449 240.542 79.5783Z"/><path fill="#14237E" d="M228.049 135.422C228.301 135.107 228.238 134.54 228.238 134.225C228.049 132.714 227.481 131.078 226.787 129.755C226.408 129.126 226.03 128.496 225.651 127.867C224.578 128.622 223.506 129.315 222.37 129.944C222.749 130.448 223.127 131.015 223.506 131.518C224.389 132.651 225.146 133.722 226.156 134.729C226.534 135.107 227.039 135.673 227.67 135.673C227.796 135.61 227.923 135.485 228.049 135.422Z"/><path fill="#E1EBFA" d="M173.848 9.44384C170.946 10.3252 168.8 12.7806 167.097 15.4248C167.223 15.11 167.349 14.7952 167.475 14.4804C168.169 12.6547 169.305 10.9548 170.315 9.31793C171.261 7.80695 172.397 6.42189 173.722 5.16274C174.164 4.72204 174.605 4.3443 175.11 3.96655C175.299 3.77768 175.552 3.58881 175.804 3.52585C175.993 3.46289 176.246 3.46289 176.498 3.46289C177.066 3.71472 177.634 4.02951 178.139 4.40725C178.896 4.84795 179.59 5.35161 180.284 5.91823C181.672 6.9885 182.871 8.24765 184.007 9.56976C185.143 10.8919 186.089 12.3399 186.972 13.8509C187.099 14.1027 187.225 14.2916 187.351 14.5434C185.584 13.0324 183.691 11.5214 181.609 10.5141C179.211 9.19201 176.435 8.6254 173.848 9.44384Z"/><path fill="#754C29" d="M164.636 25.4982C164.699 24.8687 164.888 24.2391 165.077 23.6095C165.267 23.0429 165.393 22.4763 165.519 21.9097C166.024 19.7062 166.403 17.5026 167.097 15.3621C168.8 12.7808 170.882 10.3255 173.848 9.38112C176.435 8.56268 179.211 9.12929 181.672 10.3255C183.754 11.3328 185.647 12.8438 187.414 14.3548C187.477 14.4807 187.603 14.6696 187.666 14.7955C189.559 18.2581 190.821 21.469 191.137 25.4353C191.263 27.387 191.389 29.7164 190.947 31.794C190.379 32.8643 189.622 34.0605 188.613 35.5714C186.594 38.5934 183.313 40.7969 179.842 41.7413C177.949 42.2449 176.183 42.6227 174.29 41.8672C172.965 41.3006 171.829 40.3562 170.693 39.4748C169.494 38.4675 168.485 37.3343 167.601 36.0751C166.403 34.3753 165.519 32.5495 165.014 30.5348C164.888 30.0941 164.762 29.6534 164.699 29.2127C164.447 27.9536 164.447 26.7574 164.636 25.4982ZM182.745 25.6871C183.376 25.6871 183.944 24.8057 183.944 23.7984C183.944 22.7281 183.439 21.9097 182.745 21.9097C182.114 21.9097 181.546 22.7911 181.546 23.7984C181.546 24.8057 182.051 25.6871 182.745 25.6871ZM181.609 18.8877C182.051 19.2655 183.06 19.0136 183.565 18.9507C184.322 18.8877 185.142 18.9507 185.836 19.0766C186.278 19.2025 186.846 19.5173 187.351 19.4543C187.603 19.4543 187.666 19.0136 187.54 18.8247C187.414 18.5729 187.414 18.447 187.162 18.2581C186.089 17.5026 184.196 17.2508 182.871 17.5656C182.429 17.6915 181.924 17.8174 181.672 18.2581C181.483 18.51 181.42 18.6988 181.609 18.8877ZM170.882 24.9316C171.513 24.9316 172.081 24.0502 172.081 23.0429C172.081 21.9726 171.576 21.1542 170.882 21.1542C170.188 21.1542 169.684 22.0356 169.684 23.0429C169.684 24.0502 170.188 24.9316 170.882 24.9316ZM168.926 18.0693C169.368 18.447 170.378 18.1952 170.882 18.1322C171.64 18.0693 172.46 18.1322 173.154 18.2581C173.596 18.3841 174.163 18.6988 174.668 18.6359C174.921 18.6359 174.984 18.1952 174.858 18.0063C174.731 17.7545 174.668 17.5656 174.479 17.4397C173.406 16.6842 171.513 16.4324 170.188 16.7472C169.747 16.8731 169.242 16.999 168.99 17.4397C168.8 17.6915 168.737 17.9433 168.926 18.0693Z"/><g style="mix-blend-mode:multiply" opacity=".63"><path fill="#F63A19" d="M168.233 29.0865C166.978 29.0865 165.961 28.2127 165.961 27.1348C165.961 26.0569 166.978 25.1831 168.233 25.1831C169.487 25.1831 170.504 26.0569 170.504 27.1348C170.504 28.2127 169.487 29.0865 168.233 29.0865Z"/></g><g style="mix-blend-mode:multiply" opacity=".63"><path fill="#F63A19" d="M186.342 29.9048C185.088 29.9048 184.071 29.031 184.071 27.9531C184.071 26.8753 185.088 26.0015 186.342 26.0015C187.597 26.0015 188.614 26.8753 188.614 27.9531C188.614 29.031 187.597 29.9048 186.342 29.9048Z"/></g><path fill="#14237E" d="M148.484 83.985C146.465 85.8108 144.509 87.6366 142.553 89.5253C144.761 80.9001 151.323 73.3452 151.323 73.3452C149.809 77.7522 148.547 81.1519 148.484 83.985Z"/><path fill="#FDD9C5" d="M112.644 95.5705C113.212 94.3743 113.843 93.304 114.726 92.2967C115.925 90.7228 117.313 88.897 118.764 86.7564C119.522 85.8121 123.749 80.2718 124.569 79.5163C124.948 79.1386 125.453 78.9497 126.021 78.8868C126.525 78.8238 127.409 78.2572 127.409 78.2572C129.806 75.6759 132.204 73.0947 134.602 70.5134C138.766 65.9175 142.678 60.9439 147.158 56.6628C147.347 56.4739 147.537 56.348 147.726 56.1591L147.852 56.0332C149.619 57.4183 151.07 59.4959 152.584 61.1328C154.919 63.714 157.569 66.1064 160.282 68.3729C161.103 69.0654 161.923 69.695 162.743 70.3245C163.816 71.143 164.952 71.8985 166.087 72.5281C165.141 76.1166 165.141 80.02 164.573 83.7345C163.5 90.9116 162.806 98.1518 162.365 105.392C161.86 113.513 161.67 121.698 161.418 129.819C161.04 141.97 160.472 153.995 160.724 166.146C160.787 169.168 160.661 172.253 160.85 175.338L146.401 175.401H144.697C145.202 159.661 147.347 146.566 149.808 132.086C150.818 132.149 151.827 132.338 152.837 132.338C153.215 132.338 153.973 132.338 154.162 131.897C154.414 131.267 153.342 130.827 152.963 130.638C152.143 130.26 151.196 130.071 150.25 129.945C150.313 129.756 150.313 129.505 150.376 129.316C151.323 129.253 152.332 129.253 153.215 129.316C153.973 129.379 155.298 129.693 155.992 129.19C157.001 128.434 155.739 127.868 154.982 127.616C155.866 127.616 156.875 128.12 157.695 127.868C158.137 127.679 158.137 127.112 157.822 126.797C157.127 126.168 156.244 125.79 155.361 125.475C153.973 124.909 152.521 124.531 151.07 124.405C151.133 124.09 151.133 123.838 151.196 123.524C152.143 123.272 153.215 123.209 154.099 123.209C154.73 123.209 155.361 123.209 155.992 123.146C156.244 123.146 156.623 123.083 156.749 122.894C157.001 122.642 156.812 122.264 156.56 122.076C155.992 121.635 155.424 121.446 154.73 121.32C153.594 121.131 152.521 121.194 151.386 121.257C151.449 120.376 151.575 119.431 151.638 118.55C152.017 113.262 152.395 107.847 151.512 102.622C150.565 96.5149 148.231 90.2191 148.546 83.9863C148.546 81.1532 149.871 77.7535 151.386 73.2835C151.386 73.2835 144.824 80.8385 142.615 89.4636C138.703 93.1152 134.791 96.7667 130.753 100.355L130.69 100.418C131.068 101.048 131.384 101.74 131.51 102.433C132.141 103.188 132.772 103.944 133.34 104.699C135.738 107.784 138.009 111.121 140.154 114.395C140.344 114.71 140.596 115.024 140.785 115.402C141.038 115.78 141.29 116.158 141.542 116.535L141.479 116.598C140.596 117.165 139.839 117.92 139.019 118.487C136.936 119.998 134.791 121.698 133.024 123.65C132.456 124.279 131.952 124.972 131.447 125.727C131.195 126.105 131.005 126.483 130.879 126.86C130.69 127.301 130.627 127.616 130.69 127.931C126.778 123.524 123.118 118.802 119.395 114.206C116.682 110.932 111.508 105.581 111.319 101.048C111.13 99.222 111.887 97.2074 112.644 95.5705Z"/><path fill="#90AB00" d="M176.435 3.52571C176.498 3.52571 176.561 3.46275 176.561 3.46275C176.624 3.39979 176.561 3.27388 176.498 3.27388C175.741 2.89614 174.984 2.58136 174.227 2.39249C173.974 2.32953 173.722 2.26657 173.406 2.20361C173.343 2.20361 173.217 2.26657 173.217 2.32953C173.217 2.39248 173.28 2.5184 173.343 2.5184C173.596 2.58135 173.848 2.64431 174.1 2.70727C174.858 2.9591 175.615 3.21092 176.372 3.58866C176.372 3.52571 176.435 3.52571 176.435 3.52571Z"/><path fill="#90AB00" d="M191.137 31.6049C191.2 31.6049 191.263 31.5419 191.263 31.5419C191.831 30.4087 192.209 29.4014 192.525 28.1422C194.733 19.3911 193.471 13.5361 192.083 10.1364C192.02 10.0734 191.957 10.0105 191.894 10.0734C191.831 10.1364 191.768 10.1994 191.831 10.2623C193.219 13.5991 194.418 19.4541 192.272 28.0793C191.957 29.2755 191.578 30.3457 191.073 31.416C191.01 31.479 191.073 31.6049 191.137 31.6049C191.137 31.6049 191.073 31.6049 191.137 31.6049Z"/><path fill="#90AB00" d="M192.21 23.8609C192.273 23.8609 192.336 23.7979 192.336 23.735C192.462 22.4758 192.147 21.1537 191.894 19.8946C191.831 19.7057 191.831 19.5168 191.768 19.3279C190.885 15.2357 189.055 11.3953 186.594 8.24741C186.531 8.18446 186.468 8.18446 186.405 8.24741C186.342 8.31037 186.342 8.37332 186.405 8.43628C188.866 11.5842 190.632 15.3616 191.516 19.3909C191.579 19.5798 191.579 19.7686 191.642 19.9575C191.894 21.1537 192.21 22.4758 192.084 23.672C192.021 23.7979 192.084 23.8609 192.21 23.8609Z"/><path fill="#90AB00" d="M180.221 57.166C180.221 57.166 180.284 57.1031 180.221 57.166C181.546 56.7253 182.682 55.7809 183.754 54.8995C184.007 54.7107 184.259 54.5218 184.512 54.3329C188.361 51.311 191.389 47.4705 193.976 44.0079C194.292 43.6301 194.544 43.2524 194.86 42.8746C196.058 41.3007 197.32 39.7268 198.078 37.901C198.141 37.838 198.078 37.7121 198.014 37.7121C197.951 37.6492 197.825 37.7121 197.825 37.7751C197.068 39.5379 195.806 41.1748 194.607 42.6858C194.292 43.0635 194.039 43.4413 193.724 43.882C191.2 47.2817 188.171 51.185 184.322 54.144C184.07 54.3329 183.818 54.5218 183.565 54.7107C182.492 55.5921 181.42 56.4735 180.158 56.9142C180.095 56.9142 180.032 57.0401 180.095 57.1031C180.095 57.1031 180.158 57.166 180.221 57.166Z"/><path fill="#90AB00" d="M180.852 47.5326C180.916 47.5326 180.979 47.4697 180.979 47.4067C180.979 47.3438 180.916 47.2178 180.852 47.2178C177.445 46.6512 174.353 43.7552 172.145 41.6776C172.082 41.6146 171.956 41.6146 171.956 41.6776C171.893 41.7405 171.893 41.8665 171.956 41.8665C174.227 44.007 177.319 46.903 180.852 47.5326Z"/><path fill="#90AB00" d="M173.091 64.9723C178.959 64.2168 184.574 60.8171 190.821 54.3324C191.641 53.514 192.398 52.6326 193.092 51.7512C193.976 50.6809 194.922 49.6106 195.932 48.6663C195.995 48.6033 195.995 48.5404 195.932 48.4774C195.869 48.4144 195.806 48.4144 195.743 48.4774C194.733 49.4847 193.786 50.555 192.903 51.6253C192.146 52.5067 191.389 53.3881 190.632 54.2065C184.448 60.6282 178.832 63.9649 173.091 64.7204C173.028 64.7204 172.964 64.7834 172.964 64.9093C172.964 64.9093 173.028 64.9723 173.091 64.9723Z"/><path fill="#90AB00" d="M178.391 61.1941C180.347 61.1941 182.303 60.8794 184.259 60.2498C184.322 60.2498 184.385 60.1239 184.385 60.0609C184.385 59.9979 184.259 59.935 184.196 59.935C177.886 62.0126 171.451 60.6275 166.15 56.0316C164.194 54.3947 162.68 52.3171 161.229 50.3025L160.913 49.8618C160.85 49.7988 160.787 49.7988 160.724 49.7988C160.661 49.8618 160.661 49.9247 160.661 49.9877L160.976 50.4284C162.491 52.443 164.005 54.5206 165.961 56.2205C169.684 59.4943 173.974 61.1941 178.391 61.1941Z"/><path fill="#90AB00" d="M178.644 57.417C178.707 57.417 178.77 57.354 178.77 57.291C178.77 57.2281 178.707 57.1022 178.644 57.1022C173.154 55.906 169.495 50.3028 166.655 45.0143C166.592 44.9514 166.529 44.8884 166.466 44.9514C166.403 45.0143 166.34 45.0773 166.403 45.1402C169.305 50.5546 172.965 56.1578 178.644 57.417C178.581 57.417 178.581 57.417 178.644 57.417Z"/><path fill="#90AB00" d="M161.355 57.6694C161.418 57.6694 161.482 57.6693 161.482 57.6064C161.545 57.5434 161.482 57.4175 161.418 57.4175C160.598 56.9139 159.841 56.2843 159.021 55.7177C156.244 53.6401 153.405 51.4995 149.872 51.6884C149.809 51.6884 149.745 51.7514 149.745 51.8773C149.745 51.9402 149.809 52.0032 149.935 52.0032C153.405 51.8143 156.181 53.9549 158.895 55.9695C159.715 56.5991 160.535 57.1657 161.292 57.7323C161.292 57.6693 161.355 57.6694 161.355 57.6694Z"/><path fill="#14237E" d="M234.232 100.732C234.295 100.732 234.295 100.732 234.358 100.669C234.737 100.292 235.116 99.914 235.494 99.5362C237.45 97.5845 239.217 96.3883 241.11 95.5699C241.173 95.5069 241.236 95.444 241.173 95.381C241.11 95.3181 241.047 95.2551 240.984 95.3181C239.028 96.1365 237.198 97.3957 235.242 99.3473C234.863 99.7251 234.485 100.103 234.106 100.481C234.043 100.544 234.043 100.606 234.106 100.669C234.169 100.732 234.169 100.732 234.232 100.732Z"/><path fill="#754C29" d="M204.893 125.851C204.956 125.851 205.019 125.789 205.019 125.726C205.019 125.663 205.019 125.537 204.893 125.537C202.558 124.844 200.539 124.718 198.772 125.096C198.394 125.159 198.141 125.285 197.889 125.348C197.826 125.411 197.763 125.474 197.826 125.537C197.889 125.6 197.952 125.663 198.015 125.6C198.268 125.474 198.52 125.411 198.899 125.348C200.602 125.033 202.558 125.159 204.893 125.851Z"/><path fill="#14237E" d="M240.605 79.7673C240.669 79.7673 240.732 79.7043 240.732 79.7043C240.795 79.6414 240.732 79.5154 240.669 79.5154C238.334 78.5081 235.684 77.9415 233.349 77.3749C233.097 77.3119 232.781 77.249 232.529 77.186C232.466 77.186 232.34 77.249 232.34 77.3119C232.34 77.3749 232.403 77.5008 232.466 77.5008C232.718 77.5638 233.034 77.6267 233.286 77.6897C235.621 78.1933 238.271 78.76 240.605 79.7673Z"/><path fill="#14237E" d="M229.942 77.1855C230.005 77.1855 230.068 77.1225 230.068 77.0596C230.068 76.9966 230.005 76.9337 229.942 76.9337C227.229 76.8707 224.389 76.6189 221.298 76.1152C221.235 76.1152 221.108 76.1782 221.108 76.2412C221.108 76.3041 221.172 76.43 221.235 76.43C224.389 76.8078 227.229 77.0596 229.942 77.1855Z"/><path fill="#14237E" d="M208.74 79.1374C208.804 79.1374 208.867 79.0744 208.867 79.0115C209.498 73.5971 210.886 68.5605 212.085 64.7831C212.085 64.7201 212.085 64.5942 211.958 64.5942C211.895 64.5942 211.769 64.5942 211.769 64.7202C210.633 68.4976 209.182 73.5342 208.551 79.0115C208.551 79.0115 208.614 79.1374 208.74 79.1374Z"/><path fill="#14237E" d="M235.431 97.5211C235.494 97.5211 235.558 97.5211 235.558 97.4581C237.009 95.3176 238.523 93.0511 240.795 91.2883C240.858 91.2254 240.858 91.1624 240.795 91.0995C240.731 91.0365 240.668 91.0365 240.605 91.0995C238.334 92.8623 236.756 95.1287 235.305 97.3322C235.242 97.3952 235.305 97.5211 235.368 97.5211H235.431Z"/><path fill="#14237E" d="M202.873 118.738H202.937C203 118.675 203 118.612 203 118.549C202.053 117.164 201.17 115.401 200.286 113.071C200.286 113.009 200.16 112.946 200.097 113.008C200.034 113.008 199.971 113.134 200.034 113.197C200.917 115.59 201.801 117.416 202.747 118.801C202.747 118.675 202.81 118.738 202.873 118.738Z"/><path fill="#14237E" d="M198.961 133.785H199.024C200.034 133.155 201.044 132.841 202.305 132.589C202.369 132.589 202.432 132.463 202.432 132.4C202.432 132.337 202.305 132.274 202.242 132.274C200.917 132.526 199.908 132.841 198.835 133.47C198.772 133.533 198.772 133.596 198.772 133.659C198.835 133.785 198.898 133.785 198.961 133.785Z"/><path fill="#14237E" d="M148.483 83.9849C148.547 83.9849 148.61 83.922 148.61 83.859C148.799 80.7112 149.872 77.8151 150.944 74.9821C151.638 73.1563 152.332 71.3305 152.774 69.4418C152.774 69.3788 152.774 69.2529 152.648 69.2529C152.585 69.2529 152.459 69.2529 152.459 69.3788C152.017 71.2676 151.323 73.0933 150.692 74.9191C149.619 77.7522 148.547 80.7112 148.357 83.859C148.357 83.922 148.42 83.9849 148.483 83.9849Z"/><path fill="#000" d="M150.944 124.53C151.007 124.53 151.07 124.467 151.07 124.404C151.134 124.089 151.134 123.837 151.197 123.522C151.197 123.459 151.134 123.333 151.07 123.333C151.007 123.333 150.881 123.396 150.881 123.459C150.818 123.774 150.818 124.026 150.755 124.341C150.818 124.404 150.881 124.53 150.944 124.53Z"/><path fill="#B1C1EA" d="M184.385 105.58C184.449 105.58 184.449 105.58 184.512 105.517C185.963 104.195 186.783 101.929 187.414 100.04C187.54 99.7252 187.603 99.4734 187.73 99.1586C187.73 99.0956 187.73 98.9697 187.667 98.9697C187.603 98.9697 187.477 98.9697 187.477 99.0327C187.351 99.2845 187.288 99.5993 187.162 99.9141C186.531 101.803 185.774 104.006 184.322 105.265C184.259 105.328 184.259 105.391 184.322 105.454C184.322 105.517 184.385 105.58 184.385 105.58Z"/><path fill="#B1C1EA" d="M169.683 104.006H169.747C169.81 103.943 169.873 103.88 169.81 103.817C169.494 103.188 169.116 102.558 168.8 101.991C168.422 101.299 167.98 100.606 167.601 99.8508C167.538 99.7878 167.475 99.7248 167.412 99.7878C167.349 99.8508 167.286 99.9137 167.349 99.9767C167.727 100.732 168.169 101.425 168.548 102.117C168.863 102.684 169.242 103.313 169.557 103.943C169.62 104.006 169.683 104.006 169.683 104.006Z"/><path fill="#B1C1EA" d="M166.465 103.691C166.528 103.691 166.528 103.691 166.592 103.628C166.655 103.565 166.655 103.439 166.592 103.439C166.024 102.999 165.267 102.369 164.699 101.614C164.636 101.551 164.572 101.551 164.509 101.614C164.446 101.677 164.446 101.74 164.509 101.803C165.077 102.558 165.898 103.188 166.402 103.628L166.465 103.691Z"/><path fill="#B1C1EA" d="M173.533 111.75C173.596 111.75 173.66 111.749 173.66 111.687C173.723 111.624 173.66 111.498 173.596 111.498C173.218 111.246 171.514 109.987 173.029 106.776C173.155 106.524 173.281 106.335 173.407 106.146C173.47 106.083 173.47 105.957 173.407 105.957C173.344 105.894 173.218 105.894 173.218 105.957C173.029 106.146 172.902 106.398 172.776 106.65C172.524 107.154 172.082 108.224 172.145 109.357C172.145 110.427 172.587 111.309 173.47 111.812C173.47 111.75 173.47 111.75 173.533 111.75Z"/><path fill="#B1C1EA" d="M178.202 111.749C178.265 111.749 178.265 111.749 178.328 111.686C179.779 109.987 180.031 108.161 179.085 106.587C179.022 106.524 178.959 106.524 178.896 106.524C178.833 106.587 178.833 106.65 178.833 106.713C179.337 107.531 179.968 109.294 178.139 111.435C178.075 111.498 178.075 111.623 178.139 111.623C178.139 111.749 178.202 111.749 178.202 111.749Z"/><path fill="#B1C1EA" d="M175.615 131.455C175.741 131.455 175.804 131.33 175.741 131.267C175.237 129 175.3 126.419 175.363 124.026C175.363 123.208 175.426 122.39 175.426 121.571C175.426 118.99 175.489 116.409 175.552 113.89V113.198C175.552 113.135 175.552 113.009 175.552 112.946C175.552 112.694 175.552 112.379 175.552 112.127C175.552 111.75 175.552 111.372 175.552 110.994C175.552 110.931 175.552 110.868 175.552 110.805C175.552 110.302 175.552 109.861 175.868 109.546C175.931 109.483 176.057 109.483 176.12 109.483H176.183C176.372 109.483 176.499 109.546 176.625 109.609C176.94 109.735 177.13 110.113 177.13 110.491C177.13 110.679 177.13 110.931 177.13 111.12V111.246C177.193 112.505 177.319 113.827 177.445 115.212C177.571 116.472 177.697 117.731 177.824 119.179C177.95 120.375 178.076 121.697 178.265 123.145C178.391 124.467 178.581 125.789 178.707 127.048L179.149 130.952C179.149 131.015 179.212 131.078 179.338 131.078C179.401 131.078 179.464 131.015 179.464 130.889L179.022 126.985C178.896 125.663 178.707 124.341 178.581 123.082C178.391 121.634 178.265 120.375 178.139 119.179C178.013 117.794 177.887 116.472 177.76 115.212C177.634 113.827 177.508 112.505 177.445 111.246V111.12C177.445 110.931 177.445 110.742 177.445 110.554C177.445 110.05 177.193 109.609 176.751 109.357C176.562 109.294 176.372 109.231 176.183 109.231H176.12C175.994 109.231 175.804 109.231 175.678 109.357C175.237 109.735 175.237 110.365 175.237 110.805C175.237 110.868 175.237 110.931 175.237 110.994C175.237 111.372 175.237 111.75 175.237 112.127C175.237 112.379 175.237 112.694 175.237 112.946C175.237 113.009 175.237 113.135 175.237 113.198V113.89C175.174 116.409 175.11 118.99 175.11 121.571C175.11 122.39 175.11 123.208 175.047 124.026C174.984 126.482 174.921 129 175.426 131.33C175.426 131.392 175.489 131.455 175.615 131.455Z"/><path fill="#B1C1EA" d="M173.28 133.281C173.785 133.281 174.289 133.281 174.605 133.218C174.668 133.218 174.731 133.155 174.731 133.029C174.731 132.966 174.668 132.903 174.542 132.903C173.722 133.029 170.756 132.903 170.693 132.903C170.63 132.903 170.567 132.966 170.504 133.029C170.504 133.092 170.567 133.155 170.63 133.218C170.756 133.218 172.144 133.281 173.28 133.281Z"/><path fill="#B1C1EA" d="M174.48 133.344C174.543 133.344 174.606 133.281 174.606 133.218C174.732 132.903 174.921 131.266 175.111 129.818C175.237 128.874 175.363 128.055 175.363 127.804C175.363 127.741 175.3 127.615 175.237 127.615C175.174 127.615 175.047 127.678 175.047 127.741C174.984 127.992 174.921 128.811 174.795 129.755C174.606 131.14 174.416 132.777 174.29 133.092C174.29 133.218 174.353 133.281 174.48 133.344C174.416 133.344 174.48 133.344 174.48 133.344Z"/><path fill="#B1C1EA" d="M179.086 131.015C179.149 131.015 179.275 131.015 179.338 131.015C179.401 131.015 179.464 130.952 179.464 130.889C179.464 130.826 179.401 130.763 179.338 130.763C178.581 130.763 176.183 130.763 175.426 130.7C175.363 130.7 175.3 130.763 175.237 130.826C175.174 130.889 175.3 130.952 175.363 131.015C176.12 131.015 178.202 131.015 179.086 131.015Z"/><path fill="#B1C1EA" d="M180.537 109.105C180.6 109.105 180.6 109.105 180.537 109.105C182.051 108.791 183.628 108.602 185.648 108.413C185.711 108.413 185.774 108.35 185.774 108.224C185.774 108.161 185.711 108.098 185.585 108.098C183.565 108.287 181.988 108.476 180.474 108.791C180.411 108.791 180.347 108.917 180.347 108.98C180.411 109.043 180.474 109.105 180.537 109.105Z"/><path fill="#B1C1EA" d="M188.992 112.19C189.055 112.19 189.118 112.127 189.118 112.064C189.118 112.001 189.055 111.938 188.992 111.938C188.298 111.938 187.603 111.875 186.909 111.812C186.215 111.749 185.458 111.686 184.701 111.686C184.196 111.686 183.628 111.686 183.124 111.686C182.051 111.686 180.915 111.686 179.906 111.561C179.843 111.561 179.716 111.623 179.716 111.686C179.716 111.749 179.779 111.875 179.843 111.875C180.915 112.001 182.051 112.001 183.124 112.001C183.628 112.001 184.196 112.001 184.701 112.001C185.458 112.001 186.152 112.064 186.909 112.127C187.603 112.127 188.298 112.19 188.992 112.19Z"/><path fill="#B1C1EA" d="M172.271 111.498C172.334 111.498 172.397 111.435 172.397 111.372C172.397 111.309 172.334 111.246 172.271 111.183L171.324 111.12C169.116 111.057 166.592 110.931 164.068 110.994C164.005 110.994 163.942 111.057 163.942 111.183C163.942 111.246 164.005 111.309 164.131 111.309C166.655 111.246 169.179 111.309 171.387 111.435L172.271 111.498Z"/><path fill="#B1C1EA" d="M178.77 186.606C178.896 186.606 180.41 211.789 180.41 211.663C180.284 210.026 178.707 182.262 178.517 179.429C177.697 164.949 176.372 140.773 174.101 138.129C174.038 138.066 173.974 138.066 173.911 138.129C173.848 138.192 173.848 138.255 173.911 138.318C176.12 140.899 177.508 165.956 178.265 179.429C178.454 182.325 178.581 184.78 178.707 186.417C178.644 186.543 178.707 186.606 178.77 186.606Z"/><path fill="#14237E" d="M131.447 102.621C131.447 102.621 131.51 102.621 131.447 102.621C131.573 102.621 131.636 102.495 131.573 102.432C130.879 99.6622 128.292 96.8921 126.147 95.507C126.084 95.4441 125.958 95.507 125.958 95.57C125.895 95.6329 125.958 95.7589 126.021 95.7589C128.103 97.1439 130.627 99.8511 131.321 102.495C131.321 102.621 131.384 102.621 131.447 102.621Z"/><path fill="#754C29" d="M155.046 127.804C155.109 127.804 155.172 127.741 155.172 127.678C155.172 127.615 155.172 127.489 155.109 127.489C154.856 127.363 154.604 127.3 154.478 127.237C152.585 126.67 149.745 126.293 147.411 126.922C147.348 126.922 147.285 127.048 147.285 127.111C147.285 127.174 147.411 127.237 147.474 127.237C149.745 126.608 152.522 126.985 154.351 127.552C154.478 127.615 154.73 127.678 155.046 127.804C154.982 127.804 154.982 127.804 155.046 127.804Z"/><path fill="#14237E" d="M131.005 79.0743C133.466 79.0743 136.558 78.5707 139.902 77.6263C139.965 77.6263 140.028 77.5004 140.028 77.4374C140.028 77.3745 139.902 77.3115 139.839 77.3115C136.116 78.3818 132.709 78.8855 130.122 78.7595C130.059 78.7595 129.996 78.8225 129.933 78.8854C129.933 78.9484 129.996 79.0114 130.059 79.0743C130.374 79.0743 130.69 79.0743 131.005 79.0743Z"/><path fill="#000" d="M186.026 22.5387C186.09 22.5387 186.09 22.5387 186.153 22.4758C186.216 22.4128 186.216 22.2869 186.153 22.2869C185.08 21.4054 183.376 21.2166 182.177 21.9091C182.114 21.9721 182.051 22.035 182.114 22.098C182.177 22.161 182.241 22.2239 182.304 22.161C183.376 21.5314 184.954 21.7202 185.9 22.5387C185.963 22.5387 186.026 22.5387 186.026 22.5387Z"/><path fill="#000" d="M174.038 21.9723C174.101 21.9723 174.101 21.9723 174.164 21.9093C174.227 21.8464 174.227 21.7205 174.164 21.7205C173.091 20.839 171.387 20.6502 170.189 21.3427C170.126 21.4057 170.062 21.4686 170.125 21.5316C170.189 21.5945 170.252 21.6575 170.315 21.5946C171.387 20.965 172.965 21.1538 173.911 21.9723C173.911 21.9723 173.974 21.9723 174.038 21.9723Z"/><path fill="#754C29" d="M175.3 29.5899C175.363 29.5899 175.363 29.5899 175.363 29.5899C175.426 29.5269 175.426 29.464 175.363 29.401C175.237 29.2751 175.111 29.0862 174.985 28.8974C174.48 28.2678 173.912 27.5753 173.912 26.8198C173.912 26.1902 174.543 25.6236 175.111 25.1199C175.489 24.8051 175.805 24.5533 175.994 24.2385C176.625 23.3571 176.12 21.5943 175.868 20.8388C175.868 20.7759 175.742 20.7129 175.679 20.7129C175.616 20.7129 175.552 20.8388 175.552 20.9018C175.742 21.4054 176.247 23.2312 175.679 23.9867C175.489 24.2385 175.174 24.5533 174.858 24.8051C174.227 25.3088 173.533 25.9384 173.533 26.6939C173.533 27.5753 174.164 28.3307 174.669 28.9603C174.795 29.1492 174.921 29.2751 175.048 29.401C175.174 29.5899 175.237 29.5899 175.3 29.5899Z"/><g style="mix-blend-mode:multiply" filter="url(#filter0_d)"><mask id="path-103-inside-1" fill="#fff"><path d="M176.31 32.549C176.941 32.549 177.445 32.3601 178.013 32.1712C178.139 32.1083 178.266 32.1083 178.392 32.0453C178.96 31.8564 179.591 31.6676 180.032 31.2269C180.095 31.1639 180.095 31.1009 180.032 31.038C179.969 30.975 179.906 30.975 179.843 31.038C179.401 31.4157 178.897 31.6046 178.329 31.7935C178.202 31.8564 178.076 31.8564 177.95 31.9194C177.382 32.1083 176.814 32.2971 176.183 32.2342C174.921 32.1712 173.912 31.1009 172.965 30.0936C172.902 30.0306 172.839 30.0306 172.776 30.0936C172.713 30.1566 172.713 30.2195 172.776 30.2825C173.786 31.3528 174.858 32.486 176.183 32.549C176.183 32.549 176.246 32.549 176.31 32.549Z"/></mask><path fill="#754C29" d="M176.31 32.549C176.941 32.549 177.445 32.3601 178.013 32.1712C178.139 32.1083 178.266 32.1083 178.392 32.0453C178.96 31.8564 179.591 31.6676 180.032 31.2269C180.095 31.1639 180.095 31.1009 180.032 31.038C179.969 30.975 179.906 30.975 179.843 31.038C179.401 31.4157 178.897 31.6046 178.329 31.7935C178.202 31.8564 178.076 31.8564 177.95 31.9194C177.382 32.1083 176.814 32.2971 176.183 32.2342C174.921 32.1712 173.912 31.1009 172.965 30.0936C172.902 30.0306 172.839 30.0306 172.776 30.0936C172.713 30.1566 172.713 30.2195 172.776 30.2825C173.786 31.3528 174.858 32.486 176.183 32.549C176.183 32.549 176.246 32.549 176.31 32.549Z"/><path fill="#000" d="M178.013 32.1712L178.46 33.066L178.396 33.0977L178.329 33.1201L178.013 32.1712ZM178.392 32.0453L177.945 31.1505L178.009 31.1188L178.076 31.0964L178.392 32.0453ZM179.843 31.038L180.549 31.7459L180.522 31.773L180.493 31.7979L179.843 31.038ZM178.329 31.7935L177.882 30.8986L177.946 30.867L178.013 30.8446L178.329 31.7935ZM177.95 31.9194L178.396 32.8142L178.333 32.8459L178.266 32.8683L177.95 31.9194ZM176.183 32.2342L176.233 31.2354L176.258 31.2367L176.283 31.2391L176.183 32.2342ZM172.965 30.0936L173.672 29.3857L173.683 29.3971L173.694 29.4089L172.965 30.0936ZM172.776 30.2825L173.482 29.5746L173.493 29.5853L173.504 29.5963L172.776 30.2825ZM176.183 32.549L176.231 31.5501L177.183 31.5953V32.549H176.183ZM176.31 31.549C176.745 31.549 177.083 31.4267 177.698 31.2223L178.329 33.1201C177.808 33.2935 177.136 33.549 176.31 33.549V31.549ZM177.567 31.2764C177.742 31.1889 177.909 31.1508 177.96 31.138C178.035 31.1193 177.995 31.1259 177.945 31.1505L178.838 32.9401C178.663 33.0276 178.496 33.0657 178.445 33.0785C178.37 33.0972 178.41 33.0906 178.46 33.066L177.567 31.2764ZM178.076 31.0964C178.723 30.8814 179.087 30.7571 179.326 30.519L180.739 31.9347C180.094 32.578 179.197 32.8314 178.707 32.9942L178.076 31.0964ZM179.326 30.519C179.249 30.5962 179.08 30.8043 179.08 31.1324C179.08 31.4605 179.249 31.6686 179.326 31.7459L180.739 30.3301C180.879 30.4703 181.08 30.7414 181.08 31.1324C181.08 31.5235 180.879 31.7945 180.739 31.9347L179.326 30.519ZM179.326 31.7459C179.404 31.8234 179.611 31.9908 179.938 31.9908C180.264 31.9908 180.472 31.8234 180.549 31.7459L179.137 30.3301C179.277 30.1896 179.548 29.9908 179.938 29.9908C180.327 29.9908 180.598 30.1896 180.739 30.3301L179.326 31.7459ZM180.493 31.7979C179.889 32.3141 179.216 32.5521 178.644 32.7424L178.013 30.8446C178.577 30.6571 178.913 30.5173 179.193 30.278L180.493 31.7979ZM178.775 32.6883C178.6 32.7758 178.433 32.8139 178.381 32.8267C178.306 32.8454 178.347 32.8388 178.396 32.8142L177.504 31.0246C177.679 30.937 177.846 30.899 177.897 30.8862C177.972 30.8675 177.931 30.8741 177.882 30.8986L178.775 32.6883ZM178.266 32.8683C177.727 33.0475 176.96 33.3166 176.084 33.2292L176.283 31.2391C176.669 31.2776 177.038 31.169 177.634 30.9705L178.266 32.8683ZM176.134 33.2329C175.225 33.1876 174.466 32.781 173.851 32.3144C173.244 31.8534 172.698 31.2696 172.237 30.7783L173.694 29.4089C174.179 29.9249 174.611 30.3799 175.061 30.7217C175.503 31.0577 175.88 31.2178 176.233 31.2354L176.134 33.2329ZM172.259 30.8015C172.337 30.879 172.544 31.0464 172.871 31.0464C173.197 31.0464 173.405 30.879 173.482 30.8015L172.07 29.3857C172.211 29.2453 172.481 29.0464 172.871 29.0464C173.26 29.0464 173.531 29.2453 173.672 29.3857L172.259 30.8015ZM173.482 30.8015C173.56 30.7242 173.729 30.5161 173.729 30.188C173.729 29.86 173.56 29.6519 173.482 29.5746L172.07 30.9904C171.929 30.8501 171.729 30.5791 171.729 30.188C171.729 29.797 171.929 29.5259 172.07 29.3857L173.482 30.8015ZM173.504 29.5963C174.02 30.144 174.484 30.631 174.966 30.9969C175.441 31.3576 175.848 31.5319 176.231 31.5501L176.136 33.5478C175.193 33.503 174.402 33.0792 173.757 32.5901C173.119 32.106 172.542 31.4913 172.049 30.9686L173.504 29.5963ZM176.183 32.549C176.183 31.549 176.183 31.549 176.183 31.549C176.183 31.549 176.183 31.549 176.183 31.549C176.183 31.549 176.183 31.549 176.183 31.549C176.183 31.549 176.183 31.549 176.183 31.549C176.183 31.549 176.183 31.549 176.183 31.549C176.183 31.549 176.183 31.549 176.183 31.549C176.183 31.549 176.183 31.549 176.183 31.549C176.183 31.549 176.183 31.549 176.184 31.549C176.184 31.549 176.183 31.549 176.184 31.549C176.185 31.549 176.185 31.549 176.186 31.549C176.187 31.549 176.192 31.549 176.194 31.549C176.202 31.549 176.21 31.549 176.223 31.549C176.242 31.549 176.283 31.549 176.31 31.549V33.549C176.283 33.549 176.242 33.549 176.223 33.549C176.21 33.549 176.202 33.549 176.194 33.549C176.192 33.549 176.187 33.549 176.186 33.549C176.185 33.549 176.185 33.549 176.184 33.549C176.184 33.549 176.184 33.549 176.184 33.549C176.184 33.549 176.184 33.549 176.184 33.549C176.183 33.549 176.183 33.549 176.183 33.549C176.183 33.549 176.183 33.549 176.183 33.549C176.183 33.549 176.183 33.549 176.183 33.549C176.183 33.549 176.183 33.549 176.183 33.549C176.183 33.549 176.183 33.549 176.183 33.549C176.183 33.549 176.183 33.549 176.183 32.549Z" mask="url(#path-103-inside-1)"/></g><path fill="#B1C1EA" d="M180.347 105.202C180.411 105.202 180.411 105.202 180.474 105.14C181.105 104.258 181.546 103.251 181.736 102.181C181.736 102.118 181.672 101.992 181.609 101.992C181.546 101.992 181.42 102.055 181.42 102.118C181.231 103.125 180.852 104.132 180.221 104.951C180.158 105.014 180.158 105.14 180.221 105.14C180.284 105.202 180.347 105.202 180.347 105.202Z"/><path fill="#B1C1EA" d="M170.82 133.533C170.883 133.533 170.946 133.47 170.946 133.407C171.262 132.337 171.451 131.266 171.64 130.196C171.703 129.692 171.766 129.252 171.893 128.748L171.956 128.559C172.145 127.363 172.334 126.104 172.523 124.656C172.65 123.522 172.776 122.263 172.902 120.752C172.965 119.682 173.091 118.675 173.154 117.604L173.218 116.849C173.344 115.401 173.47 114.205 173.533 112.946C173.596 112.253 173.659 111.623 173.722 110.994C173.722 110.868 173.722 110.805 173.785 110.679C173.849 110.175 173.912 109.672 174.101 109.294C174.164 109.168 174.227 109.042 174.353 108.979C174.416 108.916 174.543 108.916 174.669 108.916C174.984 108.916 175.3 109.168 175.3 109.483C175.3 109.546 175.363 109.609 175.489 109.609C175.552 109.609 175.615 109.546 175.615 109.42C175.552 108.979 175.11 108.602 174.669 108.539C174.543 108.539 174.29 108.539 174.164 108.664C174.038 108.79 173.912 108.979 173.849 109.042C173.596 109.483 173.533 110.05 173.47 110.553C173.47 110.679 173.47 110.742 173.407 110.868C173.344 111.498 173.281 112.127 173.218 112.82C173.091 114.016 172.965 115.275 172.902 116.723L172.839 117.479C172.776 118.486 172.65 119.556 172.587 120.626C172.46 122.137 172.334 123.334 172.208 124.53C172.019 125.915 171.829 127.174 171.64 128.37L171.577 128.559C171.514 129.063 171.388 129.503 171.325 130.007C171.135 131.077 171.009 132.148 170.694 133.218C170.631 133.407 170.694 133.47 170.82 133.533Z"/><path fill="#B1C1EA" d="M171.577 108.665C171.641 108.665 171.704 108.602 171.704 108.539C171.704 108.476 171.641 108.35 171.577 108.35L164.511 107.406C164.447 107.406 164.321 107.469 164.321 107.532C164.321 107.595 164.384 107.721 164.447 107.721L171.577 108.665Z"/><path fill="#B1C1EA" d="M186.657 128.37C186.783 128.37 186.846 128.307 186.783 128.181L184.827 113.827C184.827 113.764 184.764 113.701 184.638 113.701C184.575 113.701 184.512 113.764 184.512 113.89L186.405 127.993V128.055L186.468 128.244C186.468 128.307 186.531 128.37 186.657 128.37Z"/><path fill="#B1C1EA" d="M166.151 128.811C166.214 128.811 166.277 128.748 166.277 128.685L168.296 113.639C168.296 113.576 168.233 113.45 168.17 113.45C168.107 113.45 167.981 113.513 167.981 113.576L165.961 128.622C165.961 128.685 166.025 128.811 166.151 128.811Z"/><path fill="#14237E" d="M154.415 120.311C154.478 120.311 154.478 120.311 154.541 120.248C155.74 118.863 156.497 117.164 156.812 115.401C156.812 115.338 156.749 115.212 156.686 115.212C156.623 115.212 156.497 115.275 156.497 115.338C156.181 117.038 155.424 118.675 154.288 120.06C154.225 120.123 154.225 120.248 154.288 120.248C154.351 120.311 154.351 120.311 154.415 120.311Z"/><path fill="#14237E" d="M156.749 136.681H156.812C156.875 136.618 156.875 136.555 156.875 136.492C156.244 135.548 155.424 134.792 154.477 134.163C154.414 134.1 154.288 134.163 154.288 134.226C154.225 134.289 154.288 134.415 154.351 134.415C155.297 134.981 156.054 135.737 156.685 136.618C156.685 136.681 156.685 136.681 156.749 136.681Z"/><path fill="#14237E" d="M158.453 131.267C158.516 131.267 158.579 131.204 158.579 131.204C158.642 131.141 158.579 131.015 158.516 131.015L156.623 130.134C156.56 130.071 156.434 130.133 156.434 130.196C156.37 130.259 156.434 130.385 156.497 130.385L158.39 131.267C158.39 131.267 158.39 131.267 158.453 131.267Z"/><path fill="#B1C1EA" d="M173.595 87.8257C173.658 87.8257 173.658 87.8257 173.595 87.8257C176.308 86.7554 178.769 85.2445 180.915 83.3557C180.978 83.2928 180.978 83.2298 180.915 83.1668C180.851 83.1039 180.788 83.1039 180.725 83.1668C178.58 85.0556 176.182 86.5036 173.532 87.5739C173.469 87.5739 173.406 87.6998 173.469 87.7628C173.469 87.7628 173.532 87.8257 173.595 87.8257Z"/><path fill="#14237E" d="M130.375 97.3953C130.501 97.3953 130.564 97.2694 130.501 97.2064C130.122 95.2547 129.05 93.429 127.472 92.2328C127.409 92.1698 127.283 92.1698 127.283 92.2328C127.22 92.2957 127.22 92.4216 127.283 92.4216C128.797 93.5549 129.87 95.3177 130.185 97.2064C130.248 97.3323 130.312 97.3953 130.375 97.3953Z"/><defs><filter id="filter0_d" width="15.351" height="10.503" x="168.729" y="30.046" color-interpolation-filters="sRGB"><feFlood flood-opacity="0" result="BackgroundImageFix"/><feColorMatrix in="SourceAlpha" type="matrix" values="0 0 0 0 0 0 0 0 0 0 0 0 0 0 0 0 0 0 127 0"/><feOffset dy="4"/><feGaussianBlur stdDeviation="2"/><feColorMatrix type="matrix" values="0 0 0 0 0 0 0 0 0 0 0 0 0 0 0 0 0 0 0.25 0"/><feBlend in2="BackgroundImageFix" mode="normal" result="effect1_dropShadow"/><feBlend in="SourceGraphic" in2="effect1_dropShadow" mode="normal" result="shape"/></filter></defs></svg>