<svg xmlns="http://www.w3.org/2000/svg" width="229" height="260" fill="none" viewBox="0 0 229 260"><path fill="#76A2EF" d="M25.8498 99.392H10.415V176.568H25.8498V99.392Z"/><path fill="#143284" d="M41.2863 99.3921H25.8515V176.568H41.2863V99.3921Z"/><path fill="#A4C1F5" d="M68.0356 73.8369H49.8914V176.058H68.0356V73.8369Z"/><path fill="#76A2EF" d="M82.551 73.8369H68.0356V176.058H82.551V73.8369Z"/><path fill="#76A2EF" d="M106.455 51.9321H91.0202V177.128H106.455V51.9321Z"/><path fill="#A4C1F5" d="M121.888 51.9321H106.454V177.128H121.888V51.9321Z"/><g style="mix-blend-mode:multiply" opacity=".5"><path fill="#DD851B" d="M104.419 95.5263C105.083 96.2745 105.702 96.9787 106.365 97.7269L125.206 77.8338L126.93 81.7508L131.795 68.7234L119.014 74.3129L123.038 75.8092L104.419 95.5263Z"/><path fill="#DD851B" d="M122.906 76.1181L74.9201 126.731L70.807 122.858C70.2321 122.33 69.3033 122.33 68.7284 122.902L62.1829 129.636L60.2369 127.787C59.662 127.215 58.7332 127.259 58.1583 127.831L30.3399 157.187L28.5266 154.942C28.2613 154.634 27.8632 154.414 27.4652 154.414C27.0229 154.414 26.6249 154.546 26.3595 154.854L2.03503 180.513L2.16771 184.65L27.3325 158.067L29.1458 160.312C29.4111 160.62 29.8092 160.84 30.2072 160.84C30.6495 160.84 31.0475 160.708 31.3129 160.4L59.3082 130.868L61.2541 132.717C61.8291 133.245 62.7578 133.245 63.3328 132.673L69.8783 125.939L74.0356 129.812C74.3009 130.076 74.6989 130.208 75.097 130.208C75.495 130.208 75.8488 130.032 76.1142 129.768L124.896 78.2747C124.188 77.5705 123.569 76.8223 122.906 76.1181Z"/></g><path fill="#FD9727" d="M102.34 90.4213C103.003 91.1695 103.622 91.8737 104.286 92.6219L123.126 72.7288L124.851 76.6458L129.716 63.6184L116.934 69.2079L120.959 70.7043L102.34 90.4213Z"/><path fill="#FD9727" d="M120.871 71.0131L72.885 121.67L68.772 117.797C68.197 117.269 67.2683 117.269 66.6933 117.841L60.1479 124.575L58.2019 122.726C57.6269 122.154 56.6982 122.198 56.1233 122.77L28.3049 152.126L26.4916 149.881C26.2262 149.573 25.8282 149.353 25.4302 149.353C24.9879 149.353 24.5899 149.485 24.3245 149.793L0 175.452L0.132679 179.589L25.2975 153.006L27.1108 155.251C27.3761 155.559 27.7742 155.779 28.1722 155.779C28.6145 155.779 29.0125 155.647 29.2779 155.339L57.2731 125.807L59.2191 127.656C59.794 128.184 60.7228 128.184 61.2977 127.612L67.8432 120.878L72.0005 124.751C72.2659 125.015 72.6639 125.147 73.0619 125.147C73.46 125.147 73.8138 124.971 74.0792 124.707L122.861 73.2137C122.153 72.5095 121.49 71.7613 120.871 71.0131Z"/><path fill="#14237E" d="M102.418 127.929C102.482 128.685 103.114 129 104.316 128.685C105.518 128.307 106.657 127.426 107.48 126.544C106.531 125.6 105.582 124.656 104.759 123.648C104.19 124.278 103.684 124.971 103.178 125.726C102.925 126.104 102.735 126.481 102.608 126.859C102.418 127.237 102.355 127.615 102.418 127.929Z"/><path fill="#754C29" d="M123.233 121.256C122.79 121.319 122.41 121.382 121.967 121.445C120.955 121.634 119.88 121.949 118.804 121.76C117.729 121.634 117.159 121.005 116.4 120.249C115.198 119.116 114.249 117.794 113.363 116.472L113.3 116.535C112.414 117.101 111.655 117.857 110.833 118.423C108.745 119.934 106.594 121.634 104.823 123.586C105.708 124.593 106.594 125.538 107.543 126.482C108.618 127.552 109.757 128.559 110.896 129.504C112.098 130.511 113.363 131.707 114.882 132.085C116.147 132.4 117.412 132.211 118.678 132.085C119.374 132.022 120.133 132.022 120.829 132.022C121.145 132.022 121.461 132.022 121.714 132.022C122.727 132.085 123.739 132.274 124.751 132.274C125.131 132.274 125.89 132.274 126.08 131.833C126.333 131.204 125.257 130.763 124.878 130.574C124.055 130.196 123.106 130.007 122.157 129.882C121.335 129.756 120.512 129.756 119.753 129.756C120.512 129.441 121.398 129.315 122.22 129.252C123.169 129.189 124.182 129.189 125.067 129.252C125.827 129.315 127.155 129.63 127.851 129.126C128.863 128.371 127.598 127.804 126.839 127.552C127.725 127.552 128.737 128.056 129.559 127.804C130.002 127.615 130.002 127.049 129.686 126.734C128.99 126.104 128.104 125.726 127.218 125.412C125.827 124.845 124.372 124.467 122.916 124.341C122.284 124.278 121.651 124.215 121.018 124.215V124.152C121.588 123.838 122.284 123.586 122.98 123.46C123.929 123.208 125.004 123.145 125.89 123.145C126.523 123.145 127.155 123.145 127.788 123.082C128.041 123.082 128.42 123.019 128.547 122.83C128.8 122.579 128.61 122.201 128.357 122.012C127.788 121.571 127.218 121.382 126.523 121.256C125.447 121.131 124.308 121.131 123.233 121.256Z"/><path fill="#E8EDF8" d="M136.455 83.7333C135.379 90.9104 134.683 98.1505 134.24 105.391C137.91 105.579 141.642 105.831 145.312 105.894L145.375 105.957C145.691 105.579 146.071 105.265 146.577 105.076C148.032 104.572 149.993 105.328 150.752 106.398C154.612 106.587 159.23 106.776 163.026 106.587C163.406 92.6732 162.646 74.4785 167.454 61.5093C163.785 64.7201 159.989 67.9939 155.94 70.5752C153.852 71.8973 151.955 73.4082 149.614 74.2267C146.324 75.4229 142.591 74.6674 139.555 73.3453C139.048 73.0934 138.542 72.8416 138.036 72.5898C136.961 76.1784 136.961 80.0817 136.455 83.7333Z"/><path fill="#000" d="M140.883 17.5028C140.757 17.6916 140.694 17.8805 140.883 18.0694C141.326 18.4471 142.339 18.1953 142.845 18.1323C143.604 18.0694 144.426 18.1323 145.122 18.2583C145.565 18.3842 146.134 18.699 146.641 18.636C146.894 18.636 146.957 18.1953 146.83 18.0064C146.704 17.7546 146.641 17.5657 146.451 17.4398C145.375 16.6843 143.477 16.4325 142.149 16.7473C141.643 16.9362 141.137 17.0621 140.883 17.5028Z"/><path fill="#000" d="M142.845 21.0903C142.212 21.0903 141.643 21.9717 141.643 22.9791C141.643 24.0493 142.149 24.8678 142.845 24.8678C143.541 24.8678 144.047 23.9864 144.047 22.9791C143.983 21.9717 143.477 21.0903 142.845 21.0903Z"/><path fill="#fff" d="M147.146 127.993C147.21 128.938 147.273 129.945 147.463 130.826C148.285 130.826 150.563 130.889 151.322 130.889C150.499 123.964 149.614 117.039 149.171 110.113C149.107 109.861 148.918 109.61 148.601 109.484C148.348 109.358 148.032 109.358 147.779 109.421C147.652 109.421 147.526 109.484 147.463 109.547C147.273 110.743 147.399 112.002 147.336 113.198C147.273 115.968 147.21 118.738 147.21 121.572C147.273 123.586 147.083 125.79 147.146 127.993Z"/><path fill="#fff" d="M147.399 109.546C147.336 109.168 147.02 108.854 146.577 108.854C146.26 108.854 145.881 109.042 145.754 109.294C144.869 115.716 144.805 122.263 143.603 128.685C143.35 130.133 143.224 131.581 142.781 133.029C143.54 133.092 145.628 133.155 146.387 133.029C146.577 132.211 146.956 128.874 147.083 127.93C147.02 125.789 147.146 123.586 147.146 121.508C147.146 118.738 147.209 115.968 147.273 113.135C147.399 112.001 147.273 110.742 147.399 109.546C147.463 109.546 147.463 109.546 147.399 109.546Z"/><path fill="#fff" d="M177.703 52.8843C177.829 52.7584 177.829 52.5695 177.829 52.4436C177.766 52.2547 177.703 52.1918 177.576 52.0658C176.374 51.3733 174.856 51.1844 173.717 50.366C173.085 49.8623 173.464 49.1698 172.958 48.6032C172.072 47.6588 170.617 47.1552 169.478 46.3997C169.478 45.0776 170.427 43.5036 170.934 42.3074C171.819 40.1669 172.578 37.9634 173.338 35.8228C175.552 29.1493 177.387 19.9575 174.856 13.0952C173.97 10.7657 172.452 8.68813 170.934 6.79941C165.176 0.56662 155.497 0.0629575 152.081 0C139.997 0 136.075 13.5359 137.024 23.5461C137.213 22.9795 137.34 22.4129 137.466 21.8462C138.036 19.3279 138.479 16.7467 139.428 14.3543C140.124 12.5285 141.262 10.8287 142.275 9.1918C143.223 7.68082 144.362 6.29575 145.691 5.0366C146.134 4.5959 146.577 4.21816 147.083 3.84041C147.272 3.65154 147.526 3.46266 147.779 3.3997C147.968 3.33674 148.221 3.33675 148.474 3.33675C149.044 3.58858 149.613 3.90337 150.119 4.28111C150.879 4.72181 151.574 5.22547 152.27 5.79209C153.662 6.86236 154.864 8.12152 156.003 9.44362C157.142 10.7657 158.091 12.2138 158.976 13.7247C159.23 14.1025 159.419 14.4802 159.609 14.858C161.507 18.3206 162.772 21.5315 163.089 25.4978C163.215 27.4495 163.342 29.7789 162.899 31.8565C162.33 32.9268 161.57 34.123 160.558 35.6339C158.534 38.6559 155.244 40.8594 151.764 41.8038C149.866 42.3074 148.095 42.6852 146.197 41.9297C144.868 41.3631 143.73 40.4187 142.591 39.5373C141.389 38.53 140.377 37.3967 139.491 36.1376L139.428 36.2006C139.554 37.3338 140.124 38.7818 139.997 39.915C139.87 41.0483 139.111 42.0556 138.605 43.1259C135.252 41.5519 133.797 45.7701 131.266 47.1552C130.887 46.9033 130.507 46.6515 130.064 46.4626C126.522 45.2035 125.573 49.7364 123.232 51.3103C122.852 51.5622 122.346 51.6881 121.84 51.751C121.46 51.814 121.017 51.877 120.701 52.0029C119.689 52.3177 118.993 53.0732 118.677 53.9546C118.424 54.836 118.55 55.7803 118.93 56.5988C119.12 56.4099 119.309 56.284 119.499 56.0951L119.626 55.9692C121.397 57.3543 122.852 59.4319 124.371 61.0688C126.711 63.65 129.368 66.0424 132.089 68.3089C132.911 69.0014 133.734 69.631 134.556 70.2606C135.632 71.079 136.77 71.8345 137.909 72.4641C138.415 72.7159 138.921 73.0307 139.428 73.2196C142.528 74.6046 146.26 75.2971 149.487 74.101C151.828 73.2825 153.789 71.7715 155.813 70.4494C159.862 67.8682 163.658 64.5944 167.327 61.3835C168.53 60.3762 169.668 59.306 170.87 58.2986C173.021 56.4729 175.109 54.3323 177.513 52.8843C177.64 52.9472 177.64 52.9472 177.703 52.8843Z"/><path fill="#000" d="M153.599 18.3207C153.473 18.5095 153.409 18.6984 153.599 18.8873C154.042 19.265 155.054 19.0132 155.56 18.9502C156.32 18.8873 157.142 18.9502 157.838 19.0761C158.281 19.202 158.85 19.5168 159.356 19.4539C159.609 19.4539 159.673 19.0132 159.546 18.8243C159.42 18.5725 159.42 18.4466 159.166 18.2577C158.091 17.5022 156.193 17.2504 154.864 17.5652C154.358 17.6911 153.852 17.88 153.599 18.3207Z"/><path fill="#000" d="M154.738 21.8462C154.105 21.8462 153.536 22.7276 153.536 23.7349C153.536 24.8052 154.042 25.6237 154.738 25.6237C155.37 25.6237 155.94 24.7423 155.94 23.7349C155.876 22.7276 155.37 21.8462 154.738 21.8462Z"/><path fill="#754C29" d="M179.791 121.382C179.538 121.319 179.348 121.193 179.095 121.13C177.64 120.627 175.995 120.375 174.477 120.249C173.085 120.123 171.314 120.123 169.985 120.564C169.479 120.753 168.656 121.319 169.289 121.823C169.922 122.326 170.997 122.326 171.756 122.326C172.705 122.389 173.591 122.515 174.54 122.641C175.363 122.767 176.185 123.082 177.007 123.397C175.679 123.082 174.35 122.956 172.958 122.956C171.946 122.956 170.997 122.893 169.985 123.082C169.226 123.271 168.34 123.46 167.771 123.963C167.265 124.467 167.454 125.034 168.087 125.223C168.277 125.285 168.53 125.285 168.72 125.348C169.036 125.411 169.416 125.411 169.732 125.411L169.795 125.474C169.542 125.6 169.352 125.726 169.163 125.915C168.973 126.104 168.783 126.419 169.036 126.608C169.669 127.237 170.997 127.111 171.82 127.111C173.465 127.174 175.299 127.363 176.818 127.993C177.007 128.056 177.134 128.182 177.324 128.244C175.426 128.056 173.465 128.056 171.63 128.622C171.503 128.685 171.314 128.685 171.187 128.748C170.807 128.874 169.605 129.567 170.238 130.07C170.744 130.448 171.693 130.322 172.326 130.322C173.654 130.322 175.046 130.196 176.438 130.322C177.64 130.448 178.842 131.015 179.854 131.644C179.918 131.707 179.981 131.707 180.044 131.77C181.309 132.526 182.512 133.407 184.093 133.533C186.181 133.722 188.332 132.777 190.167 131.959C191.622 131.329 193.014 130.574 194.405 129.755C195.544 129.126 196.62 128.37 197.695 127.678C196.177 125.411 194.469 123.46 192.444 121.508C191.622 120.69 190.863 119.745 189.85 119.116L189.724 118.99C188.965 119.808 188.142 120.627 187.193 121.319C186.687 121.697 186.118 122.138 185.548 122.452C185.295 122.578 185.105 122.767 184.852 122.893C184.663 122.956 184.409 123.019 184.156 122.956C182.638 122.767 181.246 122.012 179.791 121.382Z"/><path fill="#FDD9C5" d="M212.689 79.5783C207.312 75.9897 200.795 68.8755 195.607 63.9648C193.393 61.8872 191.305 59.4948 188.712 57.795C187.067 56.7247 185.232 55.9063 183.397 55.2137C182.512 54.8989 181.689 54.3953 180.803 54.0175C179.918 53.6398 178.969 53.2621 178.02 52.9473C177.893 52.8843 177.767 52.8843 177.64 52.8214C177.64 52.8843 177.577 52.8843 177.577 52.8843C175.11 54.3323 173.022 56.4729 170.934 58.2987C169.795 59.306 168.593 60.3133 167.391 61.3836C162.583 74.3528 163.406 92.5475 162.963 106.461C162.963 107.217 162.899 107.972 162.899 108.728C162.33 123.586 162.14 138.444 161.444 153.301C161.128 160.542 160.053 168.034 160.242 175.337L184.157 175.211H186.244C185.232 160.982 183.334 145.747 180.044 131.833C179.981 131.77 179.918 131.77 179.854 131.707C178.842 131.077 177.64 130.574 176.438 130.385C175.11 130.259 173.718 130.385 172.326 130.385C171.757 130.385 170.744 130.574 170.238 130.133C169.606 129.629 170.808 128.937 171.187 128.811C171.314 128.748 171.503 128.685 171.63 128.685C173.528 128.118 175.426 128.118 177.324 128.307C177.134 128.244 177.071 128.118 176.818 128.056C175.236 127.426 173.465 127.237 171.82 127.174C170.997 127.174 169.669 127.3 169.036 126.67C168.846 126.482 169.036 126.104 169.163 125.978C169.352 125.789 169.542 125.663 169.795 125.537L169.732 125.474C169.416 125.474 169.036 125.411 168.72 125.411C168.467 125.348 168.277 125.348 168.087 125.285C167.391 125.097 167.265 124.53 167.771 124.026C168.34 123.46 169.226 123.271 169.985 123.145C170.934 122.956 171.946 122.956 172.959 123.019C174.35 123.019 175.679 123.145 177.008 123.46C176.185 123.145 175.363 122.83 174.54 122.704C173.591 122.578 172.706 122.452 171.757 122.389C170.997 122.326 169.922 122.389 169.289 121.886C168.657 121.382 169.479 120.752 169.985 120.627C171.314 120.186 173.085 120.186 174.477 120.312C175.995 120.438 177.64 120.627 179.095 121.193C179.348 121.256 179.538 121.382 179.791 121.445C178.969 117.479 179.412 113.198 179.412 109.168C179.412 100.858 179.412 92.2957 180.74 83.9853C186.181 86.9443 192.001 90.344 197.126 93.7437C200.289 95.8213 203.199 98.2137 206.299 100.291L206.489 100.48C201.618 105.391 198.391 109.735 194.026 114.205C192.507 115.779 191.179 117.542 189.661 119.179L189.787 119.304C190.799 119.934 191.559 120.878 192.381 121.697C194.405 123.586 196.114 125.6 197.632 127.867C198.012 128.496 198.391 129.126 198.771 129.755C199.53 131.077 200.099 132.714 200.226 134.225C200.289 134.603 200.289 135.17 200.036 135.422C202.946 133.659 205.73 131.203 208.134 128.937C210.158 127.048 212.183 125.097 214.018 122.956C215.536 121.193 216.991 119.43 218.446 117.605C221.926 113.072 225.532 109.042 227.43 103.565C228.316 100.921 228.885 97.8989 227.809 95.2547C226.418 92.6734 223.887 90.4699 222.305 88.6441C220.407 86.3147 218.636 83.6075 216.232 81.7188C215.22 80.7745 214.018 80.1449 212.689 79.5783Z"/><path fill="#14237E" d="M200.163 135.422C200.416 135.107 200.352 134.54 200.352 134.225C200.163 132.714 199.593 131.078 198.897 129.755C198.518 129.126 198.138 128.496 197.759 127.867C196.683 128.622 195.608 129.315 194.469 129.944C194.848 130.448 195.228 131.015 195.608 131.518C196.493 132.651 197.252 133.722 198.265 134.729C198.644 135.107 199.15 135.673 199.783 135.673C199.91 135.61 200.036 135.485 200.163 135.422Z"/><path fill="#E1EBFA" d="M145.818 9.44384C142.908 10.3252 140.757 12.7806 139.049 15.4248C139.175 15.11 139.302 14.7952 139.428 14.4804C140.124 12.6547 141.263 10.9548 142.275 9.31793C143.224 7.80695 144.363 6.42189 145.692 5.16274C146.134 4.72204 146.577 4.3443 147.083 3.96655C147.273 3.77768 147.526 3.58881 147.779 3.52585C147.969 3.46289 148.222 3.46289 148.475 3.46289C149.045 3.71472 149.614 4.02951 150.12 4.40725C150.879 4.84795 151.575 5.35161 152.271 5.91823C153.663 6.9885 154.865 8.24765 156.004 9.56976C157.143 10.8919 158.092 12.3399 158.977 13.8509C159.104 14.1027 159.23 14.2916 159.357 14.5434C157.585 13.0324 155.687 11.5214 153.6 10.5141C151.196 9.19201 148.412 8.6254 145.818 9.44384Z"/><path fill="#754C29" d="M136.581 25.4982C136.644 24.8687 136.834 24.2391 137.024 23.6095C137.214 23.0429 137.34 22.4763 137.467 21.9097C137.973 19.7062 138.352 17.5026 139.048 15.3621C140.756 12.7808 142.844 10.3255 145.818 9.38112C148.412 8.56268 151.195 9.12929 153.663 10.3255C155.75 11.3328 157.648 12.8438 159.42 14.3548C159.483 14.4807 159.609 14.6696 159.673 14.7955C161.571 18.2581 162.836 21.469 163.152 25.4353C163.279 27.387 163.405 29.7164 162.963 31.794C162.393 32.8643 161.634 34.0605 160.622 35.5714C158.597 38.5934 155.307 40.7969 151.828 41.7413C149.93 42.2449 148.158 42.6227 146.261 41.8672C144.932 41.3006 143.793 40.3562 142.654 39.4748C141.452 38.4675 140.44 37.3343 139.554 36.0751C138.352 34.3753 137.467 32.5495 136.961 30.5348C136.834 30.0941 136.708 29.6534 136.644 29.2127C136.391 27.9536 136.391 26.7574 136.581 25.4982ZM154.738 25.6871C155.371 25.6871 155.94 24.8057 155.94 23.7984C155.94 22.7281 155.434 21.9097 154.738 21.9097C154.105 21.9097 153.536 22.7911 153.536 23.7984C153.536 24.8057 154.042 25.6871 154.738 25.6871ZM153.599 18.8877C154.042 19.2655 155.054 19.0136 155.561 18.9507C156.32 18.8877 157.142 18.9507 157.838 19.0766C158.281 19.2025 158.85 19.5173 159.356 19.4543C159.609 19.4543 159.673 19.0136 159.546 18.8247C159.42 18.5729 159.42 18.447 159.167 18.2581C158.091 17.5026 156.193 17.2508 154.865 17.5656C154.422 17.6915 153.916 17.8174 153.663 18.2581C153.473 18.51 153.409 18.6988 153.599 18.8877ZM142.844 24.9316C143.477 24.9316 144.046 24.0502 144.046 23.0429C144.046 21.9726 143.54 21.1542 142.844 21.1542C142.148 21.1542 141.642 22.0356 141.642 23.0429C141.642 24.0502 142.148 24.9316 142.844 24.9316ZM140.883 18.0693C141.326 18.447 142.338 18.1952 142.844 18.1322C143.603 18.0693 144.426 18.1322 145.122 18.2581C145.565 18.3841 146.134 18.6988 146.64 18.6359C146.893 18.6359 146.956 18.1952 146.83 18.0063C146.703 17.7545 146.64 17.5656 146.45 17.4397C145.375 16.6842 143.477 16.4324 142.148 16.7472C141.705 16.8731 141.199 16.999 140.946 17.4397C140.756 17.6915 140.693 17.9433 140.883 18.0693Z"/><g style="mix-blend-mode:multiply" opacity=".63"><path fill="#F63A19" d="M140.188 29.0865C138.93 29.0865 137.91 28.2127 137.91 27.1348C137.91 26.0569 138.93 25.1831 140.188 25.1831C141.445 25.1831 142.465 26.0569 142.465 27.1348C142.465 28.2127 141.445 29.0865 140.188 29.0865Z"/></g><g style="mix-blend-mode:multiply" opacity=".63"><path fill="#F63A19" d="M158.345 29.9048C157.087 29.9048 156.068 29.031 156.068 27.9531C156.068 26.8753 157.087 26.0015 158.345 26.0015C159.603 26.0015 160.623 26.8753 160.623 27.9531C160.623 29.031 159.603 29.9048 158.345 29.9048Z"/></g><path fill="#14237E" d="M120.386 83.985C118.361 85.8108 116.4 87.6366 114.439 89.5253C116.653 80.9001 123.233 73.3452 123.233 73.3452C121.714 77.7522 120.449 81.1519 120.386 83.985Z"/><path fill="#FDD9C5" d="M84.4508 95.5705C85.0202 94.3743 85.6528 93.304 86.5385 92.2967C87.7406 90.7228 89.1324 88.897 90.5875 86.7564C91.3467 85.8121 95.5854 80.2718 96.4079 79.5163C96.7875 79.1386 97.2936 78.9497 97.863 78.8868C98.3691 78.8238 99.2548 78.2572 99.2548 78.2572C101.659 75.6759 104.063 73.0947 106.467 70.5134C110.643 65.9175 114.565 60.9439 119.057 56.6628C119.247 56.4739 119.436 56.348 119.626 56.1591L119.753 56.0332C121.524 57.4183 122.979 59.4959 124.498 61.1328C126.838 63.714 129.495 66.1064 132.216 68.3729C133.038 69.0654 133.861 69.695 134.683 70.3245C135.759 71.143 136.897 71.8985 138.036 72.5281C137.087 76.1166 137.087 80.02 136.518 83.7345C135.442 90.9116 134.746 98.1518 134.304 105.392C133.798 113.513 133.608 121.698 133.355 129.819C132.975 141.97 132.406 153.995 132.659 166.146C132.722 169.168 132.595 172.253 132.785 175.338L118.298 175.401H116.589C117.096 159.661 119.247 146.566 121.714 132.086C122.726 132.149 123.738 132.338 124.751 132.338C125.13 132.338 125.889 132.338 126.079 131.897C126.332 131.267 125.257 130.827 124.877 130.638C124.055 130.26 123.106 130.071 122.157 129.945C122.22 129.756 122.22 129.505 122.283 129.316C123.232 129.253 124.244 129.253 125.13 129.316C125.889 129.379 127.218 129.693 127.914 129.19C128.926 128.434 127.661 127.868 126.902 127.616C127.787 127.616 128.8 128.12 129.622 127.868C130.065 127.679 130.065 127.112 129.749 126.797C129.053 126.168 128.167 125.79 127.281 125.475C125.889 124.909 124.434 124.531 122.979 124.405C123.042 124.09 123.042 123.838 123.106 123.524C124.055 123.272 125.13 123.209 126.016 123.209C126.649 123.209 127.281 123.209 127.914 123.146C128.167 123.146 128.546 123.083 128.673 122.894C128.926 122.642 128.736 122.264 128.483 122.076C127.914 121.635 127.344 121.446 126.649 121.32C125.51 121.131 124.434 121.194 123.296 121.257C123.359 120.376 123.485 119.431 123.549 118.55C123.928 113.262 124.308 107.847 123.422 102.622C122.473 96.5149 120.132 90.2191 120.449 83.9863C120.449 81.1532 121.777 77.7535 123.296 73.2835C123.296 73.2835 116.716 80.8385 114.502 89.4636C110.579 93.1152 106.657 96.7667 102.608 100.355L102.545 100.418C102.924 101.048 103.24 101.74 103.367 102.433C104 103.188 104.632 103.944 105.202 104.699C107.606 107.784 109.883 111.121 112.034 114.395C112.224 114.71 112.477 115.024 112.667 115.402C112.92 115.78 113.173 116.158 113.426 116.535L113.363 116.598C112.477 117.165 111.718 117.92 110.896 118.487C108.808 119.998 106.657 121.698 104.885 123.65C104.316 124.279 103.81 124.972 103.304 125.727C103.051 126.105 102.861 126.483 102.734 126.86C102.545 127.301 102.481 127.616 102.545 127.931C98.6221 123.524 94.9528 118.802 91.2201 114.206C88.4997 110.932 83.312 105.581 83.1222 101.048C82.9324 99.222 83.6916 97.2074 84.4508 95.5705Z"/><path fill="#90AB00" d="M148.412 3.52571C148.475 3.52571 148.538 3.46275 148.538 3.46275C148.601 3.39979 148.538 3.27388 148.475 3.27388C147.716 2.89614 146.956 2.58136 146.197 2.39249C145.944 2.32953 145.691 2.26657 145.375 2.20361C145.312 2.20361 145.185 2.26657 145.185 2.32953C145.185 2.39248 145.248 2.5184 145.312 2.5184C145.565 2.58135 145.818 2.64431 146.071 2.70727C146.83 2.9591 147.589 3.21092 148.348 3.58866C148.348 3.52571 148.412 3.52571 148.412 3.52571Z"/><path fill="#90AB00" d="M163.152 31.6049C163.216 31.6049 163.279 31.5419 163.279 31.5419C163.848 30.4087 164.228 29.4014 164.544 28.1422C166.758 19.3911 165.493 13.5361 164.101 10.1364C164.038 10.0734 163.975 10.0105 163.911 10.0734C163.848 10.1364 163.785 10.1994 163.848 10.2623C165.24 13.5991 166.442 19.4541 164.291 28.0793C163.975 29.2755 163.595 30.3457 163.089 31.416C163.026 31.479 163.089 31.6049 163.152 31.6049C163.152 31.6049 163.089 31.6049 163.152 31.6049Z"/><path fill="#90AB00" d="M164.228 23.8609C164.291 23.8609 164.355 23.7979 164.355 23.735C164.481 22.4758 164.165 21.1537 163.912 19.8946C163.849 19.7057 163.849 19.5168 163.785 19.3279C162.9 15.2357 161.065 11.3953 158.598 8.24741C158.534 8.18446 158.471 8.18446 158.408 8.24741C158.344 8.31037 158.344 8.37332 158.408 8.43628C160.875 11.5842 162.647 15.3616 163.532 19.3909C163.595 19.5798 163.595 19.7686 163.659 19.9575C163.912 21.1537 164.228 22.4758 164.102 23.672C164.038 23.7979 164.102 23.8609 164.228 23.8609Z"/><path fill="#90AB00" d="M152.207 57.166C152.207 57.166 152.271 57.1031 152.207 57.166C153.536 56.7253 154.675 55.7809 155.75 54.8995C156.003 54.7107 156.256 54.5218 156.51 54.3329C160.369 51.311 163.405 47.4705 165.999 44.0079C166.316 43.6301 166.569 43.2524 166.885 42.8746C168.087 41.3007 169.352 39.7268 170.111 37.901C170.175 37.838 170.111 37.7121 170.048 37.7121C169.985 37.6492 169.858 37.7121 169.858 37.7751C169.099 39.5379 167.834 41.1748 166.632 42.6858C166.316 43.0635 166.063 43.4413 165.746 43.882C163.216 47.2817 160.179 51.185 156.32 54.144C156.067 54.3329 155.814 54.5218 155.561 54.7107C154.485 55.5921 153.41 56.4735 152.144 56.9142C152.081 56.9142 152.018 57.0401 152.081 57.1031C152.081 57.1031 152.144 57.166 152.207 57.166Z"/><path fill="#90AB00" d="M152.841 47.5326C152.904 47.5326 152.967 47.4697 152.967 47.4067C152.967 47.3438 152.904 47.2178 152.841 47.2178C149.424 46.6512 146.324 43.7552 144.11 41.6776C144.047 41.6146 143.92 41.6146 143.92 41.6776C143.857 41.7405 143.857 41.8665 143.92 41.8665C146.198 44.007 149.298 46.903 152.841 47.5326Z"/><path fill="#90AB00" d="M145.058 64.9723C150.942 64.2168 156.572 60.8171 162.836 54.3324C163.658 53.514 164.417 52.6326 165.113 51.7512C165.999 50.6809 166.948 49.6106 167.96 48.6663C168.023 48.6033 168.023 48.5404 167.96 48.4774C167.897 48.4144 167.834 48.4144 167.77 48.4774C166.758 49.4847 165.809 50.555 164.923 51.6253C164.164 52.5067 163.405 53.3881 162.646 54.2065C156.446 60.6282 150.815 63.9649 145.058 64.7204C144.995 64.7204 144.932 64.7834 144.932 64.9093C144.932 64.9093 144.995 64.9723 145.058 64.9723Z"/><path fill="#90AB00" d="M150.373 61.1941C152.334 61.1941 154.295 60.8794 156.257 60.2498C156.32 60.2498 156.383 60.1239 156.383 60.0609C156.383 59.9979 156.257 59.935 156.193 59.935C149.867 62.0126 143.414 60.6275 138.1 56.0316C136.138 54.3947 134.62 52.3171 133.165 50.3025L132.849 49.8618C132.785 49.7988 132.722 49.7988 132.659 49.7988C132.596 49.8618 132.596 49.9247 132.596 49.9877L132.912 50.4284C134.43 52.443 135.949 54.5206 137.91 56.2205C141.642 59.4943 145.944 61.1941 150.373 61.1941Z"/><path fill="#90AB00" d="M150.626 57.417C150.689 57.417 150.753 57.354 150.753 57.291C150.753 57.2281 150.689 57.1022 150.626 57.1022C145.122 55.906 141.453 50.3028 138.606 45.0143C138.542 44.9514 138.479 44.8884 138.416 44.9514C138.353 45.0143 138.289 45.0773 138.353 45.1402C141.263 50.5546 144.932 56.1578 150.626 57.417C150.563 57.417 150.563 57.417 150.626 57.417Z"/><path fill="#90AB00" d="M133.292 57.6694C133.355 57.6694 133.418 57.6693 133.418 57.6064C133.482 57.5434 133.418 57.4175 133.355 57.4175C132.533 56.9139 131.773 56.2843 130.951 55.7177C128.167 53.6401 125.32 51.4995 121.778 51.6884C121.714 51.6884 121.651 51.7514 121.651 51.8773C121.651 51.9402 121.714 52.0032 121.841 52.0032C125.32 51.8143 128.104 53.9549 130.824 55.9695C131.647 56.5991 132.469 57.1657 133.229 57.7323C133.229 57.6693 133.292 57.6694 133.292 57.6694Z"/><path fill="#14237E" d="M206.362 100.732C206.426 100.732 206.426 100.732 206.489 100.669C206.868 100.292 207.248 99.914 207.628 99.5362C209.589 97.5845 211.36 96.3883 213.258 95.5699C213.321 95.5069 213.385 95.444 213.321 95.381C213.258 95.3181 213.195 95.2551 213.132 95.3181C211.17 96.1365 209.336 97.3957 207.375 99.3473C206.995 99.7251 206.615 100.103 206.236 100.481C206.172 100.544 206.172 100.606 206.236 100.669C206.299 100.732 206.299 100.732 206.362 100.732Z"/><path fill="#754C29" d="M176.945 125.851C177.008 125.851 177.072 125.789 177.072 125.726C177.072 125.663 177.072 125.537 176.945 125.537C174.604 124.844 172.58 124.718 170.808 125.096C170.429 125.159 170.176 125.285 169.923 125.348C169.859 125.411 169.796 125.474 169.859 125.537C169.923 125.6 169.986 125.663 170.049 125.6C170.302 125.474 170.555 125.411 170.935 125.348C172.643 125.033 174.604 125.159 176.945 125.851Z"/><path fill="#14237E" d="M212.753 79.7673C212.816 79.7673 212.879 79.7043 212.879 79.7043C212.942 79.6414 212.879 79.5154 212.816 79.5154C210.475 78.5081 207.818 77.9415 205.477 77.3749C205.224 77.3119 204.908 77.249 204.655 77.186C204.591 77.186 204.465 77.249 204.465 77.3119C204.465 77.3749 204.528 77.5008 204.591 77.5008C204.844 77.5638 205.161 77.6267 205.414 77.6897C207.755 78.1933 210.412 78.76 212.753 79.7673Z"/><path fill="#14237E" d="M202.061 77.1855C202.124 77.1855 202.187 77.1225 202.187 77.0596C202.187 76.9966 202.124 76.9337 202.061 76.9337C199.34 76.8707 196.494 76.6189 193.394 76.1152C193.33 76.1152 193.204 76.1782 193.204 76.2412C193.204 76.3041 193.267 76.43 193.33 76.43C196.494 76.8078 199.34 77.0596 202.061 77.1855Z"/><path fill="#14237E" d="M180.803 79.1374C180.866 79.1374 180.929 79.0744 180.929 79.0115C181.562 73.5971 182.954 68.5605 184.156 64.7831C184.156 64.7201 184.156 64.5942 184.029 64.5942C183.966 64.5942 183.84 64.5942 183.84 64.7202C182.701 68.4976 181.246 73.5342 180.613 79.0115C180.613 79.0115 180.676 79.1374 180.803 79.1374Z"/><path fill="#14237E" d="M207.565 97.5211C207.628 97.5211 207.691 97.5211 207.691 97.4581C209.146 95.3176 210.665 93.0511 212.942 91.2883C213.006 91.2254 213.006 91.1624 212.942 91.0995C212.879 91.0365 212.816 91.0365 212.752 91.0995C210.475 92.8623 208.893 95.1287 207.438 97.3322C207.375 97.3952 207.438 97.5211 207.501 97.5211H207.565Z"/><path fill="#14237E" d="M174.92 118.738H174.983C175.047 118.675 175.047 118.612 175.047 118.549C174.098 117.164 173.212 115.401 172.326 113.071C172.326 113.009 172.2 112.946 172.137 113.008C172.073 113.008 172.01 113.134 172.073 113.197C172.959 115.59 173.845 117.416 174.794 118.801C174.794 118.675 174.857 118.738 174.92 118.738Z"/><path fill="#14237E" d="M170.998 133.785H171.061C172.073 133.155 173.085 132.841 174.351 132.589C174.414 132.589 174.477 132.463 174.477 132.4C174.477 132.337 174.351 132.274 174.288 132.274C172.959 132.526 171.947 132.841 170.871 133.47C170.808 133.533 170.808 133.596 170.808 133.659C170.871 133.785 170.934 133.785 170.998 133.785Z"/><path fill="#14237E" d="M120.385 83.9849C120.449 83.9849 120.512 83.922 120.512 83.859C120.702 80.7112 121.777 77.8151 122.853 74.9821C123.549 73.1563 124.244 71.3305 124.687 69.4418C124.687 69.3788 124.687 69.2529 124.561 69.2529C124.498 69.2529 124.371 69.2529 124.371 69.3788C123.928 71.2676 123.232 73.0933 122.6 74.9191C121.524 77.7522 120.449 80.7112 120.259 83.859C120.259 83.922 120.322 83.9849 120.385 83.9849Z"/><path fill="#000" d="M122.853 124.53C122.916 124.53 122.979 124.467 122.979 124.404C123.043 124.089 123.043 123.837 123.106 123.522C123.106 123.459 123.043 123.333 122.979 123.333C122.916 123.333 122.79 123.396 122.79 123.459C122.726 123.774 122.726 124.026 122.663 124.341C122.726 124.404 122.79 124.53 122.853 124.53Z"/><path fill="#B1C1EA" d="M156.383 105.58C156.446 105.58 156.446 105.58 156.51 105.517C157.965 104.195 158.787 101.929 159.42 100.04C159.546 99.7252 159.61 99.4734 159.736 99.1586C159.736 99.0956 159.736 98.9697 159.673 98.9697C159.61 98.9697 159.483 98.9697 159.483 99.0327C159.356 99.2845 159.293 99.5993 159.167 99.9141C158.534 101.803 157.775 104.006 156.32 105.265C156.257 105.328 156.257 105.391 156.32 105.454C156.32 105.517 156.383 105.58 156.383 105.58Z"/><path fill="#B1C1EA" d="M141.642 104.006H141.705C141.768 103.943 141.832 103.88 141.768 103.817C141.452 103.188 141.073 102.558 140.756 101.991C140.377 101.299 139.934 100.606 139.554 99.8508C139.491 99.7878 139.428 99.7248 139.364 99.7878C139.301 99.8508 139.238 99.9137 139.301 99.9767C139.681 100.732 140.124 101.425 140.503 102.117C140.819 102.684 141.199 103.313 141.515 103.943C141.579 104.006 141.642 104.006 141.642 104.006Z"/><path fill="#B1C1EA" d="M138.415 103.691C138.479 103.691 138.479 103.691 138.542 103.628C138.605 103.565 138.605 103.439 138.542 103.439C137.973 102.999 137.213 102.369 136.644 101.614C136.581 101.551 136.517 101.551 136.454 101.614C136.391 101.677 136.391 101.74 136.454 101.803C137.024 102.558 137.846 103.188 138.352 103.628L138.415 103.691Z"/><path fill="#B1C1EA" d="M145.502 111.75C145.565 111.75 145.629 111.749 145.629 111.687C145.692 111.624 145.629 111.498 145.565 111.498C145.186 111.246 143.477 109.987 144.996 106.776C145.122 106.524 145.249 106.335 145.375 106.146C145.439 106.083 145.439 105.957 145.375 105.957C145.312 105.894 145.186 105.894 145.186 105.957C144.996 106.146 144.869 106.398 144.743 106.65C144.49 107.154 144.047 108.224 144.11 109.357C144.11 110.427 144.553 111.309 145.439 111.812C145.439 111.75 145.439 111.75 145.502 111.75Z"/><path fill="#B1C1EA" d="M150.183 111.749C150.246 111.749 150.246 111.749 150.309 111.686C151.764 109.987 152.017 108.161 151.068 106.587C151.005 106.524 150.942 106.524 150.879 106.524C150.815 106.587 150.815 106.65 150.815 106.713C151.321 107.531 151.954 109.294 150.119 111.435C150.056 111.498 150.056 111.623 150.119 111.623C150.119 111.749 150.183 111.749 150.183 111.749Z"/><path fill="#B1C1EA" d="M147.589 131.455C147.716 131.455 147.779 131.33 147.716 131.267C147.21 129 147.273 126.419 147.336 124.026C147.336 123.208 147.4 122.39 147.4 121.571C147.4 118.99 147.463 116.409 147.526 113.89V113.198C147.526 113.135 147.526 113.009 147.526 112.946C147.526 112.694 147.526 112.379 147.526 112.127C147.526 111.75 147.526 111.372 147.526 110.994C147.526 110.931 147.526 110.868 147.526 110.805C147.526 110.302 147.526 109.861 147.842 109.546C147.906 109.483 148.032 109.483 148.096 109.483H148.159C148.349 109.483 148.475 109.546 148.602 109.609C148.918 109.735 149.108 110.113 149.108 110.491C149.108 110.679 149.108 110.931 149.108 111.12V111.246C149.171 112.505 149.298 113.827 149.424 115.212C149.551 116.472 149.677 117.731 149.804 119.179C149.93 120.375 150.057 121.697 150.247 123.145C150.373 124.467 150.563 125.789 150.689 127.048L151.132 130.952C151.132 131.015 151.195 131.078 151.322 131.078C151.385 131.078 151.449 131.015 151.449 130.889L151.006 126.985C150.879 125.663 150.689 124.341 150.563 123.082C150.373 121.634 150.247 120.375 150.12 119.179C149.993 117.794 149.867 116.472 149.74 115.212C149.614 113.827 149.487 112.505 149.424 111.246V111.12C149.424 110.931 149.424 110.742 149.424 110.554C149.424 110.05 149.171 109.609 148.728 109.357C148.538 109.294 148.349 109.231 148.159 109.231H148.096C147.969 109.231 147.779 109.231 147.653 109.357C147.21 109.735 147.21 110.365 147.21 110.805C147.21 110.868 147.21 110.931 147.21 110.994C147.21 111.372 147.21 111.75 147.21 112.127C147.21 112.379 147.21 112.694 147.21 112.946C147.21 113.009 147.21 113.135 147.21 113.198V113.89C147.147 116.409 147.083 118.99 147.083 121.571C147.083 122.39 147.083 123.208 147.02 124.026C146.957 126.482 146.893 129 147.4 131.33C147.4 131.392 147.463 131.455 147.589 131.455Z"/><path fill="#B1C1EA" d="M145.248 133.281C145.754 133.281 146.26 133.281 146.577 133.218C146.64 133.218 146.703 133.155 146.703 133.029C146.703 132.966 146.64 132.903 146.513 132.903C145.691 133.029 142.717 132.903 142.654 132.903C142.591 132.903 142.528 132.966 142.464 133.029C142.464 133.092 142.528 133.155 142.591 133.218C142.717 133.218 144.109 133.281 145.248 133.281Z"/><path fill="#B1C1EA" d="M146.451 133.344C146.514 133.344 146.577 133.281 146.577 133.218C146.704 132.903 146.894 131.266 147.084 129.818C147.21 128.874 147.337 128.055 147.337 127.804C147.337 127.741 147.273 127.615 147.21 127.615C147.147 127.615 147.02 127.678 147.02 127.741C146.957 127.992 146.894 128.811 146.767 129.755C146.577 131.14 146.388 132.777 146.261 133.092C146.261 133.218 146.324 133.281 146.451 133.344C146.388 133.344 146.451 133.344 146.451 133.344Z"/><path fill="#B1C1EA" d="M151.069 131.015C151.132 131.015 151.259 131.015 151.322 131.015C151.385 131.015 151.449 130.952 151.449 130.889C151.449 130.826 151.385 130.763 151.322 130.763C150.563 130.763 148.159 130.763 147.4 130.7C147.336 130.7 147.273 130.763 147.21 130.826C147.147 130.889 147.273 130.952 147.336 131.015C148.095 131.015 150.183 131.015 151.069 131.015Z"/><path fill="#B1C1EA" d="M152.524 109.105C152.587 109.105 152.587 109.105 152.524 109.105C154.042 108.791 155.624 108.602 157.649 108.413C157.712 108.413 157.775 108.35 157.775 108.224C157.775 108.161 157.712 108.098 157.585 108.098C155.561 108.287 153.979 108.476 152.461 108.791C152.398 108.791 152.334 108.917 152.334 108.98C152.398 109.043 152.461 109.105 152.524 109.105Z"/><path fill="#B1C1EA" d="M161.001 112.19C161.065 112.19 161.128 112.127 161.128 112.064C161.128 112.001 161.065 111.938 161.001 111.938C160.305 111.938 159.61 111.875 158.914 111.812C158.218 111.749 157.459 111.686 156.699 111.686C156.193 111.686 155.624 111.686 155.118 111.686C154.042 111.686 152.903 111.686 151.891 111.561C151.828 111.561 151.701 111.623 151.701 111.686C151.701 111.749 151.765 111.875 151.828 111.875C152.903 112.001 154.042 112.001 155.118 112.001C155.624 112.001 156.193 112.001 156.699 112.001C157.459 112.001 158.154 112.064 158.914 112.127C159.61 112.127 160.305 112.19 161.001 112.19Z"/><path fill="#B1C1EA" d="M144.236 111.498C144.299 111.498 144.362 111.435 144.362 111.372C144.362 111.309 144.299 111.246 144.236 111.183L143.287 111.12C141.073 111.057 138.542 110.931 136.011 110.994C135.948 110.994 135.885 111.057 135.885 111.183C135.885 111.246 135.948 111.309 136.075 111.309C138.605 111.246 141.136 111.309 143.35 111.435L144.236 111.498Z"/><path fill="#B1C1EA" d="M150.752 186.606C150.879 186.606 152.397 211.789 152.397 211.663C152.271 210.026 150.689 182.262 150.499 179.429C149.677 164.949 148.348 140.773 146.071 138.129C146.008 138.066 145.944 138.066 145.881 138.129C145.818 138.192 145.818 138.255 145.881 138.318C148.095 140.899 149.487 165.956 150.246 179.429C150.436 182.325 150.563 184.78 150.689 186.417C150.626 186.543 150.689 186.606 150.752 186.606Z"/><path fill="#14237E" d="M103.304 102.621C103.304 102.621 103.367 102.621 103.304 102.621C103.431 102.621 103.494 102.495 103.431 102.432C102.735 99.6617 100.141 96.8916 97.9897 95.5065C97.9264 95.4436 97.7999 95.5065 97.7999 95.5695C97.7366 95.6324 97.7999 95.7584 97.8632 95.7584C99.9509 97.1434 102.482 99.8506 103.177 102.495C103.177 102.621 103.241 102.621 103.304 102.621Z"/><path fill="#754C29" d="M126.965 127.804C127.029 127.804 127.092 127.741 127.092 127.678C127.092 127.615 127.092 127.489 127.029 127.489C126.775 127.363 126.522 127.3 126.396 127.237C124.498 126.67 121.651 126.293 119.31 126.922C119.247 126.922 119.184 127.048 119.184 127.111C119.184 127.174 119.31 127.237 119.373 127.237C121.651 126.608 124.435 126.985 126.269 127.552C126.396 127.615 126.649 127.678 126.965 127.804C126.902 127.804 126.902 127.804 126.965 127.804Z"/><path fill="#14237E" d="M102.861 79.0743C105.328 79.0743 108.428 78.5707 111.781 77.6263C111.845 77.6263 111.908 77.5004 111.908 77.4374C111.908 77.3745 111.781 77.3115 111.718 77.3115C107.985 78.3818 104.569 78.8855 101.975 78.7595C101.912 78.7595 101.849 78.8225 101.785 78.8854C101.785 78.9484 101.849 79.0114 101.912 79.0743C102.228 79.0743 102.545 79.0743 102.861 79.0743Z"/><path fill="#000" d="M158.028 22.5387C158.092 22.5387 158.092 22.5387 158.155 22.4758C158.218 22.4128 158.218 22.2869 158.155 22.2869C157.079 21.4054 155.371 21.2166 154.169 21.9091C154.106 21.9721 154.043 22.035 154.106 22.098C154.169 22.161 154.232 22.2239 154.296 22.161C155.371 21.5314 156.953 21.7202 157.902 22.5387C157.965 22.5387 158.028 22.5387 158.028 22.5387Z"/><path fill="#000" d="M146.008 21.9723C146.071 21.9723 146.071 21.9723 146.134 21.9093C146.197 21.8464 146.197 21.7205 146.134 21.7205C145.059 20.839 143.351 20.6502 142.148 21.3427C142.085 21.4057 142.022 21.4686 142.085 21.5316C142.148 21.5945 142.212 21.6575 142.275 21.5946C143.351 20.965 144.932 21.1538 145.881 21.9723C145.881 21.9723 145.944 21.9723 146.008 21.9723Z"/><path fill="#754C29" d="M147.274 29.5899C147.337 29.5899 147.337 29.5899 147.337 29.5899C147.4 29.5269 147.4 29.464 147.337 29.401C147.21 29.2751 147.084 29.0862 146.957 28.8974C146.451 28.2678 145.882 27.5753 145.882 26.8198C145.882 26.1902 146.514 25.6236 147.084 25.1199C147.463 24.8051 147.78 24.5533 147.97 24.2385C148.602 23.3571 148.096 21.5943 147.843 20.8388C147.843 20.7759 147.716 20.7129 147.653 20.7129C147.59 20.7129 147.527 20.8388 147.527 20.9018C147.716 21.4054 148.223 23.2312 147.653 23.9867C147.463 24.2385 147.147 24.5533 146.831 24.8051C146.198 25.3088 145.502 25.9384 145.502 26.6939C145.502 27.5753 146.135 28.3307 146.641 28.9603C146.767 29.1492 146.894 29.2751 147.021 29.401C147.147 29.5899 147.21 29.5899 147.274 29.5899Z"/><g style="mix-blend-mode:multiply" filter="url(#filter0_d)"><mask id="path-68-inside-1" fill="#fff"><path d="M148.286 32.549C148.918 32.549 149.424 32.3601 149.994 32.1712C150.12 32.1083 150.247 32.1083 150.373 32.0453C150.943 31.8564 151.575 31.6676 152.018 31.2269C152.082 31.1639 152.082 31.1009 152.018 31.038C151.955 30.975 151.892 30.975 151.828 31.038C151.386 31.4157 150.88 31.6046 150.31 31.7935C150.184 31.8564 150.057 31.8564 149.931 31.9194C149.361 32.1083 148.792 32.2971 148.159 32.2342C146.894 32.1712 145.882 31.1009 144.933 30.0936C144.869 30.0306 144.806 30.0306 144.743 30.0936C144.68 30.1566 144.68 30.2195 144.743 30.2825C145.755 31.3528 146.831 32.486 148.159 32.549C148.159 32.549 148.222 32.549 148.286 32.549Z"/></mask><path fill="#754C29" d="M148.286 32.549C148.918 32.549 149.424 32.3601 149.994 32.1712C150.12 32.1083 150.247 32.1083 150.373 32.0453C150.943 31.8564 151.575 31.6676 152.018 31.2269C152.082 31.1639 152.082 31.1009 152.018 31.038C151.955 30.975 151.892 30.975 151.828 31.038C151.386 31.4157 150.88 31.6046 150.31 31.7935C150.184 31.8564 150.057 31.8564 149.931 31.9194C149.361 32.1083 148.792 32.2971 148.159 32.2342C146.894 32.1712 145.882 31.1009 144.933 30.0936C144.869 30.0306 144.806 30.0306 144.743 30.0936C144.68 30.1566 144.68 30.2195 144.743 30.2825C145.755 31.3528 146.831 32.486 148.159 32.549C148.159 32.549 148.222 32.549 148.286 32.549Z"/><path fill="#000" d="M149.994 32.1712L150.439 33.0665L150.376 33.0981L150.309 33.1204L149.994 32.1712ZM150.373 32.0453L149.928 31.15L149.991 31.1185L150.059 31.0962L150.373 32.0453ZM151.828 31.038L152.534 31.7468L152.507 31.7739L152.477 31.7988L151.828 31.038ZM150.31 31.7935L149.865 30.8982L149.928 30.8666L149.995 30.8443L150.31 31.7935ZM149.931 31.9194L150.376 32.8147L150.313 32.8462L150.245 32.8685L149.931 31.9194ZM148.159 32.2342L148.209 31.2354L148.234 31.2366L148.258 31.2391L148.159 32.2342ZM144.933 30.0936L145.638 29.3848L145.649 29.3962L145.66 29.4079L144.933 30.0936ZM144.743 30.2825L145.448 29.5737L145.459 29.5843L145.469 29.5954L144.743 30.2825ZM148.159 32.549L148.206 31.5501L149.159 31.5952V32.549H148.159ZM148.286 31.549C148.724 31.549 149.063 31.4264 149.679 31.2221L150.309 33.1204C149.786 33.2938 149.113 33.549 148.286 33.549V31.549ZM149.548 31.2759C149.724 31.1886 149.891 31.1507 149.942 31.1378C150.017 31.1192 149.977 31.1257 149.928 31.15L150.819 32.9406C150.643 33.0279 150.477 33.0659 150.425 33.0787C150.35 33.0973 150.39 33.0909 150.439 33.0665L149.548 31.2759ZM150.059 31.0962C150.707 30.8812 151.073 30.7566 151.313 30.518L152.724 31.9357C152.078 32.5785 151.179 32.8316 150.688 32.9944L150.059 31.0962ZM151.313 30.518C151.236 30.595 151.066 30.8033 151.066 31.1324C151.066 31.4615 151.236 31.6698 151.313 31.7468L152.724 30.3292C152.864 30.4691 153.066 30.7404 153.066 31.1324C153.066 31.5244 152.864 31.7958 152.724 31.9357L151.313 30.518ZM151.313 31.7468C151.391 31.8243 151.598 31.9908 151.923 31.9908C152.249 31.9908 152.456 31.8243 152.534 31.7468L151.123 30.3292C151.264 30.1887 151.535 29.9908 151.923 29.9908C152.312 29.9908 152.582 30.1887 152.724 30.3292L151.313 31.7468ZM152.477 31.7988C151.873 32.3146 151.198 32.5524 150.625 32.7426L149.995 30.8443C150.561 30.6568 150.899 30.5168 151.18 30.2772L152.477 31.7988ZM150.756 32.6888C150.58 32.7761 150.413 32.814 150.362 32.8268C150.287 32.8455 150.327 32.839 150.376 32.8147L149.485 31.0241C149.661 30.9368 149.827 30.8988 149.879 30.886C149.954 30.8673 149.914 30.8738 149.865 30.8982L150.756 32.6888ZM150.245 32.8685C149.705 33.0478 148.937 33.3165 148.06 33.2293L148.258 31.2391C148.647 31.2777 149.017 31.1687 149.616 30.9702L150.245 32.8685ZM148.109 33.2329C147.2 33.1877 146.439 32.7817 145.823 32.3151C145.215 31.8543 144.668 31.2706 144.205 30.7793L145.66 29.4079C146.147 29.9239 146.58 30.379 147.031 30.7209C147.475 31.057 147.853 31.2177 148.209 31.2354L148.109 33.2329ZM144.227 30.8024C144.305 30.8799 144.512 31.0464 144.838 31.0464C145.163 31.0464 145.37 30.8799 145.448 30.8024L144.037 29.3848C144.179 29.2443 144.449 29.0464 144.838 29.0464C145.226 29.0464 145.497 29.2443 145.638 29.3848L144.227 30.8024ZM145.448 30.8024C145.526 30.7255 145.695 30.5171 145.695 30.188C145.695 29.859 145.526 29.6506 145.448 29.5737L144.037 30.9913C143.897 30.8514 143.695 30.5801 143.695 30.188C143.695 29.796 143.897 29.5247 144.037 29.3848L145.448 30.8024ZM145.469 29.5954C145.987 30.143 146.452 30.6301 146.936 30.9961C147.413 31.3569 147.822 31.5318 148.206 31.5501L148.112 33.5478C147.168 33.5031 146.375 33.0799 145.729 32.5908C145.089 32.1069 144.511 31.4923 144.016 30.9696L145.469 29.5954ZM148.159 32.549C148.159 31.549 148.159 31.549 148.159 31.549C148.159 31.549 148.159 31.549 148.159 31.549C148.159 31.549 148.159 31.549 148.159 31.549C148.159 31.549 148.159 31.549 148.159 31.549C148.159 31.549 148.159 31.549 148.159 31.549C148.159 31.549 148.159 31.549 148.159 31.549C148.159 31.549 148.159 31.549 148.159 31.549C148.159 31.549 148.159 31.549 148.159 31.549C148.16 31.549 148.159 31.549 148.16 31.549C148.16 31.549 148.161 31.549 148.162 31.549C148.162 31.549 148.168 31.549 148.17 31.549C148.178 31.549 148.186 31.549 148.199 31.549C148.218 31.549 148.259 31.549 148.286 31.549V33.549C148.259 33.549 148.218 33.549 148.199 33.549C148.186 33.549 148.178 33.549 148.17 33.549C148.168 33.549 148.162 33.549 148.162 33.549C148.161 33.549 148.16 33.549 148.16 33.549C148.16 33.549 148.16 33.549 148.16 33.549C148.159 33.549 148.159 33.549 148.159 33.549C148.159 33.549 148.159 33.549 148.159 33.549C148.159 33.549 148.159 33.549 148.159 33.549C148.159 33.549 148.159 33.549 148.159 33.549C148.159 33.549 148.159 33.549 148.159 33.549C148.159 33.549 148.159 33.549 148.159 33.549C148.159 33.549 148.159 33.549 148.159 32.549Z" mask="url(#path-68-inside-1)"/></g><path fill="#B1C1EA" d="M152.334 105.202C152.398 105.202 152.398 105.202 152.461 105.14C153.094 104.258 153.536 103.251 153.726 102.181C153.726 102.118 153.663 101.992 153.6 101.992C153.536 101.992 153.41 102.055 153.41 102.118C153.22 103.125 152.841 104.132 152.208 104.951C152.145 105.014 152.145 105.14 152.208 105.14C152.271 105.202 152.334 105.202 152.334 105.202Z"/><path fill="#B1C1EA" d="M142.781 133.533C142.845 133.533 142.908 133.47 142.908 133.407C143.224 132.337 143.414 131.266 143.604 130.196C143.667 129.692 143.73 129.252 143.857 128.748L143.92 128.559C144.11 127.363 144.3 126.104 144.49 124.656C144.616 123.522 144.743 122.263 144.869 120.752C144.932 119.682 145.059 118.675 145.122 117.604L145.185 116.849C145.312 115.401 145.439 114.205 145.502 112.946C145.565 112.253 145.628 111.623 145.692 110.994C145.692 110.868 145.692 110.805 145.755 110.679C145.818 110.175 145.881 109.672 146.071 109.294C146.134 109.168 146.198 109.042 146.324 108.979C146.388 108.916 146.514 108.916 146.641 108.916C146.957 108.916 147.273 109.168 147.273 109.483C147.273 109.546 147.336 109.609 147.463 109.609C147.526 109.609 147.59 109.546 147.59 109.42C147.526 108.979 147.083 108.602 146.641 108.539C146.514 108.539 146.261 108.539 146.134 108.664C146.008 108.79 145.881 108.979 145.818 109.042C145.565 109.483 145.502 110.05 145.439 110.553C145.439 110.679 145.439 110.742 145.375 110.868C145.312 111.498 145.249 112.127 145.185 112.82C145.059 114.016 144.932 115.275 144.869 116.723L144.806 117.479C144.743 118.486 144.616 119.556 144.553 120.626C144.426 122.137 144.3 123.334 144.173 124.53C143.983 125.915 143.794 127.174 143.604 128.37L143.541 128.559C143.477 129.063 143.351 129.503 143.288 130.007C143.098 131.077 142.971 132.148 142.655 133.218C142.592 133.407 142.655 133.47 142.781 133.533Z"/><path fill="#B1C1EA" d="M143.541 108.665C143.604 108.665 143.667 108.602 143.667 108.539C143.667 108.476 143.604 108.35 143.541 108.35L136.455 107.406C136.392 107.406 136.265 107.469 136.265 107.532C136.265 107.595 136.329 107.721 136.392 107.721L143.541 108.665Z"/><path fill="#B1C1EA" d="M158.661 128.37C158.787 128.37 158.851 128.307 158.787 128.181L156.826 113.827C156.826 113.764 156.763 113.701 156.636 113.701C156.573 113.701 156.51 113.764 156.51 113.89L158.408 127.993V128.055L158.471 128.244C158.471 128.307 158.534 128.37 158.661 128.37Z"/><path fill="#B1C1EA" d="M138.1 128.811C138.163 128.811 138.226 128.748 138.226 128.685L140.251 113.639C140.251 113.576 140.188 113.45 140.124 113.45C140.061 113.45 139.934 113.513 139.934 113.576L137.91 128.622C137.91 128.685 137.973 128.811 138.1 128.811Z"/><path fill="#14237E" d="M126.332 120.311C126.395 120.311 126.395 120.311 126.459 120.248C127.661 118.863 128.42 117.164 128.736 115.401C128.736 115.338 128.673 115.212 128.61 115.212C128.546 115.212 128.42 115.275 128.42 115.338C128.103 117.038 127.344 118.675 126.205 120.06C126.142 120.123 126.142 120.248 126.205 120.248C126.269 120.311 126.269 120.311 126.332 120.311Z"/><path fill="#14237E" d="M128.673 136.681H128.736C128.799 136.618 128.799 136.555 128.799 136.492C128.167 135.548 127.344 134.792 126.395 134.163C126.332 134.1 126.205 134.163 126.205 134.226C126.142 134.289 126.205 134.415 126.269 134.415C127.218 134.981 127.977 135.737 128.609 136.618C128.609 136.681 128.609 136.681 128.673 136.681Z"/><path fill="#14237E" d="M130.381 131.267C130.444 131.267 130.508 131.204 130.508 131.204C130.571 131.141 130.508 131.015 130.444 131.015L128.547 130.134C128.483 130.071 128.357 130.133 128.357 130.196C128.293 130.259 128.357 130.385 128.42 130.385L130.318 131.267C130.318 131.267 130.318 131.267 130.381 131.267Z"/><path fill="#B1C1EA" d="M145.564 87.8257C145.628 87.8257 145.628 87.8257 145.564 87.8257C148.285 86.7554 150.752 85.2445 152.903 83.3557C152.966 83.2928 152.966 83.2298 152.903 83.1668C152.84 83.1039 152.777 83.1039 152.713 83.1668C150.562 85.0556 148.158 86.5036 145.501 87.5739C145.438 87.5739 145.375 87.6998 145.438 87.7628C145.438 87.7628 145.501 87.8257 145.564 87.8257Z"/><path fill="#14237E" d="M102.229 97.3953C102.355 97.3953 102.419 97.2694 102.355 97.2064C101.976 95.2547 100.9 93.429 99.3186 92.2328C99.2553 92.1698 99.1288 92.1698 99.1288 92.2328C99.0655 92.2957 99.0655 92.4216 99.1288 92.4216C100.647 93.5549 101.723 95.3177 102.039 97.2064C102.102 97.3323 102.166 97.3953 102.229 97.3953Z"/><defs><filter id="filter0_d" width="15.37" height="10.503" x="140.695" y="30.046" color-interpolation-filters="sRGB"><feFlood flood-opacity="0" result="BackgroundImageFix"/><feColorMatrix in="SourceAlpha" type="matrix" values="0 0 0 0 0 0 0 0 0 0 0 0 0 0 0 0 0 0 127 0"/><feOffset dy="4"/><feGaussianBlur stdDeviation="2"/><feColorMatrix type="matrix" values="0 0 0 0 0 0 0 0 0 0 0 0 0 0 0 0 0 0 0.25 0"/><feBlend in2="BackgroundImageFix" mode="normal" result="effect1_dropShadow"/><feBlend in="SourceGraphic" in2="effect1_dropShadow" mode="normal" result="shape"/></filter></defs></svg>