<svg xmlns="http://www.w3.org/2000/svg" id="Layer_1" data-name="Layer 1" viewBox="0 0 168.719 96.457"><title>halo-logo-mark-full-colour-rgb</title><g id="logoMark"><path id="logoMark_PathItem_" d="M115.2034,70.4388l18.4592-17.2851a8.8679,8.8679,0,1,1,9.9318,14.6941,9.5384,9.5384,0,0,1-1.1628.6639l-24.2683,7.1111a2.9933,2.9933,0,0,1-2.96-5.184Z" data-name="logoMark &lt;PathItem&gt;" style="fill:#fd9727"/><path id="logoMark_PathItem_2" d="M100.2279,57.83l7.3435-24.199a8.8679,8.8679,0,0,1,15.9482,7.76,9.522,9.522,0,0,1-.675,1.1563L105.3832,60.8394a2.9932,2.9932,0,0,1-5.1553-3.0094Z" data-name="logoMark &lt;PathItem&gt;" style="fill:#fd9727"/><path id="logoMark_PathItem_3" d="M80.7961,54.1242l-5.74-24.6287a8.8678,8.8678,0,1,1,17.6913-1.2541,9.5327,9.5327,0,0,1-.0064,1.3389L86.7654,54.1528a2.9932,2.9932,0,0,1-5.9693-.0286Z" data-name="logoMark &lt;PathItem&gt;" style="fill:#fd9727"/><path id="logoMark_PathItem_4" d="M62.1147,60.6308,44.83,42.1716A8.8679,8.8679,0,1,1,59.5237,32.24a9.5308,9.5308,0,0,1,.6639,1.1628l7.1111,24.2683a2.9933,2.9933,0,0,1-5.184,2.96Z" data-name="logoMark &lt;PathItem&gt;" style="fill:#fd9727"/><path id="logoMark_PathItem_5" d="M49.19,75.8189l-24.199-7.3436a8.8679,8.8679,0,0,1,7.76-15.9482,9.528,9.528,0,0,1,1.1563.6751L52.199,70.6636A2.9933,2.9933,0,0,1,49.19,75.8189Z" data-name="logoMark &lt;PathItem&gt;" style="fill:#fd9727"/></g></svg>