<svg xmlns="http://www.w3.org/2000/svg" width="136" height="130" fill="none" viewBox="0 0 136 130"><path fill="#B1C1EA" d="M26.7321 48.8373H10.8495V128.253H26.7321V48.8373Z"/><path fill="#6C80B3" d="M42.6167 48.8373H26.734V128.253H42.6167V48.8373Z"/><path fill="#B1C1EA" d="M70.142 22.5402H51.4713V127.728H70.142V22.5402Z"/><path fill="#6C80B3" d="M85.0784 22.5402H70.1418V127.728H85.0784V22.5402Z"/><path fill="#B1C1EA" d="M109.677 0H93.794V128.83H109.677V0Z"/><path fill="#6C80B3" d="M125.558 0H109.676V128.83H125.558V0Z"/><g style="mix-blend-mode:multiply" opacity=".5"><path fill="#435B9D" d="M107.582 38.2903C108.264 39.0602 108.901 39.7849 109.584 40.5548L128.971 20.0843L130.746 24.115L135.752 10.7096L122.6 16.4613L126.741 18.0011L107.582 38.2903Z"/><path fill="#435B9D" d="M126.604 18.3184L77.2263 70.4003L72.9939 66.4149C72.4023 65.8714 71.4466 65.8714 70.8549 66.4602L64.1195 73.3893L62.1171 71.4872C61.5254 70.8984 60.5697 70.9437 59.9781 71.5325L31.3524 101.74L29.4865 99.4302C29.2135 99.1132 28.8039 98.8868 28.3943 98.8868C27.9392 98.8868 27.5296 99.0226 27.2565 99.3397L2.22614 125.743L2.36266 130L28.2577 102.646L30.1237 104.955C30.3967 105.272 30.8063 105.499 31.2159 105.499C31.671 105.499 32.0806 105.363 32.3536 105.046L61.1613 74.6574L63.1638 76.5595C63.7554 77.103 64.7111 77.103 65.3027 76.5142L72.0382 69.5851L76.3161 73.5705C76.5892 73.8422 76.9988 73.9781 77.4083 73.9781C77.8179 73.9781 78.182 73.7969 78.4551 73.5252L128.652 20.5376C127.924 19.813 127.287 19.0431 126.604 18.3184Z"/></g><path fill="#6C80B3" d="M105.442 33.0364C106.125 33.8063 106.762 34.531 107.444 35.3009L126.832 14.8304L128.607 18.8611L133.613 5.45571L120.46 11.2074L124.602 12.7472L105.442 33.0364Z"/><path fill="#6C80B3" d="M124.511 13.0647L75.1329 65.1919L70.9005 61.2065C70.3089 60.663 69.3532 60.663 68.7616 61.2518L62.0261 68.1809L60.0237 66.2788C59.4321 65.69 58.4764 65.7353 57.8847 66.3241L29.2591 96.5316L27.3932 94.2218C27.1201 93.9048 26.7105 93.6784 26.3009 93.6784C25.8458 93.6784 25.4362 93.8142 25.1632 94.1313L0.132782 120.534L0.269311 124.792L26.1644 97.4373L28.0303 99.747C28.3034 100.064 28.7129 100.291 29.1225 100.291C29.5776 100.291 29.9872 100.155 30.2603 99.8376L59.068 69.449L61.0704 71.3511C61.662 71.8946 62.6178 71.8946 63.2094 71.3058L69.9448 64.3767L74.2228 68.3621C74.4958 68.6338 74.9054 68.7697 75.315 68.7697C75.7246 68.7697 76.0887 68.5885 76.3617 68.3168L126.559 15.3292C125.831 14.6046 125.148 13.8347 124.511 13.0647Z"/></svg>