<svg width="279" height="229" viewBox="0 0 279 229" fill="none" xmlns="http://www.w3.org/2000/svg">
<path d="M142.689 132.852C143.511 136.413 144.555 139.847 145.618 143.357C145.925 144.325 146.215 145.217 146.603 146.168C147.808 149.569 149.156 152.861 150.585 156.135C150.972 157.086 151.423 157.945 151.891 158.879C153.382 162.061 154.998 165.058 156.775 168.022C157.323 168.939 157.854 169.781 158.402 170.699C160.144 173.511 162.011 176.138 164.039 178.731C164.748 179.615 165.439 180.423 166.147 181.307C167.414 182.789 168.663 184.195 169.993 185.585C171.11 186.78 172.272 187.808 173.353 188.852C174.303 189.685 175.252 190.519 176.103 191.294C178.898 193.568 181.605 195.463 184.403 197.021C185.851 197.83 187.184 198.504 188.597 199.161C190.561 200.021 192.57 200.712 194.544 201.251C196.421 201.732 198.343 202.045 200.167 202.298C201.2 202.4 202.312 202.484 203.31 202.434C205.42 202.469 207.379 202.218 209.402 201.874L228.892 197.794L229.136 197.028L229.442 196.17L230.156 193.797L230.138 193.721C231.693 192.443 233.15 191.106 234.555 189.541C235.565 188.456 236.541 187.219 237.5 185.907C239.353 183.375 241.057 180.556 242.513 177.393C243.025 176.332 243.52 175.197 244.014 174.061C244.662 172.496 245.23 170.947 245.78 169.323C246.33 167.699 246.782 166.016 247.235 164.333C247.506 163.324 247.76 162.238 248.014 161.153C248.731 158.064 249.252 154.858 249.596 151.61C249.707 150.634 249.8 149.582 249.894 148.53C250.22 145.206 250.35 141.764 250.303 138.279C250.334 137.32 250.267 136.302 250.28 135.266C250.227 133.213 250.156 131.084 249.924 128.988L251.351 124.242L251.487 123.737L244.774 94.6479L244.561 94.4542L241.096 90.7325C240.303 88.7544 239.527 86.8519 238.654 84.8905C238.267 83.9393 237.816 83.0807 237.348 82.1462C235.857 78.9642 234.241 75.9673 232.544 72.9871C231.996 72.0695 231.465 71.2276 230.917 70.3099C229.175 67.4981 227.29 64.7955 225.28 62.2781C224.571 61.394 223.961 60.5689 223.172 59.7017C221.888 58.144 220.621 56.6621 219.211 55.2896C218.112 54.1697 217.012 53.0498 215.948 52.0814C214.999 51.2477 214.13 50.3972 213.198 49.6393C210.484 47.3487 207.696 45.4704 204.898 43.912C203.53 43.0865 202.118 42.4293 200.705 41.7721C198.741 40.9126 196.714 40.1456 194.757 39.6817C194.579 39.6395 194.401 39.5974 194.304 39.5384L192.744 37.8796L191.609 36.6082L172.2 40.6711C170.212 41.1666 168.259 41.8136 166.342 42.6121C165.512 43.024 164.682 43.436 163.852 43.8479C162.21 44.7475 160.62 45.8744 159.048 47.0771C157.493 48.3555 155.974 49.7854 154.569 51.35C153.558 52.4351 152.582 53.6717 151.704 54.9673C149.85 57.4995 148.227 60.3012 146.691 63.4816C146.178 64.5417 145.684 65.6776 145.189 66.8135C144.524 68.3028 143.956 69.851 143.406 71.475C142.874 73.1748 142.341 74.8745 141.906 76.6332C141.635 77.643 141.381 78.7285 141.127 79.814C140.41 82.9023 139.889 86.1085 139.546 89.3569C139.435 90.3331 139.341 91.385 139.247 92.437C138.939 95.8369 138.791 99.2032 138.838 102.687C138.808 103.647 138.874 104.665 138.861 105.7C138.926 109.26 139.231 112.77 139.635 116.339C139.782 117.34 139.831 118.283 139.978 119.284C140.461 122.836 141.123 126.43 141.864 130.007C142.252 130.958 142.462 131.868 142.689 132.852Z" fill="#A4C1F5"/>
<path d="M164.111 43.8333C164.905 43.3407 165.716 42.9259 166.545 42.5891C168.404 41.7102 170.316 41.0649 172.283 40.6533L191.317 36.6689L191.872 37.2874L192.427 37.906L193.978 39.6224C194.153 39.6673 194.328 39.7123 194.425 39.7737L159.423 47.1005C160.956 45.8816 162.507 44.7406 164.111 43.8333Z" fill="#7681AC"/>
<path d="M154.364 51.915L201.139 42.1237C202.537 42.6464 203.967 43.3106 205.332 44.0624L151.41 55.3496C152.319 54.1218 153.325 52.9477 154.364 51.915Z" fill="#7681AC"/>
<path d="M146.719 63.8429L213.41 49.8829C214.329 50.5799 215.265 51.3477 216.119 52.1323L145.17 66.9838C145.664 65.8426 146.192 64.8427 146.719 63.8429Z" fill="#7681AC"/>
<path d="M141.977 77.0402L223.364 60.0038C224.041 60.7515 224.735 61.5699 225.428 62.3884L141.234 80.0122C141.423 79.0091 141.708 78.06 141.977 77.0402Z" fill="#7681AC"/>
<path d="M139.538 89.7559L231.259 70.5565C231.777 71.3375 232.311 72.1892 232.845 73.0409L139.192 92.6449C139.221 91.6752 139.412 90.6718 139.538 89.7559Z" fill="#7681AC"/>
<path d="M139.266 102.956L237.318 82.4313C237.753 83.2296 238.125 84.1153 238.576 84.9843L139.247 105.776C139.194 104.824 139.222 103.855 139.266 102.956Z" fill="#7681AC"/>
<path d="M140.155 116.852L244.681 94.9724L244.891 95.1568L245.461 97.6257L140.455 119.606C140.351 118.79 140.293 117.813 140.155 116.852Z" fill="#7681AC"/>
<path d="M141.989 130.551L247.941 108.372L248.561 111.059L142.609 133.237C142.397 132.318 142.201 131.47 141.989 130.551Z" fill="#7681AC"/>
<path d="M251.563 124.069L251.421 124.543L146.975 146.406C146.683 145.504 146.328 144.689 146.035 143.787L251.041 121.806L251.563 124.069Z" fill="#7681AC"/>
<path d="M250.418 138.836L152.287 159.377C151.787 158.296 151.344 157.104 150.821 155.928L250.151 135.136C250.274 136.395 250.317 137.671 250.418 138.836Z" fill="#7681AC"/>
<path d="M249.13 152.249L158.337 171.254C157.757 170.19 157.155 169.031 156.553 167.872L249.26 148.466C249.224 149.759 249.166 150.957 249.13 152.249Z" fill="#7681AC"/>
<path d="M247.543 164.786L166.242 181.804C165.499 180.774 164.734 179.649 163.969 178.524L248.163 160.901C247.963 162.227 247.764 163.553 247.543 164.786Z" fill="#7681AC"/>
<path d="M242.882 177.966L176.196 191.925C175.211 190.946 174.204 189.872 173.278 188.781L244.228 173.929C243.808 175.401 243.345 176.684 242.882 177.966Z" fill="#7681AC"/>
<path d="M234.267 190.096L188.413 199.695C187.033 199.168 185.621 198.5 184.272 197.745L237.248 186.656C236.276 187.897 235.288 189.067 234.267 190.096Z" fill="#7681AC"/>
<path d="M229.252 196.2L228.942 197.064L228.696 197.834L209.022 201.953C206.998 202.376 205.002 202.555 202.872 202.521C201.848 202.496 200.743 202.487 199.701 202.386C197.796 202.225 195.938 201.895 194.026 201.336L229.974 193.812L229.252 196.2Z" fill="#7681AC"/>
<path d="M258.3 166.686C270.084 131.092 258.314 80.0928 231.998 52.7133C205.761 25.3171 174.906 31.9346 163.202 67.5111C151.498 103.088 163.268 154.087 189.505 181.483C215.822 208.863 246.596 202.262 258.3 166.686Z" fill="#DCEFFE"/>
<path d="M253.762 107.815C248.999 87.1774 239.778 68.9846 227.746 56.3908C216.519 44.7422 204.359 39.5724 193.499 41.8458C182.559 44.1358 173.831 53.8371 168.74 69.14C163.38 85.4538 163.036 105.728 167.799 126.366C172.561 147.003 181.783 165.196 193.814 177.79C205.041 189.438 217.121 194.625 227.982 192.352C238.922 190.062 247.73 180.344 252.741 165.057C258.181 148.727 258.524 128.452 253.762 107.815Z" fill="#A4C1F5"/>
<path d="M248.913 112.585C244.15 91.9472 235.099 73.7187 223.487 61.0373C212.677 49.3014 201.019 44.0264 190.582 46.2112C180.145 48.3959 171.76 58.0254 167.086 73.241C162.145 89.4671 161.971 109.706 166.734 130.343C171.497 150.981 180.468 169.226 192.161 181.891C202.971 193.627 214.628 198.902 225.065 196.717C235.502 194.532 243.887 184.903 248.561 169.687C253.502 153.461 253.676 133.222 248.913 112.585Z" fill="#DCEFFE"/>
<path d="M188.824 86.3806L202.82 110.622L174.775 94.4919L164.557 100.391L195.173 153.419L207.945 146.046L193.949 121.804L221.994 137.934L232.212 132.035L201.596 79.0066L188.824 86.3806Z" fill="#8799C7"/>
<rect width="16.4012" height="60.7028" transform="matrix(0.506557 0.862206 -0.860637 0.509219 220.076 93.5884)" fill="#8799C7"/>
<path d="M161.084 140.752C159.415 144.538 157.527 148.142 155.604 151.827C155.057 152.84 154.546 153.773 153.915 154.752C151.858 158.288 149.666 161.676 147.39 165.029C146.759 166.009 146.078 166.874 145.362 167.819C143.037 171.059 140.613 174.069 138.019 177.012C137.218 177.923 136.453 178.754 135.652 179.666C133.13 182.447 130.509 185 127.718 187.485C126.748 188.328 125.813 189.092 124.842 189.936C123.129 191.335 121.45 192.654 119.687 193.938C118.2 195.049 116.699 195.965 115.283 196.915C114.059 197.657 112.834 198.399 111.73 199.095C108.162 201.08 104.772 202.661 101.355 203.853C99.5859 204.473 97.9729 204.965 96.275 205.423C93.9264 206 91.5641 206.382 89.2728 206.603C87.1018 206.777 84.9171 206.756 82.8526 206.689C81.6932 206.604 80.449 206.485 79.3606 206.24C77.028 205.876 74.9223 205.223 72.7673 204.456L52.1658 196.219L52.0615 195.324L51.9079 194.315L51.6305 191.551L51.666 191.471C50.227 189.758 48.9083 187.999 47.6961 185.998C46.8151 184.604 46.005 183.048 45.2305 181.412C43.7307 178.254 42.4577 174.807 41.5318 171.026C41.195 169.754 40.8936 168.402 40.5922 167.05C40.2141 165.193 39.9207 163.37 39.6629 161.466C39.405 159.563 39.2674 157.613 39.1299 155.663C39.0473 154.493 39.0003 153.242 38.9533 151.992C38.826 148.435 38.9392 144.785 39.2576 141.122C39.3446 140.02 39.4671 138.837 39.5897 137.654C39.9435 133.91 40.5379 130.074 41.3374 126.224C41.5092 125.156 41.8013 124.041 42.0086 122.892C42.508 120.628 43.043 118.284 43.7474 116.007L43.1927 110.479L43.1514 109.894L56.788 78.961L57.0641 78.7871L61.6809 75.327C62.9788 73.2876 64.2413 71.3288 65.624 69.3233C66.2552 68.3439 66.9357 67.4789 67.6517 66.5334C69.9772 63.2941 72.4013 60.2838 74.9101 57.3073C75.7109 56.3957 76.4762 55.5646 77.2769 54.653C79.7995 51.8715 82.4562 49.2384 85.2114 46.8342C86.1817 45.9904 87.0318 45.1932 88.0869 44.3833C89.8362 42.9035 91.5501 41.5042 93.398 40.2532C94.8495 39.2228 96.301 38.1924 97.6814 37.323C98.9061 36.5809 100.046 35.8049 101.235 35.1434C104.718 33.1248 108.193 31.5768 111.61 30.3849C113.294 29.7318 114.992 29.2736 116.69 28.8155C119.038 28.2385 121.436 27.776 123.692 27.6357C123.897 27.6229 124.102 27.6102 124.222 27.5635L126.297 26.0242L127.82 24.8327L148.336 33.0365C150.42 33.9645 152.433 35.0537 154.375 36.3039C155.201 36.9185 156.027 37.5331 156.853 38.1476C158.47 39.4573 159.98 41.0086 161.455 42.6405C162.894 44.353 164.262 46.2265 165.474 48.2273C166.355 49.6219 167.165 51.1776 167.855 52.78C169.354 55.938 170.543 59.3505 171.553 63.1658C171.89 64.4375 172.191 65.7898 172.493 67.1421C172.906 68.9183 173.2 70.7412 173.458 72.6447C173.68 74.6286 173.902 76.6126 174.004 78.6433C174.087 79.8133 174.134 81.0639 174.181 82.3145C174.308 85.8713 174.195 89.5215 173.877 93.1843C173.79 94.2866 173.667 95.4694 173.545 96.6522C173.155 100.476 172.596 104.232 171.797 108.082C171.625 109.15 171.333 110.265 171.126 111.414C170.291 115.344 169.201 119.173 167.992 123.048C167.615 124.129 167.358 125.163 166.981 126.244C165.687 130.085 164.187 133.939 162.603 137.759C161.972 138.739 161.546 139.705 161.084 140.752Z" fill="#E9EECC"/>
<path d="M156.57 38.0821C155.802 37.3852 154.997 36.771 154.155 36.2397C152.296 34.9117 150.327 33.8322 148.248 33.001L128.128 24.9558L127.383 25.5349L126.639 26.114L124.562 27.7188C124.36 27.7351 124.157 27.7515 124.037 27.801L161.035 42.595C159.608 40.9527 158.144 39.3932 156.57 38.0821Z" fill="#D3D8B6"/>
<path d="M165.579 48.8922L116.135 29.122C114.483 29.4342 112.765 29.8968 111.099 30.4688L168.096 53.2594C167.358 51.7263 166.502 50.2341 165.579 48.8922Z" fill="#D3D8B6"/>
<path d="M171.444 63.5598L100.949 35.372C99.7869 35.9686 98.5916 36.6403 97.4813 37.346L172.477 67.3337C172.177 65.9755 171.81 64.7677 171.444 63.5598Z" fill="#D3D8B6"/>
<path d="M173.838 79.0793L87.8094 44.6801C86.9031 45.379 85.9637 46.153 85.0243 46.9271L174.02 82.5125C174.027 81.3656 173.916 80.2601 173.838 79.0793Z" fill="#D3D8B6"/>
<path d="M173.799 93.627L76.8473 54.8601C76.1091 55.6262 75.3377 56.4674 74.5664 57.3087L173.561 96.8925C173.737 95.813 173.742 94.6654 173.799 93.627Z" fill="#D3D8B6"/>
<path d="M171.268 108.298L67.6239 66.8547C66.9729 67.6557 66.3732 68.5656 65.6892 69.4417L170.684 111.425C170.946 110.38 171.124 109.301 171.268 108.298Z" fill="#D3D8B6"/>
<path d="M167.307 123.517L56.8203 79.3379L56.5492 79.5019L55.3918 82.1273L166.386 126.509C166.676 125.626 166.949 124.555 167.307 123.517Z" fill="#D3D8B6"/>
<path d="M162.348 138.337L50.3541 93.5552L49.0946 96.4122L161.089 141.194C161.52 140.216 161.918 139.314 162.348 138.337Z" fill="#D3D8B6"/>
<path d="M42.9959 110.246L43.0507 110.799L153.453 154.944C153.969 154 154.535 153.166 155.051 152.222L44.0565 107.84L42.9959 110.246Z" fill="#D3D8B6"/>
<path d="M41.0908 126.818L144.818 168.294C145.602 167.192 146.346 165.957 147.173 164.755L42.1788 122.772C41.7733 124.143 41.4522 125.547 41.0908 126.818Z" fill="#D3D8B6"/>
<path d="M39.6334 141.918L135.604 180.293C136.472 179.225 137.384 178.057 138.296 176.888L40.3007 137.704C40.0635 139.142 39.8705 140.48 39.6334 141.918Z" fill="#D3D8B6"/>
<path d="M38.6922 156.104L124.631 190.467C125.67 189.468 126.754 188.369 127.838 187.269L38.843 151.684C38.778 153.191 38.713 154.698 38.6922 156.104Z" fill="#D3D8B6"/>
<path d="M41.0014 171.59L111.491 199.776C112.787 198.879 114.126 197.882 115.381 196.85L40.3849 166.863C40.5315 168.572 40.7665 170.081 41.0014 171.59Z" fill="#D3D8B6"/>
<path d="M47.8931 186.669L96.3619 206.049C97.9953 205.73 99.695 205.26 101.343 204.681L45.3461 182.29C46.1509 183.85 46.9889 185.334 47.8931 186.669Z" fill="#D3D8B6"/>
<path d="M52.1103 194.385L52.2665 195.401L52.3728 196.301L73.169 204.617C75.3086 205.472 77.4697 206.05 79.8236 206.42C80.9578 206.587 82.1775 206.789 83.3474 206.875C85.4803 207.061 87.5991 207.05 89.8251 206.796L51.827 191.602L52.1103 194.385Z" fill="#D3D8B6"/>
<path d="M26.4325 156.154C21.0816 114.488 44.9894 60.2561 79.8608 34.9579C114.648 9.62593 147.228 22.8429 152.495 64.4749C157.761 106.107 133.853 160.339 99.0662 185.671C64.1948 210.969 31.699 197.786 26.4325 156.154Z" fill="#F9FFEC"/>
<path d="M44.059 91.8263C53.7334 69.8809 67.7968 51.4936 83.7555 39.8431C98.6254 29.0858 113.133 25.6813 124.613 30.2716C136.178 34.8957 143.714 47.3047 146.042 65.2233C148.449 84.3125 144.48 106.831 134.805 128.776C125.131 150.722 111.068 169.109 95.1088 180.759C80.2389 191.517 65.8153 194.955 54.3354 190.365C42.7711 185.741 35.15 173.298 32.9067 155.413C30.4149 136.29 34.3845 113.772 44.059 91.8263Z" fill="#E9EECC"/>
<path d="M48.3794 98.0346C58.0538 76.0892 71.9371 57.6298 87.4535 45.8024C101.882 34.8689 115.86 31.2521 126.892 35.6634C137.924 40.0748 145.098 52.3389 146.985 70.0811C148.95 88.9934 144.8 111.44 135.126 133.385C125.451 155.331 111.652 173.824 96.0518 185.617C81.6229 196.551 67.6457 200.168 56.6134 195.756C45.5811 191.345 38.4068 179.081 36.5202 161.339C34.5552 142.426 38.7049 119.98 48.3794 98.0346Z" fill="#F9FFEC"/>
<path d="M88.3477 163.009L94.8138 158.37C96.117 157.466 97.0076 155.445 96.7375 154.007L95.9206 147.882C101.818 142.255 106.02 136.141 108.564 129.459C111.072 122.858 111.943 116.552 111.154 110.819C110.337 104.694 108.366 100.96 105.255 99.8107C102.18 98.581 98.1712 98.7842 93.2652 100.339C92.8166 100.445 91.4353 100.843 89.413 101.556C84.8346 103.052 81.488 103.805 79.4589 103.849C77.3087 103.94 76.1058 102.793 75.7648 100.376C74.905 94.804 77.5764 89.8838 83.6438 85.4662C87.1902 82.892 90.9501 80.9736 94.8877 79.7915C96.8386 79.2409 98.7184 78.8519 100.491 78.7053C101.025 78.6337 101.595 78.4813 102.065 78.0989C103.717 76.8585 105.064 74.2601 104.737 72.0383L103.614 63.415C103.444 62.2062 102.647 61.5073 101.664 61.6847C96.7155 62.6526 91.2468 65.0284 85.3078 68.9271L84.3345 61.7892C84.1 60.2696 82.9041 59.7914 81.6863 60.7303L75.2201 65.3687C73.9169 66.2734 73.0263 68.2936 73.2964 69.7323L74.298 77.2617C68.9068 82.425 64.8965 88.3306 62.4738 94.9661C59.9656 101.567 59.1449 107.988 59.9262 114.194C60.4944 118.603 61.7537 121.673 63.704 123.403C65.6543 125.134 68.032 125.894 70.8373 125.685C73.6425 125.476 77.1457 124.596 81.3113 123.125C84.8715 121.887 87.4278 121.103 89.0156 120.692C90.6034 120.282 92.0132 120.275 93.2589 120.868C94.4549 121.346 95.2092 122.599 95.4365 124.59C95.7418 127.089 95.2213 129.637 93.6684 132.248C92.1511 134.778 89.9148 137.116 87.0805 139.214C83.9685 141.487 80.6786 143.023 77.3179 143.58C75.8868 143.863 74.4912 144.066 73.0815 144.072C72.4621 144.11 71.9423 144.377 71.3868 144.725C69.7347 145.966 68.3882 148.564 68.7151 150.786L69.8872 159.524C70.0577 160.733 70.8549 161.432 71.8374 161.255C73.8026 160.9 75.718 160.43 77.5337 159.73C79.7981 158.925 82.2761 157.634 84.9465 156.136L85.7351 161.869C85.8485 163.435 87.0445 163.913 88.3477 163.009Z" fill="#E9EECC"/>
</svg>
