<svg xmlns="http://www.w3.org/2000/svg" width="172" height="172" fill="none" viewBox="0 0 172 172"><path fill="#FFE5D3" fill-rule="evenodd" d="M85.6448 171.112C132.88 171.112 171.171 132.821 171.171 85.5858C171.171 38.3508 132.88 0.0592041 85.6448 0.0592041C38.4097 0.0592041 0.118164 38.3508 0.118164 85.5858C0.118164 132.821 38.4097 171.112 85.6448 171.112Z" clip-rule="evenodd"/><path fill="#DCE3F3" d="M69.7313 90.4052C57.9363 80.7273 46.5137 74.6323 44.9824 63.0705C45.2721 50.8807 59.3848 54.5376 55.867 64.8436L58.6398 64.8066C61.123 47.2237 41.0508 50.1419 41.9612 63.1074C41.8371 71.1232 51.8111 81.9462 66.6273 91.6242C69.8968 93.545 68.7794 95.3181 67.2067 96.0199L67.5792 96.7218L68.1172 97.6452C68.9449 97.3128 69.6899 96.7218 70.1865 95.9461C69.6899 96.6848 68.9449 97.3128 68.1172 97.6452L68.3241 98.0516C70.9728 97.7191 73.7871 93.8775 69.7313 90.4052ZM54.5426 55.6458C52.6388 54.2052 49.9074 54.0944 47.6725 55.3872C46.7206 55.9413 45.9343 56.6801 45.3549 57.5666C45.9343 56.6801 46.7206 55.9413 47.7139 55.3872C49.9487 54.0944 52.6388 54.2052 54.5426 55.6458C56.8602 57.345 56.8602 57.345 54.5426 55.6458ZM69.4829 95.0965C69.4416 95.2073 69.3588 95.2812 69.3174 95.392C69.3588 95.2812 69.4416 95.2073 69.4829 95.0965C69.9796 94.0991 69.7313 93.0279 68.738 91.9567L59.0123 84.6797C54.1701 81.0966 50.404 77.5875 47.7967 74.1891C44.941 70.4952 43.327 66.8013 43.0373 63.2552C42.8717 60.8172 43.4098 58.6378 44.5272 56.9387C43.4098 58.6378 42.8717 60.8172 43.0373 63.2552C43.327 66.8013 44.8997 70.4583 47.7967 74.1891C50.404 77.5875 54.2115 81.0966 59.0123 84.6797L68.738 91.9567C69.7313 93.0279 70.021 94.0991 69.4829 95.0965Z"/><path fill="#10286A" d="M69.7316 90.3676C57.9366 80.6896 46.5141 74.5947 44.9828 63.0329C45.2725 50.8431 59.3437 54.5369 55.8259 64.8429H56.8606C57.6469 60.6688 56.8192 57.3443 54.5016 55.6451C52.5978 54.2045 49.8663 54.0937 47.6315 55.3865C45.0656 56.8641 43.7412 59.7084 43.9895 63.1806C44.4862 69.608 49.7422 76.5525 59.5507 83.8294L69.3592 91.1803L69.4005 91.2172C71.2215 93.138 70.8077 94.8003 70.3524 95.6499C69.8972 96.5364 68.9039 97.0905 67.952 97.4599L68.2831 98.0878C70.9732 97.7184 73.7875 93.8399 69.7316 90.3676Z"/><path fill="#DCE3F3" d="M101.847 98.1621L102.054 97.7558C101.226 97.4233 100.44 96.8323 99.9429 96.0935C100.44 96.8323 101.226 97.4233 102.054 97.7558L102.55 96.8323L102.923 96.1305C101.35 95.4286 100.191 93.6925 103.461 91.7348C118.277 81.946 128.127 71.049 127.961 63.0333C128.789 50.0678 108.675 47.2973 111.283 64.8433H114.056C110.455 54.5743 124.526 50.8065 124.899 62.9963C123.45 74.5951 112.11 80.7639 100.357 90.5158C96.3837 94.0619 99.198 97.8666 101.847 98.1621ZM115.297 55.6825C117.201 54.2418 119.891 54.0941 122.167 55.3869C123.119 55.941 123.905 56.6798 124.526 57.5663C123.905 56.6798 123.119 55.941 122.167 55.3869C119.932 54.0941 117.242 54.2418 115.297 55.6825C113.021 57.4186 113.021 57.4186 115.297 55.6825ZM101.391 92.1042L111.076 84.7533C115.877 81.1333 119.643 77.5872 122.209 74.1888C125.064 70.458 126.637 66.7641 126.885 63.218C127.051 60.78 126.471 58.6006 125.354 56.9384C126.513 58.6376 127.051 60.78 126.885 63.2549C126.637 66.801 125.064 70.4949 122.209 74.2258C119.601 77.6241 115.877 81.2072 111.076 84.7903L101.391 92.1042C100.398 93.1754 100.15 94.2466 100.646 95.244C100.688 95.3548 100.771 95.4286 100.812 95.5025C100.771 95.4286 100.688 95.3178 100.646 95.207C100.15 94.2835 100.398 93.1754 101.391 92.1042Z"/><path fill="#10286A" d="M100.358 90.5172C112.111 80.7653 123.451 74.5966 124.899 62.9978C124.527 50.808 110.456 54.6127 114.056 64.8816H113.022C112.235 60.7076 113.022 57.3831 115.298 55.6469C117.202 54.2063 119.892 54.0586 122.168 55.3514C124.734 56.792 126.1 59.6363 125.893 63.1086C125.437 69.5359 120.264 76.5174 110.497 83.8682L100.73 91.2929L100.689 91.3298C98.8676 93.2507 99.3229 94.9129 99.7781 95.7625C100.275 96.649 101.268 97.2031 102.179 97.5725L101.847 98.2005C99.1987 97.868 96.3431 94.0264 100.358 90.5172Z"/><path fill="#DCE3F3" d="M103.294 123.393V123.762C103.294 124.723 102.508 125.498 101.597 125.498L67.3711 125.461C66.4193 125.461 65.6743 124.686 65.6743 123.688V123.393C65.6743 123.134 65.7157 122.876 65.8399 122.654C66.0882 122.063 66.6676 121.657 67.3298 121.62C73.7032 121.398 78.0901 119.44 80.8216 115.968C80.8216 115.931 80.863 115.931 80.863 115.894C80.9871 115.709 81.1113 115.562 81.2355 115.377C81.2355 115.34 81.2768 115.34 81.2768 115.303C81.401 115.266 81.5252 114.86 81.6907 114.158C81.6907 114.084 81.7321 113.973 81.7321 113.899C81.7735 113.752 81.7735 113.567 81.8149 113.382C82.1046 111.535 82.4357 108.617 82.5184 106.068C82.5598 105.33 82.5598 104.628 82.5184 104C82.5184 103.741 82.5184 103.52 82.477 103.261C82.477 103.187 82.477 103.076 82.477 103.003C82.3943 101.968 83.1806 101.119 84.1739 101.119H86.0776C86.5329 101.119 86.9467 101.303 87.2364 101.599C87.6089 101.968 87.8158 102.485 87.7744 103.039C87.7744 103.039 87.7744 103.039 87.7744 103.076C87.7331 103.298 87.7331 103.52 87.7331 103.778C87.7331 103.852 87.7331 103.926 87.7331 104.037C87.6089 106.955 87.8572 111.092 88.1883 113.419C88.2297 113.604 88.2297 113.789 88.2711 113.936C88.2711 114.01 88.3125 114.121 88.3125 114.195C88.4366 114.934 88.6022 115.34 88.7263 115.229C88.7677 115.303 88.8091 115.34 88.8919 115.414C88.9746 115.525 89.0574 115.599 89.0988 115.673C89.1816 115.783 89.2643 115.894 89.3885 116.005C92.4511 119.44 96.5897 121.25 101.68 121.62C102.342 121.657 102.88 122.1 103.129 122.691C103.211 122.913 103.294 123.171 103.294 123.393Z"/><path fill="#DCE3F3" d="M78.2981 94.0255C78.2981 96.131 78.7533 98.0888 79.4983 99.7141C80.2432 101.302 81.2779 102.558 82.5195 103.297C83.3058 103.777 84.1335 103.999 85.0026 103.999C85.4992 103.999 85.9545 103.925 86.4511 103.777C86.9478 103.63 87.403 103.408 87.8169 103.076C88.8101 102.411 89.6379 101.376 90.3 100.12C91.0036 98.7537 91.5002 97.1284 91.6658 95.3553C91.7071 94.949 91.7071 94.5057 91.7485 94.0625V93.9517C91.7485 88.4478 88.7687 83.9782 85.044 83.9782C81.4848 83.9782 78.5878 88.0784 78.3809 93.2868C78.2981 93.5453 78.2981 93.8039 78.2981 94.0255Z"/><path fill="#DCE3F3" d="M58.0601 51.3243C58.6395 71.0496 64.806 87.3766 76.9321 97.6825C77.5943 98.2736 78.2978 98.8276 79.0428 99.3817C79.2083 99.4925 79.3741 99.6033 79.4983 99.7141C80.0777 100.157 80.6982 100.564 81.319 101.007C81.319 101.044 81.319 101.118 81.3604 101.155H89.0582C89.0582 101.118 89.0582 101.044 89.0582 101.007C89.2237 100.896 89.3893 100.785 89.5548 100.675C89.8031 100.527 90.0514 100.342 90.2998 100.157C90.4239 100.047 90.5895 99.9727 90.7136 99.8619C104.619 89.7776 111.365 72.4902 111.945 51.3243C111.945 50.9549 111.862 50.6224 111.696 50.3639C111.407 49.8467 110.869 49.5143 110.248 49.5143H59.7983C59.1775 49.5143 58.6395 49.8467 58.3498 50.3639C58.1428 50.6224 58.0601 50.9549 58.0601 51.3243Z"/><path fill="#10286A" d="M82.5606 102.745C83.3055 102.671 84.0918 102.708 84.8368 102.745C85.7059 102.782 86.575 102.856 87.4441 102.893C87.6097 102.893 87.7752 102.93 87.9407 102.967C87.8994 103.004 87.8166 103.04 87.7752 103.077C87.7338 103.299 87.7338 103.521 87.7338 103.779C87.32 104.075 86.8233 104.296 86.3681 104.444C85.9128 104.592 85.4162 104.666 84.9196 104.666C84.0505 104.666 83.2641 104.444 82.5192 104.001C82.5192 103.742 82.5192 103.521 82.4778 103.262C82.4364 103.225 82.395 103.225 82.395 103.188C82.4778 103.077 82.5192 102.93 82.5606 102.745Z"/><path fill="#10286A" d="M86.4093 102.56C86.4093 102.967 86.4093 103.373 86.4093 103.779C86.4507 107.436 86.5335 110.761 86.8645 113.42C86.8645 113.457 86.8645 113.531 86.8645 113.568C88.0234 113.679 88.3131 114.898 87.6095 115.415C87.5681 115.452 87.4853 115.489 87.4026 115.526C89.4305 121.288 95.7625 123.505 103.253 123.763V123.357C103.253 122.433 102.55 121.658 101.681 121.584C96.4247 121.177 92.162 119.294 89.0994 115.637C89.0166 115.563 88.9339 115.452 88.8511 115.378C89.058 115.378 89.2236 115.304 89.3891 115.193C89.6374 115.009 89.803 114.713 89.803 114.344C89.803 114.048 89.6788 113.827 89.5133 113.642C89.3477 113.457 89.0994 113.346 88.8097 113.346H88.1475C87.8164 110.982 87.5267 106.845 87.6923 103.964C87.6923 103.631 87.7337 103.336 87.775 103.04C88.7683 102.376 89.596 101.341 90.2582 100.085C104.454 90.038 111.282 72.6398 111.903 51.2522C111.903 50.8828 111.82 50.5504 111.655 50.2918H112.938V45.8591H106.357C106.316 46.8565 106.275 48.5187 106.233 49.5161C106.233 49.8116 106.192 50.0702 106.192 50.3657C105.281 66.6926 101.308 81.6529 91.6653 94.1382C90.6307 95.5049 89.5133 96.7978 88.3131 98.0906C88.1889 99.2727 87.982 100.27 87.5267 101.157C87.444 101.341 87.3612 101.489 87.237 101.637C87.0301 101.969 86.7818 102.265 86.4093 102.56Z"/><path fill="#fff" d="M83.968 99.7142C83.9266 99.6033 83.8852 99.4925 83.8025 99.3817C83.5542 98.8276 83.3472 98.2736 83.1403 97.6825C79.25 87.3766 77.2635 71.0496 77.0979 51.3243C77.0979 50.9549 77.1393 50.6224 77.1807 50.3639C77.2635 49.8467 77.429 49.5143 77.636 49.5143H64.8891C64.3924 49.5143 63.9372 49.8467 63.6889 50.3639C63.5647 50.6594 63.4819 50.9918 63.4819 51.3243C63.9786 71.0496 69.069 87.3766 79.0431 97.6825C79.6225 98.2736 80.2019 98.8276 80.7813 99.3817C80.9055 99.4925 81.0296 99.6033 81.1538 99.7142C81.6504 100.157 82.147 100.564 82.6851 101.007C82.6851 101.044 82.6851 101.118 82.6851 101.155H84.5474C84.5474 101.118 84.5474 101.044 84.5474 101.007C84.3405 100.564 84.1336 100.157 83.968 99.7142Z"/><path fill="#fff" d="M60.626 45.6735C60.626 46.9663 60.6674 48.9241 60.6674 50.18H67.2477C67.2477 48.9241 67.2891 47.0033 67.2891 45.6735H60.626Z"/><path fill="#10286A" d="M103.295 123.392V123.761C103.295 124.722 102.509 125.497 101.598 125.497L67.3721 125.461C66.4202 125.461 65.6753 124.685 65.6753 123.687V123.392C65.6753 123.133 65.7167 122.875 65.8408 122.653H103.13C103.212 122.912 103.295 123.17 103.295 123.392Z"/><path fill="#DCE3F3" d="M113.062 45.6735H57.2739V50.18H113.062V45.6735Z"/><path fill="#10286A" d="M58.0186 51.2148L111.945 52.8031V50.0327H58.0186V51.2148Z"/></svg>