<svg width="41" height="51" viewBox="0 0 41 51" fill="none" xmlns="http://www.w3.org/2000/svg">
<path d="M35.5495 6.91028L6.23633 15.072L10.0824 30.1438L39.3956 21.9821L35.5495 6.91028Z" fill="#435B9D"/>
<path d="M35.5495 6.91028L6.23633 15.072L10.0824 30.1438L39.3956 21.9821L35.5495 6.91028Z" fill="#435B9D"/>
<path d="M32.7434 9.63073C32.7434 9.52191 32.7434 9.3587 32.7434 9.24988L9.56313 15.7247L9.823 16.2145C9.92695 16.7042 9.87498 17.2484 9.66709 17.7381C9.45919 18.2278 9.14736 18.6086 8.73157 18.9351L10.3947 25.5732C10.9144 25.5732 11.4342 25.7908 11.85 26.1173C12.2658 26.4438 12.5776 26.9335 12.6816 27.4776V27.8584L35.8618 21.4379V21.0571C35.7579 20.5674 35.8099 20.0232 36.0178 19.5335C36.2257 19.0438 36.5375 18.663 37.0053 18.391L35.3421 11.7528C34.7704 11.8073 34.1987 11.6439 33.679 11.2631C33.1592 10.7734 32.8474 10.2293 32.7434 9.63073Z" fill="#ECF4FA"/>
<path d="M27.5976 16.813C27.8575 17.8468 27.7536 18.9351 27.4417 19.9145C27.0779 20.8939 26.5062 21.7644 25.6746 22.4173C24.895 23.0703 23.9075 23.3968 22.92 23.4512C21.9325 23.5056 20.893 23.288 20.0095 22.7439C19.1259 22.1998 18.4503 21.438 17.9825 20.4586C17.5148 19.4792 17.3588 18.4454 17.4628 17.4115C17.5667 16.3777 17.9825 15.344 18.6582 14.5822C19.3338 13.8204 20.1654 13.1675 21.1529 12.8954C21.8286 12.6778 22.5042 12.6233 23.2318 12.7321C23.9075 12.841 24.5832 13.0586 25.2068 13.4395C25.8305 13.8204 26.3503 14.3101 26.766 14.8543C27.1299 15.4528 27.4417 16.1056 27.5976 16.813Z" fill="#D0E0FA"/>
<path d="M23.285 14.9086L25.3639 19.8056L24.7402 20.1321L21.154 17.7924L22.5573 21.1658L21.7777 21.6012L19.8027 16.5954L20.2705 16.1601L23.9086 18.4998L22.4014 15.2896L23.285 14.9086Z" fill="#435B9D"/>
<path d="M19.4377 18.5543L25.0508 15.9969L25.4146 16.8131L19.9054 19.3705L19.4377 18.5543Z" fill="#435B9D"/>
<path d="M19.8537 19.6426L25.3109 17.0852L25.6747 17.9014L20.2175 20.4587L19.8537 19.6426Z" fill="#435B9D"/>
<path d="M29.0015 0L3.22252 16.8675L11.1225 30.1438L36.9015 13.2763L29.0015 0Z" fill="#435B9D"/>
<path d="M27.234 3.48227C27.182 3.37345 27.13 3.26471 27.0781 3.15588L6.80831 16.4321C6.91226 16.4866 6.96421 16.5954 7.01619 16.7042C7.27605 17.1939 7.43198 17.7381 7.38001 18.2822C7.32803 18.8263 7.12013 19.3704 6.75632 19.7513L10.1866 25.5732C10.7063 25.41 11.2261 25.4645 11.7458 25.6277C12.2136 25.8453 12.6813 26.1718 12.9412 26.6615C12.9932 26.7703 13.0451 26.8791 13.0971 27.0423L33.3669 13.8204L33.159 13.6028C32.8991 13.1131 32.7952 12.569 32.8471 12.0249C32.8991 11.4808 33.107 10.991 33.4189 10.5557L29.9366 4.62496C29.4169 4.78819 28.8971 4.73373 28.4294 4.57049C27.9096 4.29844 27.4938 3.91756 27.234 3.48227Z" fill="#ECF4FA"/>
<path d="M24.5316 12.1338C25.0514 13.0588 25.3112 14.0926 25.2593 15.1264C25.2073 16.1602 24.8435 17.194 24.2717 18.0646C23.7 18.9352 22.8685 19.5881 21.9329 19.969C20.9974 20.3498 19.9579 20.4043 18.9704 20.1867C17.9829 19.969 17.0994 19.4249 16.3717 18.6631C15.6961 17.9014 15.2283 16.9219 15.0204 15.8881C14.8645 14.8543 14.9685 13.7661 15.3843 12.7867C15.8001 11.8073 16.4757 10.9912 17.3073 10.3927C17.879 10.0118 18.5546 9.73972 19.2303 9.57649C19.906 9.46766 20.6336 9.46758 21.3092 9.63082C21.9849 9.79405 22.6086 10.1205 23.1803 10.5558C23.7001 10.9367 24.1678 11.4809 24.5316 12.1338Z" fill="#D0E0FA"/>
<path d="M19.8537 11.6439L23.18 15.8338L22.6603 16.2146L18.6063 15.0719L20.8412 17.7925L20.1655 18.3366L16.9431 14.3645L17.4109 13.8749L21.5168 15.0719L19.282 12.3513L19.8537 11.6439Z" fill="#8290AA"/>
<path d="M17.0995 16.2146L21.7252 12.2426L22.2449 12.8955L17.6192 16.8675L17.0995 16.2146Z" fill="#8290AA"/>
<path d="M17.8275 17.194L22.4012 13.1675L22.9209 13.8204L18.3472 17.8469L17.8275 17.194Z" fill="#8290AA"/>
<path d="M9.04282 25.4644C12.733 25.4644 15.7474 22.3085 15.7474 18.3909C15.7474 14.4733 12.733 11.3175 9.04282 11.3175C5.35268 11.3175 2.33819 14.4733 2.33819 18.3909C2.33819 22.3085 5.35268 25.4644 9.04282 25.4644Z" fill="#DCEFFE"/>
<path d="M9.04282 25.4644C12.733 25.4644 15.7474 22.3085 15.7474 18.3909C15.7474 14.4733 12.733 11.3175 9.04282 11.3175C5.35268 11.3175 2.33819 14.4733 2.33819 18.3909C2.33819 22.3085 5.35268 25.4644 9.04282 25.4644Z" fill="#ECF4FA"/>
<path d="M9 24C12.312 24 15 21.3333 15 18C15 14.7143 12.312 12 9 12C5.688 12 3 14.6667 3 18C3 21.3333 5.688 24 9 24Z" fill="#DCEFFE"/>
<path d="M8.88826 23.1248C11.331 23.1248 13.306 21.0572 13.306 18.4998C13.306 15.9425 11.331 13.8749 8.88826 13.8749C6.44549 13.8749 4.47049 15.9425 4.47049 18.4998C4.47049 21.0572 6.44549 23.1248 8.88826 23.1248Z" fill="#DCEFFE"/>
<path d="M8.88826 23.1248C11.331 23.1248 13.306 21.0572 13.306 18.4998C13.306 15.9425 11.331 13.8749 8.88826 13.8749C6.44549 13.8749 4.47049 15.9425 4.47049 18.4998C4.47049 21.0572 6.44549 23.1248 8.88826 23.1248Z" fill="#DCEFFE"/>
<path d="M10.4987 16.2145V20.7851H9.97894L7.95199 17.6836V20.7851H7.27631V16.2145H7.79604L9.82303 19.3704V16.2145H10.4987Z" fill="#435B9D"/>
<path d="M6.39268 17.6293H11.3821V18.3911H6.39268V17.6293Z" fill="#435B9D"/>
<path d="M6.39268 18.7174H11.3821V19.4248H6.39268V18.7174Z" fill="#435B9D"/>
<path d="M39.9678 48.6436C39.9678 48.9157 39.8639 49.1877 39.7599 49.4598C39.656 49.7318 39.4481 49.9496 39.2402 50.1128C39.0323 50.2761 38.7724 50.4392 38.5126 50.548C38.2527 50.6568 37.9928 50.6569 37.681 50.6569H2.2349C1.66319 50.7114 1.14344 50.4937 0.727653 50.1128C0.311863 49.732 0.0519814 49.1878 7.62939e-06 48.5893V22.9615C0.0519814 22.363 0.311863 21.8189 0.727653 21.438C1.14344 21.0571 1.66319 20.8395 2.2349 20.8939H37.7849C38.0448 20.8939 38.3567 20.894 38.6165 21.0028C38.8764 21.1116 39.1363 21.2204 39.2922 21.438C39.5001 21.6557 39.656 21.8734 39.7599 22.091C39.8639 22.3631 39.9678 22.6352 39.9678 22.9072V48.6436Z" fill="#354B82"/>
<path d="M39.9678 48.6436C39.9678 48.9157 39.8639 49.1877 39.7599 49.4598C39.656 49.7318 39.4481 49.9496 39.2402 50.1128C39.0323 50.2761 38.7724 50.4392 38.5126 50.548C38.2527 50.6568 37.9928 50.6569 37.681 50.6569H2.2349C1.66319 50.7114 1.14344 50.4937 0.727653 50.1128C0.311863 49.732 0.0519814 49.1878 7.62939e-06 48.5893V22.9615C0.0519814 22.363 0.311863 21.8189 0.727653 21.438C1.14344 21.0571 1.66319 20.8395 2.2349 20.8939H37.7849C38.0448 20.8939 38.3567 20.894 38.6165 21.0028C38.8764 21.1116 39.1363 21.2204 39.2922 21.438C39.5001 21.6557 39.656 21.8734 39.7599 22.091C39.8639 22.3631 39.9678 22.6352 39.9678 22.9072V48.6436Z" fill="#8397CF"/>
<path d="M33.783 20.9482H2.079C0.987551 20.9482 0.104004 21.8733 0.104004 23.0159V48.6436C0.104004 49.7862 0.987551 50.7112 2.079 50.7112H33.783C34.8744 50.7112 35.758 49.7862 35.758 48.6436V23.0159C35.758 21.8733 34.8744 20.9482 33.783 20.9482Z" fill="#435B9D"/>
<path d="M30.5092 48.6434H29.4697V49.2966H30.5092V48.6434Z" fill="#E0F1FE"/>
<path fill-rule="evenodd" clip-rule="evenodd" d="M32.432 49.1876L32.0682 48.6434C31.7563 48.6979 31.4445 48.6979 31.1846 48.6434L31.3406 49.2966C31.7044 49.2966 32.0682 49.2421 32.432 49.1876Z" fill="#E0F1FE"/>
<path fill-rule="evenodd" clip-rule="evenodd" d="M33.7314 47.7732L33.1597 47.4467C33.1077 47.7731 32.9518 48.0452 32.7439 48.2085L33.2116 48.6981C33.4195 48.4805 33.6274 48.0996 33.7314 47.7732Z" fill="#E0F1FE"/>
<path d="M25.0518 48.6434H24.0123V49.2966H25.0518V48.6434Z" fill="#E0F1FE"/>
<path d="M26.8707 48.6434H25.8312V49.2966H26.8707V48.6434Z" fill="#E0F1FE"/>
<path d="M28.6889 48.6434H27.6494V49.2966H28.6889V48.6434Z" fill="#E0F1FE"/>
<path d="M19.542 48.6434H18.5025V49.2966H19.542V48.6434Z" fill="#E0F1FE"/>
<path d="M21.3623 48.6434H20.3229V49.2966H21.3623V48.6434Z" fill="#E0F1FE"/>
<path d="M23.1805 48.6434H22.1411V49.2966H23.1805V48.6434Z" fill="#E0F1FE"/>
<path d="M14.0337 48.6434H12.9942V49.2966H14.0337V48.6434Z" fill="#E0F1FE"/>
<path d="M15.8519 48.6434H14.8124V49.2966H15.8519V48.6434Z" fill="#E0F1FE"/>
<path d="M17.6708 48.6434H16.6313V49.2966H17.6708V48.6434Z" fill="#E0F1FE"/>
<path d="M8.52322 48.6434H7.48375V49.2966H8.52322V48.6434Z" fill="#E0F1FE"/>
<path d="M10.3435 48.6434H9.30406V49.2966H10.3435V48.6434Z" fill="#E0F1FE"/>
<path d="M12.1624 48.6434H11.123V49.2966H12.1624V48.6434Z" fill="#E0F1FE"/>
<path fill-rule="evenodd" clip-rule="evenodd" d="M2.91 48.8613L3.32578 48.3172C3.06591 48.1539 2.90999 47.8818 2.80604 47.6097L2.23434 47.9906C2.39027 48.3715 2.59815 48.6436 2.91 48.8613Z" fill="#E0F1FE"/>
<path fill-rule="evenodd" clip-rule="evenodd" d="M4.78209 49.2966V48.6434C4.47025 48.6979 4.21038 48.6979 3.89853 48.6434L3.63866 49.2421C4.05445 49.2965 4.41828 49.2422 4.78209 49.2966Z" fill="#E0F1FE"/>
<path d="M6.65197 48.6434H5.6125V49.2966H6.65197V48.6434Z" fill="#E0F1FE"/>
<path d="M2.7031 42.1141H2.07941V43.2024H2.7031V42.1141Z" fill="#E0F1FE"/>
<path d="M2.7031 44.0731H2.07941V45.1613H2.7031V44.0731Z" fill="#E0F1FE"/>
<path fill-rule="evenodd" clip-rule="evenodd" d="M2.07941 47.1202L2.7031 46.8481V45.923L2.07941 45.9774V47.1202Z" fill="#E0F1FE"/>
<path d="M2.7031 36.3467H2.07941V37.435H2.7031V36.3467Z" fill="#E0F1FE"/>
<path d="M2.7031 38.3054H2.07941V39.3936H2.7031V38.3054Z" fill="#E0F1FE"/>
<path d="M2.7031 40.2098H2.07941V41.2981H2.7031V40.2098Z" fill="#E0F1FE"/>
<path d="M2.7031 30.579H2.07941V31.6673H2.7031V30.579Z" fill="#E0F1FE"/>
<path d="M2.7031 32.5378H2.07941V33.626H2.7031V32.5378Z" fill="#E0F1FE"/>
<path d="M2.7031 34.4424H2.07941V35.5305H2.7031V34.4424Z" fill="#E0F1FE"/>
<path fill-rule="evenodd" clip-rule="evenodd" d="M2.07941 25.8997H2.7031V24.9203L2.07941 24.7025V25.8997Z" fill="#E0F1FE"/>
<path d="M2.7031 26.7159H2.07941V27.8042H2.7031V26.7159Z" fill="#E0F1FE"/>
<path d="M2.7031 28.6746H2.07941V29.7628H2.7031V28.6746Z" fill="#E0F1FE"/>
<path d="M6.39304 22.3629H5.35357V23.0159H6.39304V22.3629Z" fill="#E0F1FE"/>
<path fill-rule="evenodd" clip-rule="evenodd" d="M3.43067 22.4173L3.79449 23.016C4.10633 22.9615 4.36618 22.9615 4.67802 23.016L4.41815 22.3085C4.05434 22.3085 3.74251 22.3629 3.43067 22.4173Z" fill="#E0F1FE"/>
<path fill-rule="evenodd" clip-rule="evenodd" d="M2.1834 23.8321L2.75513 24.2675C2.80711 23.941 2.96302 23.6689 3.17092 23.4512L2.70314 22.9614C2.44327 23.2335 2.28735 23.5056 2.1834 23.8321Z" fill="#E0F1FE"/>
<path d="M11.9014 22.3629H10.8619V23.0159H11.9014V22.3629Z" fill="#E0F1FE"/>
<path d="M10.0825 22.3629H9.04301V23.0159H10.0825V22.3629Z" fill="#E0F1FE"/>
<path d="M8.26429 22.3629H7.22482V23.0159H8.26429V22.3629Z" fill="#E0F1FE"/>
<path d="M17.4111 22.3629H16.3717V23.0159H17.4111V22.3629Z" fill="#E0F1FE"/>
<path d="M15.5929 22.3629H14.5535V23.0159H15.5929V22.3629Z" fill="#E0F1FE"/>
<path d="M13.7726 22.3629H12.7332V23.0159H13.7726V22.3629Z" fill="#E0F1FE"/>
<path d="M22.9202 22.3629H21.8807V23.0159H22.9202V22.3629Z" fill="#E0F1FE"/>
<path d="M21.1013 22.3629H20.0618V23.0159H21.1013V22.3629Z" fill="#E0F1FE"/>
<path d="M19.2824 22.3629H18.2429V23.0159H19.2824V22.3629Z" fill="#E0F1FE"/>
<path d="M28.43 22.3629H27.3905V23.0159H28.43V22.3629Z" fill="#E0F1FE"/>
<path d="M26.6096 22.3629H25.5702V23.0159H26.6096V22.3629Z" fill="#E0F1FE"/>
<path d="M24.7914 22.3629H23.752V23.0159H24.7914V22.3629Z" fill="#E0F1FE"/>
<path fill-rule="evenodd" clip-rule="evenodd" d="M32.9517 22.7439L32.5359 23.288C32.7957 23.4512 32.9516 23.7233 33.1076 23.9953L33.6273 23.6144C33.5234 23.2335 33.2635 22.9071 32.9517 22.7439Z" fill="#E0F1FE"/>
<path fill-rule="evenodd" clip-rule="evenodd" d="M31.1316 22.363V22.9615H32.0151L32.3269 22.363C31.9112 22.3085 31.4954 22.3085 31.1316 22.363Z" fill="#E0F1FE"/>
<path d="M30.3012 22.3629H29.2617V23.0159H30.3012V22.3629Z" fill="#E0F1FE"/>
<path d="M33.8345 28.4027H33.2108V29.4909H33.8345V28.4027Z" fill="#E0F1FE"/>
<path d="M33.8345 26.4438H33.2108V27.5321H33.8345V26.4438Z" fill="#E0F1FE"/>
<path fill-rule="evenodd" clip-rule="evenodd" d="M33.8345 24.4849L33.2108 24.7025V25.6276L33.8345 25.5731V24.4849Z" fill="#E0F1FE"/>
<path d="M33.8345 34.1703H33.2108V35.2584H33.8345V34.1703Z" fill="#E0F1FE"/>
<path d="M33.8345 32.2657H33.2108V33.354H33.8345V32.2657Z" fill="#E0F1FE"/>
<path d="M33.8345 30.307H33.2108V31.3953H33.8345V30.307Z" fill="#E0F1FE"/>
<path d="M33.8345 39.9377H33.2108V41.026H33.8345V39.9377Z" fill="#E0F1FE"/>
<path d="M33.8345 38.0333H33.2108V39.1215H33.8345V38.0333Z" fill="#E0F1FE"/>
<path d="M33.8345 36.1289H33.2108V37.2172H33.8345V36.1289Z" fill="#E0F1FE"/>
<path fill-rule="evenodd" clip-rule="evenodd" d="M33.8345 45.7054H33.2108V46.6304L33.8345 46.8481V45.7054Z" fill="#E0F1FE"/>
<path d="M33.8345 43.801H33.2108V44.8892H33.8345V43.801Z" fill="#E0F1FE"/>
<path d="M33.8345 41.8422H33.2108V42.9304H33.8345V41.8422Z" fill="#E0F1FE"/>
<path d="M40.0198 39.7746H29.1573C28.6376 39.7746 28.1178 39.5569 27.754 39.1761C27.3902 38.7952 27.1823 38.2511 27.1823 37.707V33.7894C27.1823 33.2453 27.3902 32.7011 27.754 32.3202C28.1178 31.9394 28.6376 31.7218 29.1573 31.7218H40.0198V39.7746Z" fill="#354B82" stroke="#354B82" stroke-width="0.15" stroke-miterlimit="10"/>
<path d="M40.0198 39.7746H29.1573C28.6376 39.7746 28.1178 39.5569 27.754 39.1761C27.3902 38.7952 27.1823 38.2511 27.1823 37.707V33.7894C27.1823 33.2453 27.3902 32.7011 27.754 32.3202C28.1178 31.9394 28.6376 31.7218 29.1573 31.7218H40.0198V39.7746Z" fill="#435B9D"/>
<path d="M30.9246 38.0335C31.9641 38.0335 32.7957 37.1629 32.7957 36.0747C32.7957 34.9865 31.9641 34.1158 30.9246 34.1158C29.8851 34.1158 29.0536 34.9865 29.0536 36.0747C29.0536 37.1629 29.8851 38.0335 30.9246 38.0335Z" fill="#DCEFFE"/>
</svg>
