<svg width="46" height="42" viewBox="0 0 46 42" fill="none" xmlns="http://www.w3.org/2000/svg">
<path d="M15.0693 23.5357C8.86328 18.4436 2.85329 15.2367 2.0476 9.15345C2.20003 2.73975 9.62542 4.66386 7.77451 10.0863L9.23346 10.0669C10.54 0.815643 -0.0210553 2.35104 0.458002 9.17288C0.392676 13.3904 5.64053 19.085 13.4361 24.177C15.1564 25.1877 14.5684 26.1206 13.741 26.4899L13.9369 26.8591L14.22 27.345C14.6555 27.1701 15.0475 26.8591 15.3088 26.451C15.0475 26.8397 14.6555 27.1701 14.22 27.345L14.3289 27.5588C15.7225 27.3839 17.2032 25.3626 15.0693 23.5357ZM7.0777 5.24692C6.07604 4.48894 4.63887 4.43063 3.463 5.11088C2.96217 5.40241 2.54843 5.79112 2.24358 6.25757C2.54843 5.79112 2.96217 5.40241 3.48477 5.11088C4.66064 4.43063 6.07604 4.48894 7.0777 5.24692C8.29712 6.14095 8.29712 6.14095 7.0777 5.24692ZM14.9386 26.004C14.9168 26.0623 14.8733 26.1012 14.8515 26.1595C14.8733 26.1012 14.9168 26.0623 14.9386 26.004C15.1999 25.4792 15.0692 24.9156 14.5466 24.352L9.42944 20.5232C6.88173 18.6379 4.90017 16.7916 3.52833 15.0035C2.02583 13.06 1.17659 11.1164 1.02416 9.25062C0.937061 7.96788 1.22014 6.82119 1.80807 5.92716C1.22014 6.82119 0.937061 7.96788 1.02416 9.25062C1.17659 11.1164 2.00405 13.0405 3.52833 15.0035C4.90017 16.7916 6.9035 18.6379 9.42944 20.5232L14.5466 24.352C15.0692 24.9156 15.2217 25.4792 14.9386 26.004Z" fill="#DCE3F3"/>
<path d="M15.0695 23.5159C8.86352 18.4238 2.85353 15.217 2.04784 9.13369C2.20027 2.71999 9.60388 4.66354 7.75298 10.086H8.29736C8.71109 7.88982 8.27559 6.14063 7.05617 5.2466C6.0545 4.48862 4.61733 4.43031 3.44146 5.11055C2.09139 5.88797 1.39458 7.3845 1.52523 9.21143C1.78654 12.5932 4.552 16.2471 9.71276 20.0758L14.8735 23.9435L14.8953 23.9629C15.8534 24.9736 15.6356 25.8482 15.3961 26.2952C15.1566 26.7616 14.634 27.0532 14.1332 27.2475L14.3074 27.5779C15.7227 27.3836 17.2035 25.3428 15.0695 23.5159Z" fill="#10286A"/>
<path d="M31.967 27.617L32.0758 27.4032C31.6403 27.2283 31.2266 26.9173 30.9653 26.5286C31.2266 26.9173 31.6403 27.2283 32.0758 27.4032L32.3371 26.9173L32.5331 26.548C31.7057 26.1788 31.096 25.2653 32.8162 24.2352C40.6118 19.0848 45.7943 13.3514 45.7072 9.13389C46.1427 2.31205 35.5599 0.85439 36.9317 10.0862H38.3907C36.4962 4.68317 43.8999 2.70076 44.0958 9.11445C43.3337 15.2172 37.3672 18.4629 31.1831 23.5939C29.0926 25.4597 30.5733 27.4615 31.967 27.617ZM39.0439 5.26623C40.0456 4.50825 41.461 4.43051 42.6587 5.11075C43.1595 5.40228 43.5732 5.79099 43.8999 6.25744C43.5732 5.79099 43.1595 5.40228 42.6587 5.11075C41.4828 4.43051 40.0674 4.50825 39.0439 5.26623C37.8463 6.1797 37.8463 6.1797 39.0439 5.26623ZM31.7274 24.4296L36.8229 20.5619C39.3488 18.6573 41.3304 16.7915 42.6804 15.0034C44.1829 13.0404 45.0104 11.0969 45.141 9.23106C45.2281 7.94833 44.9233 6.80163 44.3354 5.92704C44.9451 6.82107 45.2281 7.94833 45.141 9.2505C45.0104 11.1163 44.1829 13.0598 42.6804 15.0228C41.3086 16.8109 39.3488 18.6961 36.8229 20.5814L31.7274 24.4296C31.2048 24.9932 31.0742 25.5568 31.3355 26.0816C31.3573 26.1399 31.4008 26.1788 31.4226 26.2176C31.4008 26.1788 31.3573 26.1205 31.3355 26.0622C31.0742 25.5763 31.2048 24.9932 31.7274 24.4296Z" fill="#DCE3F3"/>
<path d="M31.1833 23.5946C37.3675 18.4637 43.334 15.2179 44.0961 9.11522C43.9001 2.70153 36.4965 4.70338 38.391 10.1064H37.8466C37.4328 7.91022 37.8466 6.16103 39.0442 5.24757C40.0459 4.48959 41.4613 4.41185 42.6589 5.09209C44.009 5.85007 44.7276 7.3466 44.6187 9.17353C44.3792 12.5553 41.6573 16.2286 36.5183 20.0962L31.3793 24.0028L31.3575 24.0222C30.3994 25.0328 30.6389 25.9074 30.8785 26.3545C31.1398 26.8209 31.6624 27.1124 32.1414 27.3068L31.9672 27.6372C30.5736 27.4623 29.0711 25.441 31.1833 23.5946Z" fill="#10286A"/>
<path d="M32.7287 40.8922V41.0865C32.7287 41.5918 32.315 42 31.8359 42L13.8277 41.9806C13.3269 41.9806 12.9349 41.5724 12.9349 41.0477V40.8922C12.9349 40.7561 12.9567 40.6201 13.022 40.5035C13.1527 40.1925 13.4575 39.9787 13.8059 39.9593C17.1593 39.8427 19.4675 38.8126 20.9047 36.9857C20.9047 36.9662 20.9265 36.9662 20.9265 36.9468C20.9918 36.8496 21.0571 36.7719 21.1224 36.6747C21.1224 36.6552 21.1442 36.6552 21.1442 36.6358C21.2095 36.6164 21.2749 36.4026 21.362 36.0333C21.362 35.9944 21.3837 35.9361 21.3837 35.8973C21.4055 35.8195 21.4055 35.7223 21.4273 35.6252C21.5797 34.6534 21.7539 33.118 21.7975 31.777C21.8192 31.3882 21.8192 31.019 21.7975 30.6886C21.7975 30.5525 21.7975 30.4359 21.7757 30.2999C21.7757 30.261 21.7757 30.2027 21.7757 30.1638C21.7321 29.6196 22.1459 29.1726 22.6685 29.1726H23.6701C23.9097 29.1726 24.1274 29.2698 24.2799 29.4253C24.4758 29.6196 24.5847 29.8917 24.5629 30.1832C24.5629 30.1832 24.5629 30.1832 24.5629 30.2027C24.5412 30.3193 24.5412 30.4359 24.5412 30.572C24.5412 30.6108 24.5412 30.6497 24.5412 30.708C24.4758 32.2434 24.6065 34.4202 24.7807 35.6446C24.8025 35.7418 24.8025 35.839 24.8242 35.9167C24.8242 35.9556 24.846 36.0139 24.846 36.0527C24.9113 36.4415 24.9984 36.6552 25.0638 36.5969C25.0855 36.6358 25.1073 36.6552 25.1509 36.6941C25.1944 36.7524 25.238 36.7913 25.2597 36.8302C25.3033 36.8885 25.3468 36.9468 25.4122 37.0051C27.0235 38.8126 29.2011 39.7649 31.8794 39.9593C32.2278 39.9787 32.5109 40.2119 32.6416 40.5229C32.6851 40.6395 32.7287 40.7756 32.7287 40.8922Z" fill="#DCE3F3"/>
<path d="M19.5767 25.4406C19.5767 26.5484 19.8163 27.5785 20.2082 28.4336C20.6002 29.2693 21.1446 29.9301 21.7978 30.3188C22.2116 30.5715 22.6471 30.6881 23.1043 30.6881C23.3657 30.6881 23.6052 30.6493 23.8665 30.5715C24.1278 30.4938 24.3673 30.3772 24.5851 30.2022C25.1077 29.8524 25.5432 29.3082 25.8916 28.6474C26.2618 27.9283 26.5231 27.0731 26.6102 26.1402C26.632 25.9264 26.632 25.6932 26.6537 25.46V25.4017C26.6537 22.5058 25.0859 20.1541 23.1261 20.1541C21.2534 20.1541 19.7292 22.3114 19.6203 25.0518C19.5767 25.1879 19.5767 25.3239 19.5767 25.4406Z" fill="#DCE3F3"/>
<path d="M8.92847 2.97321C9.23332 13.3517 12.4778 21.9422 18.858 27.3647C19.2064 27.6757 19.5766 27.9672 19.9686 28.2587C20.0557 28.317 20.1429 28.3753 20.2082 28.4336C20.5131 28.6668 20.8396 28.8807 21.1662 29.1139C21.1662 29.1333 21.1662 29.1722 21.188 29.1916H25.2382C25.2382 29.1722 25.2382 29.1333 25.2382 29.1139C25.3253 29.0556 25.4124 28.9973 25.4995 28.939C25.6301 28.8612 25.7608 28.764 25.8915 28.6669C25.9568 28.6086 26.0439 28.5697 26.1092 28.5114C33.4257 23.2055 36.9751 14.1097 37.28 2.97321C37.28 2.77886 37.2364 2.60394 37.1493 2.46789C36.9969 2.19579 36.7138 2.02087 36.3872 2.02087H9.84303C9.5164 2.02087 9.23332 2.19579 9.0809 2.46789C8.97202 2.60394 8.92847 2.77886 8.92847 2.97321Z" fill="#DCE3F3"/>
<path d="M21.8194 30.0283C22.2114 29.9894 22.6251 30.0088 23.0171 30.0283C23.4744 30.0477 23.9316 30.0866 24.3889 30.106C24.476 30.106 24.5631 30.1254 24.6502 30.1449C24.6285 30.1643 24.5849 30.1837 24.5631 30.2032C24.5413 30.3198 24.5414 30.4364 24.5414 30.5725C24.3236 30.7279 24.0623 30.8445 23.8228 30.9223C23.5832 31 23.3219 31.0389 23.0606 31.0389C22.6033 31.0389 22.1896 30.9223 21.7977 30.6891C21.7977 30.553 21.7977 30.4364 21.7759 30.3004C21.7541 30.2809 21.7323 30.2809 21.7323 30.2615C21.7759 30.2032 21.7977 30.1254 21.8194 30.0283Z" fill="#10286A"/>
<path d="M23.8445 29.9311C23.8445 30.1448 23.8445 30.3586 23.8445 30.5724C23.8662 32.4965 23.9098 34.2457 24.084 35.6451C24.084 35.6645 24.084 35.7034 24.084 35.7228C24.6937 35.7811 24.8461 36.4225 24.4759 36.6946C24.4542 36.714 24.4106 36.7335 24.3671 36.7529C25.4341 39.7848 28.7657 40.9509 32.707 41.087V40.8732C32.707 40.3873 32.3368 39.9792 31.8796 39.9403C29.1141 39.7265 26.8712 38.7353 25.2599 36.8112C25.2163 36.7723 25.1728 36.714 25.1292 36.6752C25.2381 36.6752 25.3252 36.6363 25.4123 36.578C25.5429 36.4808 25.63 36.3253 25.63 36.131C25.63 35.9755 25.5647 35.8589 25.4776 35.7617C25.3905 35.6645 25.2599 35.6062 25.1074 35.6062H24.759C24.5848 34.3623 24.4324 32.1856 24.5195 30.6696C24.5195 30.4947 24.5413 30.3392 24.563 30.1837C25.0856 29.8339 25.5212 29.2897 25.8696 28.6289C33.3385 23.3424 36.9314 14.1883 37.2581 2.93523C37.2581 2.74088 37.2145 2.56596 37.1274 2.42991H37.8024V0.0976562H34.3402C34.3184 0.622413 34.2966 1.49701 34.2748 2.02176C34.2748 2.17725 34.2531 2.3133 34.2531 2.46878C33.774 11.0592 31.6836 18.9306 26.6099 25.4998C26.0655 26.2189 25.4776 26.8991 24.8461 27.5794C24.7808 28.2013 24.6719 28.7261 24.4324 29.1925C24.3888 29.2897 24.3453 29.3674 24.28 29.4452C24.1711 29.6201 24.0404 29.7756 23.8445 29.9311Z" fill="#10286A"/>
<path d="M22.56 28.4336C22.5383 28.3753 22.5165 28.317 22.4729 28.2587C22.3423 27.9672 22.2334 27.6757 22.1245 27.3647C20.0777 21.9422 19.0324 13.3517 18.9453 2.97321C18.9453 2.77886 18.9671 2.60394 18.9889 2.46789C19.0324 2.19579 19.1195 2.02087 19.2284 2.02087H12.5216C12.2603 2.02087 12.0208 2.19579 11.8901 2.46789C11.8248 2.62337 11.7812 2.79829 11.7812 2.97321C12.0426 13.3517 14.7209 21.9422 19.9688 27.3647C20.2736 27.6757 20.5785 27.9672 20.8833 28.2587C20.9487 28.317 21.014 28.3753 21.0793 28.4336C21.3406 28.6669 21.6019 28.8807 21.885 29.1139C21.885 29.1333 21.885 29.1722 21.885 29.1916H22.8649C22.8649 29.1722 22.8649 29.1333 22.8649 29.1139C22.756 28.8807 22.6471 28.6669 22.56 28.4336Z" fill="white"/>
<path d="M10.2785 0C10.2785 0.68024 10.3003 1.71032 10.3003 2.37112H13.7626C13.7626 1.71032 13.7843 0.699676 13.7843 0H10.2785Z" fill="white"/>
<path d="M32.7291 40.8918V41.0861C32.7291 41.5914 32.3154 41.9996 31.8364 41.9996L13.8282 41.9801C13.3273 41.9801 12.9354 41.572 12.9354 41.0472V40.8918C12.9354 40.7557 12.9571 40.6197 13.0225 40.5031H32.642C32.6856 40.6391 32.7291 40.7751 32.7291 40.8918Z" fill="#10286A"/>
<path d="M37.868 0H8.51483V2.37112H37.868V0Z" fill="#DCE3F3"/>
<path d="M8.90665 2.91557L37.2799 3.7513V2.29364H8.90665V2.91557Z" fill="#10286A"/>
</svg>
