<svg xmlns="http://www.w3.org/2000/svg" width="260" height="238" fill="none" viewBox="0 0 260 238"><g style="mix-blend-mode:multiply" opacity=".5"><path fill="#DD851B" d="M205.331 62.7453C206.636 64.2166 207.854 65.6013 209.158 67.0725L246.206 27.9541L249.598 35.6567L259.165 10.0393L234.031 21.0305L241.945 23.9731L205.331 62.7453Z"/><path fill="#DD851B" d="M241.684 24.5796L147.324 124.106L139.236 116.491C138.105 115.452 136.279 115.452 135.148 116.577L122.277 129.818L118.45 126.184C117.32 125.058 115.494 125.145 114.363 126.27L59.6601 183.996L56.0944 179.582C55.5726 178.976 54.7899 178.543 54.0072 178.543C53.1375 178.543 52.3548 178.803 51.833 179.409L4.00061 229.865L4.26151 238L53.7463 185.727L57.312 190.14C57.8338 190.746 58.6165 191.179 59.3992 191.179C60.2689 191.179 61.0516 190.919 61.5734 190.314L116.624 132.242L120.451 135.877C121.581 136.915 123.408 136.915 124.538 135.79L137.409 122.549L145.584 130.165C146.106 130.684 146.889 130.944 147.672 130.944C148.454 130.944 149.15 130.597 149.672 130.078L245.598 28.8203C244.206 27.4356 242.988 25.9643 241.684 24.5796Z"/></g><path fill="#FD9727" d="M201.244 52.706C202.548 54.1772 203.766 55.562 205.07 57.0332L242.119 17.9148L245.51 25.6174L255.077 0L229.943 10.9912L237.857 13.9338L201.244 52.706Z"/><path fill="#FD9727" d="M237.683 14.5403L143.323 114.154L135.235 106.538C134.105 105.499 132.278 105.499 131.148 106.624L118.276 119.866L114.45 116.231C113.319 115.106 111.493 115.192 110.362 116.317L55.6595 174.043L52.0939 169.629C51.5721 169.023 50.7893 168.591 50.0066 168.591C49.1369 168.591 48.3542 168.85 47.8324 169.456L6.10352e-05 219.912L0.260964 228.047L49.7457 175.774L53.3114 180.188C53.8332 180.793 54.6159 181.226 55.3986 181.226C56.2683 181.226 57.051 180.967 57.5728 180.361L112.624 122.289L116.45 125.924C117.581 126.962 119.407 126.962 120.538 125.837L133.409 112.596L141.584 120.212C142.106 120.731 142.888 120.991 143.671 120.991C144.454 120.991 145.15 120.645 145.671 120.125L241.597 18.8675C240.206 17.4828 238.901 16.0116 237.683 14.5403Z"/><path fill="#A4C1F5" d="M182.777 148.438C180.995 151.877 179.03 155.127 177.026 158.451C176.46 159.364 175.931 160.204 175.29 161.078C173.178 164.252 170.955 167.277 168.659 170.263C168.018 171.138 167.342 171.901 166.628 172.738C164.295 175.612 161.891 178.265 159.34 180.84C158.552 181.638 157.802 182.363 157.014 183.161C154.538 185.591 151.991 187.797 149.296 189.927C148.36 190.649 147.463 191.298 146.527 192.019C144.882 193.208 143.274 194.324 141.593 195.402C140.172 196.336 138.754 197.086 137.41 197.874C136.253 198.481 135.096 199.088 134.051 199.66C130.694 201.262 127.527 202.497 124.364 203.364C122.727 203.815 121.239 204.157 119.677 204.462C117.521 204.83 115.368 205.013 113.29 205.049C111.323 205.051 109.359 204.869 107.507 204.651C106.47 204.485 105.359 204.28 104.398 203.968C102.326 203.451 100.48 202.68 98.5978 201.797L80.6715 192.507L80.6439 191.657L80.5804 190.696L80.5355 188.074L80.5734 188.001C79.4055 186.282 78.3492 184.528 77.4066 182.555C76.7172 181.176 76.1035 179.652 75.5278 178.054C74.4121 174.97 73.5219 171.632 72.9689 168.004C72.7599 166.782 72.5889 165.487 72.4179 164.191C72.2151 162.416 72.0861 160.678 71.995 158.868C71.9039 157.057 71.9245 155.212 71.9452 153.366C71.9575 152.259 72.0078 151.078 72.0581 149.898C72.2069 146.541 72.579 143.114 73.1366 139.691C73.2965 138.66 73.4943 137.556 73.6922 136.452C74.2877 132.956 75.1066 129.389 76.1109 125.826C76.3446 124.834 76.69 123.806 76.9616 122.74C77.5785 120.647 78.2334 118.48 79.0358 116.39L78.946 111.147L78.9521 110.593L93.5118 82.4998L93.773 82.3568L98.1832 79.4451C99.502 77.6227 100.783 75.8735 102.175 74.0893C102.816 73.2147 103.492 72.4515 104.206 71.6151C106.539 68.7402 108.943 66.0881 111.42 63.4742C112.208 62.6761 112.958 61.9511 113.746 61.153C116.222 58.7236 118.807 56.4439 121.464 54.3869C122.4 53.6653 123.224 52.9785 124.233 52.2951C125.916 51.033 127.562 49.844 129.317 48.8047C130.7 47.9433 132.082 47.0819 133.388 46.3669C134.545 45.7599 135.628 45.1147 136.747 44.5809C140.03 42.9412 143.271 41.7438 146.434 40.8772C147.998 40.3882 149.559 40.0838 151.121 39.7794C153.277 39.4117 155.468 39.1555 157.508 39.1918C157.694 39.1951 157.879 39.1984 157.991 39.1635L159.972 37.8698L161.43 36.8621L179.282 46.1144C181.089 47.1433 182.819 48.3186 184.474 49.6402C185.172 50.2803 185.869 50.9203 186.567 51.5603C187.925 52.9136 189.168 54.4863 190.374 56.1322C191.542 57.8512 192.634 59.7165 193.577 61.69C194.266 63.0682 194.88 64.5928 195.382 66.1522C196.498 69.2363 197.314 72.5365 197.941 76.2025C198.15 77.4245 198.321 78.7197 198.492 80.0148C198.733 81.7173 198.862 83.4548 198.953 85.2654C199.006 87.1491 199.059 89.0328 199.001 90.9515C198.988 92.0588 198.938 93.2393 198.888 94.4198C198.739 97.7766 198.367 101.203 197.809 104.627C197.649 105.658 197.451 106.762 197.254 107.866C196.62 111.435 195.839 114.928 194.835 118.492C194.601 119.484 194.256 120.512 193.984 121.577C192.942 125.214 191.678 128.735 190.303 132.292C189.884 133.281 189.576 134.235 189.157 135.225C187.708 138.743 186.074 142.258 184.366 145.735C183.725 146.609 183.27 147.487 182.777 148.438Z"/><path fill="#435B9D" d="M186.317 51.4776C185.678 50.7644 184.999 50.1263 184.281 49.5635C182.706 48.1749 181.014 47.0119 179.206 46.0745L161.698 37.001L160.986 37.4904L160.273 37.9798L158.286 39.3352C158.102 39.3354 157.919 39.3356 157.807 39.3733L190.001 56.0581C188.838 54.4059 187.636 52.829 186.317 51.4776Z"/><path fill="#435B9D" d="M193.622 62.3239L150.6 40.0269C149.09 40.1973 147.509 40.5043 145.968 40.9183L195.564 66.6219C195.014 65.124 194.353 63.6557 193.622 62.3239Z"/><path fill="#435B9D" d="M197.814 76.5655L136.473 44.775C135.383 45.2497 134.258 45.7926 133.207 46.3739L198.464 80.1944C198.295 78.8937 198.054 77.7296 197.814 76.5655Z"/><path fill="#435B9D" d="M198.819 91.3502L123.961 52.5543C123.094 53.1444 122.191 53.8027 121.289 54.461L198.728 94.5947C198.819 93.5159 198.801 92.4672 198.819 91.3502Z"/><path fill="#435B9D" d="M197.707 105.038L113.345 61.3161C112.624 61.9819 111.867 62.7161 111.111 63.4502L197.251 108.093C197.489 107.09 197.578 106.011 197.707 105.038Z"/><path fill="#435B9D" d="M194.343 118.655L104.158 71.9158C103.513 72.621 102.906 73.4326 102.226 74.206L193.586 121.555C193.899 120.591 194.139 119.589 194.343 118.655Z"/><path fill="#435B9D" d="M189.653 132.683L93.5131 82.8572L93.257 82.9914L92.0213 85.3757L188.602 135.43C188.929 134.62 189.254 133.633 189.653 132.683Z"/><path fill="#435B9D" d="M184.094 146.26L86.6425 95.7548L85.2977 98.3495L182.749 148.855C183.209 147.967 183.634 147.148 184.094 146.26Z"/><path fill="#435B9D" d="M78.7863 110.913L78.7946 111.437L174.861 161.225C175.394 160.375 175.966 159.632 176.5 158.782L79.9187 108.728L78.7863 110.913Z"/><path fill="#435B9D" d="M75.8449 126.367L166.103 173.144C166.89 172.166 167.65 171.059 168.484 169.99L77.1234 122.641C76.657 123.901 76.2641 125.198 75.8449 126.367Z"/><path fill="#435B9D" d="M73.4159 140.469L156.924 183.749C157.784 182.808 158.691 181.777 159.598 180.745L74.3283 136.553C74.0084 137.889 73.7358 139.134 73.4159 140.469Z"/><path fill="#435B9D" d="M71.5186 153.749L146.297 192.504C147.307 191.642 148.364 190.688 149.42 189.734L71.9816 149.6C71.8115 151.014 71.6415 152.427 71.5186 153.749Z"/><path fill="#435B9D" d="M72.4499 168.496L133.786 200.284C135.018 199.537 136.297 198.698 137.503 197.821L72.2452 164.001C72.2506 165.621 72.3502 167.058 72.4499 168.496Z"/><path fill="#435B9D" d="M77.5344 183.201L119.709 205.058C121.203 204.879 122.767 204.564 124.293 204.142L75.567 178.889C76.1756 180.417 76.8196 181.877 77.5344 183.201Z"/><path fill="#435B9D" d="M80.7577 190.777L80.823 191.744L80.852 192.6L98.9477 201.978C100.809 202.943 102.711 203.649 104.802 204.172C105.81 204.414 106.892 204.695 107.938 204.864C109.844 205.197 111.751 205.345 113.773 205.273L80.7088 188.137L80.7577 190.777Z"/><path fill="#DCEFFE" d="M60.4844 152.881C58.7547 113.27 84.2809 64.0163 117.529 42.8112C150.704 21.5681 179.04 36.439 180.696 76.0123C182.352 115.586 156.826 164.839 123.651 186.082C90.4026 207.287 62.1406 192.454 60.4844 152.881Z"/><path fill="#A4C1F5" d="M81.1063 93.6576C91.4357 73.7269 105.451 57.4723 120.672 47.6993C134.848 38.6857 148.153 36.5647 158.142 41.7418C168.205 46.9569 174.067 59.1978 174.835 76.2348C175.588 94.3795 170.349 115.275 160.02 135.206C149.69 155.137 135.675 171.391 120.454 181.164C106.278 190.178 93.0462 192.337 83.057 187.16C72.9944 181.945 67.0586 169.666 66.3643 152.667C65.5382 134.484 70.777 113.588 81.1063 93.6576Z"/><path fill="#DCEFFE" d="M84.534 99.8229C94.8633 79.8922 108.721 63.5564 123.558 53.5839C137.35 44.3714 150.193 42.0111 159.793 46.9863C169.393 51.9614 174.94 64.0389 175.324 80.877C175.692 98.8223 170.296 119.637 159.967 139.568C149.637 159.498 135.853 175.872 120.943 185.807C107.151 195.019 94.3072 197.379 84.7075 192.404C75.1077 187.429 69.5607 175.352 69.1769 158.513C68.8091 140.568 74.2046 119.754 84.534 99.8229Z"/><path fill="#A4C1F5" d="M146.211 85.7363L134.748 113.176L130.308 79.0928L118.742 74.2611L93.6666 134.286L108.124 140.326L119.587 112.886L124.027 146.969L135.593 151.801L160.669 91.7759L146.211 85.7363Z"/><rect width="17.425" height="64.49" fill="#A4C1F5" transform="matrix(-0.378457 0.925619 -0.926784 -0.375596 160.254 116.782)"/></svg>