<?xml version="1.0" encoding="UTF-8"?> <svg xmlns="http://www.w3.org/2000/svg" width="250" height="229" viewBox="0 0 250 229" fill="none"><g style="mix-blend-mode:multiply" opacity="0.5"><path d="M197.567 60.373C198.822 61.7886 199.994 63.121 201.249 64.5366L236.896 26.8975L240.16 34.3087L249.364 9.66006L225.181 20.2357L232.796 23.0669L197.567 60.373Z" fill="#DD851B"></path><path d="M232.545 23.6504L141.753 119.414L133.97 112.086C132.883 111.086 131.125 111.086 130.038 112.169L117.653 124.91L113.971 121.412C112.883 120.33 111.126 120.413 110.038 121.495L57.4039 177.038L53.9731 172.791C53.471 172.208 52.7179 171.792 51.9648 171.792C51.128 171.792 50.3749 172.042 49.8728 172.625L3.84924 221.173L4.10028 229L51.7138 178.704L55.1446 182.951C55.6467 183.533 56.3998 183.95 57.1529 183.95C57.9897 183.95 58.7428 183.7 59.2449 183.117L112.214 127.241L115.896 130.739C116.984 131.738 118.741 131.738 119.829 130.655L132.213 117.915L140.079 125.243C140.581 125.742 141.334 125.992 142.087 125.992C142.84 125.992 143.51 125.659 144.012 125.159L236.31 27.7307C234.971 26.3984 233.8 24.9827 232.545 23.6504Z" fill="#DD851B"></path></g><path d="M193.634 50.7129C194.889 52.1285 196.06 53.4609 197.315 54.8765L232.963 17.2374L236.226 24.6486L245.431 0L221.248 10.5756L228.863 13.4069L193.634 50.7129Z" fill="#FD9727"></path><path d="M228.695 13.9903L137.903 109.837L130.121 102.509C129.033 101.51 127.276 101.51 126.188 102.592L113.804 115.333L110.122 111.835C109.034 110.753 107.277 110.836 106.189 111.919L53.5547 167.461L50.1239 163.214C49.6218 162.632 48.8687 162.215 48.1156 162.215C47.2788 162.215 46.5257 162.465 46.0236 163.048L0 211.596L0.251037 219.423L47.8645 169.127L51.2954 173.374C51.7974 173.957 52.5506 174.373 53.3037 174.373C54.1405 174.373 54.8936 174.123 55.3957 173.54L108.365 117.664L112.046 121.162C113.134 122.161 114.892 122.161 115.979 121.079L128.364 108.338L136.23 115.666C136.732 116.166 137.485 116.415 138.238 116.415C138.991 116.415 139.661 116.082 140.163 115.583L232.461 18.1539C231.122 16.8216 229.867 15.406 228.695 13.9903Z" fill="#FD9727"></path><path d="M187.108 151.953C185.2 155.258 183.121 158.371 181.001 161.554C180.403 162.427 179.846 163.23 179.177 164.063C176.957 167.095 174.636 169.974 172.245 172.813C171.577 173.646 170.878 174.368 170.139 175.16C167.718 177.888 165.237 180.394 162.616 182.818C161.806 183.569 161.037 184.251 160.227 185.002C157.687 187.286 155.087 189.348 152.346 191.328C151.395 191.998 150.485 192.598 149.534 193.268C147.865 194.367 146.237 195.396 144.539 196.385C143.103 197.244 141.678 197.921 140.324 198.639C139.162 199.187 138 199.735 136.948 200.253C133.584 201.686 130.422 202.767 127.282 203.486C125.656 203.86 124.182 204.134 122.637 204.368C120.508 204.638 118.389 204.727 116.351 204.676C114.424 204.595 112.508 204.332 110.703 204.04C109.694 203.833 108.616 203.586 107.689 203.238C105.683 202.642 103.91 201.806 102.107 200.859L84.9791 190.97L84.9921 190.134L84.9752 189.187L85.0547 186.607L85.0953 186.537C84.0318 184.798 83.0794 183.029 82.2488 181.049C81.6381 179.665 81.1086 178.141 80.6197 176.546C79.6718 173.467 78.9568 170.147 78.5858 166.558C78.4386 165.348 78.332 164.067 78.2255 162.787C78.1104 161.033 78.0659 159.319 78.0619 157.535C78.058 155.752 78.1651 153.938 78.2723 152.125C78.3366 151.037 78.4415 149.878 78.5463 148.72C78.8503 145.426 79.3764 142.073 80.0841 138.731C80.2894 137.725 80.5352 136.648 80.7811 135.571C81.5294 132.159 82.4998 128.687 83.6519 125.227C83.9276 124.261 84.3145 123.265 84.6308 122.229C85.334 120.197 86.0778 118.095 86.9625 116.074L87.1215 110.915L87.1537 110.371L102.744 83.3675L103.007 83.238L107.466 80.5615C108.844 78.8256 110.181 77.16 111.63 75.4648C112.299 74.632 112.998 73.9102 113.737 73.1181C116.158 70.3902 118.638 67.8843 121.189 65.4191C121.999 64.6677 122.768 63.9867 123.578 63.2353C126.118 60.9514 128.759 58.8193 131.459 56.9092C132.41 56.2392 133.25 55.5988 134.271 54.9695C135.98 53.7997 137.649 52.7003 139.418 51.7526C140.813 50.964 142.208 50.1755 143.522 49.5276C144.684 48.9797 145.775 48.3911 146.897 47.9135C150.191 46.44 153.424 45.3995 156.564 44.6809C158.119 44.2662 159.664 44.0327 161.208 43.7993C163.338 43.5288 165.498 43.3692 167.495 43.491C167.676 43.502 167.858 43.5131 167.969 43.4835L169.971 42.2952L171.447 41.366L188.505 51.2143C190.226 52.302 191.867 53.5303 193.426 54.8993C194.08 55.5579 194.733 56.2165 195.387 56.8752C196.653 58.2627 197.798 59.8612 198.902 61.5301C199.965 63.2692 200.948 65.149 201.778 67.1288C202.389 68.5128 202.919 70.0374 203.337 71.5916C204.285 74.6705 204.929 77.9492 205.371 81.5796C205.518 82.7897 205.625 84.0702 205.731 85.3506C205.887 87.0344 205.931 88.7479 205.935 90.5316C205.899 92.3857 205.862 94.2398 205.714 96.1235C205.65 97.2115 205.545 98.3699 205.44 99.5283C205.136 102.822 204.61 106.175 203.902 109.517C203.697 110.524 203.451 111.601 203.205 112.677C202.417 116.16 201.487 119.561 200.335 123.022C200.059 123.988 199.672 124.983 199.356 126.019C198.163 129.55 196.759 132.959 195.244 136.397C194.786 137.352 194.44 138.277 193.983 139.232C192.397 142.63 190.63 146.016 188.792 149.362C188.123 150.195 187.636 151.039 187.108 151.953Z" fill="#E9EECC"></path><path d="M195.146 56.7834C194.553 56.0552 193.917 55.3993 193.241 54.8157C191.763 53.3843 190.16 52.1697 188.432 51.1719L171.704 41.514L170.982 41.965L170.261 42.4161L168.25 43.6647C168.07 43.6572 167.89 43.6497 167.779 43.682L198.54 61.4416C197.478 59.7683 196.375 58.1674 195.146 56.7834Z" fill="#D3D8B6"></path><path d="M201.793 67.7536L160.686 44.0202C159.198 44.1242 157.635 44.3593 156.105 44.7014L203.493 72.0606C203.024 70.5649 202.447 69.0936 201.793 67.7536Z" fill="#D3D8B6"></path><path d="M205.228 81.9307L146.619 48.0925C145.529 48.5132 144.401 48.9995 143.343 49.5266L205.695 85.5256C205.59 84.2398 205.409 83.0853 205.228 81.9307Z" fill="#D3D8B6"></path><path d="M205.517 96.5074L133.993 55.2125C133.115 55.756 132.2 56.3651 131.284 56.9743L205.275 99.6931C205.416 98.6364 205.448 97.6047 205.517 96.5074Z" fill="#D3D8B6"></path><path d="M203.783 109.917L123.177 63.3787C122.439 64.0028 121.663 64.6926 120.888 65.3825L203.192 112.901C203.473 111.925 203.611 110.868 203.783 109.917Z" fill="#D3D8B6"></path><path d="M199.845 123.161L113.675 73.411C113.01 74.0771 112.377 74.8493 111.674 75.581L198.967 125.98C199.319 125.045 199.601 124.071 199.845 123.161Z" fill="#D3D8B6"></path><path d="M194.588 136.754L102.729 83.7188L102.471 83.8399L101.148 86.1317L193.429 139.41C193.787 138.628 194.152 137.671 194.588 136.754Z" fill="#D3D8B6"></path><path d="M188.501 149.867L95.3882 96.1081L93.9482 98.6022L187.061 152.361C187.553 151.507 188.008 150.72 188.501 149.867Z" fill="#D3D8B6"></path><path d="M86.9759 110.679L86.9594 111.194L178.748 164.189C179.311 163.376 179.907 162.67 180.47 161.857L88.1885 108.579L86.9759 110.679Z" fill="#D3D8B6"></path><path d="M83.3658 125.747L169.605 175.537C170.422 174.609 171.22 173.552 172.087 172.536L84.7942 122.137C84.2778 123.356 83.8317 124.615 83.3658 125.747Z" fill="#D3D8B6"></path><path d="M80.3213 139.508L160.112 185.575C160.999 184.687 161.936 183.711 162.873 182.735L81.3999 135.697C81.0235 136.996 80.6977 138.208 80.3213 139.508Z" fill="#D3D8B6"></path><path d="M77.8365 152.483L149.286 193.735C150.316 192.929 151.396 192.036 152.477 191.143L78.4856 148.424C78.2524 149.806 78.0192 151.188 77.8365 152.483Z" fill="#D3D8B6"></path><path d="M78.054 167.019L136.659 200.855C137.902 200.172 139.195 199.402 140.417 198.591L78.0652 162.592C77.9941 164.184 78.024 165.602 78.054 167.019Z" fill="#D3D8B6"></path><path d="M82.3436 181.69L122.641 204.955C124.113 204.842 125.66 204.598 127.175 204.248L80.6189 177.368C81.1433 178.896 81.7056 180.359 82.3436 181.69Z" fill="#D3D8B6"></path><path d="M85.1447 189.274L85.1631 190.228L85.1512 191.07L102.441 201.052C104.22 202.079 106.05 202.853 108.074 203.455C109.051 203.736 110.098 204.058 111.115 204.268C112.967 204.676 114.829 204.902 116.813 204.916L85.2212 186.676L85.1447 189.274Z" fill="#D3D8B6"></path><path d="M67.0647 151.164C67.2362 112.15 94.5697 64.8073 128.149 45.3631C161.658 25.8784 188.723 41.692 188.481 80.6651C188.24 119.638 160.906 166.981 127.397 186.466C93.8181 205.91 66.8231 190.137 67.0647 151.164Z" fill="#F9FFEC"></path><path d="M90.0627 93.8131C101.123 74.6553 115.622 59.2669 130.998 50.3011C145.314 42.0377 158.452 40.5136 167.996 46.0241C177.611 51.5751 182.778 63.8559 182.728 80.6368C182.611 98.506 176.493 118.827 165.432 137.985C154.371 157.143 139.872 172.531 124.496 181.497C110.181 189.76 97.1132 191.325 87.5688 185.814C77.9541 180.263 72.7162 167.942 72.8368 151.202C72.8839 133.292 79.0019 112.971 90.0627 93.8131Z" fill="#E9EECC"></path><path d="M93.1306 100.018C104.191 80.8601 118.54 65.3852 133.549 56.2071C147.497 47.7321 160.194 45.9532 169.366 51.2488C178.539 56.5445 183.405 68.6513 182.988 85.2204C182.503 102.877 176.235 123.112 165.174 142.27C154.114 161.428 139.834 176.943 124.756 186.081C110.808 194.556 98.1109 196.334 88.9386 191.039C79.7663 185.743 74.8998 173.636 75.317 157.067C75.8021 139.41 82.0698 119.176 93.1306 100.018Z" fill="#F9FFEC"></path><path d="M120.634 164.377L126.855 160.82C128.105 160.131 129.123 158.367 129.054 157.011L129.052 151.272C134.888 146.741 139.294 141.571 142.308 135.693C145.283 129.886 146.784 124.169 146.762 118.794C146.76 113.056 145.466 109.393 142.868 107.987C140.312 106.511 136.768 106.252 132.278 107.14C131.872 107.188 130.612 107.401 128.753 107.833C124.558 108.702 121.531 109.024 119.744 108.839C117.845 108.683 116.923 107.492 116.906 105.225C116.802 99.9923 119.723 95.7531 125.567 92.3552C128.983 90.3765 132.508 89.0261 136.104 88.3746C137.882 88.0841 139.578 87.9346 141.152 87.9969C141.629 87.9903 142.148 87.9131 142.605 87.6129C144.201 86.6531 145.687 84.4072 145.66 82.3221L145.682 74.2461C145.674 73.1126 145.055 72.3793 144.172 72.4335C139.713 72.7751 134.633 74.3569 128.962 77.2905L128.942 70.6007C128.913 69.1735 127.919 68.5994 126.74 69.3295L120.519 72.8866C119.269 73.5757 118.251 75.3392 118.32 76.6959L118.32 83.7499C112.982 87.9105 108.77 92.9094 105.867 98.7579C102.893 104.565 101.421 110.394 101.382 116.203C101.366 120.332 102.113 123.303 103.623 125.115C105.133 126.928 107.132 127.894 109.62 128.014C112.108 128.133 115.287 127.711 119.117 126.819C122.388 126.074 124.725 125.635 126.167 125.433C127.609 125.232 128.848 125.382 129.873 126.068C130.867 126.642 131.383 127.881 131.35 129.743C131.326 132.08 130.571 134.372 128.902 136.606C127.274 138.77 125.037 140.677 122.303 142.296C119.304 144.045 116.236 145.095 113.22 145.235C111.93 145.337 110.681 145.368 109.442 145.217C108.893 145.183 108.406 145.371 107.877 145.631C106.281 146.59 104.795 148.836 104.823 150.921L104.831 159.109C104.839 160.243 105.457 160.976 106.341 160.922C108.108 160.813 109.845 160.593 111.521 160.15C113.604 159.659 115.931 158.746 118.451 157.661L118.473 163.035C118.39 164.492 119.384 165.066 120.634 164.377Z" fill="#E9EECC"></path></svg> 