<?xml version="1.0" encoding="UTF-8"?> <svg xmlns="http://www.w3.org/2000/svg" width="251" height="185" viewBox="0 0 251 185" fill="none"><path d="M195.994 130.594C197.763 130.594 199.231 129.159 199.231 127.358V119.116C199.231 117.347 197.796 115.879 195.994 115.879C194.225 115.879 192.756 117.314 192.756 119.116V127.358C192.789 129.159 194.225 130.594 195.994 130.594Z" fill="#143284"></path><path opacity="0.3" d="M195.994 130.594C197.763 130.594 199.231 129.159 199.231 127.358V119.116C199.231 117.347 197.796 115.879 195.994 115.879C194.225 115.879 192.756 117.314 192.756 119.116V127.358C192.789 129.159 194.225 130.594 195.994 130.594Z" fill="#143284"></path><path d="M180.874 119.75H210.78C219.091 119.75 225.8 113.009 225.8 104.734H165.854C165.854 113.043 172.563 119.75 180.874 119.75Z" fill="#E0F1FE"></path><path opacity="0.3" d="M225.8 104.734C225.8 105.168 225.766 105.602 225.733 106.035L169.225 114.277C167.089 111.675 165.82 108.371 165.82 104.767H225.8V104.734Z" fill="#143284"></path><path d="M165.286 105.935H226.367C227.235 105.935 227.969 105.235 227.969 104.334C227.969 103.466 227.268 102.732 226.367 102.732H165.286C164.419 102.732 163.684 103.433 163.684 104.334C163.684 105.235 164.419 105.935 165.286 105.935Z" fill="#143284"></path><path opacity="0.8" d="M165.286 105.935H226.367C227.235 105.935 227.969 105.235 227.969 104.334C227.969 103.466 227.268 102.732 226.367 102.732H165.286C164.419 102.732 163.684 103.433 163.684 104.334C163.684 105.235 164.419 105.935 165.286 105.935Z" fill="#143284"></path><path d="M40.1547 158.757C41.9237 158.757 43.3923 157.322 43.3923 155.52V147.278C43.3923 145.51 41.9571 144.042 40.1547 144.042C38.3857 144.042 36.9171 145.476 36.9171 147.278V155.52C36.9505 157.322 38.3857 158.757 40.1547 158.757Z" fill="#143284"></path><path opacity="0.3" d="M40.1547 158.757C41.9237 158.757 43.3923 157.322 43.3923 155.52V147.278C43.3923 145.51 41.9571 144.042 40.1547 144.042C38.3857 144.042 36.9171 145.476 36.9171 147.278V155.52C36.9505 157.322 38.3857 158.757 40.1547 158.757Z" fill="#143284"></path><path d="M25.0348 147.912H54.9409C63.2518 147.912 69.9607 141.172 69.9607 132.897H10.015C10.015 141.172 16.7572 147.912 25.0348 147.912Z" fill="#E0F1FE"></path><path opacity="0.3" d="M69.9607 132.897C69.9607 133.331 69.9273 133.764 69.894 134.198L13.3861 142.44C11.2499 139.837 9.98158 136.534 9.98158 132.93H69.9607V132.897Z" fill="#143284"></path><path d="M9.44756 134.098H70.5281C71.3959 134.098 72.1302 133.397 72.1302 132.496C72.1302 131.629 71.4293 130.895 70.5281 130.895H9.44756C8.57975 130.895 7.84545 131.595 7.84545 132.496C7.84545 133.364 8.57975 134.098 9.44756 134.098Z" fill="#143284"></path><path opacity="0.8" d="M9.44756 134.098H70.5281C71.3959 134.098 72.1302 133.397 72.1302 132.496C72.1302 131.629 71.4293 130.895 70.5281 130.895H9.44756C8.57975 130.895 7.84545 131.595 7.84545 132.496C7.84545 133.364 8.57975 134.098 9.44756 134.098Z" fill="#143284"></path><path d="M40.9559 159.691L115.554 153.385C117.991 153.185 119.726 150.916 119.292 148.513L118.024 141.506C117.624 139.27 115.454 137.768 113.218 138.169L39.8878 151.483C37.6515 151.883 36.1495 154.052 36.55 156.288C36.8838 158.423 38.8197 159.892 40.9559 159.691Z" fill="#B1C1EA"></path><path d="M38.3524 156.154C37.9519 155.22 38.4191 154.119 39.3537 153.752C40.2883 153.351 41.3897 153.819 41.7569 154.753C42.1574 155.687 41.6901 156.788 40.7555 157.155C39.821 157.522 38.7195 157.089 38.3524 156.154Z" fill="white"></path><path d="M196.528 131.462L124.466 151.783C122.096 152.451 119.693 150.949 119.259 148.546L117.991 141.539C117.59 139.303 119.092 137.135 121.329 136.734L194.659 123.42C196.895 123.02 199.064 124.521 199.465 126.757C199.865 128.826 198.564 130.895 196.528 131.462Z" fill="#B1C1EA"></path><path d="M193.824 128.158C193.424 127.224 193.891 126.123 194.826 125.756C195.76 125.355 196.862 125.823 197.229 126.757C197.629 127.691 197.162 128.792 196.227 129.159C195.293 129.56 194.225 129.093 193.824 128.158Z" fill="white"></path><path d="M19.9902 118.64C8.94998 107.603 8.94997 89.708 19.9902 78.6708C31.0305 67.6335 48.9303 67.6336 59.9705 78.6708C71.0108 89.708 71.0108 107.603 59.9705 118.64C48.9303 129.677 31.0305 129.677 19.9902 118.64Z" fill="#DCEFFE"></path><path opacity="0.6" d="M67.6577 99.7622C67.6577 84.1459 55.0077 71.4993 39.3871 71.4993C29.0735 71.4993 20.0282 77.0385 15.0884 85.3137C19.8613 76.4378 29.2404 70.3982 40.0213 70.3982C55.6419 70.3982 68.2919 83.0447 68.2919 98.661C68.2919 103.967 66.8233 108.905 64.32 113.143C66.4228 109.139 67.6577 104.601 67.6577 99.7622Z" fill="#DCEFFE"></path><path opacity="0.6" d="M30.5087 71.9998L66.6564 108.104C67.7245 105.134 68.2919 101.964 68.2919 98.6276V98.5608L40.088 70.3647H40.0213C36.6835 70.3647 33.4793 70.932 30.5087 71.9998Z" fill="#DCEFFE"></path><path opacity="0.6" d="M21.8973 77.4724L61.3828 116.947C62.0503 116.146 62.6845 115.312 63.2853 114.444L24.4006 75.5704C23.5328 76.1711 22.6984 76.8051 21.8973 77.4724Z" fill="#DCEFFE"></path><path opacity="0.6" d="M54.9409 122.653L15.2218 84.9801C16.5903 82.5109 18.326 80.2752 20.3286 78.3065L60.1812 118.415C58.6124 120.017 56.8768 121.452 54.9409 122.653Z" fill="#DCEFFE"></path><path opacity="0.6" d="M47.0638 126.023L12.6184 91.587C12.8854 90.4858 13.2526 89.4514 13.6531 88.417L50.2681 124.988C49.2334 125.389 48.1653 125.756 47.0638 126.023Z" fill="#DCEFFE"></path><path opacity="0.5" d="M33.9535 120.67C22.5617 117.981 15.5075 106.569 18.1974 95.1803C20.8873 83.7917 32.3028 76.7394 43.6946 79.4286C55.0863 82.1177 62.1406 93.53 59.4506 104.919C56.7607 116.307 45.3453 123.36 33.9535 120.67Z" fill="#DCEFFE"></path><path d="M36.586 119.573C25.0315 117.699 17.185 106.815 19.0602 95.2634C20.9354 83.7121 31.8223 75.8677 43.3768 77.7424C54.9312 79.6171 62.7778 90.501 60.9026 102.052C59.0274 113.604 48.1405 121.448 36.586 119.573Z" fill="#CAE2FC"></path><path opacity="0.5" d="M58.9463 99.6955C58.9463 87.9832 49.4671 78.5067 37.7516 78.5067C35.0147 78.5067 32.3779 79.0406 29.9747 79.9749C32.9453 78.3732 36.3498 77.4723 39.9545 77.4723C51.67 77.4723 61.1492 86.9488 61.1492 98.6611C61.1492 107.604 55.5751 115.278 47.7315 118.382C54.4069 114.778 58.9463 107.771 58.9463 99.6955Z" fill="#E0F1FE"></path><path opacity="0.8" d="M13.6866 88.2501C12.8855 90.8862 12.4183 93.6891 12.4183 96.6255C12.4183 112.242 25.0683 124.888 40.6889 124.888C52.638 124.888 62.8514 117.481 66.9902 107.003C63.4189 118.548 52.6713 126.924 39.9546 126.924C24.334 126.924 11.6839 114.277 11.6839 98.661C11.7173 94.9905 12.4183 91.4868 13.6866 88.2501Z" fill="#A4C1F5"></path><g style="mix-blend-mode:multiply"><path d="M37.3531 91V98.6291L41.7745 91H44.9901V107.689H40.9706V100.06L36.5492 107.689H33.3336V91H37.3531Z" fill="#A4C1F5"></path><rect width="4.47009" height="16.5444" transform="matrix(-0.00758822 0.999971 0.999943 0.0106779 30.9589 96.9602)" fill="#A4C1F5"></rect></g><path d="M41.0743 90V97.6291L36.6529 90H33.4373V106.689H37.4568V99.0595L41.8782 106.689H45.0938V90H41.0743Z" fill="#A4C1F5"></path><rect width="4.47009" height="16.5444" transform="matrix(0.00758822 0.999971 -0.999943 0.0106779 47.4685 95.9602)" fill="#A4C1F5"></rect><path d="M116.556 123.62L104.707 165.731C103.739 168.267 102.904 170.87 102.203 173.472L100.167 181.114C99.6999 182.849 101.002 184.517 102.804 184.517H118.758H134.713C136.482 184.517 137.783 182.815 137.35 181.114L135.314 173.472C134.613 170.836 133.778 168.267 132.81 165.731L120.895 123.62C120.794 123.353 120.661 123.086 120.461 122.886C119.526 121.885 117.891 121.885 116.989 122.886C116.789 123.086 116.656 123.353 116.556 123.62Z" fill="#B1C1EA"></path><path d="M94.6265 184.517H142.79C144.159 184.517 145.26 183.416 145.26 182.048V181.147C145.26 177.176 142.056 173.973 138.084 173.973H99.3661C95.3942 173.973 92.19 177.176 92.19 181.147V182.048C92.19 183.416 93.2915 184.517 94.6265 184.517Z" fill="#143284"></path><path d="M118.725 147.912C117.25 147.912 116.055 146.717 116.055 145.243C116.055 143.769 117.25 142.573 118.725 142.573C120.2 142.573 121.395 143.769 121.395 145.243C121.395 146.717 120.2 147.912 118.725 147.912Z" fill="white"></path><path d="M88.0178 184.517H149.432C150.3 184.517 151.001 183.816 151.001 182.949C151.001 182.081 150.3 181.381 149.432 181.381H88.0178C87.15 181.381 86.4491 182.081 86.4491 182.949C86.4157 183.816 87.15 184.517 88.0178 184.517Z" fill="#143284"></path><path d="M152.47 53.0801C152.47 77.906 172.596 97.9937 197.395 97.9937C222.195 98.027 242.321 77.906 242.321 53.0801C242.321 28.2542 222.195 8.16663 197.395 8.16663C172.563 8.16663 152.47 28.2876 152.47 53.0801Z" fill="#143284"></path><g opacity="0.5"><g opacity="0.5"><path opacity="0.5" d="M197.395 8.16663V98.027C222.195 98.027 242.321 77.9061 242.321 53.0802C242.321 28.2542 222.195 8.16663 197.395 8.16663Z" fill="#143284"></path></g></g><path d="M170.848 79.6317C156.185 64.9719 156.185 41.2036 170.848 26.5438C185.512 11.884 209.287 11.884 223.951 26.5438C238.615 41.2036 238.615 64.9719 223.951 79.6317C209.287 94.2915 185.512 94.2915 170.848 79.6317Z" fill="white"></path><path d="M194.217 54.3984C193.495 52.6428 194.333 50.6345 196.089 49.9126C197.845 49.1907 199.854 50.0287 200.576 51.7843C201.298 53.5399 200.46 55.5483 198.704 56.2702C196.948 56.9921 194.939 56.1541 194.217 54.3984Z" fill="#143284"></path><path d="M197.395 54.7818C198.33 54.7818 199.098 54.0143 199.098 53.08V31.324C199.098 30.3897 198.33 29.6222 197.395 29.6222C196.461 29.6222 195.693 30.3897 195.693 31.324V53.08C195.693 54.0143 196.461 54.7818 197.395 54.7818Z" fill="#143284"></path><path d="M208.71 61.1885C209.311 61.1885 209.879 60.8882 210.179 60.3209C210.646 59.5201 210.346 58.4857 209.545 58.0185L198.23 51.6118C197.429 51.1447 196.394 51.445 195.927 52.2458C195.46 53.0467 195.76 54.0811 196.561 54.5482L207.876 60.9549C208.143 61.1218 208.41 61.1885 208.71 61.1885Z" fill="#143284"></path><path d="M195.56 53.0802C195.56 52.0792 196.394 51.245 197.395 51.245C198.397 51.245 199.231 52.0792 199.231 53.0802C199.231 54.0813 198.397 54.9155 197.395 54.9155C196.361 54.9155 195.56 54.1147 195.56 53.0802Z" fill="#ED3233"></path><path d="M180.406 72.9008C180.507 72.9008 180.607 72.8674 180.673 72.7673L197.662 53.347C197.796 53.1802 197.796 52.98 197.629 52.8465C197.462 52.7131 197.229 52.7131 197.128 52.8799L180.139 72.3002C180.006 72.467 180.006 72.6672 180.173 72.8007C180.24 72.8674 180.306 72.9008 180.406 72.9008Z" fill="#ED3233"></path><path d="M197.395 22.7484C196.087 22.7484 195.026 21.6877 195.026 20.3793C195.026 19.0708 196.087 18.0101 197.395 18.0101C198.704 18.0101 199.765 19.0708 199.765 20.3793C199.765 21.6877 198.704 22.7484 197.395 22.7484Z" fill="#143284"></path><path d="M197.395 21.3136C196.879 21.3136 196.461 20.8953 196.461 20.3793C196.461 19.8633 196.879 19.4449 197.395 19.4449C197.912 19.4449 198.33 19.8633 198.33 20.3793C198.33 20.8953 197.912 21.3136 197.395 21.3136Z" fill="#143284"></path><path d="M212.549 24.0831C212.916 23.4158 213.784 23.1822 214.451 23.5826C215.119 23.9497 215.352 24.8172 214.952 25.4846C214.585 26.152 213.717 26.3855 213.049 25.9851C212.382 25.5847 212.148 24.7171 212.549 24.0831Z" fill="#143284"></path><path d="M225.032 35.5286C225.699 35.1615 226.534 35.3618 226.934 36.0291C227.302 36.6965 227.101 37.5307 226.434 37.9311C225.766 38.2982 224.932 38.0979 224.531 37.4306C224.131 36.7632 224.364 35.929 225.032 35.5286Z" fill="#143284"></path><path d="M230.105 54.0144C229.589 54.0144 229.171 53.5961 229.171 53.0801C229.171 52.5641 229.589 52.1458 230.105 52.1458C230.621 52.1458 231.04 52.5641 231.04 53.0801C231.04 53.5961 230.621 54.0144 230.105 54.0144Z" fill="#143284"></path><path d="M226.4 68.2294C227.068 68.5964 227.302 69.464 226.901 70.1313C226.534 70.7987 225.666 71.0323 224.998 70.6319C224.331 70.2648 224.097 69.3972 224.498 68.7299C224.898 68.0959 225.766 67.8623 226.4 68.2294Z" fill="#143284"></path><path d="M214.952 80.7089C215.319 81.3763 215.119 82.2105 214.451 82.6109C213.784 82.978 212.949 82.7778 212.549 82.1104C212.182 81.443 212.382 80.6088 213.049 80.2084C213.717 79.8414 214.551 80.0416 214.952 80.7089Z" fill="#143284"></path><path d="M197.395 86.7486C196.879 86.7486 196.461 86.3303 196.461 85.8143C196.461 85.2983 196.879 84.88 197.395 84.88C197.912 84.88 198.33 85.2983 198.33 85.8143C198.33 86.3303 197.912 86.7486 197.395 86.7486Z" fill="#143284"></path><path d="M182.242 82.1105C181.875 82.7778 181.007 83.0114 180.34 82.611C179.672 82.2439 179.438 81.3764 179.839 80.709C180.206 80.0416 181.074 79.808 181.741 80.2085C182.376 80.6089 182.609 81.4431 182.242 82.1105Z" fill="#143284"></path><path d="M169.759 70.6318C169.091 70.9988 168.257 70.7986 167.856 70.1313C167.489 69.4639 167.69 68.6297 168.357 68.2293C169.025 67.8622 169.859 68.0624 170.26 68.7298C170.627 69.3972 170.427 70.2647 169.759 70.6318Z" fill="#143284"></path><path d="M164.686 54.0144C164.169 54.0144 163.751 53.5961 163.751 53.0801C163.751 52.5641 164.169 52.1458 164.686 52.1458C165.202 52.1458 165.62 52.5641 165.62 53.0801C165.62 53.5961 165.202 54.0144 164.686 54.0144Z" fill="#143284"></path><path d="M168.357 37.931C167.69 37.564 167.456 36.6964 167.856 36.0291C168.224 35.3617 169.091 35.1281 169.759 35.5285C170.427 35.8956 170.66 36.7632 170.26 37.4305C169.859 38.0979 169.025 38.3315 168.357 37.931Z" fill="#143284"></path><path d="M179.839 25.4513C179.472 24.784 179.672 23.9498 180.34 23.5493C181.007 23.1823 181.842 23.3825 182.242 24.0499C182.609 24.7172 182.409 25.5514 181.741 25.9519C181.074 26.3523 180.206 26.1187 179.839 25.4513Z" fill="#143284"></path><path d="M230.105 50.7109C231.407 50.7109 232.475 51.7787 232.475 53.0801C232.475 54.3814 231.407 55.4492 230.105 55.4492C228.804 55.4492 227.735 54.3814 227.735 53.0801C227.735 51.7787 228.804 50.7109 230.105 50.7109Z" fill="#143284"></path><path d="M199.765 85.8143C199.765 87.1157 198.697 88.1835 197.395 88.1835C196.094 88.1835 195.026 87.1157 195.026 85.8143C195.026 84.513 196.094 83.4452 197.395 83.4452C198.697 83.4452 199.765 84.4796 199.765 85.8143Z" fill="#143284"></path><path d="M164.686 55.4492C163.377 55.4492 162.316 54.3885 162.316 53.0801C162.316 51.7716 163.377 50.7109 164.686 50.7109C165.994 50.7109 167.055 51.7716 167.055 53.0801C167.055 54.3885 165.994 55.4492 164.686 55.4492Z" fill="#143284"></path></svg> 