<svg xmlns="http://www.w3.org/2000/svg" width="212" height="248" fill="none" viewBox="0 0 212 248"><path fill="#E9EECC" d="M149.262 129.163C147.444 132.312 145.464 135.277 143.445 138.309C142.875 139.141 142.344 139.906 141.707 140.699C139.592 143.587 137.382 146.33 135.104 149.034C134.467 149.827 133.801 150.515 133.097 151.269C130.791 153.868 128.428 156.255 125.931 158.564C125.16 159.28 124.427 159.929 123.656 160.644C121.236 162.82 118.759 164.784 116.148 166.67C115.243 167.309 114.376 167.88 113.47 168.518C111.881 169.565 110.33 170.546 108.712 171.487C107.345 172.305 105.987 172.951 104.697 173.635C103.59 174.157 102.483 174.679 101.482 175.172C98.2765 176.537 95.2648 177.567 92.2734 178.252C90.7248 178.608 89.3207 178.869 87.8495 179.091C85.8207 179.349 83.8022 179.434 81.8609 179.385C80.0255 179.308 78.2003 179.058 76.4809 178.78C75.5205 178.582 74.493 178.346 73.6099 178.015C71.6993 177.448 70.0105 176.652 68.2933 175.75L51.9777 166.33L51.99 165.533L51.9739 164.631L52.0497 162.173L52.0883 162.107C51.0753 160.45 50.1681 158.765 49.3769 156.879C48.7951 155.561 48.2908 154.109 47.8251 152.589C46.9222 149.656 46.2411 146.494 45.8876 143.075C45.7475 141.922 45.6459 140.703 45.5444 139.483C45.4348 137.812 45.3924 136.18 45.3887 134.481C45.3849 132.782 45.487 131.054 45.589 129.327C45.6503 128.29 45.7502 127.187 45.8501 126.084C46.1396 122.946 46.6408 119.752 47.3149 116.569C47.5104 115.61 47.7446 114.584 47.9788 113.558C48.6916 110.308 49.616 107.001 50.7134 103.705C50.9761 102.785 51.3446 101.836 51.6459 100.849C52.3157 98.9138 53.0242 96.9114 53.867 94.9864L54.0185 90.0723L54.0491 89.5541L68.9 63.8315L69.1503 63.7081L73.3975 61.1586C74.7103 59.505 75.9844 57.9185 77.3643 56.3037C78.0014 55.5104 78.6669 54.8228 79.3711 54.0683C81.677 51.4698 84.0399 49.0828 86.47 46.7346C87.2413 46.0188 87.9739 45.3701 88.7453 44.6543C91.1651 42.4788 93.6805 40.4478 96.2529 38.6284C97.1585 37.9901 97.9583 37.3801 98.9311 36.7807C100.559 35.6664 102.149 34.6191 103.834 33.7164C105.162 32.9652 106.491 32.2141 107.743 31.597C108.85 31.0751 109.89 30.5144 110.958 30.0594C114.096 28.6558 117.175 27.6647 120.166 26.9802C121.648 26.5851 123.119 26.3628 124.59 26.1404C126.619 25.8827 128.676 25.7307 130.579 25.8467C130.752 25.8572 130.925 25.8678 131.031 25.8396L132.938 24.7076L134.344 23.8225L150.592 33.2036C152.232 34.2397 153.795 35.4098 155.28 36.7138C155.902 37.3412 156.525 37.9686 157.147 38.5959C158.354 39.9177 159.444 41.4403 160.496 43.03C161.509 44.6867 162.445 46.4773 163.236 48.3631C163.818 49.6815 164.322 51.1337 164.721 52.6142C165.624 55.547 166.237 58.6703 166.658 62.1284C166.798 63.2811 166.9 64.5008 167.001 65.7205C167.15 67.3244 167.192 68.9566 167.196 70.6557C167.161 72.4219 167.126 74.188 166.985 75.9824C166.924 77.0188 166.824 78.1222 166.724 79.2256C166.435 82.3631 165.933 85.557 165.259 88.7404C165.064 89.6992 164.83 90.7251 164.595 91.751C163.844 95.0683 162.958 98.3082 161.861 101.604C161.598 102.525 161.23 103.473 160.928 104.46C159.792 107.823 158.455 111.07 157.011 114.345C156.576 115.255 156.246 116.136 155.81 117.046C154.3 120.282 152.616 123.508 150.866 126.695C150.229 127.489 149.765 128.292 149.262 129.163Z"/><path fill="#D3D8B6" d="M156.918 38.5083C156.353 37.8147 155.748 37.19 155.103 36.6341C153.696 35.2705 152.169 34.1135 150.523 33.1631L134.588 23.9633L133.901 24.393L133.214 24.8227L131.298 26.012C131.127 26.0048 130.955 25.9977 130.85 26.0285L160.151 42.9455C159.139 41.3517 158.088 39.8267 156.918 38.5083Z"/><path fill="#D3D8B6" d="M163.25 48.9582L124.093 26.3507C122.676 26.4497 121.187 26.6737 119.73 26.9995L164.869 53.0609C164.423 51.6361 163.872 50.2346 163.25 48.9582Z"/><path fill="#D3D8B6" d="M166.523 62.4628L110.693 30.2298C109.655 30.6305 108.58 31.0938 107.573 31.5959L166.967 65.8871C166.867 64.6623 166.695 63.5625 166.523 62.4628Z"/><path fill="#D3D8B6" d="M166.798 76.3479L98.6662 37.012C97.8303 37.5297 96.9583 38.11 96.0863 38.6902L166.567 79.3825C166.701 78.3759 166.731 77.3932 166.798 76.3479Z"/><path fill="#D3D8B6" d="M165.146 89.1212L88.3634 44.7909C87.6606 45.3855 86.9217 46.0425 86.1828 46.6996L164.583 91.964C164.85 91.0345 164.982 90.0271 165.146 89.1212Z"/><path fill="#D3D8B6" d="M161.395 101.738L79.3122 54.3473C78.6785 54.9818 78.0756 55.7174 77.4058 56.4143L160.558 104.422C160.893 103.532 161.162 102.604 161.395 101.738Z"/><path fill="#D3D8B6" d="M156.387 114.685L68.8852 64.1661L68.6401 64.2814L67.3797 66.4645L155.283 117.216C155.624 116.471 155.972 115.559 156.387 114.685Z"/><path fill="#D3D8B6" d="M150.588 127.176L61.8929 75.9677L60.5212 78.3434L149.216 129.552C149.686 128.739 150.119 127.989 150.588 127.176Z"/><path fill="#D3D8B6" d="M53.8797 89.8471L53.864 90.3382L141.299 140.819C141.835 140.044 142.402 139.372 142.938 138.597L55.0348 87.8464L53.8797 89.8471Z"/><path fill="#D3D8B6" d="M50.4409 104.2L132.589 151.628C133.368 150.744 134.127 149.737 134.953 148.77L51.8015 100.762C51.3096 101.923 50.8847 103.122 50.4409 104.2Z"/><path fill="#D3D8B6" d="M47.5409 117.308L123.546 161.19C124.391 160.344 125.284 159.415 126.177 158.485L48.5683 113.678C48.2098 114.916 47.8994 116.07 47.5409 117.308Z"/><path fill="#D3D8B6" d="M45.1739 129.668L113.234 168.963C114.215 168.195 115.244 167.344 116.273 166.494L45.7922 125.802C45.5701 127.118 45.3479 128.435 45.1739 129.668Z"/><path fill="#D3D8B6" d="M45.3812 143.515L101.206 175.745C102.39 175.095 103.622 174.361 104.786 173.588L45.3918 139.297C45.3241 140.814 45.3526 142.164 45.3812 143.515Z"/><path fill="#D3D8B6" d="M49.4673 157.489L87.8528 179.651C89.2547 179.544 90.7288 179.311 92.172 178.977L47.8244 153.373C48.3239 154.828 48.8595 156.221 49.4673 157.489Z"/><path fill="#D3D8B6" d="M52.1353 164.713L52.1529 165.622L52.1416 166.424L68.6114 175.933C70.3058 176.911 72.0492 177.648 73.9771 178.222C74.9072 178.49 75.905 178.796 76.874 178.996C78.6375 179.385 80.411 179.6 82.3013 179.613L52.2082 162.239L52.1353 164.713Z"/><path fill="#F9FFEC" d="M34.9132 128.412C35.0765 91.2489 61.1133 46.1517 93.0995 27.6299C125.019 9.06955 150.8 24.133 150.57 61.2572C150.34 98.3814 124.303 143.479 92.3836 162.039C60.3974 180.561 34.683 165.536 34.9132 128.412Z"/><path fill="#E9EECC" d="M56.82 73.7815C67.356 55.5325 81.1671 40.8741 95.8136 32.3337C109.45 24.4623 121.965 23.0105 131.056 28.2596C140.215 33.5473 145.137 45.2455 145.089 61.2303C144.978 78.2518 139.15 97.6089 128.614 115.858C118.078 134.107 104.267 148.765 89.6202 157.306C75.984 165.177 63.5361 166.667 54.4444 161.418C45.2859 156.131 40.2964 144.394 40.4113 128.448C40.4562 111.387 46.284 92.0304 56.82 73.7815Z"/><path fill="#F9FFEC" d="M59.7425 79.6919C70.2785 61.4429 83.9469 46.7021 98.2431 37.9595C111.53 29.8865 123.624 28.192 132.362 33.2364C141.099 38.2808 145.734 49.8133 145.337 65.5964C144.875 82.4157 138.905 101.69 128.369 119.939C117.832 138.188 104.231 152.968 89.8679 161.672C76.5809 169.745 64.4866 171.439 55.7494 166.395C47.0122 161.35 42.3765 149.818 42.774 134.035C43.236 117.216 49.2064 97.9408 59.7425 79.6919Z"/><path fill="#E9EECC" d="M85.9413 140.998L91.8667 137.609C93.0575 136.953 94.0274 135.273 93.9616 133.981L93.9603 128.515C99.5194 124.198 103.716 119.274 106.587 113.675C109.42 108.143 110.851 102.697 110.829 97.5777C110.828 92.1115 109.595 88.6223 107.121 87.2833C104.685 85.8771 101.31 85.6305 97.0326 86.4762C96.6456 86.5216 95.4458 86.7248 93.6749 87.1359C89.6785 87.9644 86.7954 88.2709 85.0931 88.0945C83.2844 87.9462 82.4058 86.8118 82.3898 84.6522C82.2909 79.6674 85.0734 75.6293 90.6405 72.3926C93.8937 70.5078 97.2523 69.2215 100.678 68.6009C102.371 68.3241 103.987 68.1818 105.486 68.2411C105.941 68.2348 106.434 68.1613 106.87 67.8753C108.39 66.961 109.806 64.8217 109.78 62.8356L109.801 55.1427C109.793 54.0629 109.204 53.3644 108.362 53.4161C104.115 53.7414 99.276 55.2482 93.8739 58.0427L93.8546 51.6702C93.8277 50.3107 92.8805 49.7639 91.7573 50.4593L85.832 53.8476C84.6412 54.504 83.6713 56.1839 83.737 57.4762L83.7365 64.1956C78.6519 68.1589 74.6398 72.9205 71.8744 78.4916C69.0413 84.0236 67.6399 89.5757 67.6025 95.109C67.5868 99.0422 68.2984 101.872 69.7371 103.599C71.1758 105.325 73.0801 106.246 75.4499 106.359C77.8197 106.473 80.8482 106.071 84.4963 105.221C87.6123 104.511 89.8378 104.094 91.2117 103.902C92.5857 103.709 93.7656 103.853 94.7416 104.506C95.6888 105.053 96.1804 106.233 96.1486 108.006C96.1259 110.233 95.4067 112.416 93.8171 114.545C92.2662 116.606 90.1353 118.422 87.5308 119.964C84.6745 121.63 81.7516 122.631 78.8784 122.764C77.6497 122.861 76.4599 122.891 75.2799 122.747C74.7576 122.714 74.293 122.894 73.7896 123.141C72.2695 124.055 70.8539 126.194 70.8799 128.181L70.8874 135.98C70.8954 137.059 71.4844 137.758 72.3261 137.706C74.0094 137.603 75.6639 137.393 77.2607 136.971C79.2445 136.504 81.461 135.633 83.8616 134.6L83.8828 139.72C83.8033 141.107 84.7505 141.654 85.9413 140.998Z"/><path fill="url(#paint0_radial)" d="M55.7376 195.857L40.3491 192.836L38.198 201.732L53.5865 204.753L55.7376 195.857Z"/><path fill="url(#paint1_radial)" d="M133.323 211.091L117.934 208.07L115.783 216.965L131.172 219.987L133.323 211.091Z"/><path fill="#143284" d="M124.454 214.522C117.584 213.173 110.868 217.103 109.375 223.275C107.874 229.484 112.216 235.547 119.046 236.888C125.876 238.229 132.633 234.307 134.125 228.135C135.609 221.999 131.285 215.863 124.454 214.522Z"/><path fill="#A4C1F5" d="M122.856 221.13C120.044 220.578 117.253 222.198 116.638 224.74C116.024 227.281 117.814 229.8 120.626 230.353C123.439 230.905 126.229 229.285 126.844 226.743C127.458 224.202 125.669 221.683 122.856 221.13Z"/><path fill="#143284" d="M46.8693 199.289C39.9988 197.94 33.2826 201.87 31.7901 208.042C30.2887 214.251 34.6305 220.314 41.4609 221.655C48.2913 222.996 55.0476 219.074 56.5402 212.901C58.024 206.765 53.6997 200.63 46.8693 199.289Z"/><path fill="#A4C1F5" d="M45.2716 205.897C42.459 205.345 39.6684 206.965 39.0538 209.506C38.4392 212.048 40.229 214.567 43.0415 215.119C45.854 215.672 48.6446 214.052 49.2592 211.51C49.8738 208.969 48.0841 206.449 45.2716 205.897Z"/><path fill="#FFA412" d="M200.203 110.126C200.108 107.559 197.736 105.534 194.894 105.623L173.618 106.238C171.544 106.287 169.698 107.484 168.946 109.2L162.836 123.327L35.3551 112.369C35.266 112.389 35.1769 112.41 35.0475 112.422C34.927 112.399 34.8065 112.375 34.6859 112.351C34.3871 112.369 34.1109 112.467 33.8435 112.528C33.5359 112.582 33.2283 112.636 32.9521 112.734C32.5379 112.88 32.1951 113.079 31.8437 113.315C31.6478 113.428 31.4294 113.461 31.2737 113.583C31.2248 113.611 31.216 113.648 31.1984 113.72C30.8294 114.028 30.6035 114.44 30.3374 114.844C30.2621 114.982 30.1064 115.103 30.0713 115.249C29.8417 115.85 29.6925 116.467 29.7039 117.116L31.6289 174.77L32.2751 194.027C32.24 194.173 32.3342 194.305 32.348 194.422C32.3757 194.656 32.4436 194.897 32.48 195.094C32.5617 195.453 32.7413 195.754 32.8808 196.048C32.9976 196.261 33.1232 196.438 33.2488 196.615C33.4686 196.924 33.7461 197.169 34.0638 197.421C34.2472 197.533 34.3727 197.71 34.5247 197.778C35.0433 198.07 35.6108 198.333 36.2537 198.46L142.245 219.27C145.018 219.815 147.759 218.223 148.374 215.682C148.98 213.176 147.23 210.665 144.458 210.121L42.4037 190.083L42.1164 180.481L136.617 199.035C137.219 199.153 137.848 199.163 138.455 199.092C138.714 199.066 138.909 198.953 139.137 198.883C139.493 198.801 139.841 198.755 140.175 198.593C140.411 198.487 140.584 198.293 140.829 198.151C141.082 197.972 141.376 197.802 141.598 197.579C141.821 197.357 141.922 197.11 142.064 196.872C142.206 196.633 142.419 196.447 142.521 196.201L142.587 196.1L142.596 196.064L177.357 115.491L195.203 114.963C198.044 114.875 200.289 112.729 200.203 110.126ZM41.8291 170.878L40.1888 122.141L56.2624 123.548L52.2755 172.929L41.8291 170.878ZM62.4408 174.925L66.5303 124.423L82.6528 125.801L72.9676 176.992L62.4408 174.925ZM93.6195 181.047L83.0926 178.98L92.9609 126.684L109.083 128.062L93.6195 181.047ZM114.191 185.086L103.744 183.035L119.552 128.976L135.594 130.339L114.191 185.086ZM134.401 189.054L124.356 187.082L146.184 131.277L157.192 132.221L134.401 189.054Z" opacity=".43"/><path fill="#fff" d="M196.204 102.99C196.11 100.423 193.737 98.398 190.896 98.4867L169.629 99.065C167.555 99.1142 165.708 100.311 164.957 102.027L158.847 116.154L31.3657 105.196C31.2766 105.217 31.1874 105.237 31.0581 105.25C30.9376 105.226 30.8171 105.202 30.6965 105.179C30.3977 105.196 30.1215 105.294 29.8541 105.356C29.5465 105.409 29.2389 105.463 28.9627 105.561C28.5484 105.708 28.2057 105.907 27.8542 106.142C27.6584 106.256 27.44 106.289 27.2843 106.41C27.2353 106.439 27.2266 106.475 27.209 106.548C26.8399 106.856 26.6141 107.268 26.348 107.672C26.2727 107.809 26.117 107.931 26.0819 108.076C25.8523 108.677 25.703 109.295 25.7145 109.943L27.6307 167.634L28.2857 186.855C28.2506 187 28.3448 187.133 28.3586 187.249C28.3863 187.483 28.4542 187.724 28.4906 187.922C28.5723 188.28 28.7519 188.582 28.8914 188.875C29.0082 189.088 29.1338 189.265 29.2594 189.442C29.4792 189.751 29.7567 189.996 30.0744 190.248C30.2577 190.361 30.3833 190.537 30.5353 190.605C31.0539 190.897 31.6214 191.161 32.2643 191.287L138.256 212.098C141.028 212.642 143.77 211.051 144.384 208.509C144.99 206.004 143.241 203.492 140.468 202.948L38.4143 182.91L38.127 173.308L132.587 191.855C133.19 191.973 133.819 191.982 134.425 191.911C134.684 191.886 134.88 191.772 135.107 191.703C135.464 191.621 135.811 191.575 136.145 191.412C136.381 191.306 136.554 191.112 136.799 190.97C137.053 190.792 137.347 190.621 137.569 190.399C137.791 190.176 137.893 189.93 138.034 189.691C138.176 189.453 138.39 189.267 138.491 189.02L138.558 188.919L138.567 188.883L173.327 108.31L191.165 107.819C194.055 107.702 196.299 105.557 196.204 102.99ZM37.8396 163.705L36.1906 115.005L52.2642 116.411L48.2773 165.793L37.8309 163.742L37.8396 163.705ZM58.4513 167.752L62.5408 117.25L78.6634 118.628L68.9782 169.819L58.4513 167.752ZM89.5898 173.866L79.063 171.799L88.9313 119.503L105.054 120.881L89.5898 173.866ZM110.202 177.913L99.7551 175.862L115.563 121.804L131.605 123.166L110.202 177.913ZM130.411 181.881L120.367 179.909L142.194 124.104L153.203 125.049L130.411 181.881Z"/><path fill="#A4C1F5" d="M195.59 105.532C195.495 102.965 193.123 100.94 190.281 101.028L169.014 101.607C166.94 101.656 165.094 102.853 164.342 104.569L158.232 118.696L30.7422 107.774C30.6531 107.795 30.564 107.815 30.4347 107.828C30.3141 107.804 30.1936 107.78 30.073 107.757C29.7742 107.774 29.498 107.872 29.2306 107.934C28.923 107.987 28.6155 108.041 28.3393 108.139C27.925 108.286 27.5823 108.485 27.2308 108.72C27.0349 108.834 26.8165 108.867 26.6608 108.988C26.6119 109.017 26.6031 109.053 26.5855 109.126C26.2165 109.434 25.9906 109.846 25.7245 110.25C25.6492 110.387 25.4936 110.509 25.4584 110.654C25.2288 111.255 25.0796 111.873 25.091 112.521L27.016 170.176L27.671 189.396C27.6359 189.542 27.7301 189.674 27.7439 189.791C27.7716 190.025 27.8395 190.266 27.8759 190.464C27.9576 190.822 28.1372 191.123 28.2767 191.417C28.3935 191.63 28.5191 191.807 28.6447 191.984C28.8645 192.293 29.142 192.538 29.4597 192.79C29.643 192.902 29.7686 193.079 29.9206 193.147C30.4392 193.439 31.0067 193.702 31.6496 193.829L137.641 214.639C140.413 215.184 143.155 213.592 143.77 211.051C144.376 208.545 142.626 206.034 139.854 205.49L37.7996 185.452L37.5123 175.85L131.972 194.396C132.575 194.515 133.204 194.524 133.811 194.453C134.069 194.428 134.265 194.314 134.492 194.244C134.849 194.162 135.197 194.117 135.531 193.954C135.767 193.848 135.94 193.654 136.185 193.512C136.438 193.333 136.732 193.163 136.954 192.94C137.176 192.718 137.278 192.471 137.42 192.233C137.562 191.995 137.775 191.808 137.877 191.562L137.943 191.461L137.952 191.425L172.713 110.852L190.55 110.361C193.44 110.244 195.684 108.098 195.59 105.532ZM37.225 166.247L35.5759 117.547L51.6495 118.953L47.6626 168.335L37.2162 166.283L37.225 166.247ZM57.8366 170.294L61.9261 119.792L78.0487 121.17L68.3635 172.361L57.8366 170.294ZM88.9752 176.408L78.4483 174.341L88.3166 122.045L104.439 123.423L88.9752 176.408ZM109.587 180.455L99.1404 178.404L114.948 124.345L130.99 125.708L109.587 180.455ZM129.797 184.423L119.752 182.451L141.58 126.646L152.588 127.59L129.797 184.423Z"/><path fill="url(#paint2_linear)" d="M206.129 115.207L165.702 113.393C164.662 113.341 163.847 112.534 163.906 111.595L164.632 98.8447C164.691 97.9054 165.585 97.1681 166.624 97.2201L207.051 99.0346C208.091 99.0865 208.906 99.8931 208.847 100.832L208.121 113.583C208.053 114.558 207.168 115.259 206.129 115.207Z"/><defs><radialGradient id="paint0_radial" cx="0" cy="0" r="1" gradientTransform="translate(46.9885 198.796) rotate(11.1084) scale(7.23818 88.7579)" gradientUnits="userSpaceOnUse"><stop stop-color="#fff"/><stop offset="1" stop-color="#F4EFED"/></radialGradient><radialGradient id="paint1_radial" cx="0" cy="0" r="1" gradientTransform="translate(124.571 214.029) rotate(11.1084) scale(7.23821 88.7583)" gradientUnits="userSpaceOnUse"><stop stop-color="#fff"/><stop offset="1" stop-color="#F4EFED"/></radialGradient><linearGradient id="paint2_linear" x1="186.669" x2="186.565" y1="100.833" y2="103.16" gradientUnits="userSpaceOnUse"><stop stop-color="#FFD584"/><stop offset=".339" stop-color="#FFA412"/><stop offset=".703" stop-color="#FFD584"/><stop offset="1" stop-color="#FFA412"/></linearGradient></defs></svg>