<svg width="144" height="145" viewBox="0 0 144 145" fill="none" xmlns="http://www.w3.org/2000/svg">
<path d="M129.203 72.7133C129.203 104.495 103.439 130.259 71.6573 130.259C39.8759 130.259 14.112 104.495 14.112 72.7133C14.112 40.932 39.8759 15.168 71.6573 15.168C103.439 15.168 129.203 40.932 129.203 72.7133ZM25.3886 72.7133C25.3886 98.2668 46.1038 118.982 71.6573 118.982C97.2108 118.982 117.926 98.2668 117.926 72.7133C117.926 47.1599 97.2108 26.4447 71.6573 26.4447C46.1038 26.4447 25.3886 47.1599 25.3886 72.7133Z" fill="#A1ADCE" stroke="#6C80B3" stroke-width="0.0580311"/>
<path fill-rule="evenodd" clip-rule="evenodd" d="M11.0154 60.9389C15.1879 62.5166 19.7087 63.3796 24.4302 63.3796C45.4683 63.3796 62.5231 46.2438 62.5231 25.1056C62.5231 20.3812 61.6712 15.8567 60.1133 11.6788C35.1915 16.3437 15.568 36.0159 11.0154 60.9389ZM10.8684 82.2758C15.0816 80.6626 19.6531 79.7792 24.43 79.7792C45.4681 79.7792 62.5229 96.9151 62.5229 118.053C62.5229 123.093 61.5534 127.905 59.7916 132.312C34.7448 127.485 15.112 107.487 10.8684 82.2758ZM81.6805 132.592C79.8502 128.112 78.841 123.205 78.841 118.062C78.841 96.9189 95.8957 79.7792 116.934 79.7792C122.306 79.7792 127.419 80.8969 132.054 82.9135C127.496 108.343 107.256 128.346 81.6805 132.592ZM131.9 60.3137C127.306 62.288 122.247 63.3809 116.933 63.3809C95.8954 63.3809 78.8406 46.245 78.8406 25.1068C78.8406 20.2792 79.7302 15.6603 81.3536 11.4066C106.806 15.4915 127.036 35.1693 131.9 60.3137Z" fill="#B1C1EA"/>
<path fill-rule="evenodd" clip-rule="evenodd" d="M0.174454 58.9058C5.12842 60.7821 10.496 61.8085 16.1018 61.8085C41.0802 61.8085 61.3293 41.4298 61.3293 16.2914C61.3293 10.673 60.3178 5.29228 58.4681 0.323743C28.8786 5.8714 5.57977 29.2664 0.174454 58.9058ZM0 84.2805C5.00223 82.3621 10.43 81.3115 16.1015 81.3115C41.08 81.3115 61.329 101.69 61.329 126.829C61.329 132.822 60.178 138.545 58.0862 143.786C28.3483 138.045 5.03838 114.262 0 84.2805ZM84.0748 144.119C81.9017 138.79 80.7034 132.955 80.7034 126.839C80.7034 101.695 100.952 81.3115 125.931 81.3115C132.309 81.3115 138.38 82.6406 143.883 85.0389C138.471 115.281 114.441 139.069 84.0748 144.119ZM143.7 58.1623C138.245 60.5102 132.239 61.81 125.93 61.81C100.952 61.81 80.7029 41.4313 80.7029 16.2929C80.7029 10.5516 81.7591 5.05866 83.6866 0C113.906 4.85797 137.925 28.2596 143.7 58.1623Z" fill="#6C80B3"/>
<path fill-rule="evenodd" clip-rule="evenodd" d="M0.174454 58.9058C5.12842 60.7821 10.496 61.8085 16.1018 61.8085C41.0802 61.8085 61.3293 41.4298 61.3293 16.2914C61.3293 10.673 60.3178 5.29228 58.4681 0.323743C28.8786 5.8714 5.57977 29.2664 0.174454 58.9058ZM0 84.2805C5.00223 82.3621 10.43 81.3115 16.1015 81.3115C41.08 81.3115 61.329 101.69 61.329 126.829C61.329 132.822 60.178 138.545 58.0862 143.786C28.3483 138.045 5.03838 114.262 0 84.2805ZM84.0748 144.119C81.9017 138.79 80.7034 132.955 80.7034 126.839C80.7034 101.695 100.952 81.3115 125.931 81.3115C132.309 81.3115 138.38 82.6406 143.883 85.0389C138.471 115.281 114.441 139.069 84.0748 144.119ZM143.7 58.1623C138.245 60.5102 132.239 61.81 125.93 61.81C100.952 61.81 80.7029 41.4313 80.7029 16.2929C80.7029 10.5516 81.7591 5.05866 83.6866 0C113.906 4.85797 137.925 28.2596 143.7 58.1623Z" fill="#6C80B3"/>
</svg>
