<svg width="37" height="36" viewBox="0 0 37 36" fill="none" xmlns="http://www.w3.org/2000/svg">
<path d="M32.6944 18.1633C32.6944 26.0901 26.2685 32.5161 18.3417 32.5161C10.4149 32.5161 3.98902 26.0901 3.98902 18.1633C3.98902 10.2366 10.4149 3.81063 18.3417 3.81063C26.2685 3.81063 32.6944 10.2366 32.6944 18.1633ZM6.76232 18.1633C6.76232 24.5585 11.9466 29.7428 18.3417 29.7428C24.7369 29.7428 29.9212 24.5585 29.9212 18.1633C29.9212 11.7682 24.7369 6.58393 18.3417 6.58393C11.9466 6.58393 6.76232 11.7682 6.76232 18.1633Z" fill="#A1ADCE" stroke="#2C4790" stroke-width="0.0580311"/>
<path fill-rule="evenodd" clip-rule="evenodd" d="M3.19371 15.2222C4.23597 15.6163 5.36525 15.8319 6.54465 15.8319C11.7999 15.8319 16.06 11.5514 16.06 6.27123C16.06 5.09111 15.8472 3.96092 15.4581 2.9173C9.23275 4.08256 4.33093 8.99657 3.19371 15.2222ZM3.157 20.552C4.20942 20.1491 5.35136 19.9284 6.54459 19.9284C11.7998 19.9284 16.06 24.2088 16.06 29.489C16.06 30.7479 15.8178 31.95 15.3777 33.0508C9.12118 31.8451 4.21703 26.8496 3.157 20.552ZM20.8455 33.1207C20.3882 32.0016 20.1361 30.776 20.1361 29.4912C20.1361 24.2098 24.3963 19.9284 29.6515 19.9284C30.9935 19.9284 32.2706 20.2076 33.4284 20.7113C32.2899 27.0635 27.2341 32.06 20.8455 33.1207ZM33.39 15.066C32.2424 15.5592 30.9786 15.8322 29.6514 15.8322C24.3962 15.8322 20.1361 11.5518 20.1361 6.27155C20.1361 5.06563 20.3583 3.91185 20.7638 2.8493C27.1216 3.8697 32.1749 8.78511 33.39 15.066Z" fill="#B0DBFC"/>
<path fill-rule="evenodd" clip-rule="evenodd" d="M0.485744 14.7143C1.72321 15.183 3.064 15.4394 4.4643 15.4394C10.7038 15.4394 15.7619 10.3489 15.7619 4.06949C15.7619 2.66604 15.5092 1.32198 15.0472 0.080869C7.65587 1.46664 1.83596 7.31057 0.485744 14.7143ZM0.442165 21.0528C1.69169 20.5736 3.04751 20.3111 4.46423 20.3111C10.7037 20.3111 15.7618 25.4016 15.7618 31.681C15.7618 33.1782 15.4743 34.6077 14.9518 35.9168C7.52341 34.4829 1.70072 28.5421 0.442165 21.0528ZM21.4436 36C20.9007 34.669 20.6014 33.2115 20.6014 31.6836C20.6014 25.4028 25.6595 20.3111 31.899 20.3111C33.4923 20.3111 35.0086 20.6432 36.3833 21.2422C35.0315 28.7965 29.0288 34.7386 21.4436 36ZM36.3377 14.5286C34.9751 15.1151 33.4746 15.4398 31.8989 15.4398C25.6594 15.4398 20.6013 10.3493 20.6013 4.06987C20.6013 2.63574 20.8651 1.26362 21.3466 0C28.8952 1.21349 34.895 7.0591 36.3377 14.5286Z" fill="#2C4790"/>
<path fill-rule="evenodd" clip-rule="evenodd" d="M0.485744 14.7143C1.72321 15.183 3.064 15.4394 4.4643 15.4394C10.7038 15.4394 15.7619 10.3489 15.7619 4.06949C15.7619 2.66604 15.5092 1.32198 15.0472 0.080869C7.65587 1.46664 1.83596 7.31057 0.485744 14.7143ZM0.442165 21.0528C1.69169 20.5736 3.04751 20.3111 4.46423 20.3111C10.7037 20.3111 15.7618 25.4016 15.7618 31.681C15.7618 33.1782 15.4743 34.6077 14.9518 35.9168C7.52341 34.4829 1.70072 28.5421 0.442165 21.0528ZM21.4436 36C20.9007 34.669 20.6014 33.2115 20.6014 31.6836C20.6014 25.4028 25.6595 20.3111 31.899 20.3111C33.4923 20.3111 35.0086 20.6432 36.3833 21.2422C35.0315 28.7965 29.0288 34.7386 21.4436 36ZM36.3377 14.5286C34.9751 15.1151 33.4746 15.4398 31.8989 15.4398C25.6594 15.4398 20.6013 10.3493 20.6013 4.06987C20.6013 2.63574 20.8651 1.26362 21.3466 0C28.8952 1.21349 34.895 7.0591 36.3377 14.5286Z" fill="#2C4790"/>
</svg>
