<svg xmlns="http://www.w3.org/2000/svg" width="32" height="32" fill="none" viewBox="0 0 32 32"><path d="M16.0001 2.66669C13.363 2.66669 10.7851 3.44867 8.59248 4.91376C6.39983 6.37884 4.69086 8.46123 3.68169 10.8976C2.67253 13.3339 2.40848 16.0148 2.92295 18.6012C3.43742 21.1876 4.7073 23.5634 6.572 25.4281C8.4367 27.2928 10.8125 28.5627 13.3989 29.0772C15.9853 29.5916 18.6662 29.3276 21.1025 28.3184C23.5389 27.3092 25.6213 25.6003 27.0863 23.4076C28.5514 21.215 29.3334 18.6371 29.3334 16C29.3334 14.2491 28.9885 12.5152 28.3185 10.8976C27.6484 9.2799 26.6663 7.81004 25.4282 6.57193C24.1901 5.33382 22.7202 4.35169 21.1025 3.68163C19.4849 3.01156 17.751 2.66669 16.0001 2.66669ZM16.0001 26.6667C13.8904 26.6667 11.8281 26.0411 10.074 24.869C8.31988 23.697 6.95271 22.0311 6.14537 20.082C5.33804 18.1329 5.1268 15.9882 5.53838 13.9191C5.94995 11.8499 6.96586 9.94931 8.45761 8.45755C9.94938 6.96579 11.85 5.94989 13.9191 5.53831C15.9883 5.12674 18.133 5.33797 20.082 6.14531C22.0311 6.95264 23.697 8.31981 24.8691 10.0739C26.0412 11.8281 26.6668 13.8904 26.6668 16C26.6668 18.829 25.5429 21.5421 23.5426 23.5425C21.5422 25.5429 18.8291 26.6667 16.0001 26.6667Z"/><path d="M19.6133 12.3866C19.4893 12.2617 19.3418 12.1625 19.1794 12.0948C19.0169 12.0271 18.8426 11.9922 18.6666 11.9922C18.4906 11.9922 18.3163 12.0271 18.1538 12.0948C17.9913 12.1625 17.8439 12.2617 17.7199 12.3866L15.9999 14.12L14.2799 12.3866C14.0288 12.1356 13.6883 11.9945 13.3333 11.9945C12.9782 11.9945 12.6377 12.1356 12.3866 12.3866C12.1355 12.6377 11.9945 12.9782 11.9945 13.3333C11.9945 13.6884 12.1355 14.0289 12.3866 14.28L14.1199 16L12.3866 17.72C12.2616 17.8439 12.1624 17.9914 12.0947 18.1539C12.027 18.3164 11.9922 18.4906 11.9922 18.6666C11.9922 18.8427 12.027 19.0169 12.0947 19.1794C12.1624 19.3419 12.2616 19.4894 12.3866 19.6133C12.5105 19.7383 12.658 19.8375 12.8205 19.9052C12.983 19.9729 13.1572 20.0077 13.3333 20.0077C13.5093 20.0077 13.6835 19.9729 13.846 19.9052C14.0085 19.8375 14.156 19.7383 14.2799 19.6133L15.9999 17.88L17.7199 19.6133C17.8439 19.7383 17.9913 19.8375 18.1538 19.9052C18.3163 19.9729 18.4906 20.0077 18.6666 20.0077C18.8426 20.0077 19.0169 19.9729 19.1794 19.9052C19.3418 19.8375 19.4893 19.7383 19.6133 19.6133C19.7382 19.4894 19.8374 19.3419 19.9051 19.1794C19.9728 19.0169 20.0077 18.8427 20.0077 18.6666C20.0077 18.4906 19.9728 18.3164 19.9051 18.1539C19.8374 17.9914 19.7382 17.8439 19.6133 17.72L17.8799 16L19.6133 14.28C19.7382 14.156 19.8374 14.0086 19.9051 13.8461C19.9728 13.6836 20.0077 13.5093 20.0077 13.3333C20.0077 13.1573 19.9728 12.983 19.9051 12.8205C19.8374 12.6581 19.7382 12.5106 19.6133 12.3866Z"/></svg>